G04*
G04 #@! TF.GenerationSoftware,Altium Limited,Altium Designer,21.6.4 (81)*
G04*
G04 Layer_Physical_Order=2*
G04 Layer_Color=36540*
%FSLAX25Y25*%
%MOIN*%
G70*
G04*
G04 #@! TF.SameCoordinates,467C343A-BF68-42E8-BDDD-2ABA41F160E8*
G04*
G04*
G04 #@! TF.FilePolarity,Positive*
G04*
G01*
G75*
%ADD68C,0.06693*%
%ADD69R,0.05906X0.05906*%
%ADD74C,0.02559*%
%ADD75C,0.02756*%
%ADD76C,0.02362*%
G36*
X382471Y298406D02*
X366083D01*
Y281594D01*
X382471D01*
Y274500D01*
X323500D01*
Y165000D01*
X149500D01*
Y159642D01*
X149000Y159576D01*
X148980Y159649D01*
X148418Y160623D01*
X147623Y161418D01*
X146649Y161980D01*
X145562Y162271D01*
X144438D01*
X143351Y161980D01*
X142377Y161418D01*
X141582Y160623D01*
X141020Y159649D01*
X140728Y158562D01*
Y157438D01*
X141020Y156351D01*
X141582Y155377D01*
X142377Y154582D01*
X143351Y154020D01*
X144438Y153728D01*
X145562D01*
X146649Y154020D01*
X147623Y154582D01*
X148418Y155377D01*
X148980Y156351D01*
X149000Y156424D01*
X149500Y156359D01*
Y155000D01*
X150935Y152652D01*
X150635Y152252D01*
X150562Y152271D01*
X149438D01*
X148351Y151980D01*
X147377Y151418D01*
X146582Y150623D01*
X146020Y149649D01*
X145729Y148562D01*
Y147438D01*
X146020Y146351D01*
X146582Y145377D01*
X147377Y144582D01*
X148351Y144020D01*
X149438Y143728D01*
X150562D01*
X151649Y144020D01*
X152623Y144582D01*
X153418Y145377D01*
X153980Y146351D01*
X154062Y146654D01*
X154557Y146726D01*
X155000Y146000D01*
Y101529D01*
X79529D01*
Y144621D01*
X80029Y144755D01*
X80397Y144119D01*
X81119Y143397D01*
X82003Y142886D01*
X82990Y142622D01*
X84010D01*
X84997Y142886D01*
X85881Y143397D01*
X86603Y144119D01*
X87114Y145003D01*
X87378Y145990D01*
Y147011D01*
X87114Y147997D01*
X86603Y148881D01*
X85881Y149603D01*
X84997Y150114D01*
X84010Y150378D01*
X82990D01*
X82003Y150114D01*
X81119Y149603D01*
X80397Y148881D01*
X80029Y148245D01*
X79529Y148379D01*
Y384971D01*
X142540D01*
X142747Y384471D01*
X142568Y384291D01*
X142240Y383500D01*
X146760D01*
X146432Y384291D01*
X146253Y384471D01*
X146460Y384971D01*
X216540D01*
X216747Y384471D01*
X216567Y384291D01*
X216240Y383500D01*
X220760D01*
X220432Y384291D01*
X220253Y384471D01*
X220460Y384971D01*
X382471D01*
Y298406D01*
D02*
G37*
%LPC*%
G36*
X146760Y382500D02*
X145000D01*
Y380740D01*
X145791Y381067D01*
X146432Y381709D01*
X146760Y382500D01*
D02*
G37*
G36*
X144000D02*
X142240D01*
X142568Y381709D01*
X143209Y381067D01*
X144000Y380740D01*
Y382500D01*
D02*
G37*
G36*
X340485Y380181D02*
X339515D01*
X338579Y379930D01*
X337740Y379446D01*
X337054Y378760D01*
X336570Y377921D01*
X336319Y376985D01*
Y376015D01*
X336570Y375079D01*
X337054Y374240D01*
X337740Y373554D01*
X338579Y373070D01*
X339515Y372819D01*
X340485D01*
X341421Y373070D01*
X342260Y373554D01*
X342946Y374240D01*
X343430Y375079D01*
X343681Y376015D01*
Y376985D01*
X343430Y377921D01*
X342946Y378760D01*
X342260Y379446D01*
X341421Y379930D01*
X340485Y380181D01*
D02*
G37*
G36*
X289485Y379681D02*
X288515D01*
X287579Y379430D01*
X286740Y378946D01*
X286054Y378260D01*
X285570Y377421D01*
X285319Y376485D01*
Y375515D01*
X285570Y374579D01*
X286054Y373740D01*
X286740Y373054D01*
X287579Y372570D01*
X288515Y372319D01*
X289485D01*
X290421Y372570D01*
X291260Y373054D01*
X291946Y373740D01*
X292430Y374579D01*
X292681Y375515D01*
Y376485D01*
X292430Y377421D01*
X291946Y378260D01*
X291260Y378946D01*
X290421Y379430D01*
X289485Y379681D01*
D02*
G37*
G36*
X278485D02*
X277515D01*
X276579Y379430D01*
X275740Y378946D01*
X275054Y378260D01*
X274570Y377421D01*
X274319Y376485D01*
Y375515D01*
X274570Y374579D01*
X275054Y373740D01*
X275740Y373054D01*
X276579Y372570D01*
X277515Y372319D01*
X278485D01*
X279421Y372570D01*
X280260Y373054D01*
X280946Y373740D01*
X281430Y374579D01*
X281681Y375515D01*
Y376485D01*
X281430Y377421D01*
X280946Y378260D01*
X280260Y378946D01*
X279421Y379430D01*
X278485Y379681D01*
D02*
G37*
G36*
X220760Y382500D02*
X216240D01*
X216554Y381741D01*
X216179Y381524D01*
X215476Y380821D01*
X214978Y379959D01*
X214721Y378998D01*
Y378002D01*
X214978Y377041D01*
X215290Y376500D01*
X214978Y375959D01*
X214721Y374998D01*
Y374002D01*
X214978Y373041D01*
X215476Y372179D01*
X216179Y371476D01*
X217041Y370978D01*
X218002Y370721D01*
X218998D01*
X219959Y370978D01*
X220821Y371476D01*
X221524Y372179D01*
X222022Y373041D01*
X222280Y374002D01*
Y374998D01*
X222022Y375959D01*
X221709Y376500D01*
X222022Y377041D01*
X222280Y378002D01*
Y378998D01*
X222022Y379959D01*
X221524Y380821D01*
X220821Y381524D01*
X220446Y381741D01*
X220760Y382500D01*
D02*
G37*
G36*
X322500Y370260D02*
Y368500D01*
X324260D01*
X323933Y369291D01*
X323291Y369933D01*
X322500Y370260D01*
D02*
G37*
G36*
X321500D02*
X320709Y369933D01*
X320068Y369291D01*
X319740Y368500D01*
X321500D01*
Y370260D01*
D02*
G37*
G36*
X324260Y367500D02*
X322500D01*
Y365740D01*
X323291Y366068D01*
X323933Y366709D01*
X324260Y367500D01*
D02*
G37*
G36*
X321500D02*
X319740D01*
X320068Y366709D01*
X320709Y366068D01*
X321500Y365740D01*
Y367500D01*
D02*
G37*
G36*
X299010Y373378D02*
X297990D01*
X297003Y373114D01*
X296119Y372603D01*
X295397Y371881D01*
X294886Y370997D01*
X294622Y370010D01*
Y368989D01*
X294886Y368003D01*
X295397Y367119D01*
X296119Y366397D01*
X297003Y365886D01*
X297990Y365622D01*
X299010D01*
X299997Y365886D01*
X300881Y366397D01*
X301603Y367119D01*
X302114Y368003D01*
X302378Y368989D01*
Y370010D01*
X302114Y370997D01*
X301603Y371881D01*
X300881Y372603D01*
X299997Y373114D01*
X299010Y373378D01*
D02*
G37*
G36*
X263011D02*
X261989D01*
X261003Y373114D01*
X260119Y372603D01*
X259397Y371881D01*
X258886Y370997D01*
X258622Y370010D01*
Y368989D01*
X258886Y368003D01*
X259397Y367119D01*
X260119Y366397D01*
X261003Y365886D01*
X261989Y365622D01*
X263011D01*
X263997Y365886D01*
X264881Y366397D01*
X265603Y367119D01*
X266114Y368003D01*
X266378Y368989D01*
Y370010D01*
X266114Y370997D01*
X265603Y371881D01*
X264881Y372603D01*
X263997Y373114D01*
X263011Y373378D01*
D02*
G37*
G36*
X371394Y384358D02*
X369606D01*
X367840Y384079D01*
X366140Y383526D01*
X364547Y382715D01*
X363101Y381664D01*
X361836Y380399D01*
X360786Y378953D01*
X359974Y377360D01*
X359421Y375660D01*
X359142Y373894D01*
Y372106D01*
X359421Y370340D01*
X359974Y368640D01*
X360786Y367047D01*
X361836Y365601D01*
X363101Y364336D01*
X364547Y363285D01*
X366140Y362474D01*
X367840Y361921D01*
X369606Y361642D01*
X371394D01*
X373160Y361921D01*
X374860Y362474D01*
X376453Y363285D01*
X377899Y364336D01*
X379164Y365601D01*
X380215Y367047D01*
X381026Y368640D01*
X381579Y370340D01*
X381858Y372106D01*
Y373894D01*
X381579Y375660D01*
X381026Y377360D01*
X380215Y378953D01*
X379164Y380399D01*
X377899Y381664D01*
X376453Y382715D01*
X374860Y383526D01*
X373160Y384079D01*
X371394Y384358D01*
D02*
G37*
G36*
X92394D02*
X90606D01*
X88840Y384079D01*
X87140Y383526D01*
X85547Y382715D01*
X84101Y381664D01*
X82836Y380399D01*
X81786Y378953D01*
X80974Y377360D01*
X80421Y375660D01*
X80142Y373894D01*
Y372106D01*
X80421Y370340D01*
X80974Y368640D01*
X81786Y367047D01*
X82836Y365601D01*
X84101Y364336D01*
X85547Y363285D01*
X87140Y362474D01*
X88840Y361921D01*
X90606Y361642D01*
X92394D01*
X94160Y361921D01*
X95860Y362474D01*
X97453Y363285D01*
X98899Y364336D01*
X100164Y365601D01*
X101215Y367047D01*
X102026Y368640D01*
X102579Y370340D01*
X102858Y372106D01*
Y373894D01*
X102579Y375660D01*
X102026Y377360D01*
X101215Y378953D01*
X100164Y380399D01*
X98899Y381664D01*
X97453Y382715D01*
X95860Y383526D01*
X94160Y384079D01*
X92394Y384358D01*
D02*
G37*
G36*
X132000Y363260D02*
Y361500D01*
X133760D01*
X133432Y362291D01*
X132791Y362932D01*
X132000Y363260D01*
D02*
G37*
G36*
X131000D02*
X130209Y362932D01*
X129568Y362291D01*
X129240Y361500D01*
X131000D01*
Y363260D01*
D02*
G37*
G36*
X133760Y360500D02*
X132000D01*
Y358740D01*
X132791Y359068D01*
X133432Y359709D01*
X133760Y360500D01*
D02*
G37*
G36*
X131000D02*
X129240D01*
X129568Y359709D01*
X130209Y359068D01*
X131000Y358740D01*
Y360500D01*
D02*
G37*
G36*
X340485Y365181D02*
X339515D01*
X338579Y364930D01*
X337740Y364446D01*
X337054Y363760D01*
X336570Y362921D01*
X336319Y361985D01*
Y361015D01*
X336570Y360079D01*
X337054Y359240D01*
X337740Y358554D01*
X338579Y358070D01*
X339515Y357819D01*
X340485D01*
X341421Y358070D01*
X342260Y358554D01*
X342946Y359240D01*
X343430Y360079D01*
X343681Y361015D01*
Y361985D01*
X343430Y362921D01*
X342946Y363760D01*
X342260Y364446D01*
X341421Y364930D01*
X340485Y365181D01*
D02*
G37*
G36*
X312471Y359396D02*
Y357529D01*
X314337D01*
X313986Y358377D01*
X313317Y359046D01*
X312471Y359396D01*
D02*
G37*
G36*
X311471D02*
X310624Y359046D01*
X309955Y358377D01*
X309604Y357529D01*
X311471D01*
Y359396D01*
D02*
G37*
G36*
X314337Y356529D02*
X312471D01*
Y354663D01*
X313317Y355014D01*
X313986Y355682D01*
X314337Y356529D01*
D02*
G37*
G36*
X311471D02*
X309604D01*
X309955Y355682D01*
X310624Y355014D01*
X311471Y354663D01*
Y356529D01*
D02*
G37*
G36*
X338970Y356396D02*
Y354530D01*
X340837D01*
X340486Y355377D01*
X339818Y356046D01*
X338970Y356396D01*
D02*
G37*
G36*
X337970D02*
X337123Y356046D01*
X336455Y355377D01*
X336104Y354530D01*
X337970D01*
Y356396D01*
D02*
G37*
G36*
X362500Y355867D02*
Y354000D01*
X364367D01*
X364016Y354847D01*
X363347Y355516D01*
X362500Y355867D01*
D02*
G37*
G36*
X361500D02*
X360653Y355516D01*
X359984Y354847D01*
X359633Y354000D01*
X361500D01*
Y355867D01*
D02*
G37*
G36*
X340837Y353530D02*
X338970D01*
Y351663D01*
X339818Y352014D01*
X340486Y352682D01*
X340837Y353530D01*
D02*
G37*
G36*
X337970D02*
X336104D01*
X336455Y352682D01*
X337123Y352014D01*
X337970Y351663D01*
Y353530D01*
D02*
G37*
G36*
X364367Y353000D02*
X362500D01*
Y351133D01*
X363347Y351484D01*
X364016Y352153D01*
X364367Y353000D01*
D02*
G37*
G36*
X361500D02*
X359633D01*
X359984Y352153D01*
X360653Y351484D01*
X361500Y351133D01*
Y353000D01*
D02*
G37*
G36*
X269010Y358878D02*
X267989D01*
X267003Y358614D01*
X266119Y358103D01*
X265397Y357381D01*
X264886Y356497D01*
X264622Y355510D01*
Y354489D01*
X264886Y353503D01*
X265397Y352619D01*
X266119Y351897D01*
X267003Y351386D01*
X267989Y351122D01*
X269010D01*
X269997Y351386D01*
X270881Y351897D01*
X271603Y352619D01*
X272114Y353503D01*
X272378Y354489D01*
Y355510D01*
X272114Y356497D01*
X271603Y357381D01*
X270881Y358103D01*
X269997Y358614D01*
X269010Y358878D01*
D02*
G37*
G36*
X163000Y350367D02*
Y348500D01*
X164867D01*
X164516Y349347D01*
X163847Y350016D01*
X163000Y350367D01*
D02*
G37*
G36*
X162000D02*
X161153Y350016D01*
X160484Y349347D01*
X160133Y348500D01*
X162000D01*
Y350367D01*
D02*
G37*
G36*
X164867Y347500D02*
X163000D01*
Y345633D01*
X163847Y345984D01*
X164516Y346653D01*
X164867Y347500D01*
D02*
G37*
G36*
X162000D02*
X160133D01*
X160484Y346653D01*
X161153Y345984D01*
X162000Y345633D01*
Y347500D01*
D02*
G37*
G36*
X219000Y345867D02*
Y344000D01*
X220867D01*
X220516Y344847D01*
X219847Y345516D01*
X219000Y345867D01*
D02*
G37*
G36*
X218000D02*
X217153Y345516D01*
X216484Y344847D01*
X216133Y344000D01*
X218000D01*
Y345867D01*
D02*
G37*
G36*
X355498Y348780D02*
X354502D01*
X353541Y348522D01*
X352679Y348024D01*
X351976Y347321D01*
X351478Y346459D01*
X351220Y345498D01*
Y344502D01*
X351478Y343541D01*
X351976Y342679D01*
X352679Y341976D01*
X353541Y341478D01*
X354502Y341220D01*
X355498D01*
X356459Y341478D01*
X357321Y341976D01*
X358024Y342679D01*
X358522Y343541D01*
X358780Y344502D01*
Y345498D01*
X358522Y346459D01*
X358024Y347321D01*
X357321Y348024D01*
X356459Y348522D01*
X355498Y348780D01*
D02*
G37*
G36*
X220867Y343000D02*
X219000D01*
Y341133D01*
X219847Y341484D01*
X220516Y342153D01*
X220867Y343000D01*
D02*
G37*
G36*
X218000D02*
X216133D01*
X216484Y342153D01*
X217153Y341484D01*
X218000Y341133D01*
Y343000D01*
D02*
G37*
G36*
X362500Y332778D02*
Y330911D01*
X364367D01*
X364016Y331758D01*
X363347Y332427D01*
X362500Y332778D01*
D02*
G37*
G36*
X361500D02*
X360653Y332427D01*
X359984Y331758D01*
X359633Y330911D01*
X361500D01*
Y332778D01*
D02*
G37*
G36*
X338481Y337407D02*
X337460D01*
X336474Y337143D01*
X335589Y336633D01*
X334867Y335911D01*
X334357Y335026D01*
X334092Y334040D01*
Y333019D01*
X334357Y332033D01*
X334867Y331148D01*
X335589Y330426D01*
X336474Y329916D01*
X337460Y329652D01*
X338481D01*
X339467Y329916D01*
X340352Y330426D01*
X341074Y331148D01*
X341584Y332033D01*
X341848Y333019D01*
Y334040D01*
X341584Y335026D01*
X341074Y335911D01*
X340352Y336633D01*
X339467Y337143D01*
X338481Y337407D01*
D02*
G37*
G36*
X134011Y339378D02*
X132990D01*
X132003Y339114D01*
X131119Y338603D01*
X130397Y337881D01*
X129886Y336997D01*
X129622Y336011D01*
Y334990D01*
X129886Y334003D01*
X130397Y333119D01*
X131119Y332397D01*
X132003Y331886D01*
X132733Y331691D01*
X132767Y331164D01*
X132209Y330932D01*
X131568Y330291D01*
X131240Y329500D01*
X135760D01*
X135433Y330291D01*
X134791Y330932D01*
X134233Y331164D01*
X134267Y331691D01*
X134997Y331886D01*
X135881Y332397D01*
X136603Y333119D01*
X137114Y334003D01*
X137378Y334990D01*
Y336011D01*
X137114Y336997D01*
X136603Y337881D01*
X135881Y338603D01*
X134997Y339114D01*
X134011Y339378D01*
D02*
G37*
G36*
X364367Y329911D02*
X362500D01*
Y328045D01*
X363347Y328396D01*
X364016Y329064D01*
X364367Y329911D01*
D02*
G37*
G36*
X361500D02*
X359633D01*
X359984Y329064D01*
X360653Y328396D01*
X361500Y328045D01*
Y329911D01*
D02*
G37*
G36*
X89718Y357953D02*
X88282D01*
X86895Y357581D01*
X85652Y356863D01*
X84637Y355848D01*
X83919Y354605D01*
X83547Y353218D01*
Y351782D01*
X83919Y350395D01*
X84637Y349152D01*
X85652Y348137D01*
X86322Y347750D01*
Y347250D01*
X85652Y346863D01*
X84637Y345848D01*
X83919Y344605D01*
X83547Y343218D01*
Y341782D01*
X83919Y340395D01*
X84637Y339152D01*
X85652Y338137D01*
X86322Y337750D01*
Y337250D01*
X85652Y336863D01*
X84637Y335848D01*
X83919Y334605D01*
X83547Y333218D01*
Y331782D01*
X83919Y330395D01*
X84637Y329152D01*
X85652Y328137D01*
X86895Y327419D01*
X88282Y327047D01*
X89718D01*
X91105Y327419D01*
X92348Y328137D01*
X93363Y329152D01*
X94081Y330395D01*
X94453Y331782D01*
Y333218D01*
X94081Y334605D01*
X93363Y335848D01*
X92348Y336863D01*
X91678Y337250D01*
Y337750D01*
X92348Y338137D01*
X93363Y339152D01*
X94081Y340395D01*
X94453Y341782D01*
Y343218D01*
X94081Y344605D01*
X93363Y345848D01*
X92348Y346863D01*
X91678Y347250D01*
Y347750D01*
X92348Y348137D01*
X93363Y349152D01*
X94081Y350395D01*
X94453Y351782D01*
Y353218D01*
X94081Y354605D01*
X93363Y355848D01*
X92348Y356863D01*
X91105Y357581D01*
X89718Y357953D01*
D02*
G37*
G36*
X135760Y328500D02*
X134000D01*
Y326740D01*
X134791Y327067D01*
X135433Y327709D01*
X135760Y328500D01*
D02*
G37*
G36*
X133000D02*
X131240D01*
X131568Y327709D01*
X132209Y327067D01*
X133000Y326740D01*
Y328500D01*
D02*
G37*
G36*
X301500Y327867D02*
Y326000D01*
X303367D01*
X303016Y326847D01*
X302347Y327516D01*
X301500Y327867D01*
D02*
G37*
G36*
X300500D02*
X299653Y327516D01*
X298984Y326847D01*
X298633Y326000D01*
X300500D01*
Y327867D01*
D02*
G37*
G36*
X216498Y336280D02*
X215502D01*
X214541Y336022D01*
X213679Y335524D01*
X212976Y334821D01*
X212478Y333959D01*
X212221Y332998D01*
Y332780D01*
X211502D01*
X210541Y332522D01*
X209679Y332024D01*
X208976Y331321D01*
X208478Y330459D01*
X208221Y329498D01*
Y328502D01*
X208478Y327541D01*
X208976Y326679D01*
X209679Y325976D01*
X210541Y325478D01*
X211502Y325220D01*
X212498D01*
X213459Y325478D01*
X214321Y325976D01*
X215024Y326679D01*
X215522Y327541D01*
X215779Y328502D01*
Y328720D01*
X216498D01*
X217459Y328978D01*
X218321Y329476D01*
X219024Y330179D01*
X219522Y331041D01*
X219779Y332002D01*
Y332998D01*
X219522Y333959D01*
X219024Y334821D01*
X218321Y335524D01*
X217459Y336022D01*
X216498Y336280D01*
D02*
G37*
G36*
X176470Y326396D02*
Y324530D01*
X178337D01*
X177986Y325377D01*
X177318Y326045D01*
X176470Y326396D01*
D02*
G37*
G36*
X175470D02*
X174624Y326045D01*
X173954Y325377D01*
X173604Y324530D01*
X175470D01*
Y326396D01*
D02*
G37*
G36*
X303367Y325000D02*
X301500D01*
Y323133D01*
X302347Y323484D01*
X303016Y324153D01*
X303367Y325000D01*
D02*
G37*
G36*
X300500D02*
X298633D01*
X298984Y324153D01*
X299653Y323484D01*
X300500Y323133D01*
Y325000D01*
D02*
G37*
G36*
X92953Y326453D02*
X89500D01*
Y323000D01*
X92953D01*
Y326453D01*
D02*
G37*
G36*
X88500D02*
X85047D01*
Y323000D01*
X88500D01*
Y326453D01*
D02*
G37*
G36*
X178337Y323530D02*
X176470D01*
Y321663D01*
X177318Y322014D01*
X177986Y322682D01*
X178337Y323530D01*
D02*
G37*
G36*
X175470D02*
X173604D01*
X173954Y322682D01*
X174624Y322014D01*
X175470Y321663D01*
Y323530D01*
D02*
G37*
G36*
X92953Y322000D02*
X89500D01*
Y318547D01*
X92953D01*
Y322000D01*
D02*
G37*
G36*
X88500D02*
X85047D01*
Y318547D01*
X88500D01*
Y322000D01*
D02*
G37*
G36*
X355498Y325279D02*
X354502D01*
X353541Y325022D01*
X352679Y324524D01*
X351976Y323821D01*
X351478Y322959D01*
X351220Y321998D01*
Y321002D01*
X351478Y320041D01*
X351976Y319179D01*
X352679Y318476D01*
X353541Y317978D01*
X354502Y317721D01*
X355498D01*
X356459Y317978D01*
X357321Y318476D01*
X358024Y319179D01*
X358522Y320041D01*
X358780Y321002D01*
Y321998D01*
X358522Y322959D01*
X358024Y323821D01*
X357321Y324524D01*
X356459Y325022D01*
X355498Y325279D01*
D02*
G37*
G36*
X338510Y324378D02*
X337490D01*
X336503Y324114D01*
X335619Y323603D01*
X334897Y322881D01*
X334386Y321997D01*
X334122Y321010D01*
Y319989D01*
X334386Y319003D01*
X334897Y318119D01*
X335619Y317397D01*
X336503Y316886D01*
X337490Y316622D01*
X338510D01*
X339497Y316886D01*
X340381Y317397D01*
X341103Y318119D01*
X341614Y319003D01*
X341878Y319989D01*
Y321010D01*
X341614Y321997D01*
X341103Y322881D01*
X340381Y323603D01*
X339497Y324114D01*
X338510Y324378D01*
D02*
G37*
G36*
X188498Y309780D02*
X187502D01*
X186541Y309522D01*
X185679Y309024D01*
X185500Y308845D01*
X185321Y309024D01*
X184459Y309522D01*
X183498Y309780D01*
X182502D01*
X181541Y309522D01*
X180679Y309024D01*
X179976Y308321D01*
X179478Y307459D01*
X179220Y306498D01*
Y305502D01*
X179478Y304541D01*
X179976Y303679D01*
X180679Y302976D01*
X181541Y302478D01*
X182502Y302221D01*
X183498D01*
X184459Y302478D01*
X185321Y302976D01*
X185500Y303155D01*
X185679Y302976D01*
X186541Y302478D01*
X187502Y302221D01*
X188498D01*
X189459Y302478D01*
X190321Y302976D01*
X191024Y303679D01*
X191522Y304541D01*
X191779Y305502D01*
Y306498D01*
X191522Y307459D01*
X191024Y308321D01*
X190321Y309024D01*
X189459Y309522D01*
X188498Y309780D01*
D02*
G37*
G36*
X89718Y314953D02*
X88282D01*
X86895Y314581D01*
X85652Y313863D01*
X84637Y312848D01*
X83919Y311605D01*
X83547Y310218D01*
Y308782D01*
X83919Y307395D01*
X84637Y306152D01*
X85652Y305137D01*
X86322Y304750D01*
Y304250D01*
X85652Y303863D01*
X84637Y302848D01*
X83919Y301605D01*
X83547Y300218D01*
Y298782D01*
X83919Y297395D01*
X84637Y296152D01*
X85652Y295137D01*
X86895Y294419D01*
X88282Y294047D01*
X89718D01*
X91105Y294419D01*
X92348Y295137D01*
X93363Y296152D01*
X94081Y297395D01*
X94453Y298782D01*
Y300218D01*
X94081Y301605D01*
X93363Y302848D01*
X92348Y303863D01*
X91678Y304250D01*
Y304750D01*
X92348Y305137D01*
X93363Y306152D01*
X94081Y307395D01*
X94453Y308782D01*
Y310218D01*
X94081Y311605D01*
X93363Y312848D01*
X92348Y313863D01*
X91105Y314581D01*
X89718Y314953D01*
D02*
G37*
G36*
X136511Y299878D02*
X135489D01*
X134503Y299614D01*
X133619Y299103D01*
X132897Y298381D01*
X132386Y297497D01*
X132122Y296511D01*
Y295490D01*
X132386Y294503D01*
X132897Y293619D01*
X133619Y292897D01*
X134503Y292386D01*
X135489Y292122D01*
X136511D01*
X137497Y292386D01*
X138381Y292897D01*
X139103Y293619D01*
X139614Y294503D01*
X139878Y295490D01*
Y296511D01*
X139614Y297497D01*
X139103Y298381D01*
X138381Y299103D01*
X137497Y299614D01*
X136511Y299878D01*
D02*
G37*
G36*
X169510Y297878D02*
X168490D01*
X167503Y297614D01*
X166619Y297103D01*
X165897Y296381D01*
X165386Y295497D01*
X165122Y294511D01*
Y293490D01*
X165386Y292503D01*
X165897Y291619D01*
X166619Y290897D01*
X167503Y290386D01*
X168490Y290122D01*
X169510D01*
X170497Y290386D01*
X171381Y290897D01*
X172103Y291619D01*
X172614Y292503D01*
X172878Y293490D01*
Y294511D01*
X172614Y295497D01*
X172103Y296381D01*
X171381Y297103D01*
X170497Y297614D01*
X169510Y297878D01*
D02*
G37*
G36*
X92953Y293453D02*
X89500D01*
Y290000D01*
X92953D01*
Y293453D01*
D02*
G37*
G36*
X88500D02*
X85047D01*
Y290000D01*
X88500D01*
Y293453D01*
D02*
G37*
G36*
X92953Y289000D02*
X89500D01*
Y285547D01*
X92953D01*
Y289000D01*
D02*
G37*
G36*
X88500D02*
X85047D01*
Y285547D01*
X88500D01*
Y289000D01*
D02*
G37*
G36*
X125500Y287260D02*
Y285500D01*
X127260D01*
X126933Y286291D01*
X126291Y286932D01*
X125500Y287260D01*
D02*
G37*
G36*
X124500D02*
X123709Y286932D01*
X123067Y286291D01*
X122740Y285500D01*
X124500D01*
Y287260D01*
D02*
G37*
G36*
X127260Y284500D02*
X125500D01*
Y282740D01*
X126291Y283067D01*
X126933Y283709D01*
X127260Y284500D01*
D02*
G37*
G36*
X124500D02*
X122740D01*
X123067Y283709D01*
X123709Y283067D01*
X124500Y282740D01*
Y284500D01*
D02*
G37*
G36*
X286340Y298406D02*
X284684D01*
X283060Y298082D01*
X281530Y297449D01*
X280154Y296529D01*
X278983Y295358D01*
X278063Y293982D01*
X277429Y292452D01*
X277106Y290828D01*
Y289172D01*
X277429Y287548D01*
X278063Y286018D01*
X278983Y284642D01*
X280154Y283471D01*
X281530Y282551D01*
X283060Y281918D01*
X284684Y281594D01*
X286340D01*
X287964Y281918D01*
X289493Y282551D01*
X290870Y283471D01*
X292041Y284642D01*
X292961Y286018D01*
X293594Y287548D01*
X293917Y289172D01*
Y290828D01*
X293594Y292452D01*
X292961Y293982D01*
X292041Y295358D01*
X290870Y296529D01*
X289493Y297449D01*
X287964Y298082D01*
X286340Y298406D01*
D02*
G37*
G36*
X223625Y282369D02*
Y280609D01*
X225386D01*
X225058Y281400D01*
X224417Y282042D01*
X223625Y282369D01*
D02*
G37*
G36*
X222625D02*
X221834Y282042D01*
X221193Y281400D01*
X220865Y280609D01*
X222625D01*
Y282369D01*
D02*
G37*
G36*
X217612D02*
Y280609D01*
X219372D01*
X219045Y281400D01*
X218403Y282042D01*
X217612Y282369D01*
D02*
G37*
G36*
X216612D02*
X215821Y282042D01*
X215180Y281400D01*
X214852Y280609D01*
X216612D01*
Y282369D01*
D02*
G37*
G36*
X211599D02*
Y280609D01*
X213359D01*
X213031Y281400D01*
X212390Y282042D01*
X211599Y282369D01*
D02*
G37*
G36*
X210599D02*
X209807Y282042D01*
X209166Y281400D01*
X208839Y280609D01*
X210599D01*
Y282369D01*
D02*
G37*
G36*
X205585D02*
Y280609D01*
X207346D01*
X207018Y281400D01*
X206377Y282042D01*
X205585Y282369D01*
D02*
G37*
G36*
X204585D02*
X203794Y282042D01*
X203153Y281400D01*
X202825Y280609D01*
X204585D01*
Y282369D01*
D02*
G37*
G36*
X199572D02*
Y280609D01*
X201332D01*
X201004Y281400D01*
X200363Y282042D01*
X199572Y282369D01*
D02*
G37*
G36*
X198572D02*
X197781Y282042D01*
X197140Y281400D01*
X196812Y280609D01*
X198572D01*
Y282369D01*
D02*
G37*
G36*
X225386Y279609D02*
X223625D01*
Y277849D01*
X224417Y278177D01*
X225058Y278818D01*
X225386Y279609D01*
D02*
G37*
G36*
X222625D02*
X220865D01*
X221193Y278818D01*
X221834Y278177D01*
X222625Y277849D01*
Y279609D01*
D02*
G37*
G36*
X219372D02*
X217612D01*
Y277849D01*
X218403Y278177D01*
X219045Y278818D01*
X219372Y279609D01*
D02*
G37*
G36*
X216612D02*
X214852D01*
X215180Y278818D01*
X215821Y278177D01*
X216612Y277849D01*
Y279609D01*
D02*
G37*
G36*
X213359D02*
X211599D01*
Y277849D01*
X212390Y278177D01*
X213031Y278818D01*
X213359Y279609D01*
D02*
G37*
G36*
X210599D02*
X208839D01*
X209166Y278818D01*
X209807Y278177D01*
X210599Y277849D01*
Y279609D01*
D02*
G37*
G36*
X207346D02*
X205585D01*
Y277849D01*
X206377Y278177D01*
X207018Y278818D01*
X207346Y279609D01*
D02*
G37*
G36*
X204585D02*
X202825D01*
X203153Y278818D01*
X203794Y278177D01*
X204585Y277849D01*
Y279609D01*
D02*
G37*
G36*
X201332D02*
X199572D01*
Y277849D01*
X200363Y278177D01*
X201004Y278818D01*
X201332Y279609D01*
D02*
G37*
G36*
X198572D02*
X196812D01*
X197140Y278818D01*
X197781Y278177D01*
X198572Y277849D01*
Y279609D01*
D02*
G37*
G36*
X152500Y276260D02*
Y274500D01*
X154260D01*
X153932Y275291D01*
X153291Y275933D01*
X152500Y276260D01*
D02*
G37*
G36*
X151500D02*
X150709Y275933D01*
X150067Y275291D01*
X149740Y274500D01*
X151500D01*
Y276260D01*
D02*
G37*
G36*
X249293Y276346D02*
X249220D01*
Y272500D01*
X253067D01*
Y272572D01*
X252771Y273678D01*
X252199Y274669D01*
X251389Y275478D01*
X250398Y276050D01*
X249293Y276346D01*
D02*
G37*
G36*
X248220D02*
X248148D01*
X247043Y276050D01*
X246052Y275478D01*
X245242Y274669D01*
X244670Y273678D01*
X244374Y272572D01*
Y272500D01*
X248220D01*
Y276346D01*
D02*
G37*
G36*
X154260Y273500D02*
X152500D01*
Y271740D01*
X153291Y272067D01*
X153932Y272709D01*
X154260Y273500D01*
D02*
G37*
G36*
X151500D02*
X149740D01*
X150067Y272709D01*
X150709Y272067D01*
X151500Y271740D01*
Y273500D01*
D02*
G37*
G36*
X89718Y281953D02*
X88282D01*
X86895Y281581D01*
X85652Y280863D01*
X84637Y279848D01*
X83919Y278605D01*
X83547Y277218D01*
Y275782D01*
X83919Y274395D01*
X84637Y273152D01*
X85652Y272137D01*
X86895Y271419D01*
X88282Y271047D01*
X89718D01*
X91105Y271419D01*
X92348Y272137D01*
X93363Y273152D01*
X94081Y274395D01*
X94453Y275782D01*
Y277218D01*
X94081Y278605D01*
X93363Y279848D01*
X92348Y280863D01*
X91105Y281581D01*
X89718Y281953D01*
D02*
G37*
G36*
X155500Y271260D02*
Y269500D01*
X157260D01*
X156932Y270291D01*
X156291Y270933D01*
X155500Y271260D01*
D02*
G37*
G36*
X154500D02*
X153709Y270933D01*
X153068Y270291D01*
X152740Y269500D01*
X154500D01*
Y271260D01*
D02*
G37*
G36*
X253067Y271500D02*
X249220D01*
Y267653D01*
X249293D01*
X250398Y267950D01*
X251389Y268522D01*
X252199Y269331D01*
X252771Y270322D01*
X253067Y271428D01*
Y271500D01*
D02*
G37*
G36*
X248220D02*
X244374D01*
Y271428D01*
X244670Y270322D01*
X245242Y269331D01*
X246052Y268522D01*
X247043Y267950D01*
X248148Y267653D01*
X248220D01*
Y271500D01*
D02*
G37*
G36*
X92953Y270453D02*
X89500D01*
Y267000D01*
X92953D01*
Y270453D01*
D02*
G37*
G36*
X88500D02*
X85047D01*
Y267000D01*
X88500D01*
Y270453D01*
D02*
G37*
G36*
X263076Y277847D02*
X261924D01*
X260795Y277622D01*
X259731Y277181D01*
X258773Y276541D01*
X257959Y275727D01*
X257319Y274769D01*
X256878Y273705D01*
X256653Y272576D01*
Y271424D01*
X256878Y270295D01*
X257319Y269231D01*
X257959Y268273D01*
X258773Y267459D01*
X259731Y266819D01*
X260795Y266378D01*
X261924Y266154D01*
X263076D01*
X264205Y266378D01*
X265269Y266819D01*
X266227Y267459D01*
X267041Y268273D01*
X267681Y269231D01*
X268122Y270295D01*
X268347Y271424D01*
Y272576D01*
X268122Y273705D01*
X267681Y274769D01*
X267041Y275727D01*
X266227Y276541D01*
X265269Y277181D01*
X264205Y277622D01*
X263076Y277847D01*
D02*
G37*
G36*
X223557Y266344D02*
X222587D01*
X221651Y266093D01*
X220812Y265608D01*
X220409Y265205D01*
X220072Y264962D01*
X219735Y265205D01*
X219332Y265608D01*
X218493Y266093D01*
X217557Y266344D01*
X216587D01*
X215651Y266093D01*
X214812Y265608D01*
X214409Y265205D01*
X214072Y264962D01*
X213735Y265205D01*
X213332Y265608D01*
X212493Y266093D01*
X211557Y266344D01*
X210587D01*
X209651Y266093D01*
X208812Y265608D01*
X208409Y265205D01*
X208072Y264962D01*
X207735Y265205D01*
X207332Y265608D01*
X206493Y266093D01*
X205557Y266344D01*
X204587D01*
X203651Y266093D01*
X202812Y265608D01*
X202409Y265205D01*
X202072Y264962D01*
X201735Y265205D01*
X201332Y265608D01*
X200493Y266093D01*
X199557Y266344D01*
X198587D01*
X197651Y266093D01*
X196812Y265608D01*
X196126Y264923D01*
X195642Y264084D01*
X195391Y263147D01*
Y262178D01*
X195642Y261242D01*
X196126Y260402D01*
X196366Y260163D01*
X196126Y259923D01*
X195642Y259084D01*
X195391Y258147D01*
Y257178D01*
X195642Y256242D01*
X196126Y255402D01*
X196366Y255163D01*
X196126Y254923D01*
X195642Y254084D01*
X195391Y253147D01*
Y252178D01*
X195642Y251242D01*
X196126Y250402D01*
X196366Y250163D01*
X196126Y249923D01*
X195642Y249084D01*
X195391Y248147D01*
Y247178D01*
X195642Y246242D01*
X196126Y245403D01*
X196812Y244717D01*
X197651Y244233D01*
X198587Y243982D01*
X199557D01*
X200493Y244233D01*
X201332Y244717D01*
X201735Y245120D01*
X202072Y245363D01*
X202409Y245120D01*
X202812Y244717D01*
X203651Y244233D01*
X204587Y243982D01*
X205557D01*
X206493Y244233D01*
X207332Y244717D01*
X207735Y245120D01*
X208072Y245363D01*
X208409Y245120D01*
X208812Y244717D01*
X209651Y244233D01*
X210587Y243982D01*
X211557D01*
X212493Y244233D01*
X213332Y244717D01*
X213735Y245120D01*
X214072Y245363D01*
X214409Y245120D01*
X214812Y244717D01*
X215651Y244233D01*
X216587Y243982D01*
X217557D01*
X218493Y244233D01*
X219332Y244717D01*
X219735Y245120D01*
X220072Y245363D01*
X220409Y245120D01*
X220812Y244717D01*
X221651Y244233D01*
X222587Y243982D01*
X223557D01*
X224493Y244233D01*
X225332Y244717D01*
X226018Y245403D01*
X226502Y246242D01*
X226753Y247178D01*
Y248147D01*
X226502Y249084D01*
X226018Y249923D01*
X225778Y250163D01*
X226018Y250402D01*
X226502Y251242D01*
X226753Y252178D01*
Y253147D01*
X226502Y254084D01*
X226018Y254923D01*
X225778Y255163D01*
X226018Y255402D01*
X226502Y256242D01*
X226753Y257178D01*
Y258147D01*
X226502Y259084D01*
X226018Y259923D01*
X225778Y260163D01*
X226018Y260402D01*
X226502Y261242D01*
X226753Y262178D01*
Y263147D01*
X226502Y264084D01*
X226018Y264923D01*
X225332Y265608D01*
X224493Y266093D01*
X223557Y266344D01*
D02*
G37*
G36*
X92953Y266000D02*
X89500D01*
Y262547D01*
X92953D01*
Y266000D01*
D02*
G37*
G36*
X88500D02*
X85047D01*
Y262547D01*
X88500D01*
Y266000D01*
D02*
G37*
G36*
X157260Y268500D02*
X152740D01*
X153068Y267709D01*
X153493Y267283D01*
X153444Y266677D01*
X153179Y266524D01*
X152476Y265821D01*
X151978Y264959D01*
X151720Y263998D01*
Y263002D01*
X151978Y262041D01*
X152476Y261179D01*
X153179Y260476D01*
X154041Y259978D01*
X155002Y259720D01*
X155998D01*
X156959Y259978D01*
X157821Y260476D01*
X158524Y261179D01*
X159022Y262041D01*
X159280Y263002D01*
Y263998D01*
X159022Y264959D01*
X158524Y265821D01*
X157821Y266524D01*
X156959Y267022D01*
X156879Y267043D01*
X156750Y267526D01*
X156932Y267709D01*
X157260Y268500D01*
D02*
G37*
G36*
X168500Y260760D02*
Y259000D01*
X170260D01*
X169932Y259791D01*
X169291Y260433D01*
X168500Y260760D01*
D02*
G37*
G36*
X167500D02*
X166709Y260433D01*
X166068Y259791D01*
X165740Y259000D01*
X167500D01*
Y260760D01*
D02*
G37*
G36*
X170260Y258000D02*
X168500D01*
Y256240D01*
X169291Y256568D01*
X169932Y257209D01*
X170260Y258000D01*
D02*
G37*
G36*
X167500D02*
X165740D01*
X166068Y257209D01*
X166709Y256568D01*
X167500Y256240D01*
Y258000D01*
D02*
G37*
G36*
X134998Y256279D02*
X134002D01*
X133041Y256022D01*
X132179Y255524D01*
X131476Y254821D01*
X130978Y253959D01*
X130796Y253279D01*
X130502D01*
X130180Y253193D01*
X129932Y253791D01*
X129291Y254433D01*
X128500Y254760D01*
Y252500D01*
X128000D01*
Y252000D01*
X125740D01*
X126067Y251209D01*
X126709Y250568D01*
X127307Y250320D01*
X127220Y249998D01*
Y249002D01*
X127478Y248041D01*
X127976Y247179D01*
X128679Y246476D01*
X129541Y245978D01*
X130502Y245721D01*
X131498D01*
X132459Y245978D01*
X133321Y246476D01*
X134024Y247179D01*
X134522Y248041D01*
X134704Y248721D01*
X134998D01*
X135959Y248978D01*
X136821Y249476D01*
X137524Y250179D01*
X138022Y251041D01*
X138279Y252002D01*
Y252998D01*
X138022Y253959D01*
X137524Y254821D01*
X136821Y255524D01*
X135959Y256022D01*
X134998Y256279D01*
D02*
G37*
G36*
X127500Y254760D02*
X126709Y254433D01*
X126067Y253791D01*
X125740Y253000D01*
X127500D01*
Y254760D01*
D02*
G37*
G36*
X114998Y262280D02*
X114002D01*
X113041Y262022D01*
X112179Y261524D01*
X111476Y260821D01*
X110978Y259959D01*
X110721Y258998D01*
Y258780D01*
X110002D01*
X109041Y258522D01*
X108179Y258024D01*
X107476Y257321D01*
X106978Y256459D01*
X106720Y255498D01*
Y254502D01*
X106978Y253541D01*
X107476Y252679D01*
X108179Y251976D01*
X109041Y251478D01*
X110002Y251220D01*
X110998D01*
X111959Y251478D01*
X112821Y251976D01*
X113524Y252679D01*
X114022Y253541D01*
X114279Y254502D01*
Y254720D01*
X114998D01*
X115959Y254978D01*
X116821Y255476D01*
X117524Y256179D01*
X118022Y257041D01*
X118280Y258002D01*
Y258998D01*
X118022Y259959D01*
X117524Y260821D01*
X116821Y261524D01*
X115959Y262022D01*
X114998Y262280D01*
D02*
G37*
G36*
X166500Y250260D02*
Y248500D01*
X168260D01*
X167932Y249291D01*
X167291Y249933D01*
X166500Y250260D01*
D02*
G37*
G36*
X165500D02*
X164709Y249933D01*
X164067Y249291D01*
X163740Y248500D01*
X165500D01*
Y250260D01*
D02*
G37*
G36*
X89718Y258953D02*
X88282D01*
X86895Y258581D01*
X85652Y257863D01*
X84637Y256848D01*
X83919Y255605D01*
X83547Y254218D01*
Y252782D01*
X83919Y251395D01*
X84637Y250152D01*
X85652Y249137D01*
X86895Y248419D01*
X88282Y248047D01*
X89718D01*
X91105Y248419D01*
X92348Y249137D01*
X93363Y250152D01*
X94081Y251395D01*
X94453Y252782D01*
Y254218D01*
X94081Y255605D01*
X93363Y256848D01*
X92348Y257863D01*
X91105Y258581D01*
X89718Y258953D01*
D02*
G37*
G36*
X92953Y247453D02*
X89500D01*
Y244000D01*
X92953D01*
Y247453D01*
D02*
G37*
G36*
X88500D02*
X85047D01*
Y244000D01*
X88500D01*
Y247453D01*
D02*
G37*
G36*
X168260Y247500D02*
X163740D01*
X164067Y246709D01*
X164709Y246068D01*
X165475Y245750D01*
X165496Y245614D01*
Y245386D01*
X165475Y245250D01*
X164709Y244933D01*
X164067Y244291D01*
X163740Y243500D01*
X168260D01*
X167932Y244291D01*
X167291Y244933D01*
X166525Y245250D01*
X166504Y245386D01*
Y245614D01*
X166525Y245750D01*
X167291Y246068D01*
X167932Y246709D01*
X168260Y247500D01*
D02*
G37*
G36*
Y242500D02*
X166500D01*
Y240740D01*
X167291Y241068D01*
X167932Y241709D01*
X168260Y242500D01*
D02*
G37*
G36*
X165500D02*
X163740D01*
X164067Y241709D01*
X164709Y241068D01*
X165500Y240740D01*
Y242500D01*
D02*
G37*
G36*
X92953Y243000D02*
X89500D01*
Y239547D01*
X92953D01*
Y243000D01*
D02*
G37*
G36*
X88500D02*
X85047D01*
Y239547D01*
X88500D01*
Y243000D01*
D02*
G37*
G36*
X140130Y240890D02*
Y239130D01*
X141890D01*
X141562Y239921D01*
X140921Y240563D01*
X140130Y240890D01*
D02*
G37*
G36*
X139130D02*
X138339Y240563D01*
X137698Y239921D01*
X137370Y239130D01*
X139130D01*
Y240890D01*
D02*
G37*
G36*
X141890Y238130D02*
X140130D01*
Y236370D01*
X140921Y236698D01*
X141562Y237339D01*
X141890Y238130D01*
D02*
G37*
G36*
X139130D02*
X137370D01*
X137698Y237339D01*
X138339Y236698D01*
X139130Y236370D01*
Y238130D01*
D02*
G37*
G36*
X167000Y237260D02*
Y235500D01*
X168760D01*
X168432Y236291D01*
X167791Y236932D01*
X167000Y237260D01*
D02*
G37*
G36*
X166000D02*
X165209Y236932D01*
X164567Y236291D01*
X164240Y235500D01*
X166000D01*
Y237260D01*
D02*
G37*
G36*
X99498Y242779D02*
X98502D01*
X97541Y242522D01*
X96679Y242024D01*
X95976Y241321D01*
X95478Y240459D01*
X95221Y239498D01*
Y238502D01*
X95478Y237541D01*
X95976Y236679D01*
X96679Y235976D01*
X97541Y235478D01*
X98502Y235221D01*
X99498D01*
X100459Y235478D01*
X101321Y235976D01*
X102024Y236679D01*
X102522Y237541D01*
X102779Y238502D01*
Y239498D01*
X102522Y240459D01*
X102024Y241321D01*
X101321Y242024D01*
X100459Y242522D01*
X99498Y242779D01*
D02*
G37*
G36*
X273054Y234753D02*
Y232992D01*
X274814D01*
X274486Y233784D01*
X273845Y234425D01*
X273054Y234753D01*
D02*
G37*
G36*
X272054D02*
X271262Y234425D01*
X270621Y233784D01*
X270293Y232992D01*
X272054D01*
Y234753D01*
D02*
G37*
G36*
X266054D02*
Y232992D01*
X267814D01*
X267486Y233784D01*
X266845Y234425D01*
X266054Y234753D01*
D02*
G37*
G36*
X265054D02*
X264262Y234425D01*
X263621Y233784D01*
X263293Y232992D01*
X265054D01*
Y234753D01*
D02*
G37*
G36*
X258962D02*
Y232992D01*
X260722D01*
X260395Y233784D01*
X259753Y234425D01*
X258962Y234753D01*
D02*
G37*
G36*
X257962D02*
X257171Y234425D01*
X256530Y233784D01*
X256202Y232992D01*
X257962D01*
Y234753D01*
D02*
G37*
G36*
X168760Y234500D02*
X167000D01*
Y232740D01*
X167791Y233067D01*
X168432Y233709D01*
X168760Y234500D01*
D02*
G37*
G36*
X166000D02*
X164240D01*
X164567Y233709D01*
X165209Y233067D01*
X166000Y232740D01*
Y234500D01*
D02*
G37*
G36*
X137500Y232367D02*
Y230500D01*
X139367D01*
X139016Y231347D01*
X138347Y232016D01*
X137500Y232367D01*
D02*
G37*
G36*
X136500D02*
X135653Y232016D01*
X134984Y231347D01*
X134633Y230500D01*
X136500D01*
Y232367D01*
D02*
G37*
G36*
X274814Y231992D02*
X273054D01*
Y230232D01*
X273845Y230560D01*
X274486Y231201D01*
X274814Y231992D01*
D02*
G37*
G36*
X272054D02*
X270293D01*
X270621Y231201D01*
X271262Y230560D01*
X272054Y230232D01*
Y231992D01*
D02*
G37*
G36*
X267814D02*
X266054D01*
Y230232D01*
X266845Y230560D01*
X267486Y231201D01*
X267814Y231992D01*
D02*
G37*
G36*
X265054D02*
X263293D01*
X263621Y231201D01*
X264262Y230560D01*
X265054Y230232D01*
Y231992D01*
D02*
G37*
G36*
X260722D02*
X258962D01*
Y230232D01*
X259753Y230560D01*
X260395Y231201D01*
X260722Y231992D01*
D02*
G37*
G36*
X257962D02*
X256202D01*
X256530Y231201D01*
X257171Y230560D01*
X257962Y230232D01*
Y231992D01*
D02*
G37*
G36*
X107500Y231760D02*
Y230000D01*
X109260D01*
X108932Y230791D01*
X108291Y231433D01*
X107500Y231760D01*
D02*
G37*
G36*
X106500D02*
X105709Y231433D01*
X105068Y230791D01*
X104740Y230000D01*
X106500D01*
Y231760D01*
D02*
G37*
G36*
X121306Y231047D02*
Y229287D01*
X123067D01*
X122739Y230078D01*
X122098Y230719D01*
X121306Y231047D01*
D02*
G37*
G36*
X120306D02*
X119515Y230719D01*
X118874Y230078D01*
X118546Y229287D01*
X120306D01*
Y231047D01*
D02*
G37*
G36*
X139367Y229500D02*
X137500D01*
Y227633D01*
X138347Y227984D01*
X139016Y228653D01*
X139367Y229500D01*
D02*
G37*
G36*
X136500D02*
X134633D01*
X134984Y228653D01*
X135653Y227984D01*
X136500Y227633D01*
Y229500D01*
D02*
G37*
G36*
X109260Y229000D02*
X107500D01*
Y227240D01*
X108291Y227568D01*
X108932Y228209D01*
X109260Y229000D01*
D02*
G37*
G36*
X106500D02*
X104740D01*
X105068Y228209D01*
X105709Y227568D01*
X106500Y227240D01*
Y229000D01*
D02*
G37*
G36*
X123067Y228287D02*
X121306D01*
Y226527D01*
X122098Y226855D01*
X122739Y227496D01*
X123067Y228287D01*
D02*
G37*
G36*
X120306D02*
X118546D01*
X118874Y227496D01*
X119515Y226855D01*
X120306Y226527D01*
Y228287D01*
D02*
G37*
G36*
X89718Y235953D02*
X88282D01*
X86895Y235581D01*
X85652Y234863D01*
X84637Y233848D01*
X83919Y232605D01*
X83547Y231218D01*
Y229782D01*
X83919Y228395D01*
X84637Y227152D01*
X85652Y226137D01*
X86895Y225419D01*
X88282Y225047D01*
X89718D01*
X91105Y225419D01*
X92348Y226137D01*
X93363Y227152D01*
X94081Y228395D01*
X94453Y229782D01*
Y231218D01*
X94081Y232605D01*
X93363Y233848D01*
X92348Y234863D01*
X91105Y235581D01*
X89718Y235953D01*
D02*
G37*
G36*
X92953Y224453D02*
X89500D01*
Y221000D01*
X92953D01*
Y224453D01*
D02*
G37*
G36*
X88500D02*
X85047D01*
Y221000D01*
X88500D01*
Y224453D01*
D02*
G37*
G36*
X150500Y221867D02*
Y220000D01*
X152367D01*
X152016Y220847D01*
X151347Y221516D01*
X150500Y221867D01*
D02*
G37*
G36*
X149500D02*
X148653Y221516D01*
X147984Y220847D01*
X147633Y220000D01*
X149500D01*
Y221867D01*
D02*
G37*
G36*
X152367Y219000D02*
X150500D01*
Y217133D01*
X151347Y217484D01*
X152016Y218153D01*
X152367Y219000D01*
D02*
G37*
G36*
X149500D02*
X147633D01*
X147984Y218153D01*
X148653Y217484D01*
X149500Y217133D01*
Y219000D01*
D02*
G37*
G36*
X92953Y220000D02*
X89500D01*
Y216547D01*
X92953D01*
Y220000D01*
D02*
G37*
G36*
X88500D02*
X85047D01*
Y216547D01*
X88500D01*
Y220000D01*
D02*
G37*
G36*
X99498Y222280D02*
X98502D01*
X97541Y222022D01*
X96679Y221524D01*
X95976Y220821D01*
X95478Y219959D01*
X95221Y218998D01*
Y218002D01*
X95478Y217041D01*
X95976Y216179D01*
X96679Y215476D01*
X97541Y214978D01*
X98502Y214721D01*
X99498D01*
X100459Y214978D01*
X101321Y215476D01*
X102024Y216179D01*
X102522Y217041D01*
X102779Y218002D01*
Y218998D01*
X102522Y219959D01*
X102024Y220821D01*
X101321Y221524D01*
X100459Y222022D01*
X99498Y222280D01*
D02*
G37*
G36*
X109000Y215760D02*
Y214000D01*
X110760D01*
X110433Y214791D01*
X109791Y215433D01*
X109000Y215760D01*
D02*
G37*
G36*
X108000D02*
X107209Y215433D01*
X106568Y214791D01*
X106240Y214000D01*
X108000D01*
Y215760D01*
D02*
G37*
G36*
X110760Y213000D02*
X109000D01*
Y211240D01*
X109791Y211567D01*
X110433Y212209D01*
X110760Y213000D01*
D02*
G37*
G36*
X108000D02*
X106240D01*
X106568Y212209D01*
X107209Y211567D01*
X108000Y211240D01*
Y213000D01*
D02*
G37*
G36*
X162511Y218378D02*
X161489D01*
X160503Y218114D01*
X159619Y217603D01*
X158897Y216881D01*
X158386Y215997D01*
X158122Y215010D01*
Y213989D01*
X158386Y213003D01*
X158897Y212119D01*
X159619Y211397D01*
X160503Y210886D01*
X161489Y210622D01*
X162511D01*
X163497Y210886D01*
X164381Y211397D01*
X165103Y212119D01*
X165614Y213003D01*
X165878Y213989D01*
Y215010D01*
X165614Y215997D01*
X165103Y216881D01*
X164381Y217603D01*
X163497Y218114D01*
X162511Y218378D01*
D02*
G37*
G36*
X248218Y228453D02*
X246782D01*
X245395Y228081D01*
X244152Y227363D01*
X243137Y226348D01*
X242419Y225105D01*
X242047Y223718D01*
Y222282D01*
X242419Y220895D01*
X243137Y219652D01*
X243836Y218953D01*
X243629Y218453D01*
X242047D01*
Y207547D01*
X252953D01*
Y218453D01*
X251371D01*
X251164Y218953D01*
X251863Y219652D01*
X252581Y220895D01*
X252953Y222282D01*
Y223718D01*
X252581Y225105D01*
X251863Y226348D01*
X250848Y227363D01*
X249605Y228081D01*
X248218Y228453D01*
D02*
G37*
G36*
X201508Y208269D02*
X200717Y207941D01*
X200313Y207537D01*
X199996Y207346D01*
X199660Y207537D01*
X199265Y207932D01*
X198473Y208260D01*
Y206000D01*
Y203740D01*
X199265Y204067D01*
X199668Y204471D01*
X199986Y204663D01*
X200322Y204471D01*
X200717Y204076D01*
X201508Y203748D01*
Y206008D01*
Y208269D01*
D02*
G37*
G36*
X206527Y208260D02*
Y206500D01*
X208287D01*
X207959Y207291D01*
X207318Y207932D01*
X206527Y208260D01*
D02*
G37*
G36*
X197473D02*
X196682Y207932D01*
X196041Y207291D01*
X195713Y206500D01*
X197473D01*
Y208260D01*
D02*
G37*
G36*
X302000Y206154D02*
Y204500D01*
X303654D01*
X303349Y205236D01*
X302735Y205849D01*
X302000Y206154D01*
D02*
G37*
G36*
X301000D02*
X300265Y205849D01*
X299651Y205236D01*
X299346Y204500D01*
X301000D01*
Y206154D01*
D02*
G37*
G36*
X296000D02*
Y204500D01*
X297654D01*
X297349Y205236D01*
X296736Y205849D01*
X296000Y206154D01*
D02*
G37*
G36*
X295000D02*
X294265Y205849D01*
X293651Y205236D01*
X293346Y204500D01*
X295000D01*
Y206154D01*
D02*
G37*
G36*
X290000D02*
Y204500D01*
X291654D01*
X291349Y205236D01*
X290736Y205849D01*
X290000Y206154D01*
D02*
G37*
G36*
X289000D02*
X288264Y205849D01*
X287651Y205236D01*
X287346Y204500D01*
X289000D01*
Y206154D01*
D02*
G37*
G36*
X149500Y206367D02*
Y204500D01*
X151367D01*
X151016Y205347D01*
X150347Y206016D01*
X149500Y206367D01*
D02*
G37*
G36*
X148500D02*
X147653Y206016D01*
X146984Y205347D01*
X146633Y204500D01*
X148500D01*
Y206367D01*
D02*
G37*
G36*
X208287Y205500D02*
X206527D01*
Y203740D01*
X207318Y204067D01*
X207959Y204709D01*
X208287Y205500D01*
D02*
G37*
G36*
X202508Y208269D02*
Y206008D01*
Y203748D01*
X203300Y204076D01*
X203687Y204463D01*
X204022Y204665D01*
X204340Y204463D01*
X204735Y204067D01*
X205527Y203740D01*
Y206000D01*
Y208260D01*
X204735Y207932D01*
X204348Y207545D01*
X204013Y207343D01*
X203695Y207545D01*
X203300Y207941D01*
X202508Y208269D01*
D02*
G37*
G36*
X197473Y205500D02*
X195713D01*
X196041Y204709D01*
X196682Y204067D01*
X197473Y203740D01*
Y205500D01*
D02*
G37*
G36*
X237500Y204292D02*
Y202532D01*
X239260D01*
X238932Y203323D01*
X238291Y203964D01*
X237500Y204292D01*
D02*
G37*
G36*
X236500D02*
X235709Y203964D01*
X235068Y203323D01*
X234740Y202532D01*
X236500D01*
Y204292D01*
D02*
G37*
G36*
X231272D02*
Y202532D01*
X233032D01*
X232704Y203323D01*
X232063Y203964D01*
X231272Y204292D01*
D02*
G37*
G36*
X230272D02*
X229480Y203964D01*
X228839Y203323D01*
X228511Y202532D01*
X230272D01*
Y204292D01*
D02*
G37*
G36*
X89718Y212953D02*
X88282D01*
X86895Y212581D01*
X85652Y211863D01*
X84637Y210848D01*
X83919Y209605D01*
X83547Y208218D01*
Y206782D01*
X83919Y205395D01*
X84637Y204152D01*
X85652Y203137D01*
X86895Y202419D01*
X88282Y202047D01*
X89718D01*
X91105Y202419D01*
X92348Y203137D01*
X93363Y204152D01*
X94081Y205395D01*
X94453Y206782D01*
Y208218D01*
X94081Y209605D01*
X93363Y210848D01*
X92348Y211863D01*
X91105Y212581D01*
X89718Y212953D01*
D02*
G37*
G36*
X303654Y203500D02*
X302000D01*
Y201846D01*
X302735Y202151D01*
X303349Y202765D01*
X303654Y203500D01*
D02*
G37*
G36*
X301000D02*
X299346D01*
X299651Y202765D01*
X300265Y202151D01*
X301000Y201846D01*
Y203500D01*
D02*
G37*
G36*
X297654D02*
X296000D01*
Y201846D01*
X296736Y202151D01*
X297349Y202765D01*
X297654Y203500D01*
D02*
G37*
G36*
X295000D02*
X293346D01*
X293651Y202765D01*
X294265Y202151D01*
X295000Y201846D01*
Y203500D01*
D02*
G37*
G36*
X291654D02*
X290000D01*
Y201846D01*
X290736Y202151D01*
X291349Y202765D01*
X291654Y203500D01*
D02*
G37*
G36*
X289000D02*
X287346D01*
X287651Y202765D01*
X288264Y202151D01*
X289000Y201846D01*
Y203500D01*
D02*
G37*
G36*
X151367D02*
X149500D01*
Y201633D01*
X150347Y201984D01*
X151016Y202653D01*
X151367Y203500D01*
D02*
G37*
G36*
X148500D02*
X146633D01*
X146984Y202653D01*
X147653Y201984D01*
X148500Y201633D01*
Y203500D01*
D02*
G37*
G36*
X239260Y201532D02*
X237500D01*
Y199771D01*
X238291Y200099D01*
X238932Y200740D01*
X239260Y201532D01*
D02*
G37*
G36*
X236500D02*
X234740D01*
X235068Y200740D01*
X235709Y200099D01*
X236500Y199771D01*
Y201532D01*
D02*
G37*
G36*
X233032D02*
X231272D01*
Y199771D01*
X232063Y200099D01*
X232704Y200740D01*
X233032Y201532D01*
D02*
G37*
G36*
X230272D02*
X228511D01*
X228839Y200740D01*
X229480Y200099D01*
X230272Y199771D01*
Y201532D01*
D02*
G37*
G36*
X302000Y201154D02*
Y199500D01*
X303654D01*
X303349Y200236D01*
X302735Y200849D01*
X302000Y201154D01*
D02*
G37*
G36*
X301000D02*
X300265Y200849D01*
X299651Y200236D01*
X299346Y199500D01*
X301000D01*
Y201154D01*
D02*
G37*
G36*
X296000D02*
Y199500D01*
X297654D01*
X297349Y200236D01*
X296736Y200849D01*
X296000Y201154D01*
D02*
G37*
G36*
X295000D02*
X294265Y200849D01*
X293651Y200236D01*
X293346Y199500D01*
X295000D01*
Y201154D01*
D02*
G37*
G36*
X290000D02*
Y199500D01*
X291654D01*
X291349Y200236D01*
X290736Y200849D01*
X290000Y201154D01*
D02*
G37*
G36*
X289000D02*
X288264Y200849D01*
X287651Y200236D01*
X287346Y199500D01*
X289000D01*
Y201154D01*
D02*
G37*
G36*
X92953Y201453D02*
X89500D01*
Y198000D01*
X92953D01*
Y201453D01*
D02*
G37*
G36*
X88500D02*
X85047D01*
Y198000D01*
X88500D01*
Y201453D01*
D02*
G37*
G36*
X303654Y198500D02*
X302000D01*
Y196846D01*
X302735Y197151D01*
X303349Y197765D01*
X303654Y198500D01*
D02*
G37*
G36*
X301000D02*
X299346D01*
X299651Y197765D01*
X300265Y197151D01*
X301000Y196846D01*
Y198500D01*
D02*
G37*
G36*
X297654D02*
X296000D01*
Y196846D01*
X296736Y197151D01*
X297349Y197765D01*
X297654Y198500D01*
D02*
G37*
G36*
X295000D02*
X293346D01*
X293651Y197765D01*
X294265Y197151D01*
X295000Y196846D01*
Y198500D01*
D02*
G37*
G36*
X291654D02*
X290000D01*
Y196846D01*
X290736Y197151D01*
X291349Y197765D01*
X291654Y198500D01*
D02*
G37*
G36*
X289000D02*
X287346D01*
X287651Y197765D01*
X288264Y197151D01*
X289000Y196846D01*
Y198500D01*
D02*
G37*
G36*
X302000Y196154D02*
Y194500D01*
X303654D01*
X303349Y195236D01*
X302735Y195849D01*
X302000Y196154D01*
D02*
G37*
G36*
X301000D02*
X300265Y195849D01*
X299651Y195236D01*
X299346Y194500D01*
X301000D01*
Y196154D01*
D02*
G37*
G36*
X296000D02*
Y194500D01*
X297654D01*
X297349Y195236D01*
X296736Y195849D01*
X296000Y196154D01*
D02*
G37*
G36*
X295000D02*
X294265Y195849D01*
X293651Y195236D01*
X293346Y194500D01*
X295000D01*
Y196154D01*
D02*
G37*
G36*
X290000D02*
Y194500D01*
X291654D01*
X291349Y195236D01*
X290736Y195849D01*
X290000Y196154D01*
D02*
G37*
G36*
X289000D02*
X288264Y195849D01*
X287651Y195236D01*
X287346Y194500D01*
X289000D01*
Y196154D01*
D02*
G37*
G36*
X92953Y197000D02*
X89500D01*
Y193547D01*
X92953D01*
Y197000D01*
D02*
G37*
G36*
X88500D02*
X85047D01*
Y193547D01*
X88500D01*
Y197000D01*
D02*
G37*
G36*
X303654Y193500D02*
X302000D01*
Y191846D01*
X302735Y192151D01*
X303349Y192764D01*
X303654Y193500D01*
D02*
G37*
G36*
X301000D02*
X299346D01*
X299651Y192764D01*
X300265Y192151D01*
X301000Y191846D01*
Y193500D01*
D02*
G37*
G36*
X297654D02*
X296000D01*
Y191846D01*
X296736Y192151D01*
X297349Y192764D01*
X297654Y193500D01*
D02*
G37*
G36*
X295000D02*
X293346D01*
X293651Y192764D01*
X294265Y192151D01*
X295000Y191846D01*
Y193500D01*
D02*
G37*
G36*
X291654D02*
X290000D01*
Y191846D01*
X290736Y192151D01*
X291349Y192764D01*
X291654Y193500D01*
D02*
G37*
G36*
X289000D02*
X287346D01*
X287651Y192764D01*
X288264Y192151D01*
X289000Y191846D01*
Y193500D01*
D02*
G37*
G36*
X99423Y199071D02*
X98428D01*
X97466Y198813D01*
X96605Y198316D01*
X95901Y197612D01*
X95403Y196750D01*
X95146Y195789D01*
Y194794D01*
X95403Y193833D01*
X95901Y192971D01*
X96605Y192267D01*
X97466Y191769D01*
X98428Y191512D01*
X99423D01*
X100384Y191769D01*
X101246Y192267D01*
X101950Y192971D01*
X102447Y193833D01*
X102705Y194794D01*
Y195789D01*
X102447Y196750D01*
X101950Y197612D01*
X101246Y198316D01*
X100384Y198813D01*
X99423Y199071D01*
D02*
G37*
G36*
X247300Y179260D02*
Y177500D01*
X249060D01*
X248732Y178291D01*
X248091Y178932D01*
X247300Y179260D01*
D02*
G37*
G36*
X246300D02*
X245509Y178932D01*
X244867Y178291D01*
X244540Y177500D01*
X246300D01*
Y179260D01*
D02*
G37*
G36*
X242000D02*
Y177500D01*
X243760D01*
X243432Y178291D01*
X242791Y178932D01*
X242000Y179260D01*
D02*
G37*
G36*
X241000D02*
X240209Y178932D01*
X239567Y178291D01*
X239240Y177500D01*
X241000D01*
Y179260D01*
D02*
G37*
G36*
X236700D02*
Y177500D01*
X238460D01*
X238133Y178291D01*
X237491Y178932D01*
X236700Y179260D01*
D02*
G37*
G36*
X235700D02*
X234909Y178932D01*
X234267Y178291D01*
X233940Y177500D01*
X235700D01*
Y179260D01*
D02*
G37*
G36*
X249060Y176500D02*
X247300D01*
Y174740D01*
X248091Y175067D01*
X248732Y175709D01*
X249060Y176500D01*
D02*
G37*
G36*
X246300D02*
X244540D01*
X244867Y175709D01*
X245509Y175067D01*
X246300Y174740D01*
Y176500D01*
D02*
G37*
G36*
X243760D02*
X242000D01*
Y174740D01*
X242791Y175067D01*
X243432Y175709D01*
X243760Y176500D01*
D02*
G37*
G36*
X241000D02*
X239240D01*
X239567Y175709D01*
X240209Y175067D01*
X241000Y174740D01*
Y176500D01*
D02*
G37*
G36*
X238460D02*
X236700D01*
Y174740D01*
X237491Y175067D01*
X238133Y175709D01*
X238460Y176500D01*
D02*
G37*
G36*
X235700D02*
X233940D01*
X234267Y175709D01*
X234909Y175067D01*
X235700Y174740D01*
Y176500D01*
D02*
G37*
G36*
X173000Y173367D02*
Y171500D01*
X174867D01*
X174516Y172347D01*
X173847Y173016D01*
X173000Y173367D01*
D02*
G37*
G36*
X172000D02*
X171153Y173016D01*
X170484Y172347D01*
X170133Y171500D01*
X172000D01*
Y173367D01*
D02*
G37*
G36*
X174867Y170500D02*
X173000D01*
Y168633D01*
X173847Y168984D01*
X174516Y169653D01*
X174867Y170500D01*
D02*
G37*
G36*
X172000D02*
X170133D01*
X170484Y169653D01*
X171153Y168984D01*
X172000Y168633D01*
Y170500D01*
D02*
G37*
G36*
X109500Y167867D02*
Y166000D01*
X111367D01*
X111016Y166847D01*
X110347Y167516D01*
X109500Y167867D01*
D02*
G37*
G36*
X108500D02*
X107653Y167516D01*
X106984Y166847D01*
X106633Y166000D01*
X108500D01*
Y167867D01*
D02*
G37*
G36*
X111367Y165000D02*
X109500D01*
Y163133D01*
X110347Y163484D01*
X111016Y164153D01*
X111367Y165000D01*
D02*
G37*
G36*
X108500D02*
X106633D01*
X106984Y164153D01*
X107653Y163484D01*
X108500Y163133D01*
Y165000D01*
D02*
G37*
G36*
X135562Y162271D02*
X134438D01*
X133351Y161980D01*
X132377Y161418D01*
X131582Y160623D01*
X131020Y159649D01*
X130728Y158562D01*
Y157438D01*
X131020Y156351D01*
X131582Y155377D01*
X132377Y154582D01*
X133351Y154020D01*
X134438Y153728D01*
X135562D01*
X136649Y154020D01*
X137623Y154582D01*
X138418Y155377D01*
X138980Y156351D01*
X139271Y157438D01*
Y158562D01*
X138980Y159649D01*
X138418Y160623D01*
X137623Y161418D01*
X136649Y161980D01*
X135562Y162271D01*
D02*
G37*
G36*
X125562D02*
X124438D01*
X123351Y161980D01*
X122377Y161418D01*
X121582Y160623D01*
X121020Y159649D01*
X120729Y158562D01*
Y157438D01*
X121020Y156351D01*
X121582Y155377D01*
X122377Y154582D01*
X123351Y154020D01*
X124438Y153728D01*
X125562D01*
X126649Y154020D01*
X127623Y154582D01*
X128418Y155377D01*
X128980Y156351D01*
X129271Y157438D01*
Y158562D01*
X128980Y159649D01*
X128418Y160623D01*
X127623Y161418D01*
X126649Y161980D01*
X125562Y162271D01*
D02*
G37*
G36*
X140562Y152271D02*
X139438D01*
X138351Y151980D01*
X137377Y151418D01*
X136582Y150623D01*
X136020Y149649D01*
X135729Y148562D01*
Y147438D01*
X136020Y146351D01*
X136582Y145377D01*
X137377Y144582D01*
X138351Y144020D01*
X139438Y143728D01*
X140562D01*
X141649Y144020D01*
X142623Y144582D01*
X143418Y145377D01*
X143980Y146351D01*
X144272Y147438D01*
Y148562D01*
X143980Y149649D01*
X143418Y150623D01*
X142623Y151418D01*
X141649Y151980D01*
X140562Y152271D01*
D02*
G37*
G36*
X130562D02*
X129438D01*
X128351Y151980D01*
X127377Y151418D01*
X126582Y150623D01*
X126020Y149649D01*
X125728Y148562D01*
Y147438D01*
X126020Y146351D01*
X126582Y145377D01*
X127377Y144582D01*
X128351Y144020D01*
X129438Y143728D01*
X130562D01*
X131649Y144020D01*
X132623Y144582D01*
X133418Y145377D01*
X133980Y146351D01*
X134272Y147438D01*
Y148562D01*
X133980Y149649D01*
X133418Y150623D01*
X132623Y151418D01*
X131649Y151980D01*
X130562Y152271D01*
D02*
G37*
G36*
X117112Y141258D02*
X115880D01*
X114673Y141018D01*
X113535Y140547D01*
X112512Y139863D01*
X111641Y138992D01*
X110957Y137969D01*
X110486Y136831D01*
X110246Y135624D01*
Y134392D01*
X110486Y133185D01*
X110957Y132047D01*
X111641Y131024D01*
X112512Y130153D01*
X113535Y129469D01*
X114673Y128998D01*
X115880Y128758D01*
X116717D01*
X116984Y128258D01*
X116505Y127541D01*
X115782Y125797D01*
X115414Y123944D01*
Y122056D01*
X115782Y120204D01*
X116505Y118459D01*
X117554Y116889D01*
X118889Y115554D01*
X120459Y114505D01*
X122204Y113782D01*
X124056Y113414D01*
X125945D01*
X127797Y113782D01*
X129541Y114505D01*
X131112Y115554D01*
X132447Y116889D01*
X133496Y118459D01*
X134219Y120204D01*
X134587Y122056D01*
Y123944D01*
X134219Y125797D01*
X133496Y127541D01*
X132447Y129111D01*
X131112Y130447D01*
X129541Y131496D01*
X127797Y132219D01*
X125945Y132587D01*
X124056D01*
X122686Y132314D01*
X122327Y132753D01*
X122506Y133185D01*
X122746Y134392D01*
Y135624D01*
X122506Y136831D01*
X122035Y137969D01*
X121351Y138992D01*
X120480Y139863D01*
X119457Y140547D01*
X118319Y141018D01*
X117112Y141258D01*
D02*
G37*
G36*
X131960Y111287D02*
X130836D01*
X129749Y110996D01*
X128775Y110434D01*
X127980Y109639D01*
X127418Y108665D01*
X127127Y107578D01*
Y106454D01*
X127418Y105367D01*
X127980Y104393D01*
X128775Y103598D01*
X129749Y103036D01*
X130836Y102744D01*
X131960D01*
X133047Y103036D01*
X134021Y103598D01*
X134816Y104393D01*
X135378Y105367D01*
X135670Y106454D01*
Y107578D01*
X135378Y108665D01*
X134816Y109639D01*
X134021Y110434D01*
X133047Y110996D01*
X131960Y111287D01*
D02*
G37*
G36*
X121960D02*
X120836D01*
X119749Y110996D01*
X118775Y110434D01*
X117980Y109639D01*
X117418Y108665D01*
X117127Y107578D01*
Y106454D01*
X117418Y105367D01*
X117980Y104393D01*
X118775Y103598D01*
X119749Y103036D01*
X120836Y102744D01*
X121960D01*
X123047Y103036D01*
X124021Y103598D01*
X124816Y104393D01*
X125378Y105367D01*
X125670Y106454D01*
Y107578D01*
X125378Y108665D01*
X124816Y109639D01*
X124021Y110434D01*
X123047Y110996D01*
X121960Y111287D01*
D02*
G37*
G36*
X92394Y124858D02*
X90606D01*
X88840Y124579D01*
X87140Y124026D01*
X85547Y123214D01*
X84101Y122164D01*
X82836Y120899D01*
X81786Y119453D01*
X80974Y117860D01*
X80421Y116160D01*
X80142Y114394D01*
Y112606D01*
X80421Y110840D01*
X80974Y109140D01*
X81786Y107547D01*
X82836Y106101D01*
X84101Y104836D01*
X85547Y103786D01*
X87140Y102974D01*
X88840Y102421D01*
X90606Y102142D01*
X92394D01*
X94160Y102421D01*
X95860Y102974D01*
X97453Y103786D01*
X98899Y104836D01*
X100164Y106101D01*
X101215Y107547D01*
X102026Y109140D01*
X102579Y110840D01*
X102858Y112606D01*
Y114394D01*
X102579Y116160D01*
X102026Y117860D01*
X101215Y119453D01*
X100164Y120899D01*
X98899Y122164D01*
X97453Y123214D01*
X95860Y124026D01*
X94160Y124579D01*
X92394Y124858D01*
D02*
G37*
%LPD*%
D68*
X248721Y272000D02*
D03*
D69*
X89000Y266500D02*
D03*
Y220500D02*
D03*
Y197500D02*
D03*
Y243500D02*
D03*
Y322500D02*
D03*
Y289500D02*
D03*
D74*
X108500Y213500D02*
D03*
X139630Y238630D02*
D03*
X133500Y329000D02*
D03*
X322000Y368000D02*
D03*
X131500Y361000D02*
D03*
X206027Y206000D02*
D03*
X202008Y206008D02*
D03*
X197973Y206000D02*
D03*
X128000Y252500D02*
D03*
X125000Y285000D02*
D03*
X152000Y274000D02*
D03*
X258462Y232492D02*
D03*
X272553D02*
D03*
X265553D02*
D03*
X230772Y202031D02*
D03*
X237000D02*
D03*
X217112Y280109D02*
D03*
X205085D02*
D03*
X199072D02*
D03*
X211099D02*
D03*
X223125D02*
D03*
X246800Y177000D02*
D03*
X241500D02*
D03*
X236200D02*
D03*
X168000Y258500D02*
D03*
X166000Y243000D02*
D03*
Y248000D02*
D03*
X166500Y235000D02*
D03*
X218500Y383000D02*
D03*
X144500D02*
D03*
X155000Y269000D02*
D03*
X107000Y229500D02*
D03*
X120806Y228787D02*
D03*
D75*
X137000Y230000D02*
D03*
X172500Y171000D02*
D03*
X109000Y165500D02*
D03*
X162500Y348000D02*
D03*
X149000Y204000D02*
D03*
X150000Y219500D02*
D03*
X362000Y330411D02*
D03*
Y353500D02*
D03*
X338471Y354029D02*
D03*
X311970Y357030D02*
D03*
X301000Y325500D02*
D03*
X175970Y324029D02*
D03*
X218500Y343500D02*
D03*
D76*
X289500Y204000D02*
D03*
Y199000D02*
D03*
Y194000D02*
D03*
X295500D02*
D03*
Y199000D02*
D03*
X301500Y194000D02*
D03*
Y199000D02*
D03*
Y204000D02*
D03*
X295500D02*
D03*
M02*
