G04*
G04 #@! TF.GenerationSoftware,Altium Limited,Altium Designer,22.7.1 (60)*
G04*
G04 Layer_Color=255*
%FSLAX25Y25*%
%MOIN*%
G70*
G04*
G04 #@! TF.SameCoordinates,E9EB7054-F832-478C-845A-F08F9BC20AEA*
G04*
G04*
G04 #@! TF.FilePolarity,Positive*
G04*
G01*
G75*
%ADD50C,0.11811*%
%ADD51R,0.11811X0.11811*%
%ADD69C,0.06693*%
%ADD70R,0.05906X0.05906*%
%ADD71C,0.05906*%
%ADD72C,0.06000*%
%ADD73C,0.05906*%
%ADD74C,0.09449*%
%ADD78R,0.07087X0.08268*%
D50*
X305488Y129500D02*
D03*
X285512Y290000D02*
D03*
D51*
X216512Y129500D02*
D03*
X374488Y290000D02*
D03*
D69*
X262500Y272000D02*
D03*
X248721D02*
D03*
D70*
X247500Y213000D02*
D03*
X89000Y266500D02*
D03*
Y220500D02*
D03*
Y197500D02*
D03*
Y243500D02*
D03*
Y322500D02*
D03*
Y289500D02*
D03*
D71*
X247500Y223000D02*
D03*
X89000Y276500D02*
D03*
Y230500D02*
D03*
Y207500D02*
D03*
Y253500D02*
D03*
Y332500D02*
D03*
Y342500D02*
D03*
Y352500D02*
D03*
Y299500D02*
D03*
Y309500D02*
D03*
D72*
X370500Y373000D02*
D03*
X170000Y123000D02*
D03*
X125000Y123000D02*
D03*
X91500Y373000D02*
D03*
Y113500D02*
D03*
X370500D02*
D03*
D73*
X173602Y107016D02*
D03*
X121398D02*
D03*
X163602D02*
D03*
X170000Y148000D02*
D03*
X125000Y158000D02*
D03*
X165000D02*
D03*
X160000Y148000D02*
D03*
X155000Y158000D02*
D03*
X150000Y148000D02*
D03*
X145000Y158000D02*
D03*
X140000Y148000D02*
D03*
X135000Y158000D02*
D03*
X130000Y148000D02*
D03*
X131398Y107016D02*
D03*
D74*
X178504Y135008D02*
D03*
X116496D02*
D03*
D78*
X333500Y149161D02*
D03*
Y131839D02*
D03*
M02*
