G04*
G04 #@! TF.GenerationSoftware,Altium Limited,Altium Designer,21.6.4 (81)*
G04*
G04 Layer_Color=32768*
%FSLAX25Y25*%
%MOIN*%
G70*
G04*
G04 #@! TF.SameCoordinates,82150E9F-1309-4CA2-80C3-B22644BF42D1*
G04*
G04*
G04 #@! TF.FilePolarity,Positive*
G04*
G01*
G75*
%ADD10C,0.00787*%
%ADD12C,0.00394*%
%ADD88C,0.00197*%
D10*
X211591Y147807D02*
X310409D01*
Y111193D02*
Y147807D01*
X211591Y111193D02*
X310409D01*
X211591D02*
Y147807D01*
X379410Y271693D02*
Y308307D01*
X280591D02*
X379410D01*
X280591Y271693D02*
Y308307D01*
Y271693D02*
X379410D01*
D12*
X269350Y288000D02*
G03*
X269350Y288000I-16240J0D01*
G01*
X115425Y175909D02*
X118575D01*
X117000Y174335D02*
Y177484D01*
X259032Y129500D02*
X262968D01*
X261000Y127532D02*
Y131468D01*
X203497Y283679D02*
X206647D01*
X205072Y282104D02*
Y285253D01*
X191497Y283679D02*
X194647D01*
X193072Y282104D02*
Y285253D01*
X197497Y283679D02*
X200647D01*
X199072Y282104D02*
Y285253D01*
X209497Y283679D02*
X212647D01*
X211072Y282104D02*
Y285253D01*
X215497Y283679D02*
X218647D01*
X217072Y282104D02*
Y285253D01*
X268425Y256516D02*
X271575D01*
X270000Y254941D02*
Y258090D01*
X248016Y246925D02*
Y250075D01*
X246441Y248500D02*
X249591D01*
X261425Y256516D02*
X264575D01*
X263000Y254941D02*
Y258090D01*
X224197Y225984D02*
X227346D01*
X225772Y224409D02*
Y227559D01*
X205072Y239391D02*
Y243328D01*
X203103Y241360D02*
X207041D01*
X230425Y225984D02*
X233575D01*
X232000Y224409D02*
Y227559D01*
X97425Y246500D02*
X100575D01*
X99000Y244925D02*
Y248075D01*
X136925Y332500D02*
X140075D01*
X138500Y330925D02*
Y334075D01*
X116413Y183941D02*
Y187091D01*
X114838Y185516D02*
X117988D01*
X119535Y185500D02*
X122685D01*
X121110Y183925D02*
Y187075D01*
X151425Y186500D02*
X154575D01*
X153000Y184925D02*
Y188075D01*
X151425Y181500D02*
X154575D01*
X153000Y179925D02*
Y183075D01*
X151425Y176303D02*
X154575D01*
X153000Y174728D02*
Y177878D01*
X151425Y171197D02*
X154575D01*
X153000Y169622D02*
Y172772D01*
X142000Y174925D02*
Y178075D01*
X140425Y176500D02*
X143575D01*
X142000Y169425D02*
Y172575D01*
X140425Y171000D02*
X143575D01*
X162870D02*
X166020D01*
X164445Y169425D02*
Y172575D01*
X162673Y176303D02*
X165823D01*
X164248Y174728D02*
Y177878D01*
X117000Y169350D02*
Y172500D01*
X115425Y170925D02*
X118575D01*
X105803Y169153D02*
Y172303D01*
X104228Y170728D02*
X107378D01*
X106000Y174335D02*
Y177484D01*
X104425Y175909D02*
X107575D01*
X172000Y302425D02*
Y305575D01*
X170425Y304000D02*
X173575D01*
X98925Y200697D02*
Y203847D01*
X97350Y202272D02*
X100500D01*
X99000Y224425D02*
Y227575D01*
X97425Y226000D02*
X100575D01*
X275395Y347023D02*
Y350960D01*
X273427Y348991D02*
X277363D01*
X172000Y297425D02*
Y300575D01*
X170425Y299000D02*
X173575D01*
X134425Y268000D02*
X137575D01*
X136000Y266425D02*
Y269575D01*
X147000Y276016D02*
Y279165D01*
X145425Y277591D02*
X148575D01*
X125000Y276016D02*
Y279165D01*
X123425Y277590D02*
X126575D01*
X339677Y315500D02*
X342827D01*
X341252Y313925D02*
Y317075D01*
Y336925D02*
Y340075D01*
X339677Y338500D02*
X342827D01*
X330000Y288032D02*
Y291968D01*
X328031Y290000D02*
X331968D01*
X295500Y326925D02*
Y330075D01*
X293925Y328500D02*
X297075D01*
X293496Y348991D02*
X297433D01*
X295465Y347023D02*
Y350960D01*
X283461Y348991D02*
X287399D01*
X285430Y347023D02*
Y350960D01*
X283531Y366760D02*
X287469D01*
X285500Y364791D02*
Y368728D01*
X273497Y366760D02*
X277433D01*
X275465Y364791D02*
Y368728D01*
X155000Y220925D02*
Y224075D01*
X153425Y222500D02*
X156575D01*
X131925Y212016D02*
X135075D01*
X133500Y210441D02*
Y213591D01*
X141925Y212016D02*
X145075D01*
X143500Y210441D02*
Y213591D01*
X136925Y212213D02*
X140075D01*
X138500Y210638D02*
Y213787D01*
X139677Y204000D02*
X142827D01*
X141252Y202425D02*
Y205575D01*
X109000Y220378D02*
Y223528D01*
X107425Y221953D02*
X110575D01*
X160500Y252425D02*
Y255575D01*
X158925Y254000D02*
X162075D01*
X158016Y236119D02*
Y239269D01*
X156441Y237694D02*
X159591D01*
X158016Y231314D02*
Y234463D01*
X156441Y232889D02*
X159591D01*
X160303Y257425D02*
Y260575D01*
X158728Y259000D02*
X161878D01*
X158016Y246585D02*
Y249735D01*
X156441Y248160D02*
X159591D01*
X158016Y241425D02*
Y244575D01*
X156441Y243000D02*
X159591D01*
X143925Y262984D02*
X147075D01*
X145500Y261409D02*
Y264559D01*
X148925Y262984D02*
X152075D01*
X150500Y261409D02*
Y264559D01*
X318141Y357397D02*
X321291D01*
X319716Y355822D02*
Y358972D01*
X318141Y362397D02*
X321291D01*
X319716Y360822D02*
Y363972D01*
X318452Y377897D02*
X321602D01*
X320027Y376322D02*
Y379472D01*
X329811Y358897D02*
X333748D01*
X331779Y356929D02*
Y360866D01*
X318456Y372897D02*
X321606D01*
X320031Y371322D02*
Y374472D01*
X329811Y374397D02*
X333748D01*
X331779Y372429D02*
Y376366D01*
X93425Y143228D02*
X96575D01*
X95000Y141654D02*
Y144803D01*
X89075Y141654D02*
Y144803D01*
X87500Y143228D02*
X90650D01*
X241500Y163031D02*
Y166969D01*
X239531Y165000D02*
X243468D01*
X291925Y366248D02*
X295075D01*
X293500Y364673D02*
Y367823D01*
X265925Y366248D02*
X269075D01*
X267500Y364673D02*
Y367823D01*
X286000Y326925D02*
Y330075D01*
X284425Y328500D02*
X287575D01*
X143500Y330925D02*
Y334075D01*
X141925Y332500D02*
X145075D01*
X275000Y326925D02*
Y330075D01*
X273425Y328500D02*
X276575D01*
X137409Y370000D02*
X140559D01*
X138984Y368425D02*
Y371575D01*
X137409Y364000D02*
X140559D01*
X138984Y362425D02*
Y365575D01*
X129425Y301000D02*
X132575D01*
X131000Y299425D02*
Y302575D01*
D88*
X111882Y173744D02*
Y178075D01*
X122118Y173744D02*
Y178075D01*
X111882D02*
X122118D01*
X111882Y173744D02*
X122118D01*
X202710Y278363D02*
Y288993D01*
X207434Y278363D02*
Y288993D01*
X202710Y278363D02*
X207434D01*
X202710Y288993D02*
X207434D01*
X190710Y278363D02*
Y288993D01*
X195434Y278363D02*
Y288993D01*
X190710Y278363D02*
X195434D01*
X190710Y288993D02*
X195434D01*
X196710Y278363D02*
Y288993D01*
X201434Y278363D02*
Y288993D01*
X196710Y278363D02*
X201434D01*
X196710Y288993D02*
X201434D01*
X208710Y278363D02*
Y288993D01*
X213434Y278363D02*
Y288993D01*
X208710Y278363D02*
X213434D01*
X208710Y288993D02*
X213434D01*
X214710Y278363D02*
Y288993D01*
X219434Y278363D02*
Y288993D01*
X214710Y278363D02*
X219434D01*
X214710Y288993D02*
X219434D01*
X177500Y182653D02*
Y189347D01*
Y182653D02*
X188130D01*
Y179898D02*
Y182653D01*
Y179898D02*
X216870D01*
Y182653D01*
X227500D01*
Y189347D01*
X216870D02*
X227500D01*
X216870D02*
Y192102D01*
X188130D02*
X216870D01*
X188130Y189347D02*
Y192102D01*
X177500Y189347D02*
X188130D01*
X177500Y197653D02*
Y204346D01*
Y197653D02*
X188130D01*
Y194898D02*
Y197653D01*
Y194898D02*
X216870D01*
Y197653D01*
X227500D01*
Y204346D01*
X216870D02*
X227500D01*
X216870D02*
Y207102D01*
X188130D02*
X216870D01*
X188130Y204346D02*
Y207102D01*
X177500Y204346D02*
X188130D01*
X272362Y251201D02*
Y261831D01*
X267638Y251201D02*
Y261831D01*
X272362D01*
X267638Y251201D02*
X272362D01*
X242701Y250862D02*
X253331D01*
X242701Y246138D02*
X253331D01*
X242701D02*
Y250862D01*
X253331Y246138D02*
Y250862D01*
X265362Y251201D02*
Y261831D01*
X260638Y251201D02*
Y261831D01*
X265362D01*
X260638Y251201D02*
X265362D01*
X228134Y220669D02*
Y231299D01*
X223410Y220669D02*
Y231299D01*
X228134D01*
X223410Y220669D02*
X228134D01*
X190899Y224627D02*
X219245D01*
X190899Y258092D02*
X219245D01*
X190899Y224627D02*
Y258092D01*
X219245Y224627D02*
Y258092D01*
X234362Y220669D02*
Y231299D01*
X229638Y220669D02*
Y231299D01*
X234362D01*
X229638Y220669D02*
X234362D01*
X96835Y241382D02*
Y251618D01*
X101165Y241382D02*
Y251618D01*
X96835Y241382D02*
X101165D01*
X96835Y251618D02*
X101165D01*
X136138Y327185D02*
Y337815D01*
X140862Y327185D02*
Y337815D01*
X136138Y327185D02*
X140862D01*
X136138Y337815D02*
X140862D01*
X114248Y190634D02*
X118578D01*
X114248Y180398D02*
X118578D01*
Y190634D01*
X114248Y180398D02*
Y190634D01*
X118945Y180382D02*
Y190618D01*
X123275Y180382D02*
Y190618D01*
X118945Y180382D02*
X123275D01*
X118945Y190618D02*
X123275D01*
X147882Y184335D02*
Y188665D01*
X158118Y184335D02*
Y188665D01*
X147882D02*
X158118D01*
X147882Y184335D02*
X158118D01*
X147882Y179335D02*
Y183665D01*
X158118Y179335D02*
Y183665D01*
X147882D02*
X158118D01*
X147882Y179335D02*
X158118D01*
Y174138D02*
Y178469D01*
X147882Y174138D02*
Y178469D01*
Y174138D02*
X158118D01*
X147882Y178469D02*
X158118D01*
X147882Y169032D02*
Y173362D01*
X158118Y169032D02*
Y173362D01*
X147882D02*
X158118D01*
X147882Y169032D02*
X158118D01*
X136685Y178862D02*
X147315D01*
X136685Y174138D02*
X147315D01*
X136685D02*
Y178862D01*
X147315Y174138D02*
Y178862D01*
X136685Y173362D02*
X147315D01*
X136685Y168638D02*
X147315D01*
X136685D02*
Y173362D01*
X147315Y168638D02*
Y173362D01*
X169760Y168638D02*
Y173362D01*
X159130Y168638D02*
Y173362D01*
Y168638D02*
X169760D01*
X159130Y173362D02*
X169760D01*
X159130Y174138D02*
Y178469D01*
X169366Y174138D02*
Y178469D01*
X159130D02*
X169366D01*
X159130Y174138D02*
X169366D01*
X111882Y173091D02*
X122118D01*
X111882Y168760D02*
X122118D01*
X111882D02*
Y173091D01*
X122118Y168760D02*
Y173091D01*
X100488D02*
X111118D01*
X100488Y168366D02*
X111118D01*
X100488D02*
Y173091D01*
X111118Y168366D02*
Y173091D01*
X100882Y178075D02*
X111118D01*
X100882Y173744D02*
X111118D01*
X100882D02*
Y178075D01*
X111118Y173744D02*
Y178075D01*
X166882Y306165D02*
X177118D01*
X166882Y301835D02*
X177118D01*
X166882D02*
Y306165D01*
X177118Y301835D02*
Y306165D01*
X96760Y207390D02*
X101091D01*
X96760Y197153D02*
X101091D01*
Y207390D01*
X96760Y197153D02*
Y207390D01*
X96835Y231118D02*
X101165D01*
X96835Y220882D02*
X101165D01*
Y231118D01*
X96835Y220882D02*
Y231118D01*
X271655Y356275D02*
X279135D01*
X271655Y341708D02*
X279135D01*
Y356275D01*
X271655Y341708D02*
Y356275D01*
X166882Y301165D02*
X177118D01*
X166882Y296835D02*
X177118D01*
X166882D02*
Y301165D01*
X177118Y296835D02*
Y301165D01*
X144071Y270602D02*
Y283398D01*
X127929D02*
X144071D01*
X127929Y270602D02*
X144071D01*
X127929D02*
Y283398D01*
X141118Y265835D02*
Y270165D01*
X130882Y265835D02*
Y270165D01*
Y265835D02*
X141118D01*
X130882Y270165D02*
X141118D01*
X144638Y272276D02*
X149362D01*
X144638Y282906D02*
X149362D01*
X144638Y272276D02*
Y282906D01*
X149362Y272276D02*
Y282906D01*
X122638Y282906D02*
X127362D01*
X122638Y272276D02*
X127362D01*
Y282906D01*
X122638Y272276D02*
Y282906D01*
X346370Y313335D02*
Y317665D01*
X336134Y313335D02*
Y317665D01*
Y313335D02*
X346370D01*
X336134Y317665D02*
X346370D01*
X336134Y340665D02*
X346370D01*
X336134Y336335D02*
X346370D01*
X336134D02*
Y340665D01*
X346370Y336335D02*
Y340665D01*
X293335Y323382D02*
X297665D01*
X293335Y333618D02*
X297665D01*
X293335Y323382D02*
Y333618D01*
X297665Y323382D02*
Y333618D01*
X291725Y341708D02*
Y356275D01*
X299205Y341708D02*
Y356275D01*
X291725Y341708D02*
X299205D01*
X291725Y356275D02*
X299205D01*
X281690Y341708D02*
Y356275D01*
X289170Y341708D02*
Y356275D01*
X281690Y341708D02*
X289170D01*
X281690Y356275D02*
X289170D01*
X289240Y359476D02*
Y374043D01*
X281760Y359476D02*
Y374043D01*
X289240D01*
X281760Y359476D02*
X289240D01*
X279205D02*
Y374043D01*
X271725Y359476D02*
Y374043D01*
X279205D01*
X271725Y359476D02*
X279205D01*
X152638Y217185D02*
X157362D01*
X152638Y227815D02*
X157362D01*
X152638Y217185D02*
Y227815D01*
X157362Y217185D02*
Y227815D01*
X135862Y206701D02*
Y217331D01*
X131138Y206701D02*
Y217331D01*
X135862D01*
X131138Y206701D02*
X135862D01*
X145862D02*
Y217331D01*
X141138Y206701D02*
Y217331D01*
X145862D01*
X141138Y206701D02*
X145862D01*
X140665Y207095D02*
Y217331D01*
X136335Y207095D02*
Y217331D01*
X140665D01*
X136335Y207095D02*
X140665D01*
X146370Y201835D02*
Y206165D01*
X136134Y201835D02*
Y206165D01*
Y201835D02*
X146370D01*
X136134Y206165D02*
X146370D01*
X106638Y216638D02*
X111362D01*
X106638Y227268D02*
X111362D01*
X106638Y216638D02*
Y227268D01*
X111362Y216638D02*
Y227268D01*
X155185Y256362D02*
X165815D01*
X155185Y251638D02*
X165815D01*
X155185D02*
Y256362D01*
X165815Y251638D02*
Y256362D01*
X152701Y240056D02*
X163331D01*
X152701Y235332D02*
X163331D01*
X152701D02*
Y240056D01*
X163331Y235332D02*
Y240056D01*
X152701Y235251D02*
X163331D01*
X152701Y230526D02*
X163331D01*
X152701D02*
Y235251D01*
X163331Y230526D02*
Y235251D01*
X155185Y261165D02*
X165421D01*
X155185Y256835D02*
X165421D01*
X155185D02*
Y261165D01*
X165421Y256835D02*
Y261165D01*
X152701Y250522D02*
X163331D01*
X152701Y245798D02*
X163331D01*
X152701D02*
Y250522D01*
X163331Y245798D02*
Y250522D01*
X152701Y245362D02*
X163331D01*
X152701Y240638D02*
X163331D01*
X152701D02*
Y245362D01*
X163331Y240638D02*
Y245362D01*
X143138Y257669D02*
Y268299D01*
X147862Y257669D02*
Y268299D01*
X143138Y257669D02*
X147862D01*
X143138Y268299D02*
X147862D01*
X148138Y257669D02*
Y268299D01*
X152862Y257669D02*
Y268299D01*
X148138Y257669D02*
X152862D01*
X148138Y268299D02*
X152862D01*
X373524Y355961D02*
X377264D01*
X373524D02*
Y357142D01*
X377264Y351039D02*
Y355961D01*
X347736Y336276D02*
X351476D01*
Y335094D02*
Y336276D01*
X347736Y351039D02*
X351476D01*
X347736Y341197D02*
X351476D01*
Y351039D01*
X347736Y336276D02*
Y341197D01*
X351476Y357142D02*
X373524D01*
X347736Y355961D02*
X351476D01*
Y357142D01*
X347736Y351039D02*
Y355961D01*
X351476Y335094D02*
X373524D01*
Y336276D02*
X377264D01*
X373524Y335094D02*
Y336276D01*
Y351039D02*
X377264D01*
X373524Y341197D02*
X377264D01*
X373524D02*
Y351039D01*
X377264Y336276D02*
Y341197D01*
X314598Y355232D02*
Y359562D01*
X324834Y355232D02*
Y359562D01*
X314598D02*
X324834D01*
X314598Y355232D02*
X324834D01*
Y360232D02*
Y364563D01*
X314598Y360232D02*
Y364563D01*
Y360232D02*
X324834D01*
X314598Y364563D02*
X324834D01*
X325145Y375732D02*
Y380063D01*
X314909Y375732D02*
Y380063D01*
Y375732D02*
X325145D01*
X314909Y380063D02*
X325145D01*
X373524Y332842D02*
X377264D01*
X373524D02*
Y334024D01*
X377264Y327921D02*
Y332842D01*
X347736Y313158D02*
X351476D01*
Y311976D02*
Y313158D01*
X347736Y327921D02*
X351476D01*
X347736Y318079D02*
X351476D01*
Y327921D01*
X347736Y313158D02*
Y318079D01*
X351476Y334024D02*
X373524D01*
X347736Y332842D02*
X351476D01*
Y334024D01*
X347736Y327921D02*
Y332842D01*
X351476Y311976D02*
X373524D01*
Y313158D02*
X377264D01*
X373524Y311976D02*
Y313158D01*
Y327921D02*
X377264D01*
X373524Y318079D02*
X377264D01*
X373524D02*
Y327921D01*
X377264Y313158D02*
Y318079D01*
X325677Y352755D02*
Y365039D01*
X337882Y352755D02*
Y365039D01*
X325677D02*
X337882D01*
X325677Y352755D02*
X337882D01*
X314913Y370732D02*
Y375062D01*
X325149Y370732D02*
Y375062D01*
X314913D02*
X325149D01*
X314913Y370732D02*
X325149D01*
X325677Y368255D02*
Y380539D01*
X337882Y368255D02*
Y380539D01*
X325677D02*
X337882D01*
X325677Y368255D02*
X337882D01*
X97165Y138110D02*
Y148346D01*
X92835Y138110D02*
Y148346D01*
X97165D01*
X92835Y138110D02*
X97165D01*
X86910D02*
X91240D01*
X86910Y148346D02*
X91240D01*
X86910Y138110D02*
Y148346D01*
X91240Y138110D02*
Y148346D01*
X237563Y173661D02*
X245437D01*
X237563Y156339D02*
X245437D01*
Y173661D01*
X237563Y156339D02*
Y173661D01*
X295665Y361130D02*
Y371366D01*
X291335Y361130D02*
Y371366D01*
X295665D01*
X291335Y361130D02*
X295665D01*
X269665D02*
Y371366D01*
X265335Y361130D02*
Y371366D01*
X269665D01*
X265335Y361130D02*
X269665D01*
X283835Y323382D02*
X288165D01*
X283835Y333618D02*
X288165D01*
X283835Y323382D02*
Y333618D01*
X288165Y323382D02*
Y333618D01*
X141138Y337815D02*
X145862D01*
X141138Y327185D02*
X145862D01*
Y337815D01*
X141138Y327185D02*
Y337815D01*
X272835Y323382D02*
X277165D01*
X272835Y333618D02*
X277165D01*
X272835Y323382D02*
Y333618D01*
X277165Y323382D02*
Y333618D01*
X144299Y367638D02*
Y372362D01*
X133669Y367638D02*
Y372362D01*
Y367638D02*
X144299D01*
X133669Y372362D02*
X144299D01*
Y361638D02*
Y366362D01*
X133669Y361638D02*
Y366362D01*
Y361638D02*
X144299D01*
X133669Y366362D02*
X144299D01*
X125882Y298835D02*
Y303165D01*
X136118Y298835D02*
Y303165D01*
X125882D02*
X136118D01*
X125882Y298835D02*
X136118D01*
M02*
