M48
;Layer_Color=9474304
;FILE_FORMAT=2:5
INCH,LZ
;TYPE=PLATED
T1F00S00C0.01378
T2F00S00C0.01575
T3F00S00C0.01968
T4F00S00C0.03150
T5F00S00C0.03543
T6F00S00C0.06693
T7F00S00C0.07500
T8F00S00C0.14173
T9F00S00C0.17717
%
T01
X0345472Y0148819
X0350787
X0356102
X0353445Y0154134
X034813
X0342815
X0345472Y0159449
X0350787
X0356102
X0353445Y0164764
X034813
X0342815
X03375
X0340157Y0159449
X034813Y0233858
X0353445
X035876
X0364075
X036939
X0374705
X0377362Y0239173
X0372047
X0366732
X036939Y0244488
X0374705
X0377362Y0249803
X0372047
X0366732
X0305Y02585
Y02635
Y02685
X0299
Y02635
Y02585
X0293
Y02635
Y02685
X0270054Y0248492
X0263053
X0255962
X0217072Y0263663
Y0268663
Y0273663
X0211072
Y0268663
Y0263663
X0205072
Y0268663
Y0273663
X0199072
Y0268663
Y0263663
X0193072
Y0268663
Y0273663
Y0291609
X0199085
X0205099
X0211112
X0217125
X0188Y0306
X0183
X0168Y02585
X0166Y0248
Y0243
X01665Y0235
X0225772Y0218
X0232
X02362Y0177
X02415
X02468
X02895Y0194
Y0199
Y0204
X02955
Y0199
Y0194
X03015
Y0199
Y0204
X013963Y023863
X01345Y02525
X0131Y02495
X0128Y02525
X01145Y02585
X01105Y0255
X0099Y0239
X0107Y02295
X0120806Y0228787
X01085Y02135
X0099Y02185
X0098925Y0195291
X0125Y0285
X0152Y0274
X0155Y0269
X01555Y02635
X01335Y0329
X01315Y0361
X01445Y0383
X02185
Y03785
Y03745
X0216Y03325
X0212Y0329
X0278Y0376
X0289
X0322Y0368
X034Y03615
Y03765
X0355Y0345
Y03215
T02
X00835Y01465
X01725Y0171
X0162Y02145
X0169Y0294
X0136Y0296
X0137Y023
X015Y02195
X0149Y0204
X0109Y01655
X0141Y034
X01615Y03405
X0165Y03435
X01615Y03325
Y03545
Y0359
X017597Y0324029
X02185Y03435
X02685Y0355
X02625Y03695
X02985
X031197Y035703
X0301Y03255
X0338Y03205
X033797Y0333529
X0338471Y0354029
X0362Y03535
Y0330411
T03
X0191Y0221
X0196008Y0221008
X0201Y0221
T04
X0180847Y0186
Y0201
X0224153
Y0186
T05
X0121398Y0107016
X0131398
X013Y0148
X014
X015
X016
X017
X0173602Y0107016
X0163602
X0165Y0158
X0245Y0229
Y0239
X02655Y02195
Y02095
X026Y0288
X024622
X0089Y02895
Y02995
Y03095
Y02765
Y02665
Y02535
Y02435
Y02305
Y02205
Y02075
Y01975
X0125Y0158
X0135
X0145
X0155
X0089Y03225
Y03325
Y03425
Y03525
T06
X0216512Y01295
X0305488
X0374488Y029
X0285512
T07
X0116496Y0135008
X0178504
T08
X0125Y0123
X017Y0123
T09
X00915Y01135
X03705
X00915Y0373
X03705
M30
