G04*
G04 #@! TF.GenerationSoftware,Altium Limited,Altium Designer,22.7.1 (60)*
G04*
G04 Layer_Color=16711935*
%FSLAX25Y25*%
%MOIN*%
G70*
G04*
G04 #@! TF.SameCoordinates,E9EB7054-F832-478C-845A-F08F9BC20AEA*
G04*
G04*
G04 #@! TF.FilePolarity,Negative*
G04*
G01*
G75*
%ADD50C,0.11811*%
%ADD51R,0.11811X0.11811*%
%ADD52C,0.07493*%
%ADD53R,0.06706X0.06706*%
%ADD54C,0.06706*%
%ADD55C,0.06800*%
%ADD56C,0.06706*%
%ADD57C,0.10249*%
%ADD58C,0.03359*%
%ADD59C,0.03556*%
%ADD60C,0.03162*%
%ADD78R,0.07087X0.08268*%
D50*
X305488Y129500D02*
D03*
X285512Y290000D02*
D03*
D51*
X216512Y129500D02*
D03*
X374488Y290000D02*
D03*
D52*
X262500Y272000D02*
D03*
X248721D02*
D03*
D53*
X247500Y213000D02*
D03*
X89000Y266500D02*
D03*
Y220500D02*
D03*
Y197500D02*
D03*
Y243500D02*
D03*
Y322500D02*
D03*
Y289500D02*
D03*
D54*
X247500Y223000D02*
D03*
X89000Y276500D02*
D03*
Y230500D02*
D03*
Y207500D02*
D03*
Y253500D02*
D03*
Y332500D02*
D03*
Y342500D02*
D03*
Y352500D02*
D03*
Y299500D02*
D03*
Y309500D02*
D03*
D55*
X370500Y373000D02*
D03*
X170000Y123000D02*
D03*
X125000Y123000D02*
D03*
X91500Y373000D02*
D03*
Y113500D02*
D03*
X370500D02*
D03*
D56*
X173602Y107016D02*
D03*
X121398D02*
D03*
X163602D02*
D03*
X170000Y148000D02*
D03*
X125000Y158000D02*
D03*
X165000D02*
D03*
X160000Y148000D02*
D03*
X155000Y158000D02*
D03*
X150000Y148000D02*
D03*
X145000Y158000D02*
D03*
X140000Y148000D02*
D03*
X135000Y158000D02*
D03*
X130000Y148000D02*
D03*
X131398Y107016D02*
D03*
D57*
X178504Y135008D02*
D03*
X116496D02*
D03*
D58*
X99000Y239000D02*
D03*
X108500Y213500D02*
D03*
X98925Y195291D02*
D03*
X99000Y218500D02*
D03*
X139630Y238630D02*
D03*
X133500Y329000D02*
D03*
X322000Y368000D02*
D03*
X131500Y361000D02*
D03*
X206027Y206000D02*
D03*
X202008Y206008D02*
D03*
X197973Y206000D02*
D03*
X212000Y329000D02*
D03*
X216000Y332500D02*
D03*
X131000Y249500D02*
D03*
X128000Y252500D02*
D03*
X218500Y374500D02*
D03*
X355000Y345000D02*
D03*
Y321500D02*
D03*
X218500Y378500D02*
D03*
X134500Y252500D02*
D03*
X125000Y285000D02*
D03*
X152000Y274000D02*
D03*
X188000Y306000D02*
D03*
X183000D02*
D03*
X110500Y255000D02*
D03*
X114500Y258500D02*
D03*
X258462Y232492D02*
D03*
X272553D02*
D03*
X265553D02*
D03*
X230772Y202031D02*
D03*
X237000D02*
D03*
X217112Y280109D02*
D03*
X205085D02*
D03*
X199072D02*
D03*
X211099D02*
D03*
X223125D02*
D03*
X246800Y177000D02*
D03*
X241500D02*
D03*
X236200D02*
D03*
X168000Y258500D02*
D03*
X166000Y243000D02*
D03*
Y248000D02*
D03*
X166500Y235000D02*
D03*
X218500Y383000D02*
D03*
X144500D02*
D03*
X155000Y269000D02*
D03*
X155500Y263500D02*
D03*
X107000Y229500D02*
D03*
X120806Y228787D02*
D03*
D59*
X133500Y335500D02*
D03*
X137000Y230000D02*
D03*
X172500Y171000D02*
D03*
X109000Y165500D02*
D03*
X162500Y348000D02*
D03*
X169000Y294000D02*
D03*
X136000Y296000D02*
D03*
X298500Y369500D02*
D03*
X162000Y214500D02*
D03*
X149000Y204000D02*
D03*
X150000Y219500D02*
D03*
X338000Y320500D02*
D03*
X337970Y333529D02*
D03*
X362000Y330411D02*
D03*
Y353500D02*
D03*
X338471Y354029D02*
D03*
X311970Y357030D02*
D03*
X301000Y325500D02*
D03*
X175970Y324029D02*
D03*
X268500Y355000D02*
D03*
X262500Y369500D02*
D03*
X83500Y146500D02*
D03*
X218500Y343500D02*
D03*
D60*
X356102Y159449D02*
D03*
Y148819D02*
D03*
X353445Y164764D02*
D03*
X350787Y159449D02*
D03*
X353445Y154134D02*
D03*
X350787Y148819D02*
D03*
X348130Y164764D02*
D03*
X345472Y159449D02*
D03*
X348130Y154134D02*
D03*
X345472Y148819D02*
D03*
X342815Y164764D02*
D03*
X340157Y159449D02*
D03*
X342815Y154134D02*
D03*
X337500Y164764D02*
D03*
X377362Y249803D02*
D03*
Y239173D02*
D03*
X372047Y249803D02*
D03*
X374705Y244488D02*
D03*
X372047Y239173D02*
D03*
X374705Y233858D02*
D03*
X366732Y249803D02*
D03*
X369390Y244488D02*
D03*
X366732Y239173D02*
D03*
X369390Y233858D02*
D03*
X364075D02*
D03*
X358760D02*
D03*
X353445D02*
D03*
X348130D02*
D03*
X289000Y376000D02*
D03*
X340000Y376500D02*
D03*
X278000Y376000D02*
D03*
X289500Y204000D02*
D03*
Y199000D02*
D03*
Y194000D02*
D03*
X295500D02*
D03*
Y199000D02*
D03*
X301500Y194000D02*
D03*
Y199000D02*
D03*
Y204000D02*
D03*
X295500D02*
D03*
X217072Y247663D02*
D03*
X223072D02*
D03*
Y252663D02*
D03*
X217072D02*
D03*
X205072Y257663D02*
D03*
X199072Y252663D02*
D03*
X211072Y257663D02*
D03*
X205072Y252663D02*
D03*
Y247663D02*
D03*
X211072D02*
D03*
Y252663D02*
D03*
X199072Y247663D02*
D03*
Y257663D02*
D03*
X205072Y262663D02*
D03*
X217072D02*
D03*
X223072D02*
D03*
Y257663D02*
D03*
X217072D02*
D03*
X199072Y262663D02*
D03*
X211072D02*
D03*
X340000Y361500D02*
D03*
D78*
X333500Y149161D02*
D03*
Y131839D02*
D03*
M02*
