M48
;Layer_Color=9474304
;FILE_FORMAT=2:5
INCH,TZ
;TYPE=PLATED
T1F00S00C0.01378
T2F00S00C0.01575
T3F00S00C0.03543
T4F00S00C0.06693
T5F00S00C0.07500
T6F00S00C0.14173
T7F00S00C0.17717
%
T01
X345472Y148819
X350787
X356102
X353445Y154134
X348130
X342815
X345472Y159449
X350787
X356102
X353445Y164764
X348130
X342815
X337500
X340157Y159449
X348130Y233858
X353445
X358760
X364075
X369390
X374705
X377362Y239173
X372047
X366732
X369390Y244488
X374705
X377362Y249803
X372047
X366732
X301500Y204000
Y199000
Y194000
X295500
Y199000
Y204000
X289500
Y199000
Y194000
X272553Y232492
X265553
X258462
X223072Y247663
Y252663
Y257663
Y262663
X217072
Y257663
Y252663
Y247663
X211072
Y252663
Y257663
Y262663
X205072
Y257663
Y252663
Y247663
X199072
Y252663
Y257663
Y262663
Y280109
X205085
X211099
X217112
X223125
X188000Y306000
X183000
X168000Y258500
X166000Y248000
Y243000
X166500Y235000
X197973Y206000
X202008Y206008
X206027Y206000
X230772Y202031
X237000
X236200Y177000
X241500
X246800
X98925Y195291
X99000Y218500
X108500Y213500
X107000Y229500
X120806Y228787
X139630Y238630
X134500Y252500
X131000Y249500
X128000Y252500
X114500Y258500
X110500Y255000
X99000Y239000
X125000Y285000
X152000Y274000
X155000Y269000
X155500Y263500
X133500Y329000
X131500Y361000
X144500Y383000
X218500
Y378500
Y374500
X216000Y332500
X212000Y329000
X278000Y376000
X289000
X322000Y368000
X340000Y361500
Y376500
X355000Y345000
Y321500
T02
X83500Y146500
X172500Y171000
X162000Y214500
X169000Y294000
X136000Y296000
X137000Y230000
X150000Y219500
X149000Y204000
X109000Y165500
X133500Y335500
X162500Y348000
X175970Y324029
X218500Y343500
X268500Y355000
X262500Y369500
X298500
X311970Y357030
X301000Y325500
X338000Y320500
X337970Y333529
X338471Y354029
X362000Y353500
Y330411
T03
X121398Y107016
X131398
X130000Y148000
X140000
X150000
X160000
X170000
X173602Y107016
X163602
X165000Y158000
X247500Y213000
Y223000
X248721Y272000
X262500
X89000Y276500
Y266500
Y253500
Y243500
Y230500
Y220500
Y207500
Y197500
X125000Y158000
X135000
X145000
X155000
X89000Y289500
Y299500
Y309500
Y322500
Y332500
Y342500
Y352500
T04
X216512Y129500
X305488
X374488Y290000
X285512
T05
X116496Y135008
X178504
T06
X125000Y123000
X170000Y123000
T07
X91500Y113500
X370500
X91500Y373000
X370500
M30
