G04*
G04 #@! TF.GenerationSoftware,Altium Limited,Altium Designer,21.6.4 (81)*
G04*
G04 Layer_Color=16711935*
%FSLAX25Y25*%
%MOIN*%
G70*
G04*
G04 #@! TF.SameCoordinates,82150E9F-1309-4CA2-80C3-B22644BF42D1*
G04*
G04*
G04 #@! TF.FilePolarity,Positive*
G04*
G01*
G75*
%ADD10C,0.00787*%
G36*
X249432Y256902D02*
X249097D01*
Y259123D01*
X247856D01*
Y259421D01*
X249432D01*
Y256902D01*
D02*
G37*
G36*
X246731Y257452D02*
X246734Y257456D01*
X246753Y257470D01*
X246775Y257492D01*
X246811Y257518D01*
X246851Y257550D01*
X246902Y257587D01*
X246960Y257627D01*
X247026Y257667D01*
X247029D01*
X247033Y257670D01*
X247055Y257685D01*
X247091Y257703D01*
X247135Y257725D01*
X247186Y257751D01*
X247240Y257776D01*
X247295Y257802D01*
X247350Y257823D01*
Y257525D01*
X247346D01*
X247339Y257518D01*
X247324Y257514D01*
X247306Y257503D01*
X247284Y257492D01*
X247259Y257477D01*
X247197Y257441D01*
X247124Y257401D01*
X247051Y257350D01*
X246975Y257292D01*
X246898Y257230D01*
X246895Y257226D01*
X246891Y257223D01*
X246880Y257212D01*
X246866Y257201D01*
X246833Y257165D01*
X246789Y257121D01*
X246745Y257070D01*
X246698Y257012D01*
X246658Y256953D01*
X246622Y256891D01*
X246422D01*
Y259421D01*
X246731D01*
Y257452D01*
D02*
G37*
G36*
X162000Y227712D02*
X160031D01*
X160034Y227709D01*
X160049Y227691D01*
X160071Y227669D01*
X160096Y227632D01*
X160129Y227592D01*
X160166Y227541D01*
X160205Y227483D01*
X160246Y227418D01*
Y227414D01*
X160249Y227410D01*
X160264Y227389D01*
X160282Y227352D01*
X160304Y227308D01*
X160329Y227257D01*
X160355Y227203D01*
X160380Y227148D01*
X160402Y227094D01*
X160104D01*
Y227097D01*
X160096Y227105D01*
X160093Y227119D01*
X160082Y227137D01*
X160071Y227159D01*
X160056Y227185D01*
X160020Y227246D01*
X159980Y227319D01*
X159929Y227392D01*
X159871Y227469D01*
X159809Y227545D01*
X159805Y227549D01*
X159801Y227552D01*
X159791Y227563D01*
X159780Y227578D01*
X159743Y227610D01*
X159699Y227654D01*
X159649Y227698D01*
X159590Y227745D01*
X159532Y227785D01*
X159470Y227822D01*
Y228022D01*
X162000D01*
Y227712D01*
D02*
G37*
G36*
X161334Y226522D02*
X161378Y226515D01*
X161428Y226508D01*
X161483Y226493D01*
X161541Y226475D01*
X161600Y226449D01*
X161607Y226446D01*
X161625Y226435D01*
X161651Y226420D01*
X161687Y226398D01*
X161723Y226369D01*
X161763Y226340D01*
X161803Y226304D01*
X161836Y226264D01*
X161840Y226260D01*
X161851Y226245D01*
X161865Y226220D01*
X161880Y226187D01*
X161902Y226147D01*
X161924Y226100D01*
X161942Y226049D01*
X161960Y225987D01*
Y225980D01*
X161967Y225958D01*
X161971Y225922D01*
X161978Y225874D01*
X161986Y225816D01*
X161993Y225747D01*
X161996Y225670D01*
X162000Y225583D01*
Y224622D01*
X159481D01*
Y225612D01*
X159485Y225638D01*
Y225667D01*
X159492Y225732D01*
X159499Y225805D01*
X159514Y225882D01*
X159532Y225958D01*
X159558Y226027D01*
Y226031D01*
X159561Y226034D01*
X159572Y226056D01*
X159590Y226089D01*
X159616Y226125D01*
X159649Y226169D01*
X159689Y226216D01*
X159740Y226260D01*
X159794Y226300D01*
X159801Y226304D01*
X159823Y226315D01*
X159852Y226333D01*
X159896Y226351D01*
X159947Y226369D01*
X160002Y226388D01*
X160064Y226398D01*
X160125Y226402D01*
X160133D01*
X160151D01*
X160184Y226398D01*
X160224Y226391D01*
X160271Y226380D01*
X160322Y226362D01*
X160373Y226340D01*
X160427Y226311D01*
X160435Y226307D01*
X160449Y226296D01*
X160478Y226275D01*
X160508Y226245D01*
X160544Y226209D01*
X160584Y226165D01*
X160620Y226111D01*
X160657Y226049D01*
Y226053D01*
X160661Y226060D01*
X160664Y226071D01*
X160671Y226085D01*
X160686Y226129D01*
X160712Y226180D01*
X160744Y226235D01*
X160784Y226296D01*
X160832Y226351D01*
X160890Y226402D01*
X160897Y226406D01*
X160919Y226420D01*
X160952Y226442D01*
X160995Y226464D01*
X161054Y226486D01*
X161116Y226508D01*
X161188Y226522D01*
X161268Y226526D01*
X161272D01*
X161276D01*
X161298D01*
X161334Y226522D01*
D02*
G37*
G36*
X159780Y222835D02*
X160559D01*
Y224018D01*
X160857D01*
Y222835D01*
X162000D01*
Y222500D01*
X159481D01*
Y224203D01*
X159780D01*
Y222835D01*
D02*
G37*
%LPC*%
G36*
X161268Y226184D02*
X161261D01*
X161247D01*
X161217Y226180D01*
X161185Y226173D01*
X161148Y226165D01*
X161108Y226151D01*
X161068Y226133D01*
X161028Y226107D01*
X161024Y226103D01*
X161010Y226093D01*
X160992Y226078D01*
X160970Y226056D01*
X160944Y226027D01*
X160919Y225991D01*
X160897Y225951D01*
X160879Y225903D01*
X160875Y225896D01*
X160872Y225882D01*
X160864Y225849D01*
X160857Y225809D01*
X160850Y225758D01*
X160843Y225696D01*
X160835Y225619D01*
Y224957D01*
X161702D01*
Y225674D01*
X161698Y225750D01*
X161694Y225783D01*
X161691Y225812D01*
Y225816D01*
X161687Y225831D01*
X161683Y225852D01*
X161676Y225878D01*
X161654Y225940D01*
X161625Y226002D01*
X161621Y226005D01*
X161614Y226016D01*
X161603Y226031D01*
X161589Y226049D01*
X161567Y226067D01*
X161545Y226093D01*
X161516Y226111D01*
X161483Y226133D01*
X161479Y226136D01*
X161469Y226140D01*
X161447Y226147D01*
X161421Y226158D01*
X161392Y226169D01*
X161356Y226176D01*
X161312Y226180D01*
X161268Y226184D01*
D02*
G37*
G36*
X160166Y226074D02*
X160158D01*
X160144D01*
X160122Y226071D01*
X160093Y226067D01*
X160056Y226060D01*
X160020Y226049D01*
X159984Y226034D01*
X159947Y226013D01*
X159943Y226009D01*
X159932Y226002D01*
X159914Y225987D01*
X159896Y225969D01*
X159874Y225943D01*
X159852Y225914D01*
X159831Y225878D01*
X159816Y225838D01*
Y225834D01*
X159809Y225816D01*
X159805Y225791D01*
X159798Y225750D01*
X159791Y225696D01*
X159787Y225634D01*
X159780Y225554D01*
Y224957D01*
X160537D01*
Y225576D01*
X160533Y225623D01*
X160529Y225674D01*
X160526Y225725D01*
X160519Y225776D01*
X160511Y225816D01*
X160508Y225823D01*
X160504Y225838D01*
X160493Y225860D01*
X160478Y225889D01*
X160464Y225918D01*
X160442Y225951D01*
X160413Y225983D01*
X160384Y226009D01*
X160380Y226013D01*
X160369Y226020D01*
X160347Y226031D01*
X160322Y226042D01*
X160293Y226053D01*
X160257Y226063D01*
X160213Y226071D01*
X160166Y226074D01*
D02*
G37*
%LPD*%
D10*
X258893Y252913D02*
Y265930D01*
X239971D02*
X258893D01*
X239971Y252913D02*
Y265930D01*
Y252913D02*
X258893D01*
X158752Y217382D02*
X165248D01*
Y227618D01*
X158752D02*
X165248D01*
X158752Y217382D02*
Y227618D01*
M02*
