G04*
G04 #@! TF.GenerationSoftware,Altium Limited,Altium Designer,21.6.4 (81)*
G04*
G04 Layer_Color=12632256*
%FSLAX25Y25*%
%MOIN*%
G70*
G04*
G04 #@! TF.SameCoordinates,82150E9F-1309-4CA2-80C3-B22644BF42D1*
G04*
G04*
G04 #@! TF.FilePolarity,Positive*
G04*
G01*
G75*
%ADD51R,0.11811X0.11811*%
%ADD52C,0.11811*%
%ADD70C,0.05906*%
%ADD71R,0.05906X0.05906*%
%ADD72C,0.04724*%
%ADD73C,0.06693*%
%ADD74C,0.06000*%
%ADD75C,0.05906*%
%ADD76C,0.09449*%
D51*
X216512Y129500D02*
D03*
X374488Y290000D02*
D03*
D52*
X305488Y129500D02*
D03*
X285512Y290000D02*
D03*
D70*
X265500Y219500D02*
D03*
X245000Y239000D02*
D03*
X89000Y276500D02*
D03*
Y230500D02*
D03*
Y207500D02*
D03*
Y253500D02*
D03*
Y332500D02*
D03*
Y342500D02*
D03*
Y352500D02*
D03*
Y299500D02*
D03*
Y309500D02*
D03*
D71*
X265500Y209500D02*
D03*
X245000Y229000D02*
D03*
X89000Y266500D02*
D03*
Y220500D02*
D03*
Y197500D02*
D03*
Y243500D02*
D03*
Y322500D02*
D03*
Y289500D02*
D03*
D72*
X224153Y186000D02*
D03*
X180847D02*
D03*
X224153Y201000D02*
D03*
X180847D02*
D03*
D73*
X246220Y288000D02*
D03*
X260000D02*
D03*
D74*
X370500Y373000D02*
D03*
X170000Y123000D02*
D03*
X125000Y123000D02*
D03*
X91500Y373000D02*
D03*
Y113500D02*
D03*
X370500D02*
D03*
D75*
X173602Y107016D02*
D03*
X121398D02*
D03*
X163602D02*
D03*
X170000Y148000D02*
D03*
X125000Y158000D02*
D03*
X165000D02*
D03*
X160000Y148000D02*
D03*
X155000Y158000D02*
D03*
X150000Y148000D02*
D03*
X145000Y158000D02*
D03*
X140000Y148000D02*
D03*
X135000Y158000D02*
D03*
X130000Y148000D02*
D03*
X131398Y107016D02*
D03*
D76*
X178504Y135008D02*
D03*
X116496D02*
D03*
M02*
