G04*
G04 #@! TF.GenerationSoftware,Altium Limited,Altium Designer,21.6.4 (81)*
G04*
G04 Layer_Physical_Order=1*
G04 Layer_Color=255*
%FSLAX25Y25*%
%MOIN*%
G70*
G04*
G04 #@! TF.SameCoordinates,467C343A-BF68-42E8-BDDD-2ABA41F160E8*
G04*
G04*
G04 #@! TF.FilePolarity,Positive*
G04*
G01*
G75*
%ADD14C,0.01000*%
%ADD15R,0.03347X0.02756*%
%ADD16R,0.03740X0.03740*%
%ADD17R,0.02756X0.03347*%
%ADD18R,0.03740X0.03740*%
%ADD19R,0.02953X0.10000*%
%ADD20R,0.10000X0.02953*%
%ADD21R,0.04528X0.05315*%
%ADD22R,0.01000X0.04500*%
%ADD23R,0.04500X0.01000*%
%ADD24R,0.05512X0.04528*%
%ADD25R,0.06122X0.09080*%
G04:AMPARAMS|DCode=26|XSize=125.98mil|YSize=68.9mil|CornerRadius=2.07mil|HoleSize=0mil|Usage=FLASHONLY|Rotation=180.000|XOffset=0mil|YOffset=0mil|HoleType=Round|Shape=RoundedRectangle|*
%AMROUNDEDRECTD26*
21,1,0.12598,0.06476,0,0,180.0*
21,1,0.12185,0.06890,0,0,180.0*
1,1,0.00413,-0.06093,0.03238*
1,1,0.00413,0.06093,0.03238*
1,1,0.00413,0.06093,-0.03238*
1,1,0.00413,-0.06093,-0.03238*
%
%ADD26ROUNDEDRECTD26*%
G04:AMPARAMS|DCode=27|XSize=35.43mil|YSize=68.9mil|CornerRadius=1.95mil|HoleSize=0mil|Usage=FLASHONLY|Rotation=180.000|XOffset=0mil|YOffset=0mil|HoleType=Round|Shape=RoundedRectangle|*
%AMROUNDEDRECTD27*
21,1,0.03543,0.06500,0,0,180.0*
21,1,0.03154,0.06890,0,0,180.0*
1,1,0.00390,-0.01577,0.03250*
1,1,0.00390,0.01577,0.03250*
1,1,0.00390,0.01577,-0.03250*
1,1,0.00390,-0.01577,-0.03250*
%
%ADD27ROUNDEDRECTD27*%
%ADD28R,0.15748X0.04921*%
%ADD29R,0.04921X0.02362*%
%ADD30R,0.03937X0.02953*%
%ADD31R,0.03543X0.03150*%
%ADD32R,0.06890X0.04331*%
%ADD49C,0.11811*%
%ADD50R,0.11811X0.11811*%
%ADD60C,0.00707*%
%ADD61C,0.03750*%
%ADD62C,0.01200*%
%ADD63C,0.02000*%
%ADD64C,0.02500*%
%ADD65C,0.03000*%
%ADD66C,0.05000*%
%ADD67C,0.04000*%
%ADD68C,0.06693*%
%ADD69R,0.05906X0.05906*%
%ADD70C,0.05906*%
%ADD71C,0.06000*%
%ADD72C,0.05906*%
%ADD73C,0.09449*%
%ADD74C,0.02559*%
%ADD75C,0.02756*%
%ADD76C,0.02362*%
G36*
X228572Y232500D02*
X214602D01*
Y233194D01*
X217164D01*
X217635Y233288D01*
X218035Y233555D01*
X218301Y233954D01*
X218395Y234424D01*
Y236163D01*
X211072D01*
X203749D01*
Y234424D01*
X203843Y233954D01*
X204110Y233555D01*
X204509Y233288D01*
X204979Y233194D01*
X207542D01*
Y232500D01*
X193572D01*
Y271194D01*
X196202D01*
Y270726D01*
X196410D01*
X196579Y270473D01*
X196910Y270252D01*
X197300Y270174D01*
X199072D01*
Y269226D01*
X200572D01*
Y266356D01*
X201942D01*
Y266356D01*
X202202D01*
Y266356D01*
X203572D01*
Y269226D01*
X206572D01*
Y266356D01*
X207942D01*
Y266356D01*
X208202D01*
Y266356D01*
X209572D01*
Y269226D01*
X212572D01*
Y266356D01*
X213942D01*
Y266356D01*
X214202D01*
Y266356D01*
X215572D01*
Y269226D01*
X218572D01*
Y266356D01*
X219942D01*
Y266356D01*
X220202D01*
Y266356D01*
X221572D01*
Y269226D01*
X223072D01*
Y270174D01*
X224844D01*
X225234Y270252D01*
X225565Y270473D01*
X225733Y270726D01*
X225942D01*
Y271194D01*
X228572D01*
Y232500D01*
D02*
G37*
G36*
X250000Y169000D02*
X245945D01*
Y170004D01*
X237055D01*
Y169000D01*
X233000D01*
Y180500D01*
X250000D01*
Y169000D01*
D02*
G37*
G36*
X307500Y182000D02*
X284000D01*
Y208000D01*
X307500D01*
Y182000D01*
D02*
G37*
G36*
X362500Y170000D02*
Y146000D01*
X330000D01*
Y171000D01*
X340500D01*
Y193000D01*
X362500D01*
Y170000D01*
D02*
G37*
G36*
X380500Y228500D02*
X340000D01*
Y257500D01*
X380500D01*
Y228500D01*
D02*
G37*
%LPC*%
G36*
X225942Y267726D02*
X224572D01*
Y266356D01*
X225942D01*
Y267726D01*
D02*
G37*
G36*
X197572D02*
X196202D01*
Y266356D01*
X197572D01*
Y267726D01*
D02*
G37*
G36*
X223572Y264816D02*
Y263163D01*
X225226D01*
X224921Y263898D01*
X224307Y264512D01*
X223572Y264816D01*
D02*
G37*
G36*
X222572D02*
X221836Y264512D01*
X221223Y263898D01*
X220918Y263163D01*
X222572D01*
Y264816D01*
D02*
G37*
G36*
X217572D02*
Y263163D01*
X219226D01*
X218921Y263898D01*
X218307Y264512D01*
X217572Y264816D01*
D02*
G37*
G36*
X216572D02*
X215837Y264512D01*
X215223Y263898D01*
X214918Y263163D01*
X216572D01*
Y264816D01*
D02*
G37*
G36*
X211572D02*
Y263163D01*
X213226D01*
X212921Y263898D01*
X212308Y264512D01*
X211572Y264816D01*
D02*
G37*
G36*
X210572D02*
X209837Y264512D01*
X209223Y263898D01*
X208918Y263163D01*
X210572D01*
Y264816D01*
D02*
G37*
G36*
X205572D02*
Y263163D01*
X207226D01*
X206921Y263898D01*
X206308Y264512D01*
X205572Y264816D01*
D02*
G37*
G36*
X204572D02*
X203836Y264512D01*
X203223Y263898D01*
X202918Y263163D01*
X204572D01*
Y264816D01*
D02*
G37*
G36*
X199572D02*
Y263163D01*
X201226D01*
X200921Y263898D01*
X200307Y264512D01*
X199572Y264816D01*
D02*
G37*
G36*
X198572D02*
X197836Y264512D01*
X197223Y263898D01*
X196918Y263163D01*
X198572D01*
Y264816D01*
D02*
G37*
G36*
X225226Y262163D02*
X223572D01*
Y260509D01*
X224307Y260814D01*
X224921Y261427D01*
X225226Y262163D01*
D02*
G37*
G36*
X222572D02*
X220918D01*
X221223Y261427D01*
X221836Y260814D01*
X222572Y260509D01*
Y262163D01*
D02*
G37*
G36*
X219226D02*
X217572D01*
Y260509D01*
X218307Y260814D01*
X218921Y261427D01*
X219226Y262163D01*
D02*
G37*
G36*
X216572D02*
X214918D01*
X215223Y261427D01*
X215837Y260814D01*
X216572Y260509D01*
Y262163D01*
D02*
G37*
G36*
X213226D02*
X211572D01*
Y260509D01*
X212308Y260814D01*
X212921Y261427D01*
X213226Y262163D01*
D02*
G37*
G36*
X210572D02*
X208918D01*
X209223Y261427D01*
X209837Y260814D01*
X210572Y260509D01*
Y262163D01*
D02*
G37*
G36*
X207226D02*
X205572D01*
Y260509D01*
X206308Y260814D01*
X206921Y261427D01*
X207226Y262163D01*
D02*
G37*
G36*
X204572D02*
X202918D01*
X203223Y261427D01*
X203836Y260814D01*
X204572Y260509D01*
Y262163D01*
D02*
G37*
G36*
X201226D02*
X199572D01*
Y260509D01*
X200307Y260814D01*
X200921Y261427D01*
X201226Y262163D01*
D02*
G37*
G36*
X198572D02*
X196918D01*
X197223Y261427D01*
X197836Y260814D01*
X198572Y260509D01*
Y262163D01*
D02*
G37*
G36*
X223572Y259816D02*
Y258163D01*
X225226D01*
X224921Y258898D01*
X224307Y259512D01*
X223572Y259816D01*
D02*
G37*
G36*
X222572D02*
X221836Y259512D01*
X221223Y258898D01*
X220918Y258163D01*
X222572D01*
Y259816D01*
D02*
G37*
G36*
X217572D02*
Y258163D01*
X219226D01*
X218921Y258898D01*
X218307Y259512D01*
X217572Y259816D01*
D02*
G37*
G36*
X216572D02*
X215837Y259512D01*
X215223Y258898D01*
X214918Y258163D01*
X216572D01*
Y259816D01*
D02*
G37*
G36*
X211572D02*
Y258163D01*
X213226D01*
X212921Y258898D01*
X212308Y259512D01*
X211572Y259816D01*
D02*
G37*
G36*
X210572D02*
X209837Y259512D01*
X209223Y258898D01*
X208918Y258163D01*
X210572D01*
Y259816D01*
D02*
G37*
G36*
X205572D02*
Y258163D01*
X207226D01*
X206921Y258898D01*
X206308Y259512D01*
X205572Y259816D01*
D02*
G37*
G36*
X204572D02*
X203836Y259512D01*
X203223Y258898D01*
X202918Y258163D01*
X204572D01*
Y259816D01*
D02*
G37*
G36*
X199572D02*
Y258163D01*
X201226D01*
X200921Y258898D01*
X200307Y259512D01*
X199572Y259816D01*
D02*
G37*
G36*
X198572D02*
X197836Y259512D01*
X197223Y258898D01*
X196918Y258163D01*
X198572D01*
Y259816D01*
D02*
G37*
G36*
X225226Y257163D02*
X223572D01*
Y255509D01*
X224307Y255814D01*
X224921Y256427D01*
X225226Y257163D01*
D02*
G37*
G36*
X222572D02*
X220918D01*
X221223Y256427D01*
X221836Y255814D01*
X222572Y255509D01*
Y257163D01*
D02*
G37*
G36*
X219226D02*
X217572D01*
Y255509D01*
X218307Y255814D01*
X218921Y256427D01*
X219226Y257163D01*
D02*
G37*
G36*
X216572D02*
X214918D01*
X215223Y256427D01*
X215837Y255814D01*
X216572Y255509D01*
Y257163D01*
D02*
G37*
G36*
X213226D02*
X211572D01*
Y255509D01*
X212308Y255814D01*
X212921Y256427D01*
X213226Y257163D01*
D02*
G37*
G36*
X210572D02*
X208918D01*
X209223Y256427D01*
X209837Y255814D01*
X210572Y255509D01*
Y257163D01*
D02*
G37*
G36*
X207226D02*
X205572D01*
Y255509D01*
X206308Y255814D01*
X206921Y256427D01*
X207226Y257163D01*
D02*
G37*
G36*
X204572D02*
X202918D01*
X203223Y256427D01*
X203836Y255814D01*
X204572Y255509D01*
Y257163D01*
D02*
G37*
G36*
X201226D02*
X199572D01*
Y255509D01*
X200307Y255814D01*
X200921Y256427D01*
X201226Y257163D01*
D02*
G37*
G36*
X198572D02*
X196918D01*
X197223Y256427D01*
X197836Y255814D01*
X198572Y255509D01*
Y257163D01*
D02*
G37*
G36*
X223572Y254816D02*
Y253163D01*
X225226D01*
X224921Y253898D01*
X224307Y254512D01*
X223572Y254816D01*
D02*
G37*
G36*
X222572D02*
X221836Y254512D01*
X221223Y253898D01*
X220918Y253163D01*
X222572D01*
Y254816D01*
D02*
G37*
G36*
X217572D02*
Y253163D01*
X219226D01*
X218921Y253898D01*
X218307Y254512D01*
X217572Y254816D01*
D02*
G37*
G36*
X216572D02*
X215837Y254512D01*
X215223Y253898D01*
X214918Y253163D01*
X216572D01*
Y254816D01*
D02*
G37*
G36*
X211572D02*
Y253163D01*
X213226D01*
X212921Y253898D01*
X212308Y254512D01*
X211572Y254816D01*
D02*
G37*
G36*
X210572D02*
X209837Y254512D01*
X209223Y253898D01*
X208918Y253163D01*
X210572D01*
Y254816D01*
D02*
G37*
G36*
X205572D02*
Y253163D01*
X207226D01*
X206921Y253898D01*
X206308Y254512D01*
X205572Y254816D01*
D02*
G37*
G36*
X204572D02*
X203836Y254512D01*
X203223Y253898D01*
X202918Y253163D01*
X204572D01*
Y254816D01*
D02*
G37*
G36*
X199572D02*
Y253163D01*
X201226D01*
X200921Y253898D01*
X200307Y254512D01*
X199572Y254816D01*
D02*
G37*
G36*
X198572D02*
X197836Y254512D01*
X197223Y253898D01*
X196918Y253163D01*
X198572D01*
Y254816D01*
D02*
G37*
G36*
X225226Y252163D02*
X223572D01*
Y250509D01*
X224307Y250814D01*
X224921Y251427D01*
X225226Y252163D01*
D02*
G37*
G36*
X222572D02*
X220918D01*
X221223Y251427D01*
X221836Y250814D01*
X222572Y250509D01*
Y252163D01*
D02*
G37*
G36*
X219226D02*
X217572D01*
Y250509D01*
X218307Y250814D01*
X218921Y251427D01*
X219226Y252163D01*
D02*
G37*
G36*
X216572D02*
X214918D01*
X215223Y251427D01*
X215837Y250814D01*
X216572Y250509D01*
Y252163D01*
D02*
G37*
G36*
X213226D02*
X211572D01*
Y250509D01*
X212308Y250814D01*
X212921Y251427D01*
X213226Y252163D01*
D02*
G37*
G36*
X210572D02*
X208918D01*
X209223Y251427D01*
X209837Y250814D01*
X210572Y250509D01*
Y252163D01*
D02*
G37*
G36*
X207226D02*
X205572D01*
Y250509D01*
X206308Y250814D01*
X206921Y251427D01*
X207226Y252163D01*
D02*
G37*
G36*
X204572D02*
X202918D01*
X203223Y251427D01*
X203836Y250814D01*
X204572Y250509D01*
Y252163D01*
D02*
G37*
G36*
X201226D02*
X199572D01*
Y250509D01*
X200307Y250814D01*
X200921Y251427D01*
X201226Y252163D01*
D02*
G37*
G36*
X198572D02*
X196918D01*
X197223Y251427D01*
X197836Y250814D01*
X198572Y250509D01*
Y252163D01*
D02*
G37*
G36*
X223572Y249816D02*
Y248163D01*
X225226D01*
X224921Y248898D01*
X224307Y249512D01*
X223572Y249816D01*
D02*
G37*
G36*
X222572D02*
X221836Y249512D01*
X221223Y248898D01*
X220918Y248163D01*
X222572D01*
Y249816D01*
D02*
G37*
G36*
X217572D02*
Y248163D01*
X219226D01*
X218921Y248898D01*
X218307Y249512D01*
X217572Y249816D01*
D02*
G37*
G36*
X216572D02*
X215837Y249512D01*
X215223Y248898D01*
X214918Y248163D01*
X216572D01*
Y249816D01*
D02*
G37*
G36*
X211572D02*
Y248163D01*
X213226D01*
X212921Y248898D01*
X212308Y249512D01*
X211572Y249816D01*
D02*
G37*
G36*
X210572D02*
X209837Y249512D01*
X209223Y248898D01*
X208918Y248163D01*
X210572D01*
Y249816D01*
D02*
G37*
G36*
X205572D02*
Y248163D01*
X207226D01*
X206921Y248898D01*
X206308Y249512D01*
X205572Y249816D01*
D02*
G37*
G36*
X204572D02*
X203836Y249512D01*
X203223Y248898D01*
X202918Y248163D01*
X204572D01*
Y249816D01*
D02*
G37*
G36*
X199572D02*
Y248163D01*
X201226D01*
X200921Y248898D01*
X200307Y249512D01*
X199572Y249816D01*
D02*
G37*
G36*
X198572D02*
X197836Y249512D01*
X197223Y248898D01*
X196918Y248163D01*
X198572D01*
Y249816D01*
D02*
G37*
G36*
X225226Y247163D02*
X223572D01*
Y245509D01*
X224307Y245814D01*
X224921Y246427D01*
X225226Y247163D01*
D02*
G37*
G36*
X222572D02*
X220918D01*
X221223Y246427D01*
X221836Y245814D01*
X222572Y245509D01*
Y247163D01*
D02*
G37*
G36*
X219226D02*
X217572D01*
Y245509D01*
X218307Y245814D01*
X218921Y246427D01*
X219226Y247163D01*
D02*
G37*
G36*
X216572D02*
X214918D01*
X215223Y246427D01*
X215837Y245814D01*
X216572Y245509D01*
Y247163D01*
D02*
G37*
G36*
X213226D02*
X211572D01*
Y245509D01*
X212308Y245814D01*
X212921Y246427D01*
X213226Y247163D01*
D02*
G37*
G36*
X210572D02*
X208918D01*
X209223Y246427D01*
X209837Y245814D01*
X210572Y245509D01*
Y247163D01*
D02*
G37*
G36*
X207226D02*
X205572D01*
Y245509D01*
X206308Y245814D01*
X206921Y246427D01*
X207226Y247163D01*
D02*
G37*
G36*
X204572D02*
X202918D01*
X203223Y246427D01*
X203836Y245814D01*
X204572Y245509D01*
Y247163D01*
D02*
G37*
G36*
X201226D02*
X199572D01*
Y245509D01*
X200307Y245814D01*
X200921Y246427D01*
X201226Y247163D01*
D02*
G37*
G36*
X198572D02*
X196918D01*
X197223Y246427D01*
X197836Y245814D01*
X198572Y245509D01*
Y247163D01*
D02*
G37*
G36*
X217164Y242131D02*
X212572D01*
Y239163D01*
X218395D01*
Y240901D01*
X218301Y241372D01*
X218035Y241771D01*
X217635Y242038D01*
X217164Y242131D01*
D02*
G37*
G36*
X209572D02*
X204979D01*
X204509Y242038D01*
X204110Y241771D01*
X203843Y241372D01*
X203749Y240901D01*
Y239163D01*
X209572D01*
Y242131D01*
D02*
G37*
G36*
X247300Y179260D02*
Y177500D01*
X249060D01*
X248732Y178291D01*
X248091Y178932D01*
X247300Y179260D01*
D02*
G37*
G36*
X246300D02*
X245509Y178932D01*
X244867Y178291D01*
X244540Y177500D01*
X246300D01*
Y179260D01*
D02*
G37*
G36*
X242000D02*
Y177500D01*
X243760D01*
X243432Y178291D01*
X242791Y178932D01*
X242000Y179260D01*
D02*
G37*
G36*
X241000D02*
X240209Y178932D01*
X239567Y178291D01*
X239240Y177500D01*
X241000D01*
Y179260D01*
D02*
G37*
G36*
X236700D02*
Y177500D01*
X238460D01*
X238133Y178291D01*
X237491Y178932D01*
X236700Y179260D01*
D02*
G37*
G36*
X235700D02*
X234909Y178932D01*
X234267Y178291D01*
X233940Y177500D01*
X235700D01*
Y179260D01*
D02*
G37*
G36*
X249060Y176500D02*
X247300D01*
Y174740D01*
X248091Y175067D01*
X248732Y175709D01*
X249060Y176500D01*
D02*
G37*
G36*
X246300D02*
X244540D01*
X244867Y175709D01*
X245509Y175067D01*
X246300Y174740D01*
Y176500D01*
D02*
G37*
G36*
X243760D02*
X242000D01*
Y174740D01*
X242791Y175067D01*
X243432Y175709D01*
X243760Y176500D01*
D02*
G37*
G36*
X241000D02*
X239240D01*
X239567Y175709D01*
X240209Y175067D01*
X241000Y174740D01*
Y176500D01*
D02*
G37*
G36*
X238460D02*
X236700D01*
Y174740D01*
X237491Y175067D01*
X238133Y175709D01*
X238460Y176500D01*
D02*
G37*
G36*
X235700D02*
X233940D01*
X234267Y175709D01*
X234909Y175067D01*
X235700Y174740D01*
Y176500D01*
D02*
G37*
G36*
X245945Y174169D02*
X242500D01*
Y172004D01*
X245945D01*
Y174169D01*
D02*
G37*
G36*
X240500D02*
X237055D01*
Y172004D01*
X240500D01*
Y174169D01*
D02*
G37*
G36*
X302000Y206154D02*
Y204500D01*
X303654D01*
X303349Y205236D01*
X302735Y205849D01*
X302000Y206154D01*
D02*
G37*
G36*
X301000D02*
X300265Y205849D01*
X299651Y205236D01*
X299346Y204500D01*
X301000D01*
Y206154D01*
D02*
G37*
G36*
X296000D02*
Y204500D01*
X297654D01*
X297349Y205236D01*
X296736Y205849D01*
X296000Y206154D01*
D02*
G37*
G36*
X295000D02*
X294265Y205849D01*
X293651Y205236D01*
X293346Y204500D01*
X295000D01*
Y206154D01*
D02*
G37*
G36*
X290000D02*
Y204500D01*
X291654D01*
X291349Y205236D01*
X290736Y205849D01*
X290000Y206154D01*
D02*
G37*
G36*
X289000D02*
X288264Y205849D01*
X287651Y205236D01*
X287346Y204500D01*
X289000D01*
Y206154D01*
D02*
G37*
G36*
X303654Y203500D02*
X302000D01*
Y201846D01*
X302735Y202151D01*
X303349Y202765D01*
X303654Y203500D01*
D02*
G37*
G36*
X301000D02*
X299346D01*
X299651Y202765D01*
X300265Y202151D01*
X301000Y201846D01*
Y203500D01*
D02*
G37*
G36*
X297654D02*
X296000D01*
Y201846D01*
X296736Y202151D01*
X297349Y202765D01*
X297654Y203500D01*
D02*
G37*
G36*
X295000D02*
X293346D01*
X293651Y202765D01*
X294265Y202151D01*
X295000Y201846D01*
Y203500D01*
D02*
G37*
G36*
X291654D02*
X290000D01*
Y201846D01*
X290736Y202151D01*
X291349Y202765D01*
X291654Y203500D01*
D02*
G37*
G36*
X289000D02*
X287346D01*
X287651Y202765D01*
X288264Y202151D01*
X289000Y201846D01*
Y203500D01*
D02*
G37*
G36*
X302000Y201154D02*
Y199500D01*
X303654D01*
X303349Y200236D01*
X302735Y200849D01*
X302000Y201154D01*
D02*
G37*
G36*
X301000D02*
X300265Y200849D01*
X299651Y200236D01*
X299346Y199500D01*
X301000D01*
Y201154D01*
D02*
G37*
G36*
X296000D02*
Y199500D01*
X297654D01*
X297349Y200236D01*
X296736Y200849D01*
X296000Y201154D01*
D02*
G37*
G36*
X295000D02*
X294265Y200849D01*
X293651Y200236D01*
X293346Y199500D01*
X295000D01*
Y201154D01*
D02*
G37*
G36*
X290000D02*
Y199500D01*
X291654D01*
X291349Y200236D01*
X290736Y200849D01*
X290000Y201154D01*
D02*
G37*
G36*
X289000D02*
X288264Y200849D01*
X287651Y200236D01*
X287346Y199500D01*
X289000D01*
Y201154D01*
D02*
G37*
G36*
X303654Y198500D02*
X302000D01*
Y196846D01*
X302735Y197151D01*
X303349Y197765D01*
X303654Y198500D01*
D02*
G37*
G36*
X301000D02*
X299346D01*
X299651Y197765D01*
X300265Y197151D01*
X301000Y196846D01*
Y198500D01*
D02*
G37*
G36*
X297654D02*
X296000D01*
Y196846D01*
X296736Y197151D01*
X297349Y197765D01*
X297654Y198500D01*
D02*
G37*
G36*
X295000D02*
X293346D01*
X293651Y197765D01*
X294265Y197151D01*
X295000Y196846D01*
Y198500D01*
D02*
G37*
G36*
X291654D02*
X290000D01*
Y196846D01*
X290736Y197151D01*
X291349Y197765D01*
X291654Y198500D01*
D02*
G37*
G36*
X289000D02*
X287346D01*
X287651Y197765D01*
X288264Y197151D01*
X289000Y196846D01*
Y198500D01*
D02*
G37*
G36*
X302000Y196154D02*
Y194500D01*
X303654D01*
X303349Y195236D01*
X302735Y195849D01*
X302000Y196154D01*
D02*
G37*
G36*
X301000D02*
X300265Y195849D01*
X299651Y195236D01*
X299346Y194500D01*
X301000D01*
Y196154D01*
D02*
G37*
G36*
X296000D02*
Y194500D01*
X297654D01*
X297349Y195236D01*
X296736Y195849D01*
X296000Y196154D01*
D02*
G37*
G36*
X295000D02*
X294265Y195849D01*
X293651Y195236D01*
X293346Y194500D01*
X295000D01*
Y196154D01*
D02*
G37*
G36*
X290000D02*
Y194500D01*
X291654D01*
X291349Y195236D01*
X290736Y195849D01*
X290000Y196154D01*
D02*
G37*
G36*
X289000D02*
X288264Y195849D01*
X287651Y195236D01*
X287346Y194500D01*
X289000D01*
Y196154D01*
D02*
G37*
G36*
X303654Y193500D02*
X302000D01*
Y191846D01*
X302735Y192151D01*
X303349Y192764D01*
X303654Y193500D01*
D02*
G37*
G36*
X301000D02*
X299346D01*
X299651Y192764D01*
X300265Y192151D01*
X301000Y191846D01*
Y193500D01*
D02*
G37*
G36*
X297654D02*
X296000D01*
Y191846D01*
X296736Y192151D01*
X297349Y192764D01*
X297654Y193500D01*
D02*
G37*
G36*
X295000D02*
X293346D01*
X293651Y192764D01*
X294265Y192151D01*
X295000Y191846D01*
Y193500D01*
D02*
G37*
G36*
X291654D02*
X290000D01*
Y191846D01*
X290736Y192151D01*
X291349Y192764D01*
X291654Y193500D01*
D02*
G37*
G36*
X289000D02*
X287346D01*
X287651Y192764D01*
X288264Y192151D01*
X289000Y191846D01*
Y193500D01*
D02*
G37*
G36*
X304421Y190728D02*
X296797D01*
Y188518D01*
X304421D01*
Y190728D01*
D02*
G37*
G36*
X294297D02*
X286673D01*
Y188518D01*
X294297D01*
Y190728D01*
D02*
G37*
G36*
X304421Y186018D02*
X296797D01*
Y183808D01*
X304421D01*
Y186018D01*
D02*
G37*
G36*
X294297D02*
X286673D01*
Y183808D01*
X294297D01*
Y186018D01*
D02*
G37*
G36*
X360327Y190728D02*
X351953D01*
Y187768D01*
X360327D01*
Y190728D01*
D02*
G37*
G36*
X350953D02*
X342579D01*
Y187768D01*
X350953D01*
Y190728D01*
D02*
G37*
G36*
X360327Y186768D02*
X351953D01*
Y183808D01*
X360327D01*
Y186768D01*
D02*
G37*
G36*
X350953D02*
X342579D01*
Y183808D01*
X350953D01*
Y186768D01*
D02*
G37*
G36*
X360327Y180728D02*
X351953D01*
Y177768D01*
X360327D01*
Y180728D01*
D02*
G37*
G36*
X350953D02*
X342579D01*
Y177768D01*
X350953D01*
Y180728D01*
D02*
G37*
G36*
X360327Y176768D02*
X351953D01*
Y173808D01*
X360327D01*
Y176768D01*
D02*
G37*
G36*
X350953D02*
X342579D01*
Y173808D01*
X350953D01*
Y176768D01*
D02*
G37*
G36*
X353945Y166918D02*
Y165264D01*
X355598D01*
X355294Y165999D01*
X354680Y166613D01*
X353945Y166918D01*
D02*
G37*
G36*
X352945D02*
X352209Y166613D01*
X351596Y165999D01*
X351291Y165264D01*
X352945D01*
Y166918D01*
D02*
G37*
G36*
X348630D02*
Y165264D01*
X350284D01*
X349979Y165999D01*
X349365Y166613D01*
X348630Y166918D01*
D02*
G37*
G36*
X347630D02*
X346894Y166613D01*
X346281Y165999D01*
X345976Y165264D01*
X347630D01*
Y166918D01*
D02*
G37*
G36*
X343315D02*
Y165264D01*
X344969D01*
X344664Y165999D01*
X344050Y166613D01*
X343315Y166918D01*
D02*
G37*
G36*
X342315D02*
X341579Y166613D01*
X340966Y165999D01*
X340661Y165264D01*
X342315D01*
Y166918D01*
D02*
G37*
G36*
X338000D02*
Y165264D01*
X339654D01*
X339349Y165999D01*
X338735Y166613D01*
X338000Y166918D01*
D02*
G37*
G36*
X337000D02*
X336264Y166613D01*
X335651Y165999D01*
X335346Y165264D01*
X337000D01*
Y166918D01*
D02*
G37*
G36*
X355598Y164264D02*
X353945D01*
Y162610D01*
X354680Y162915D01*
X355294Y163528D01*
X355598Y164264D01*
D02*
G37*
G36*
X352945D02*
X351291D01*
X351596Y163528D01*
X352209Y162915D01*
X352945Y162610D01*
Y164264D01*
D02*
G37*
G36*
X350284D02*
X348630D01*
Y162610D01*
X349365Y162915D01*
X349979Y163528D01*
X350284Y164264D01*
D02*
G37*
G36*
X347630D02*
X345976D01*
X346281Y163528D01*
X346894Y162915D01*
X347630Y162610D01*
Y164264D01*
D02*
G37*
G36*
X344969D02*
X343315D01*
Y162610D01*
X344050Y162915D01*
X344664Y163528D01*
X344969Y164264D01*
D02*
G37*
G36*
X342315D02*
X340661D01*
X340966Y163528D01*
X341579Y162915D01*
X342315Y162610D01*
Y164264D01*
D02*
G37*
G36*
X339654D02*
X338000D01*
Y162610D01*
X338735Y162915D01*
X339349Y163528D01*
X339654Y164264D01*
D02*
G37*
G36*
X337000D02*
X335346D01*
X335651Y163528D01*
X336264Y162915D01*
X337000Y162610D01*
Y164264D01*
D02*
G37*
G36*
X356602Y161602D02*
Y159949D01*
X358256D01*
X357951Y160684D01*
X357338Y161298D01*
X356602Y161602D01*
D02*
G37*
G36*
X355602D02*
X354867Y161298D01*
X354253Y160684D01*
X353949Y159949D01*
X355602D01*
Y161602D01*
D02*
G37*
G36*
X351287D02*
Y159949D01*
X352941D01*
X352636Y160684D01*
X352023Y161298D01*
X351287Y161602D01*
D02*
G37*
G36*
X350287D02*
X349552Y161298D01*
X348938Y160684D01*
X348634Y159949D01*
X350287D01*
Y161602D01*
D02*
G37*
G36*
X345972D02*
Y159949D01*
X347626D01*
X347322Y160684D01*
X346708Y161298D01*
X345972Y161602D01*
D02*
G37*
G36*
X344972D02*
X344237Y161298D01*
X343623Y160684D01*
X343319Y159949D01*
X344972D01*
Y161602D01*
D02*
G37*
G36*
X340657D02*
Y159949D01*
X342311D01*
X342006Y160684D01*
X341393Y161298D01*
X340657Y161602D01*
D02*
G37*
G36*
X339657D02*
X338922Y161298D01*
X338308Y160684D01*
X338004Y159949D01*
X339657D01*
Y161602D01*
D02*
G37*
G36*
X358256Y158949D02*
X356602D01*
Y157295D01*
X357338Y157600D01*
X357951Y158213D01*
X358256Y158949D01*
D02*
G37*
G36*
X355602D02*
X353949D01*
X354253Y158213D01*
X354867Y157600D01*
X355602Y157295D01*
Y158949D01*
D02*
G37*
G36*
X352941D02*
X351287D01*
Y157295D01*
X352023Y157600D01*
X352636Y158213D01*
X352941Y158949D01*
D02*
G37*
G36*
X350287D02*
X348634D01*
X348938Y158213D01*
X349552Y157600D01*
X350287Y157295D01*
Y158949D01*
D02*
G37*
G36*
X347626D02*
X345972D01*
Y157295D01*
X346708Y157600D01*
X347322Y158213D01*
X347626Y158949D01*
D02*
G37*
G36*
X344972D02*
X343319D01*
X343623Y158213D01*
X344237Y157600D01*
X344972Y157295D01*
Y158949D01*
D02*
G37*
G36*
X342311D02*
X340657D01*
Y157295D01*
X341393Y157600D01*
X342006Y158213D01*
X342311Y158949D01*
D02*
G37*
G36*
X339657D02*
X338004D01*
X338308Y158213D01*
X338922Y157600D01*
X339657Y157295D01*
Y158949D01*
D02*
G37*
G36*
X353945Y156288D02*
Y154634D01*
X355598D01*
X355294Y155369D01*
X354680Y155983D01*
X353945Y156288D01*
D02*
G37*
G36*
X352945D02*
X352209Y155983D01*
X351596Y155369D01*
X351291Y154634D01*
X352945D01*
Y156288D01*
D02*
G37*
G36*
X348630D02*
Y154634D01*
X350284D01*
X349979Y155369D01*
X349365Y155983D01*
X348630Y156288D01*
D02*
G37*
G36*
X347630D02*
X346894Y155983D01*
X346281Y155369D01*
X345976Y154634D01*
X347630D01*
Y156288D01*
D02*
G37*
G36*
X343315D02*
Y154634D01*
X344969D01*
X344664Y155369D01*
X344050Y155983D01*
X343315Y156288D01*
D02*
G37*
G36*
X342315D02*
X341579Y155983D01*
X340966Y155369D01*
X340661Y154634D01*
X342315D01*
Y156288D01*
D02*
G37*
G36*
X355598Y153634D02*
X353945D01*
Y151980D01*
X354680Y152285D01*
X355294Y152898D01*
X355598Y153634D01*
D02*
G37*
G36*
X352945D02*
X351291D01*
X351596Y152898D01*
X352209Y152285D01*
X352945Y151980D01*
Y153634D01*
D02*
G37*
G36*
X350284D02*
X348630D01*
Y151980D01*
X349365Y152285D01*
X349979Y152898D01*
X350284Y153634D01*
D02*
G37*
G36*
X347630D02*
X345976D01*
X346281Y152898D01*
X346894Y152285D01*
X347630Y151980D01*
Y153634D01*
D02*
G37*
G36*
X344969D02*
X343315D01*
Y151980D01*
X344050Y152285D01*
X344664Y152898D01*
X344969Y153634D01*
D02*
G37*
G36*
X342315D02*
X340661D01*
X340966Y152898D01*
X341579Y152285D01*
X342315Y151980D01*
Y153634D01*
D02*
G37*
G36*
X356602Y150973D02*
Y149319D01*
X358256D01*
X357951Y150054D01*
X357338Y150668D01*
X356602Y150973D01*
D02*
G37*
G36*
X355602D02*
X354867Y150668D01*
X354253Y150054D01*
X353949Y149319D01*
X355602D01*
Y150973D01*
D02*
G37*
G36*
X351287D02*
Y149319D01*
X352941D01*
X352636Y150054D01*
X352023Y150668D01*
X351287Y150973D01*
D02*
G37*
G36*
X350287D02*
X349552Y150668D01*
X348938Y150054D01*
X348634Y149319D01*
X350287D01*
Y150973D01*
D02*
G37*
G36*
X345972D02*
Y149319D01*
X347626D01*
X347322Y150054D01*
X346708Y150668D01*
X345972Y150973D01*
D02*
G37*
G36*
X344972D02*
X344237Y150668D01*
X343623Y150054D01*
X343319Y149319D01*
X344972D01*
Y150973D01*
D02*
G37*
G36*
X358256Y148319D02*
X356602D01*
Y146665D01*
X357338Y146970D01*
X357951Y147583D01*
X358256Y148319D01*
D02*
G37*
G36*
X355602D02*
X353949D01*
X354253Y147583D01*
X354867Y146970D01*
X355602Y146665D01*
Y148319D01*
D02*
G37*
G36*
X352941D02*
X351287D01*
Y146665D01*
X352023Y146970D01*
X352636Y147583D01*
X352941Y148319D01*
D02*
G37*
G36*
X350287D02*
X348634D01*
X348938Y147583D01*
X349552Y146970D01*
X350287Y146665D01*
Y148319D01*
D02*
G37*
G36*
X347626D02*
X345972D01*
Y146665D01*
X346708Y146970D01*
X347322Y147583D01*
X347626Y148319D01*
D02*
G37*
G36*
X344972D02*
X343319D01*
X343623Y147583D01*
X344237Y146970D01*
X344972Y146665D01*
Y148319D01*
D02*
G37*
G36*
X360327Y254192D02*
X352703D01*
Y251982D01*
X360327D01*
Y254192D01*
D02*
G37*
G36*
X350203D02*
X342579D01*
Y251982D01*
X350203D01*
Y254192D01*
D02*
G37*
G36*
X377862Y251957D02*
Y250303D01*
X379516D01*
X379211Y251039D01*
X378598Y251652D01*
X377862Y251957D01*
D02*
G37*
G36*
X376862D02*
X376127Y251652D01*
X375513Y251039D01*
X375208Y250303D01*
X376862D01*
Y251957D01*
D02*
G37*
G36*
X372547D02*
Y250303D01*
X374201D01*
X373896Y251039D01*
X373283Y251652D01*
X372547Y251957D01*
D02*
G37*
G36*
X371547D02*
X370812Y251652D01*
X370198Y251039D01*
X369894Y250303D01*
X371547D01*
Y251957D01*
D02*
G37*
G36*
X367232D02*
Y250303D01*
X368886D01*
X368581Y251039D01*
X367968Y251652D01*
X367232Y251957D01*
D02*
G37*
G36*
X366232D02*
X365497Y251652D01*
X364883Y251039D01*
X364579Y250303D01*
X366232D01*
Y251957D01*
D02*
G37*
G36*
X379516Y249303D02*
X377862D01*
Y247649D01*
X378598Y247954D01*
X379211Y248568D01*
X379516Y249303D01*
D02*
G37*
G36*
X376862D02*
X375208D01*
X375513Y248568D01*
X376127Y247954D01*
X376862Y247649D01*
Y249303D01*
D02*
G37*
G36*
X374201D02*
X372547D01*
Y247649D01*
X373283Y247954D01*
X373896Y248568D01*
X374201Y249303D01*
D02*
G37*
G36*
X371547D02*
X369894D01*
X370198Y248568D01*
X370812Y247954D01*
X371547Y247649D01*
Y249303D01*
D02*
G37*
G36*
X368886D02*
X367232D01*
Y247649D01*
X367968Y247954D01*
X368581Y248568D01*
X368886Y249303D01*
D02*
G37*
G36*
X366232D02*
X364579D01*
X364883Y248568D01*
X365497Y247954D01*
X366232Y247649D01*
Y249303D01*
D02*
G37*
G36*
X360327Y249482D02*
X352703D01*
Y247271D01*
X360327D01*
Y249482D01*
D02*
G37*
G36*
X350203D02*
X342579D01*
Y247271D01*
X350203D01*
Y249482D01*
D02*
G37*
G36*
X375205Y246642D02*
Y244988D01*
X376858D01*
X376554Y245724D01*
X375940Y246337D01*
X375205Y246642D01*
D02*
G37*
G36*
X374205D02*
X373469Y246337D01*
X372856Y245724D01*
X372551Y244988D01*
X374205D01*
Y246642D01*
D02*
G37*
G36*
X369890D02*
Y244988D01*
X371543D01*
X371239Y245724D01*
X370625Y246337D01*
X369890Y246642D01*
D02*
G37*
G36*
X368890D02*
X368154Y246337D01*
X367541Y245724D01*
X367236Y244988D01*
X368890D01*
Y246642D01*
D02*
G37*
G36*
X376858Y243988D02*
X375205D01*
Y242335D01*
X375940Y242639D01*
X376554Y243253D01*
X376858Y243988D01*
D02*
G37*
G36*
X374205D02*
X372551D01*
X372856Y243253D01*
X373469Y242639D01*
X374205Y242335D01*
Y243988D01*
D02*
G37*
G36*
X371543D02*
X369890D01*
Y242335D01*
X370625Y242639D01*
X371239Y243253D01*
X371543Y243988D01*
D02*
G37*
G36*
X368890D02*
X367236D01*
X367541Y243253D01*
X368154Y242639D01*
X368890Y242335D01*
Y243988D01*
D02*
G37*
G36*
X360327Y244193D02*
X352703D01*
Y241982D01*
X360327D01*
Y244193D01*
D02*
G37*
G36*
X350203D02*
X342579D01*
Y241982D01*
X350203D01*
Y244193D01*
D02*
G37*
G36*
X377862Y241327D02*
Y239673D01*
X379516D01*
X379211Y240409D01*
X378598Y241022D01*
X377862Y241327D01*
D02*
G37*
G36*
X376862D02*
X376127Y241022D01*
X375513Y240409D01*
X375208Y239673D01*
X376862D01*
Y241327D01*
D02*
G37*
G36*
X372547D02*
Y239673D01*
X374201D01*
X373896Y240409D01*
X373283Y241022D01*
X372547Y241327D01*
D02*
G37*
G36*
X371547D02*
X370812Y241022D01*
X370198Y240409D01*
X369894Y239673D01*
X371547D01*
Y241327D01*
D02*
G37*
G36*
X367232D02*
Y239673D01*
X368886D01*
X368581Y240409D01*
X367968Y241022D01*
X367232Y241327D01*
D02*
G37*
G36*
X366232D02*
X365497Y241022D01*
X364883Y240409D01*
X364579Y239673D01*
X366232D01*
Y241327D01*
D02*
G37*
G36*
X360327Y239482D02*
X352703D01*
Y237271D01*
X360327D01*
Y239482D01*
D02*
G37*
G36*
X350203D02*
X342579D01*
Y237271D01*
X350203D01*
Y239482D01*
D02*
G37*
G36*
X379516Y238673D02*
X377862D01*
Y237019D01*
X378598Y237324D01*
X379211Y237938D01*
X379516Y238673D01*
D02*
G37*
G36*
X376862D02*
X375208D01*
X375513Y237938D01*
X376127Y237324D01*
X376862Y237019D01*
Y238673D01*
D02*
G37*
G36*
X374201D02*
X372547D01*
Y237019D01*
X373283Y237324D01*
X373896Y237938D01*
X374201Y238673D01*
D02*
G37*
G36*
X371547D02*
X369894D01*
X370198Y237938D01*
X370812Y237324D01*
X371547Y237019D01*
Y238673D01*
D02*
G37*
G36*
X368886D02*
X367232D01*
Y237019D01*
X367968Y237324D01*
X368581Y237938D01*
X368886Y238673D01*
D02*
G37*
G36*
X366232D02*
X364579D01*
X364883Y237938D01*
X365497Y237324D01*
X366232Y237019D01*
Y238673D01*
D02*
G37*
G36*
X375205Y236012D02*
Y234358D01*
X376858D01*
X376554Y235094D01*
X375940Y235707D01*
X375205Y236012D01*
D02*
G37*
G36*
X374205D02*
X373469Y235707D01*
X372856Y235094D01*
X372551Y234358D01*
X374205D01*
Y236012D01*
D02*
G37*
G36*
X369890D02*
Y234358D01*
X371543D01*
X371239Y235094D01*
X370625Y235707D01*
X369890Y236012D01*
D02*
G37*
G36*
X368890D02*
X368154Y235707D01*
X367541Y235094D01*
X367236Y234358D01*
X368890D01*
Y236012D01*
D02*
G37*
G36*
X364575D02*
Y234358D01*
X366229D01*
X365924Y235094D01*
X365310Y235707D01*
X364575Y236012D01*
D02*
G37*
G36*
X363575D02*
X362839Y235707D01*
X362226Y235094D01*
X361921Y234358D01*
X363575D01*
Y236012D01*
D02*
G37*
G36*
X359260D02*
Y234358D01*
X360913D01*
X360609Y235094D01*
X359995Y235707D01*
X359260Y236012D01*
D02*
G37*
G36*
X358260D02*
X357524Y235707D01*
X356911Y235094D01*
X356606Y234358D01*
X358260D01*
Y236012D01*
D02*
G37*
G36*
X353945D02*
Y234358D01*
X355598D01*
X355294Y235094D01*
X354680Y235707D01*
X353945Y236012D01*
D02*
G37*
G36*
X352945D02*
X352209Y235707D01*
X351596Y235094D01*
X351291Y234358D01*
X352945D01*
Y236012D01*
D02*
G37*
G36*
X348630D02*
Y234358D01*
X350284D01*
X349979Y235094D01*
X349365Y235707D01*
X348630Y236012D01*
D02*
G37*
G36*
X347630D02*
X346894Y235707D01*
X346281Y235094D01*
X345976Y234358D01*
X347630D01*
Y236012D01*
D02*
G37*
G36*
X376858Y233358D02*
X375205D01*
Y231704D01*
X375940Y232009D01*
X376554Y232623D01*
X376858Y233358D01*
D02*
G37*
G36*
X374205D02*
X372551D01*
X372856Y232623D01*
X373469Y232009D01*
X374205Y231704D01*
Y233358D01*
D02*
G37*
G36*
X371543D02*
X369890D01*
Y231704D01*
X370625Y232009D01*
X371239Y232623D01*
X371543Y233358D01*
D02*
G37*
G36*
X368890D02*
X367236D01*
X367541Y232623D01*
X368154Y232009D01*
X368890Y231704D01*
Y233358D01*
D02*
G37*
G36*
X366229D02*
X364575D01*
Y231704D01*
X365310Y232009D01*
X365924Y232623D01*
X366229Y233358D01*
D02*
G37*
G36*
X363575D02*
X361921D01*
X362226Y232623D01*
X362839Y232009D01*
X363575Y231704D01*
Y233358D01*
D02*
G37*
G36*
X360913D02*
X359260D01*
Y231704D01*
X359995Y232009D01*
X360609Y232623D01*
X360913Y233358D01*
D02*
G37*
G36*
X358260D02*
X356606D01*
X356911Y232623D01*
X357524Y232009D01*
X358260Y231704D01*
Y233358D01*
D02*
G37*
G36*
X355598D02*
X353945D01*
Y231704D01*
X354680Y232009D01*
X355294Y232623D01*
X355598Y233358D01*
D02*
G37*
G36*
X352945D02*
X351291D01*
X351596Y232623D01*
X352209Y232009D01*
X352945Y231704D01*
Y233358D01*
D02*
G37*
G36*
X350284D02*
X348630D01*
Y231704D01*
X349365Y232009D01*
X349979Y232623D01*
X350284Y233358D01*
D02*
G37*
G36*
X347630D02*
X345976D01*
X346281Y232623D01*
X346894Y232009D01*
X347630Y231704D01*
Y233358D01*
D02*
G37*
%LPD*%
D14*
X118629Y108458D02*
X120070Y107016D01*
X118542Y108458D02*
X118629D01*
X89312Y137688D02*
X118542Y108458D01*
X89075Y139980D02*
X89312Y139743D01*
X120070Y107016D02*
X121398D01*
X89312Y137688D02*
Y139743D01*
X96173Y138807D02*
Y139102D01*
X120980Y114000D02*
X156618D01*
X96173Y138807D02*
X120980Y114000D01*
X95000Y139980D02*
X95295D01*
X96173Y139102D01*
X156618Y114000D02*
X163602Y107016D01*
X94000Y210150D02*
X98630Y205520D01*
X94000Y210150D02*
Y211173D01*
X98630Y205520D02*
X98925D01*
X90327Y207500D02*
X94000Y211173D01*
Y222624D01*
X89000Y207500D02*
X90327D01*
X94000Y222624D02*
X96794Y225417D01*
X96842D01*
X97425Y226000D01*
X100624D01*
X103000Y228376D01*
Y231500D01*
X107347Y235847D01*
X111878D01*
X103815Y237815D02*
X111878D01*
X99040Y229288D02*
Y233040D01*
X103815Y237815D01*
X99000Y229248D02*
X99040Y229288D01*
X89626Y229874D02*
X98374D01*
X99000Y229248D01*
X89000Y230500D02*
X89626Y229874D01*
X104000Y242500D02*
X106716Y239784D01*
X104000Y242500D02*
Y245043D01*
X99295Y249748D02*
X104000Y245043D01*
X106716Y239784D02*
X111878D01*
X99000Y249748D02*
X99295D01*
X98705D02*
X99000D01*
X89000Y253500D02*
X94953D01*
X98705Y249748D01*
X102850Y151650D02*
Y170728D01*
X150000Y163000D02*
X157000D01*
X161492Y167492D02*
Y171000D01*
X157000Y163000D02*
X161492Y167492D01*
X166877Y175684D02*
X167496Y176303D01*
X165204Y175684D02*
X166877D01*
X164248Y174728D02*
X165204Y175684D01*
X156248Y176303D02*
X161000D01*
X156248Y171197D02*
Y176303D01*
X161492Y171000D02*
X164248Y173756D01*
Y174728D01*
X102752Y170827D02*
X102850Y170728D01*
X102752Y170827D02*
Y175909D01*
X146606Y280150D02*
X147000Y280543D01*
X140331Y280150D02*
X146606D01*
X136000Y276360D02*
X138026Y278386D01*
X136000Y271341D02*
Y276360D01*
Y271341D02*
X138168Y269173D01*
X138370D01*
X139248Y268093D02*
Y268295D01*
X138370Y269173D02*
X139248Y268295D01*
Y267705D02*
Y268000D01*
X138567Y278386D02*
X140331Y280150D01*
X138026Y278386D02*
X138567D01*
X131669Y273850D02*
X132752Y272768D01*
Y268000D02*
Y272768D01*
X125000Y274638D02*
X130882D01*
X131669Y273850D01*
X115000Y323000D02*
X139086Y347086D01*
X152708D01*
X115000Y273000D02*
Y323000D01*
X111500Y325500D02*
X140376Y354376D01*
X152124D01*
X111500Y272500D02*
Y325500D01*
X108500Y328500D02*
X139086Y359086D01*
X108500Y272000D02*
Y328500D01*
X139086Y359086D02*
X152897D01*
X145000Y158000D02*
X150000Y163000D01*
X140933Y211630D02*
X143500Y209063D01*
X133500D02*
X136067Y211630D01*
X140933D01*
X144500Y204000D02*
X149000D01*
X143500Y205000D02*
X144500Y204000D01*
X143500Y205000D02*
Y209063D01*
X299161Y380000D02*
X316468Y362692D01*
X250000Y380000D02*
X299161D01*
X237063Y367063D02*
X250000Y380000D01*
X227055Y367063D02*
X237063D01*
X285500Y370500D02*
X287021Y372021D01*
Y374021D01*
X289000Y376000D01*
X338603Y375472D02*
X339631Y376500D01*
X335716Y374397D02*
X336791Y375472D01*
X339631Y376500D02*
X340000D01*
X336791Y375472D02*
X338603D01*
X275465Y370500D02*
X276072Y371107D01*
Y374072D01*
X278000Y376000D01*
X121000Y301000D02*
X143756Y323756D01*
X121000Y301000D02*
X127752D01*
X118000Y298000D02*
X121000Y301000D01*
X187785Y304285D02*
Y305785D01*
X188000Y306000D01*
X175248Y299000D02*
X182500D01*
X187785Y304285D01*
X187902Y306098D02*
X188000Y306000D01*
X187902Y306098D02*
Y315823D01*
X187803Y315921D02*
X187902Y315823D01*
X181000Y304000D02*
X183000Y306000D01*
Y306422D02*
X183866Y307288D01*
X175248Y304000D02*
X181000D01*
X183000Y306000D02*
Y306422D01*
X183866Y307288D02*
Y315921D01*
X110500Y251595D02*
Y255000D01*
Y251595D02*
X111878D01*
X151878Y254878D02*
X156000Y259000D01*
X157055D01*
X151878Y253561D02*
Y254878D01*
X147944Y249626D02*
X151878Y253561D01*
X145342Y249626D02*
X147944D01*
X148158Y247658D02*
X154263Y253763D01*
X145342Y247658D02*
X148158D01*
X114806Y258500D02*
X115806Y257500D01*
X114500Y258500D02*
X114806D01*
X115806Y257500D02*
X117783D01*
X129594Y260426D02*
X133668Y264500D01*
X129594Y257500D02*
Y260426D01*
X136043Y264500D02*
X139248Y267705D01*
X133668Y264500D02*
X136043D01*
X150500Y260032D02*
X151665Y261196D01*
X153197D02*
X155500Y263500D01*
X151665Y261196D02*
X153197D01*
X145500Y260032D02*
X150500D01*
X135000Y262000D02*
X143532D01*
X133531Y260531D02*
X135000Y262000D01*
X143532D02*
X145500Y260032D01*
X133531Y257500D02*
Y260531D01*
X127626Y262579D02*
X132752Y267705D01*
Y268000D01*
X127626Y257500D02*
Y262579D01*
X316468Y362397D02*
Y362692D01*
X248000Y384000D02*
X310676D01*
X315901Y379070D02*
X316779Y378192D01*
Y377897D02*
Y378192D01*
X315606Y379070D02*
X315901D01*
X310676Y384000D02*
X315606Y379070D01*
X235000Y371000D02*
X248000Y384000D01*
X240500Y337000D02*
X252248Y325252D01*
X275000D01*
X282457Y328500D02*
X285705Y325252D01*
X254000Y328500D02*
X282457D01*
X244000Y338500D02*
X254000Y328500D01*
X285705Y325252D02*
X286000D01*
X295465Y331783D02*
Y345251D01*
Y331783D02*
X295500Y331748D01*
X118000Y274000D02*
Y298000D01*
Y274000D02*
X125657Y266343D01*
X143756Y323756D02*
X153000D01*
X125657Y257500D02*
Y266343D01*
X123689Y257500D02*
Y264311D01*
X115000Y273000D02*
X123689Y264311D01*
X111500Y272500D02*
X121720Y262280D01*
Y257500D02*
Y262280D01*
X152708Y347086D02*
X153000Y347378D01*
X152897Y359086D02*
X153000Y359189D01*
X152124Y354376D02*
X153000Y355252D01*
X108500Y272000D02*
X119652Y260848D01*
Y257600D02*
Y260848D01*
Y257600D02*
X119752Y257500D01*
X138004Y204000D02*
Y208469D01*
X138500Y208965D01*
X154263Y253763D02*
X157310D01*
X157547Y254000D01*
X152000Y243000D02*
X155063D01*
X151279Y243721D02*
X152000Y243000D01*
X145342Y243721D02*
X151279D01*
X227055Y371000D02*
X235000D01*
X240500Y337000D02*
Y353000D01*
X244000Y338500D02*
Y354000D01*
X234874Y363126D02*
X244000Y354000D01*
X227055Y363126D02*
X234874D01*
X234311Y359189D02*
X240500Y353000D01*
X227055Y359189D02*
X234311D01*
X322964Y357397D02*
Y362397D01*
X327602D01*
X323277Y372899D02*
X323279Y372897D01*
X323277Y372899D02*
Y377895D01*
X323275Y377897D02*
X323277Y377895D01*
X323275Y377897D02*
X327602D01*
X327842Y378137D01*
X335716Y358897D02*
X336463Y359644D01*
X338144D01*
X340000Y361500D01*
X340000D01*
X327602Y362397D02*
X327842Y362637D01*
X102850Y151650D02*
X111500Y143000D01*
X131298D01*
X139250Y147249D02*
X140000Y148000D01*
X135547Y147249D02*
X139250D01*
X131298Y143000D02*
X135547Y147249D01*
X285500Y363020D02*
X285520Y363000D01*
X293500D01*
X275445D02*
X275465Y363020D01*
X267500Y363000D02*
X275445D01*
X275000Y344856D02*
X275395Y345251D01*
X275000Y331748D02*
Y344856D01*
X285430Y345251D02*
X286000Y344681D01*
Y331748D02*
Y344681D01*
D15*
X99000Y243252D02*
D03*
Y249748D02*
D03*
X116413Y188764D02*
D03*
Y182268D02*
D03*
X121110Y182252D02*
D03*
Y188748D02*
D03*
X98925Y205520D02*
D03*
Y199024D02*
D03*
X99000Y229248D02*
D03*
Y222752D02*
D03*
X295500Y325252D02*
D03*
Y331748D02*
D03*
X138500Y215461D02*
D03*
Y208965D02*
D03*
X95000Y146476D02*
D03*
Y139980D02*
D03*
X89075D02*
D03*
Y146476D02*
D03*
X293500Y369496D02*
D03*
Y363000D02*
D03*
X267500Y369496D02*
D03*
Y363000D02*
D03*
X286000Y325252D02*
D03*
Y331748D02*
D03*
X275000Y325252D02*
D03*
Y331748D02*
D03*
D16*
X138500Y329547D02*
D03*
Y335453D02*
D03*
X147000Y274638D02*
D03*
Y280543D02*
D03*
X125000D02*
D03*
Y274638D02*
D03*
X237000Y207063D02*
D03*
Y212968D02*
D03*
X230772Y207063D02*
D03*
Y212968D02*
D03*
X272500Y237563D02*
D03*
Y243468D02*
D03*
X265500Y237563D02*
D03*
Y243468D02*
D03*
X205072Y275131D02*
D03*
Y269226D02*
D03*
X199072Y275131D02*
D03*
Y269226D02*
D03*
X217072Y275131D02*
D03*
Y269226D02*
D03*
X223072Y275131D02*
D03*
Y269226D02*
D03*
X211072Y275131D02*
D03*
Y269226D02*
D03*
X155000Y219547D02*
D03*
Y225453D02*
D03*
X133500Y214968D02*
D03*
Y209063D02*
D03*
X143500Y214968D02*
D03*
Y209063D02*
D03*
X109000Y219000D02*
D03*
Y224905D02*
D03*
X145500Y260032D02*
D03*
Y265937D02*
D03*
X150500Y260032D02*
D03*
Y265937D02*
D03*
X143500Y335453D02*
D03*
Y329547D02*
D03*
D17*
X149752Y186500D02*
D03*
X156248D02*
D03*
X149752Y181500D02*
D03*
X156248D02*
D03*
Y176303D02*
D03*
X149752D02*
D03*
Y171197D02*
D03*
X156248D02*
D03*
X161000Y176303D02*
D03*
X167496D02*
D03*
X120248Y175909D02*
D03*
X113752D02*
D03*
Y170925D02*
D03*
X120248D02*
D03*
X102752Y175909D02*
D03*
X109248D02*
D03*
X168752Y304000D02*
D03*
X175248D02*
D03*
X168752Y299000D02*
D03*
X175248D02*
D03*
X139248Y268000D02*
D03*
X132752D02*
D03*
X344500Y315500D02*
D03*
X338004D02*
D03*
Y338500D02*
D03*
X344500D02*
D03*
X144500Y204000D02*
D03*
X138004D02*
D03*
X157055Y259000D02*
D03*
X163551D02*
D03*
X316468Y357397D02*
D03*
X322964D02*
D03*
Y362397D02*
D03*
X316468D02*
D03*
X323275Y377897D02*
D03*
X316779D02*
D03*
X316783Y372897D02*
D03*
X323279D02*
D03*
X127752Y301000D02*
D03*
X134248D02*
D03*
D18*
X139047Y176500D02*
D03*
X144953D02*
D03*
X139047Y171000D02*
D03*
X144953D02*
D03*
X167398D02*
D03*
X161492D02*
D03*
X102850Y170728D02*
D03*
X108756D02*
D03*
X253468Y232500D02*
D03*
X247563D02*
D03*
X157547Y254000D02*
D03*
X163453D02*
D03*
X155063Y237694D02*
D03*
X160968D02*
D03*
X155063Y232889D02*
D03*
X160968D02*
D03*
X155063Y248160D02*
D03*
X160968D02*
D03*
X155063Y243000D02*
D03*
X160968D02*
D03*
X141937Y370000D02*
D03*
X136031D02*
D03*
X141937Y364000D02*
D03*
X136031D02*
D03*
D19*
X215362Y315921D02*
D03*
X211425D02*
D03*
X199614D02*
D03*
X203551D02*
D03*
X207488D02*
D03*
X187803D02*
D03*
X191740D02*
D03*
X195677D02*
D03*
X175992D02*
D03*
X179929D02*
D03*
X183866D02*
D03*
X172055D02*
D03*
X168118D02*
D03*
X164181D02*
D03*
D20*
X153000Y339504D02*
D03*
Y343441D02*
D03*
Y347378D02*
D03*
Y351315D02*
D03*
Y355252D02*
D03*
Y359189D02*
D03*
Y363126D02*
D03*
Y367063D02*
D03*
Y371000D02*
D03*
Y374937D02*
D03*
Y378874D02*
D03*
Y382811D02*
D03*
X227055Y343441D02*
D03*
Y339504D02*
D03*
Y335567D02*
D03*
Y331630D02*
D03*
Y327693D02*
D03*
Y323756D02*
D03*
Y319819D02*
D03*
X153000D02*
D03*
Y323756D02*
D03*
Y327693D02*
D03*
Y331630D02*
D03*
Y335567D02*
D03*
X227055Y347378D02*
D03*
Y351315D02*
D03*
Y355252D02*
D03*
Y359189D02*
D03*
Y363126D02*
D03*
Y367063D02*
D03*
Y371000D02*
D03*
Y374937D02*
D03*
Y378874D02*
D03*
Y382811D02*
D03*
D21*
X275395Y352731D02*
D03*
Y345251D02*
D03*
X295465D02*
D03*
Y352731D02*
D03*
X285430Y345251D02*
D03*
Y352731D02*
D03*
X285500Y370500D02*
D03*
Y363020D02*
D03*
X275465Y370500D02*
D03*
Y363020D02*
D03*
D22*
X117783Y224036D02*
D03*
X119752D02*
D03*
X121720D02*
D03*
X123689D02*
D03*
X125657D02*
D03*
X127626D02*
D03*
X129594D02*
D03*
X133531D02*
D03*
X135500D02*
D03*
X137468D02*
D03*
X139437D02*
D03*
Y257500D02*
D03*
X137468D02*
D03*
X135500D02*
D03*
X133531D02*
D03*
X131563D02*
D03*
X129594D02*
D03*
X127626D02*
D03*
X125657D02*
D03*
X123689D02*
D03*
X121720D02*
D03*
X119752D02*
D03*
X117783D02*
D03*
X131563Y224036D02*
D03*
D23*
X145342Y229941D02*
D03*
Y231910D02*
D03*
Y233878D02*
D03*
Y235847D02*
D03*
Y237815D02*
D03*
Y239784D02*
D03*
Y241752D02*
D03*
Y243721D02*
D03*
Y245689D02*
D03*
Y247658D02*
D03*
Y249626D02*
D03*
Y251595D02*
D03*
X111878D02*
D03*
Y249626D02*
D03*
Y247658D02*
D03*
Y245689D02*
D03*
Y243721D02*
D03*
Y241752D02*
D03*
Y239784D02*
D03*
Y237815D02*
D03*
Y235847D02*
D03*
Y233878D02*
D03*
Y231910D02*
D03*
Y229941D02*
D03*
D24*
X131669Y280150D02*
D03*
X140331D02*
D03*
Y273850D02*
D03*
X131669D02*
D03*
D25*
X256363Y243421D02*
D03*
X247500D02*
D03*
D26*
X211072Y237663D02*
D03*
D27*
X220127Y213056D02*
D03*
X211072D02*
D03*
X202017D02*
D03*
D28*
X351453Y250732D02*
D03*
Y240732D02*
D03*
Y187268D02*
D03*
Y177268D02*
D03*
X295547D02*
D03*
Y187268D02*
D03*
Y250732D02*
D03*
Y240732D02*
D03*
D29*
X162000Y226043D02*
D03*
Y218957D02*
D03*
D30*
X350689Y353500D02*
D03*
X374311D02*
D03*
X350689Y338736D02*
D03*
X374311D02*
D03*
X350689Y330382D02*
D03*
X374311D02*
D03*
X350689Y315618D02*
D03*
X374311D02*
D03*
D31*
X327842Y362637D02*
D03*
Y355157D02*
D03*
X335716Y358897D02*
D03*
X327842Y378137D02*
D03*
Y370657D02*
D03*
X335716Y374397D02*
D03*
D32*
X241500Y171004D02*
D03*
Y158996D02*
D03*
D49*
X305488Y129500D02*
D03*
X285512Y290000D02*
D03*
D50*
X216512Y129500D02*
D03*
X374488Y290000D02*
D03*
D60*
X141483Y155427D02*
G03*
X141387Y155657I-690J-153D01*
G01*
X140769Y157197D02*
G03*
X141387Y155657I4231J803D01*
G01*
X123228Y174071D02*
X124408Y172891D01*
X121687Y174071D02*
X123228D01*
X124408Y167059D02*
Y172891D01*
X121273Y174485D02*
Y174885D01*
Y174485D02*
X121687Y174071D01*
X125420Y152914D02*
Y157580D01*
X125006Y152500D02*
X125420Y152914D01*
X125000Y158000D02*
X125420Y157580D01*
X121848Y152500D02*
X125006D01*
X120248Y175909D02*
Y176205D01*
X118852Y177600D02*
X120248Y176205D01*
X119500Y162152D02*
X124408Y167059D01*
X119500Y154848D02*
X121848Y152500D01*
X120248Y175909D02*
X121273Y174885D01*
X119500Y154848D02*
Y162152D01*
X119224Y171950D02*
Y172350D01*
X117545Y173948D02*
Y179270D01*
Y173948D02*
X118397Y173095D01*
X118478D02*
X119224Y172350D01*
X118397Y173095D02*
X118478D01*
X118852Y178729D02*
X119412Y179288D01*
X118852Y177600D02*
Y178729D01*
X117545Y179270D02*
X118105Y179829D01*
X120815Y182252D02*
X121110D01*
X119412Y179288D02*
Y180849D01*
X116413Y182268D02*
X116708D01*
X118105Y180871D01*
Y179829D02*
Y180871D01*
X119412Y180849D02*
X120815Y182252D01*
X119418Y190144D02*
Y205652D01*
X119421Y221310D02*
X119606Y221495D01*
X119418Y205652D02*
X119421Y205655D01*
X118111Y206194D02*
X118114Y206196D01*
X116708Y188764D02*
X118111Y190167D01*
Y206194D01*
X118114Y206196D02*
Y221310D01*
X117929Y221495D02*
X118114Y221310D01*
X117783Y224036D02*
X117929Y223889D01*
Y221495D02*
Y223889D01*
X119421Y205655D02*
Y221310D01*
X119418Y190144D02*
X120815Y188748D01*
X119606Y221495D02*
Y223889D01*
X116413Y188764D02*
X116708D01*
X119606Y223889D02*
X119752Y224036D01*
X120815Y188748D02*
X121110D01*
X127295Y202053D02*
Y221310D01*
X125988Y201512D02*
X144153Y183346D01*
X144695Y184653D02*
X148313D01*
X127295Y202053D02*
X144695Y184653D01*
X144153Y183346D02*
X148313D01*
X125988Y201512D02*
Y221310D01*
X125657Y224036D02*
X125803Y223889D01*
Y221495D02*
X125988Y221310D01*
X125803Y221495D02*
Y223889D01*
X127480Y221495D02*
Y223889D01*
X127626Y224036D01*
X127295Y221310D02*
X127480Y221495D01*
X148728Y182525D02*
X149752Y181500D01*
X148728Y182525D02*
Y182932D01*
X148313Y183346D02*
X148728Y182932D01*
X148313Y184653D02*
X148728Y185068D01*
Y185476D01*
X149752Y186500D01*
X141483Y155427D02*
X141790Y155119D01*
X140769Y157197D02*
X140769Y157197D01*
X140693Y157273D02*
X140769Y157197D01*
X139386Y157994D02*
Y160114D01*
X135000Y158000D02*
X135420Y157580D01*
X138972D02*
X139386Y157994D01*
X135420Y157580D02*
X138972D01*
X148910Y148000D02*
X150000D01*
X141790Y155119D02*
X148910Y148000D01*
X140693Y157273D02*
Y160655D01*
X134307Y167041D02*
X140693Y160655D01*
X137531Y172517D02*
X139047Y171000D01*
X137531Y172517D02*
Y172682D01*
X133000Y166500D02*
Y171828D01*
X137531Y174983D02*
X139047Y176500D01*
X134307Y167041D02*
Y171287D01*
X136117Y173097D01*
X133000Y166500D02*
X139386Y160114D01*
X133000Y171828D02*
X135575Y174404D01*
X136117Y173097D02*
X137117D01*
Y174404D02*
X137531Y174818D01*
X137117Y173097D02*
X137531Y172682D01*
Y174818D02*
Y174983D01*
X135575Y174404D02*
X137117D01*
X123101Y167601D02*
Y172350D01*
X118193Y162693D02*
X123101Y167601D01*
X118193Y154307D02*
Y162693D01*
X122687Y172764D02*
X123101Y172350D01*
X121687Y172764D02*
X122687D01*
X121273Y171950D02*
Y172350D01*
X121687Y172764D01*
X120248Y170925D02*
X121273Y171950D01*
X154809Y184653D02*
X155224Y185068D01*
Y185476D02*
X156248Y186500D01*
X153602Y184653D02*
X154809D01*
X152422Y183474D02*
X153602Y184653D01*
X154143Y183346D02*
X154729D01*
X155143Y182932D01*
X153729D02*
X154143Y183346D01*
X155143Y182900D02*
Y182932D01*
Y182900D02*
X156248Y181795D01*
Y181500D02*
Y181795D01*
X153729Y175635D02*
Y182932D01*
X155224Y185068D02*
Y185476D01*
X152318Y174224D02*
X153729Y175635D01*
X152422Y176176D02*
Y183474D01*
X149752Y176303D02*
X150525Y175531D01*
X151776D02*
X152422Y176176D01*
X148728Y175279D02*
X149752Y176303D01*
X148728Y174818D02*
Y175279D01*
X148313Y174404D02*
X148728Y174818D01*
X152318Y174204D02*
Y174224D01*
X150525Y175531D02*
X151776D01*
X144953Y176500D02*
X146469Y174983D01*
Y174818D02*
Y174983D01*
Y174818D02*
X146883Y174404D01*
X148313D01*
X148728Y172221D02*
X149752Y171197D01*
X150776Y172221D01*
X148728D02*
Y172682D01*
X150776D02*
X151583Y173489D01*
X148313Y173097D02*
X148728Y172682D01*
X151602Y173489D02*
X152318Y174204D01*
X146883Y173097D02*
X148313D01*
X146469Y172682D02*
X146883Y173097D01*
X146469Y172517D02*
Y172682D01*
X144953Y171000D02*
X146469Y172517D01*
X150776Y172221D02*
Y172682D01*
X151583Y173489D02*
X151602D01*
X126807Y151193D02*
X130000Y148000D01*
X121307Y151193D02*
X126807D01*
X118193Y154307D02*
X121307Y151193D01*
D61*
X197500Y153000D02*
X233500D01*
X179508Y135008D02*
X197500Y153000D01*
X233500D02*
X239206Y158706D01*
X241210D02*
X241500Y158996D01*
X239206Y158706D02*
X241210D01*
X155000Y157417D02*
X157000Y155417D01*
Y151583D02*
Y155417D01*
Y151583D02*
X160173Y148410D01*
X155000Y157417D02*
Y158000D01*
X160173Y138335D02*
Y148410D01*
X163500Y135008D02*
X179508D01*
X116496D02*
X163500D01*
X160173Y138335D02*
X163500Y135008D01*
D62*
X105405Y224905D02*
X112853D01*
X103500Y187500D02*
Y223000D01*
X105405Y224905D01*
X154674Y232500D02*
X155000Y232174D01*
X103500Y187500D02*
X112974Y178026D01*
X108500Y213868D02*
X109000Y214368D01*
X108500Y213500D02*
Y213868D01*
X109000Y214368D02*
Y219000D01*
X139890Y237110D02*
Y238370D01*
X139630Y238630D02*
X139890Y238370D01*
X141072Y235928D02*
X145261D01*
X139890Y237110D02*
X141072Y235928D01*
X139630Y238630D02*
X139760Y238760D01*
Y240220D01*
X141292Y241752D01*
X145261Y235928D02*
X145342Y235847D01*
X141292Y241752D02*
X145342D01*
X154869Y233083D02*
X155063Y232889D01*
X154869Y233083D02*
Y237500D01*
X137421Y230000D02*
X139331Y231910D01*
X133613Y226861D02*
X136752Y230000D01*
X137421D01*
X139331Y231910D02*
X145342D01*
X133613Y224118D02*
Y226861D01*
X133531Y224036D02*
X133613Y224118D01*
X139189Y245689D02*
X145342D01*
X136527Y233878D02*
Y243027D01*
X139189Y245689D01*
X112974Y176687D02*
Y178026D01*
Y176687D02*
X113752Y175909D01*
X109248D02*
X113752D01*
Y170925D02*
Y175909D01*
X89000Y342500D02*
X121437Y374937D01*
X153000D01*
X89000Y352500D02*
X115374Y378874D01*
X153000D01*
X131563Y224036D02*
Y229118D01*
X128900Y231781D02*
X131563Y229118D01*
X147953Y225453D02*
X155000D01*
X142000Y219500D02*
X147953Y225453D01*
X155000D02*
Y232174D01*
X131000Y249500D02*
X137500D01*
X128000Y252500D02*
X128260Y252760D01*
X129760D01*
X137500Y249500D02*
X139437Y251437D01*
X134500Y252806D02*
X135500Y253806D01*
Y257500D01*
X134500Y252500D02*
Y252806D01*
X139437Y251437D02*
Y257500D01*
X129760Y252760D02*
X131563Y254563D01*
Y257500D01*
X151160Y248160D02*
X155063D01*
X145342Y245689D02*
X148689D01*
X151160Y248160D01*
X160968D02*
X161129Y248000D01*
X141937Y364000D02*
X142508Y364571D01*
X144904D02*
X146903Y366570D01*
X152507D01*
X142508Y364571D02*
X144904D01*
X152507Y366570D02*
X153000Y367063D01*
X146000Y371000D02*
X153000D01*
X141937Y370000D02*
X145000D01*
X146000Y371000D01*
X107368Y229500D02*
X107809Y229941D01*
X107000Y229500D02*
X107368D01*
X107809Y229941D02*
X111878D01*
X121720Y224036D02*
Y227506D01*
X120806Y228419D02*
Y228787D01*
Y228419D02*
X121720Y227506D01*
X122152Y231781D02*
X128900D01*
X122152D02*
X123689Y230244D01*
Y224036D02*
Y230244D01*
X112853Y224905D02*
X119728Y231781D01*
X122152D01*
X134430D02*
X136527Y233878D01*
X155000Y225453D02*
X155591Y226043D01*
X162000D01*
X128900Y231781D02*
X134430D01*
X137468Y221032D02*
Y224036D01*
Y221032D02*
X139000Y219500D01*
X142000D01*
X137427Y216239D02*
X138205Y215461D01*
X135500Y219986D02*
Y224036D01*
Y219986D02*
X137427Y218059D01*
Y216239D02*
Y218059D01*
X138205Y215461D02*
X138500D01*
X143500Y214968D02*
Y218000D01*
X142000Y219500D02*
X143500Y218000D01*
X133500Y214968D02*
Y218500D01*
X131563Y220437D02*
X133500Y218500D01*
X131563Y220437D02*
Y224036D01*
X151000Y232500D02*
X154674D01*
X136527Y233878D02*
X145342D01*
X150685Y237815D02*
X151000Y237500D01*
X149622Y233878D02*
X151000Y232500D01*
X145342Y237815D02*
X150685D01*
X151000Y237500D02*
X154869D01*
X145342Y233878D02*
X149622D01*
D63*
X99000Y239000D02*
Y243252D01*
X98925Y195291D02*
Y199024D01*
X99000Y218500D02*
Y222752D01*
X133500Y329000D02*
X133651D01*
X133500Y335500D02*
X133524Y335476D01*
X138476D01*
X137630Y329500D02*
X137677Y329547D01*
X133651Y329000D02*
X134151Y329500D01*
X138476Y335476D02*
X138500Y335453D01*
X134151Y329500D02*
X137630D01*
X167398Y171000D02*
X172500D01*
X108756Y170728D02*
X108878Y170606D01*
Y165622D02*
X109000Y165500D01*
X108878Y165622D02*
Y170606D01*
X317161Y369339D02*
Y372519D01*
Y369339D02*
X318393Y368107D01*
X321893D01*
X322000Y368000D02*
X324988D01*
X321893Y368107D02*
X322000Y368000D01*
X324988D02*
X327070Y370082D01*
X316783Y372897D02*
X317161Y372519D01*
X327070Y370082D02*
X327267D01*
X327842Y370657D01*
X137677Y329547D02*
X143500D01*
X135161Y363130D02*
X136031Y364000D01*
X135161Y362279D02*
Y363130D01*
X131607Y361107D02*
X133990D01*
X135161Y362279D01*
X131500Y361000D02*
X131607Y361107D01*
X168752Y294453D02*
Y304000D01*
Y294453D02*
X169000Y294205D01*
Y294000D02*
Y294205D01*
X134248Y300705D02*
Y301000D01*
X134828Y300327D02*
X136000Y299155D01*
X134248Y300705D02*
X134626Y300327D01*
X134828D01*
X136000Y296000D02*
Y299155D01*
X216000Y332500D02*
X221000Y327500D01*
X226862D01*
X227055Y327693D01*
X212000Y329000D02*
X220705Y320295D01*
X226579D01*
X227055Y319819D01*
X144370Y336323D02*
Y337370D01*
X146500Y339500D01*
X152996D01*
X143500Y335453D02*
X144370Y336323D01*
X152996Y339500D02*
X153000Y339504D01*
X138500Y335453D02*
X143500D01*
X293502Y369498D02*
X298498D01*
X298500Y369500D01*
X293500Y369496D02*
X293502Y369498D01*
X275395Y352731D02*
X285430D01*
X270420D02*
X275395D01*
X150024Y219524D02*
X154976D01*
X155000Y219547D01*
X150000Y219500D02*
X150024Y219524D01*
X338002Y315502D02*
Y320498D01*
Y315502D02*
X338004Y315500D01*
X338000Y320500D02*
X338002Y320498D01*
X337987Y338483D02*
X338004Y338500D01*
X337987Y333546D02*
Y338483D01*
X337970Y333529D02*
X337987Y333546D01*
X362015Y330397D02*
X374296D01*
X362000Y330411D02*
X362015Y330397D01*
X374296D02*
X374311Y330382D01*
X361985Y330397D02*
X362000Y330411D01*
X350689Y330382D02*
X350704Y330397D01*
X361985D01*
X350689Y353500D02*
X362000D01*
X374311D01*
X331470Y354029D02*
X338471D01*
X330500Y355000D02*
X331470Y354029D01*
X327999Y355000D02*
X330500D01*
X327842Y355157D02*
X327999Y355000D01*
X312115Y357174D02*
X316245D01*
X316468Y357397D01*
X311970Y357030D02*
X312115Y357174D01*
X300795Y325500D02*
X301000D01*
X295500Y325252D02*
X300547D01*
X300795Y325500D01*
X268607Y354544D02*
Y354893D01*
X268500Y355000D02*
X268607Y354893D01*
Y354544D02*
X270420Y352731D01*
X285430D02*
X295465D01*
X267498Y369498D02*
X267500Y369496D01*
X262502Y369498D02*
X267498D01*
X262500Y369500D02*
X262502Y369498D01*
X227026Y343471D02*
X227055Y343441D01*
X218500Y343500D02*
X218530Y343471D01*
X89075Y146476D02*
X95000D01*
X89063Y146488D02*
X89075Y146476D01*
X83512Y146488D02*
X89063D01*
X83500Y146500D02*
X83512Y146488D01*
X352594Y316094D02*
X354893Y318393D01*
X350630Y315559D02*
X351165Y316094D01*
X352594D01*
X354893Y318393D02*
Y321393D01*
X351181Y315618D02*
X374311D01*
X354893Y321393D02*
X355000Y321500D01*
X344559Y315559D02*
X350630D01*
X344500Y315500D02*
X344559Y315559D01*
X351165Y339213D02*
X351658D01*
X350571Y338618D02*
X351165Y339213D01*
X354893Y344893D02*
X355000Y345000D01*
X351658Y339213D02*
X354893Y342448D01*
Y344893D01*
X351181Y338736D02*
X374311D01*
X344618Y338618D02*
X350571D01*
X344500Y338500D02*
X344618Y338618D01*
X218500Y374500D02*
X218651D01*
X219088Y374937D02*
X227055D01*
X218651Y374500D02*
X219088Y374937D01*
X218651Y378500D02*
X219025Y378874D01*
X218500Y378500D02*
X218651D01*
X219025Y378874D02*
X227055D01*
X125000Y280543D02*
Y285000D01*
X147638Y274000D02*
X151849D01*
X147000Y274638D02*
X147638Y274000D01*
X205072Y275131D02*
X205079Y275138D01*
X211085Y275145D02*
Y280096D01*
X205079Y280103D02*
X205085Y280109D01*
X211072Y275131D02*
X211085Y275145D01*
X205079Y275138D02*
Y280103D01*
X211085Y280096D02*
X211099Y280109D01*
X217092Y275151D02*
Y280089D01*
X223099Y275158D02*
Y280083D01*
X217072Y275131D02*
X217092Y275151D01*
Y280089D02*
X217112Y280109D01*
X223099Y280083D02*
X223125Y280109D01*
X223072Y275131D02*
X223099Y275158D01*
X199072Y275131D02*
Y280109D01*
X163502Y258951D02*
X163551Y259000D01*
X163502Y254049D02*
Y258951D01*
X163453Y254000D02*
X163502Y254049D01*
X163551Y258985D02*
X163929Y258607D01*
X167893D02*
X168000Y258500D01*
X163551Y258985D02*
Y259000D01*
X163929Y258607D02*
X167893D01*
X164000Y232500D02*
X166500Y235000D01*
X161357Y232500D02*
X164000D01*
X160968Y232889D02*
X161357Y232500D01*
X161663Y237000D02*
X164349D01*
X166349Y235000D02*
X166500D01*
X164349Y237000D02*
X166349Y235000D01*
X160968Y237694D02*
X161663Y237000D01*
X160968Y243000D02*
X166000D01*
X161129Y248000D02*
X166000D01*
X140331Y273850D02*
X146213D01*
X147000Y274638D01*
X125197Y280346D02*
X131472D01*
X125000Y280543D02*
X125197Y280346D01*
X131472D02*
X131669Y280150D01*
X218595Y382906D02*
X226961D01*
X218500Y383000D02*
X218595Y382906D01*
X226961D02*
X227055Y382811D01*
X144595Y382906D02*
X152905D01*
X153000Y382811D01*
X144500Y383000D02*
X144595Y382906D01*
X136031Y364000D02*
Y370000D01*
X150500Y265937D02*
X153303Y268740D01*
X154740D01*
X155000Y269000D01*
X145500Y265937D02*
X150500D01*
D64*
X153000Y343441D02*
X159941D01*
X162451Y345951D01*
Y347951D01*
X162500Y348000D01*
X175996Y323996D02*
X176000Y324000D01*
X175996Y315925D02*
Y323996D01*
X218530Y343471D02*
X227026D01*
X265553Y232492D02*
Y232508D01*
X265500Y232562D02*
X265553Y232508D01*
X272500Y232562D02*
X272553Y232508D01*
X265500Y232562D02*
Y237563D01*
X272500Y232562D02*
Y237563D01*
X230772Y202031D02*
Y207063D01*
X237000Y202031D02*
Y207063D01*
X253468Y232500D02*
X253472Y232496D01*
X258458D01*
X258462Y232492D01*
X272553D02*
Y232508D01*
X175992Y315921D02*
X175996Y315925D01*
X162000Y214500D02*
Y218000D01*
D65*
X202008Y213048D02*
X202017Y213056D01*
X202000Y206000D02*
X202008Y206008D01*
Y213048D01*
X197973Y206000D02*
X202000D01*
X206027D01*
D66*
X211072Y213056D02*
Y237663D01*
X295547Y266547D02*
X319000Y290000D01*
X295547Y250732D02*
Y266547D01*
X319000Y290000D02*
X374488D01*
X295547Y240732D02*
Y250732D01*
D67*
X237000Y212968D02*
X247468D01*
X230772D02*
X237000D01*
X247563Y223063D02*
Y243358D01*
X220355Y212968D02*
X230772D01*
X256363Y243421D02*
X256411Y243468D01*
X265500D01*
X272500D01*
X262500Y272000D02*
X272500Y262000D01*
Y243468D02*
Y262000D01*
X284017Y288505D02*
X285512Y290000D01*
X262500Y272000D02*
X279005Y288505D01*
X284017D01*
D68*
X262500Y272000D02*
D03*
X248721D02*
D03*
D69*
X247500Y213000D02*
D03*
X89000Y266500D02*
D03*
Y220500D02*
D03*
Y197500D02*
D03*
Y243500D02*
D03*
Y322500D02*
D03*
Y289500D02*
D03*
D70*
X247500Y223000D02*
D03*
X89000Y276500D02*
D03*
Y230500D02*
D03*
Y207500D02*
D03*
Y253500D02*
D03*
Y332500D02*
D03*
Y342500D02*
D03*
Y352500D02*
D03*
Y299500D02*
D03*
Y309500D02*
D03*
D71*
X370500Y373000D02*
D03*
X170000Y123000D02*
D03*
X125000Y123000D02*
D03*
X91500Y373000D02*
D03*
Y113500D02*
D03*
X370500D02*
D03*
D72*
X173602Y107016D02*
D03*
X121398D02*
D03*
X163602D02*
D03*
X170000Y148000D02*
D03*
X125000Y158000D02*
D03*
X165000D02*
D03*
X160000Y148000D02*
D03*
X155000Y158000D02*
D03*
X150000Y148000D02*
D03*
X145000Y158000D02*
D03*
X140000Y148000D02*
D03*
X135000Y158000D02*
D03*
X130000Y148000D02*
D03*
X131398Y107016D02*
D03*
D73*
X178504Y135008D02*
D03*
X116496D02*
D03*
D74*
X99000Y239000D02*
D03*
X108500Y213500D02*
D03*
X98925Y195291D02*
D03*
X99000Y218500D02*
D03*
X139630Y238630D02*
D03*
X133500Y329000D02*
D03*
X322000Y368000D02*
D03*
X131500Y361000D02*
D03*
X206027Y206000D02*
D03*
X202008Y206008D02*
D03*
X197973Y206000D02*
D03*
X212000Y329000D02*
D03*
X216000Y332500D02*
D03*
X131000Y249500D02*
D03*
X128000Y252500D02*
D03*
X218500Y374500D02*
D03*
X355000Y345000D02*
D03*
Y321500D02*
D03*
X218500Y378500D02*
D03*
X134500Y252500D02*
D03*
X125000Y285000D02*
D03*
X152000Y274000D02*
D03*
X188000Y306000D02*
D03*
X183000D02*
D03*
X110500Y255000D02*
D03*
X114500Y258500D02*
D03*
X258462Y232492D02*
D03*
X272553D02*
D03*
X265553D02*
D03*
X230772Y202031D02*
D03*
X237000D02*
D03*
X217112Y280109D02*
D03*
X205085D02*
D03*
X199072D02*
D03*
X211099D02*
D03*
X223125D02*
D03*
X246800Y177000D02*
D03*
X241500D02*
D03*
X236200D02*
D03*
X168000Y258500D02*
D03*
X166000Y243000D02*
D03*
Y248000D02*
D03*
X166500Y235000D02*
D03*
X218500Y383000D02*
D03*
X144500D02*
D03*
X155000Y269000D02*
D03*
X155500Y263500D02*
D03*
X107000Y229500D02*
D03*
X120806Y228787D02*
D03*
D75*
X133500Y335500D02*
D03*
X137000Y230000D02*
D03*
X172500Y171000D02*
D03*
X109000Y165500D02*
D03*
X162500Y348000D02*
D03*
X169000Y294000D02*
D03*
X136000Y296000D02*
D03*
X298500Y369500D02*
D03*
X162000Y214500D02*
D03*
X149000Y204000D02*
D03*
X150000Y219500D02*
D03*
X338000Y320500D02*
D03*
X337970Y333529D02*
D03*
X362000Y330411D02*
D03*
Y353500D02*
D03*
X338471Y354029D02*
D03*
X311970Y357030D02*
D03*
X301000Y325500D02*
D03*
X175970Y324029D02*
D03*
X268500Y355000D02*
D03*
X262500Y369500D02*
D03*
X83500Y146500D02*
D03*
X218500Y343500D02*
D03*
D76*
X356102Y159449D02*
D03*
Y148819D02*
D03*
X353445Y164764D02*
D03*
X350787Y159449D02*
D03*
X353445Y154134D02*
D03*
X350787Y148819D02*
D03*
X348130Y164764D02*
D03*
X345472Y159449D02*
D03*
X348130Y154134D02*
D03*
X345472Y148819D02*
D03*
X342815Y164764D02*
D03*
X340157Y159449D02*
D03*
X342815Y154134D02*
D03*
X337500Y164764D02*
D03*
X377362Y249803D02*
D03*
Y239173D02*
D03*
X372047Y249803D02*
D03*
X374705Y244488D02*
D03*
X372047Y239173D02*
D03*
X374705Y233858D02*
D03*
X366732Y249803D02*
D03*
X369390Y244488D02*
D03*
X366732Y239173D02*
D03*
X369390Y233858D02*
D03*
X364075D02*
D03*
X358760D02*
D03*
X353445D02*
D03*
X348130D02*
D03*
X289000Y376000D02*
D03*
X340000Y376500D02*
D03*
X278000Y376000D02*
D03*
X289500Y204000D02*
D03*
Y199000D02*
D03*
Y194000D02*
D03*
X295500D02*
D03*
Y199000D02*
D03*
X301500Y194000D02*
D03*
Y199000D02*
D03*
Y204000D02*
D03*
X295500D02*
D03*
X217072Y247663D02*
D03*
X223072D02*
D03*
Y252663D02*
D03*
X217072D02*
D03*
X205072Y257663D02*
D03*
X199072Y252663D02*
D03*
X211072Y257663D02*
D03*
X205072Y252663D02*
D03*
Y247663D02*
D03*
X211072D02*
D03*
Y252663D02*
D03*
X199072Y247663D02*
D03*
Y257663D02*
D03*
X205072Y262663D02*
D03*
X217072D02*
D03*
X223072D02*
D03*
Y257663D02*
D03*
X217072D02*
D03*
X199072Y262663D02*
D03*
X211072D02*
D03*
X340000Y361500D02*
D03*
M02*
