G04*
G04 #@! TF.GenerationSoftware,Altium Limited,Altium Designer,22.7.1 (60)*
G04*
G04 Layer_Color=8421504*
%FSLAX25Y25*%
%MOIN*%
G70*
G04*
G04 #@! TF.SameCoordinates,E9EB7054-F832-478C-845A-F08F9BC20AEA*
G04*
G04*
G04 #@! TF.FilePolarity,Positive*
G04*
G01*
G75*
%ADD16R,0.03347X0.02756*%
%ADD17R,0.03740X0.03740*%
%ADD18R,0.02756X0.03347*%
%ADD19R,0.03740X0.03740*%
%ADD20R,0.02953X0.10000*%
%ADD21R,0.10000X0.02953*%
%ADD22R,0.04528X0.05315*%
%ADD23R,0.01000X0.04500*%
%ADD24R,0.04500X0.01000*%
%ADD25R,0.05512X0.04528*%
%ADD26R,0.06122X0.09080*%
G04:AMPARAMS|DCode=27|XSize=125.98mil|YSize=68.9mil|CornerRadius=2.07mil|HoleSize=0mil|Usage=FLASHONLY|Rotation=180.000|XOffset=0mil|YOffset=0mil|HoleType=Round|Shape=RoundedRectangle|*
%AMROUNDEDRECTD27*
21,1,0.12598,0.06476,0,0,180.0*
21,1,0.12185,0.06890,0,0,180.0*
1,1,0.00413,-0.06093,0.03238*
1,1,0.00413,0.06093,0.03238*
1,1,0.00413,0.06093,-0.03238*
1,1,0.00413,-0.06093,-0.03238*
%
%ADD27ROUNDEDRECTD27*%
G04:AMPARAMS|DCode=28|XSize=35.43mil|YSize=68.9mil|CornerRadius=1.95mil|HoleSize=0mil|Usage=FLASHONLY|Rotation=180.000|XOffset=0mil|YOffset=0mil|HoleType=Round|Shape=RoundedRectangle|*
%AMROUNDEDRECTD28*
21,1,0.03543,0.06500,0,0,180.0*
21,1,0.03154,0.06890,0,0,180.0*
1,1,0.00390,-0.01577,0.03250*
1,1,0.00390,0.01577,0.03250*
1,1,0.00390,0.01577,-0.03250*
1,1,0.00390,-0.01577,-0.03250*
%
%ADD28ROUNDEDRECTD28*%
%ADD29R,0.15748X0.04921*%
%ADD30R,0.04921X0.02362*%
%ADD31R,0.03937X0.02953*%
%ADD32R,0.03543X0.03150*%
%ADD33R,0.06890X0.04331*%
D16*
X99000Y243252D02*
D03*
Y249748D02*
D03*
X116413Y188764D02*
D03*
Y182268D02*
D03*
X121110Y182252D02*
D03*
Y188748D02*
D03*
X98925Y205520D02*
D03*
Y199024D02*
D03*
X99000Y229248D02*
D03*
Y222752D02*
D03*
X295500Y325252D02*
D03*
Y331748D02*
D03*
X138500Y215461D02*
D03*
Y208965D02*
D03*
X95000Y146476D02*
D03*
Y139980D02*
D03*
X89075D02*
D03*
Y146476D02*
D03*
X293500Y369496D02*
D03*
Y363000D02*
D03*
X267500Y369496D02*
D03*
Y363000D02*
D03*
X286000Y325252D02*
D03*
Y331748D02*
D03*
X275000Y325252D02*
D03*
Y331748D02*
D03*
D17*
X138500Y329547D02*
D03*
Y335453D02*
D03*
X147000Y274638D02*
D03*
Y280543D02*
D03*
X125000D02*
D03*
Y274638D02*
D03*
X237000Y207063D02*
D03*
Y212968D02*
D03*
X230772Y207063D02*
D03*
Y212968D02*
D03*
X272500Y237563D02*
D03*
Y243468D02*
D03*
X265500Y237563D02*
D03*
Y243468D02*
D03*
X205072Y275131D02*
D03*
Y269226D02*
D03*
X199072Y275131D02*
D03*
Y269226D02*
D03*
X217072Y275131D02*
D03*
Y269226D02*
D03*
X223072Y275131D02*
D03*
Y269226D02*
D03*
X211072Y275131D02*
D03*
Y269226D02*
D03*
X155000Y219547D02*
D03*
Y225453D02*
D03*
X133500Y214968D02*
D03*
Y209063D02*
D03*
X143500Y214968D02*
D03*
Y209063D02*
D03*
X109000Y219000D02*
D03*
Y224905D02*
D03*
X145500Y260032D02*
D03*
Y265937D02*
D03*
X150500Y260032D02*
D03*
Y265937D02*
D03*
X143500Y335453D02*
D03*
Y329547D02*
D03*
D18*
X149752Y186500D02*
D03*
X156248D02*
D03*
X149752Y181500D02*
D03*
X156248D02*
D03*
Y176303D02*
D03*
X149752D02*
D03*
Y171197D02*
D03*
X156248D02*
D03*
X161000Y176303D02*
D03*
X167496D02*
D03*
X120248Y175909D02*
D03*
X113752D02*
D03*
Y170925D02*
D03*
X120248D02*
D03*
X102752Y175909D02*
D03*
X109248D02*
D03*
X168752Y304000D02*
D03*
X175248D02*
D03*
X168752Y299000D02*
D03*
X175248D02*
D03*
X139248Y268000D02*
D03*
X132752D02*
D03*
X344500Y315500D02*
D03*
X338004D02*
D03*
Y338500D02*
D03*
X344500D02*
D03*
X144500Y204000D02*
D03*
X138004D02*
D03*
X157055Y259000D02*
D03*
X163551D02*
D03*
X316468Y357397D02*
D03*
X322964D02*
D03*
Y362397D02*
D03*
X316468D02*
D03*
X323275Y377897D02*
D03*
X316779D02*
D03*
X316783Y372897D02*
D03*
X323279D02*
D03*
X127752Y301000D02*
D03*
X134248D02*
D03*
D19*
X139047Y176500D02*
D03*
X144953D02*
D03*
X139047Y171000D02*
D03*
X144953D02*
D03*
X167398D02*
D03*
X161492D02*
D03*
X102850Y170728D02*
D03*
X108756D02*
D03*
X253468Y232500D02*
D03*
X247563D02*
D03*
X157547Y254000D02*
D03*
X163453D02*
D03*
X155063Y237694D02*
D03*
X160968D02*
D03*
X155063Y232889D02*
D03*
X160968D02*
D03*
X155063Y248160D02*
D03*
X160968D02*
D03*
X155063Y243000D02*
D03*
X160968D02*
D03*
X141937Y370000D02*
D03*
X136031D02*
D03*
X141937Y364000D02*
D03*
X136031D02*
D03*
D20*
X215362Y315921D02*
D03*
X211425D02*
D03*
X199614D02*
D03*
X203551D02*
D03*
X207488D02*
D03*
X187803D02*
D03*
X191740D02*
D03*
X195677D02*
D03*
X175992D02*
D03*
X179929D02*
D03*
X183866D02*
D03*
X172055D02*
D03*
X168118D02*
D03*
X164181D02*
D03*
D21*
X153000Y339504D02*
D03*
Y343441D02*
D03*
Y347378D02*
D03*
Y351315D02*
D03*
Y355252D02*
D03*
Y359189D02*
D03*
Y363126D02*
D03*
Y367063D02*
D03*
Y371000D02*
D03*
Y374937D02*
D03*
Y378874D02*
D03*
Y382811D02*
D03*
X227055Y343441D02*
D03*
Y339504D02*
D03*
Y335567D02*
D03*
Y331630D02*
D03*
Y327693D02*
D03*
Y323756D02*
D03*
Y319819D02*
D03*
X153000D02*
D03*
Y323756D02*
D03*
Y327693D02*
D03*
Y331630D02*
D03*
Y335567D02*
D03*
X227055Y347378D02*
D03*
Y351315D02*
D03*
Y355252D02*
D03*
Y359189D02*
D03*
Y363126D02*
D03*
Y367063D02*
D03*
Y371000D02*
D03*
Y374937D02*
D03*
Y378874D02*
D03*
Y382811D02*
D03*
D22*
X275395Y352731D02*
D03*
Y345251D02*
D03*
X295465D02*
D03*
Y352731D02*
D03*
X285430Y345251D02*
D03*
Y352731D02*
D03*
X285500Y370500D02*
D03*
Y363020D02*
D03*
X275465Y370500D02*
D03*
Y363020D02*
D03*
D23*
X117783Y224036D02*
D03*
X119752D02*
D03*
X121720D02*
D03*
X123689D02*
D03*
X125657D02*
D03*
X127626D02*
D03*
X129594D02*
D03*
X133531D02*
D03*
X135500D02*
D03*
X137468D02*
D03*
X139437D02*
D03*
Y257500D02*
D03*
X137468D02*
D03*
X135500D02*
D03*
X133531D02*
D03*
X131563D02*
D03*
X129594D02*
D03*
X127626D02*
D03*
X125657D02*
D03*
X123689D02*
D03*
X121720D02*
D03*
X119752D02*
D03*
X117783D02*
D03*
X131563Y224036D02*
D03*
D24*
X145342Y229941D02*
D03*
Y231910D02*
D03*
Y233878D02*
D03*
Y235847D02*
D03*
Y237815D02*
D03*
Y239784D02*
D03*
Y241752D02*
D03*
Y243721D02*
D03*
Y245689D02*
D03*
Y247658D02*
D03*
Y249626D02*
D03*
Y251595D02*
D03*
X111878D02*
D03*
Y249626D02*
D03*
Y247658D02*
D03*
Y245689D02*
D03*
Y243721D02*
D03*
Y241752D02*
D03*
Y239784D02*
D03*
Y237815D02*
D03*
Y235847D02*
D03*
Y233878D02*
D03*
Y231910D02*
D03*
Y229941D02*
D03*
D25*
X131669Y280150D02*
D03*
X140331D02*
D03*
Y273850D02*
D03*
X131669D02*
D03*
D26*
X256363Y243421D02*
D03*
X247500D02*
D03*
D27*
X211072Y237663D02*
D03*
D28*
X220127Y213056D02*
D03*
X211072D02*
D03*
X202017D02*
D03*
D29*
X351453Y250732D02*
D03*
Y240732D02*
D03*
Y187268D02*
D03*
Y177268D02*
D03*
X295547D02*
D03*
Y187268D02*
D03*
Y250732D02*
D03*
Y240732D02*
D03*
D30*
X162000Y226043D02*
D03*
Y218957D02*
D03*
D31*
X350689Y353500D02*
D03*
X374311D02*
D03*
X350689Y338736D02*
D03*
X374311D02*
D03*
X350689Y330382D02*
D03*
X374311D02*
D03*
X350689Y315618D02*
D03*
X374311D02*
D03*
D32*
X327842Y362637D02*
D03*
Y355157D02*
D03*
X335716Y358897D02*
D03*
X327842Y378137D02*
D03*
Y370657D02*
D03*
X335716Y374397D02*
D03*
D33*
X241500Y171004D02*
D03*
Y158996D02*
D03*
M02*
