G04*
G04 #@! TF.GenerationSoftware,Altium Limited,Altium Designer,22.7.1 (60)*
G04*
G04 Layer_Color=65535*
%FSLAX25Y25*%
%MOIN*%
G70*
G04*
G04 #@! TF.SameCoordinates,E9EB7054-F832-478C-845A-F08F9BC20AEA*
G04*
G04*
G04 #@! TF.FilePolarity,Positive*
G04*
G01*
G75*
%ADD10C,0.00394*%
%ADD11C,0.00787*%
%ADD12C,0.00984*%
%ADD13C,0.00394*%
%ADD14C,0.00500*%
%ADD15C,0.01000*%
G36*
X114865Y225768D02*
Y226018D01*
X114674Y226479D01*
X114321Y226832D01*
X113860Y227023D01*
X113610D01*
X113360D01*
X112899Y226832D01*
X112546Y226479D01*
X112355Y226018D01*
Y225768D01*
Y225518D01*
X112546Y225057D01*
X112899Y224704D01*
X113360Y224513D01*
X113610D01*
X113860D01*
X114321Y224704D01*
X114674Y225057D01*
X114865Y225518D01*
Y225768D01*
D01*
D02*
G37*
D10*
X279839Y355693D02*
D03*
X299909D02*
D03*
X289874D02*
D03*
X281449Y360058D02*
D03*
X271414D02*
D03*
D11*
X271850Y272000D02*
X271820Y273000D01*
X271727Y273996D01*
X271574Y274984D01*
X271360Y275961D01*
X271086Y276923D01*
X270754Y277867D01*
X270364Y278788D01*
X269918Y279683D01*
X269418Y280549D01*
X268865Y281383D01*
X268263Y282181D01*
X267612Y282941D01*
X266916Y283659D01*
X266176Y284333D01*
X265397Y284960D01*
X264581Y285538D01*
X263730Y286064D01*
X262849Y286538D01*
X261940Y286956D01*
X261008Y287317D01*
X260055Y287620D01*
X259085Y287864D01*
X258101Y288048D01*
X257109Y288171D01*
X256110Y288232D01*
X255110D01*
X254112Y288171D01*
X253119Y288048D01*
X252136Y287864D01*
X251166Y287620D01*
X250213Y287317D01*
X249280Y286956D01*
X248371Y286538D01*
X247490Y286064D01*
X246640Y285538D01*
X245823Y284960D01*
X245044Y284333D01*
X244305Y283659D01*
X243609Y282941D01*
X242958Y282181D01*
X242355Y281383D01*
X241803Y280549D01*
X241302Y279683D01*
X240857Y278788D01*
X240467Y277867D01*
X240134Y276923D01*
X239861Y275961D01*
X239647Y274984D01*
X239493Y273996D01*
X239401Y273000D01*
X239370Y272000D01*
X239401Y271000D01*
X239493Y270004D01*
X239647Y269016D01*
X239861Y268039D01*
X240134Y267077D01*
X240467Y266133D01*
X240857Y265212D01*
X241302Y264317D01*
X241803Y263451D01*
X242355Y262617D01*
X242958Y261819D01*
X243609Y261059D01*
X244305Y260341D01*
X245044Y259667D01*
X245823Y259040D01*
X246640Y258462D01*
X247490Y257936D01*
X248371Y257462D01*
X249280Y257044D01*
X250213Y256683D01*
X251166Y256380D01*
X252136Y256136D01*
X253119Y255952D01*
X254112Y255829D01*
X255110Y255767D01*
X256110D01*
X257109Y255829D01*
X258101Y255952D01*
X259085Y256136D01*
X260055Y256380D01*
X261008Y256683D01*
X261941Y257044D01*
X262849Y257462D01*
X263730Y257936D01*
X264581Y258462D01*
X265397Y259040D01*
X266177Y259667D01*
X266916Y260341D01*
X267612Y261059D01*
X268263Y261819D01*
X268865Y262617D01*
X269418Y263451D01*
X269918Y264317D01*
X270364Y265212D01*
X270754Y266133D01*
X271086Y267077D01*
X271360Y268039D01*
X271574Y269016D01*
X271727Y270004D01*
X271820Y271000D01*
X271850Y272000D01*
X130063Y269134D02*
X129276D01*
X130063D01*
X379626Y338736D02*
X378839D01*
X379626D01*
Y315618D02*
X378839D01*
X379626D01*
X97720Y246106D02*
Y246894D01*
X100279Y246106D02*
Y246894D01*
X217496Y135504D02*
Y147413D01*
Y111587D02*
Y123496D01*
Y111587D02*
X304504D01*
Y135504D02*
Y147413D01*
Y111587D02*
Y123496D01*
X217496Y147413D02*
X304504D01*
X117692Y185122D02*
Y185909D01*
X115133Y185122D02*
Y185909D01*
X119830Y185106D02*
Y185894D01*
X122389Y185106D02*
Y185894D01*
X152606Y187779D02*
X153394D01*
X152606Y185221D02*
X153394D01*
X152606Y182780D02*
X153394D01*
X152606Y180220D02*
X153394D01*
X152606Y175024D02*
X153394D01*
X152606Y177583D02*
X153394D01*
X152606Y172476D02*
X153394D01*
X152606Y169917D02*
X153394D01*
X163854Y177583D02*
X164642D01*
X163854Y175024D02*
X164642D01*
X116606Y174630D02*
X117394D01*
X116606Y177189D02*
X117394D01*
X116606Y172205D02*
X117394D01*
X116606Y169646D02*
X117394D01*
X105606Y177189D02*
X106394D01*
X105606Y174630D02*
X106394D01*
X171606Y305279D02*
X172394D01*
X171606Y302720D02*
X172394D01*
X100205Y201878D02*
Y202665D01*
X97646Y201878D02*
Y202665D01*
X100279Y225606D02*
Y226394D01*
X97720Y225606D02*
Y226394D01*
X171606Y300279D02*
X172394D01*
X171606Y297721D02*
X172394D01*
X242500Y228000D02*
X252500D01*
Y208000D02*
Y228000D01*
X242500Y208000D02*
X252500D01*
X242500D02*
Y228000D01*
X135606Y266721D02*
X136394D01*
X135606Y269280D02*
X136394D01*
X84000Y281500D02*
X94000D01*
Y261500D02*
Y281500D01*
X84000Y261500D02*
X94000D01*
X84000D02*
Y281500D01*
X244439Y249536D02*
X259424D01*
X244439Y237307D02*
X259424D01*
X340858Y314220D02*
X341646D01*
X340858Y316779D02*
X341646D01*
X340858Y339779D02*
X341646D01*
X340858Y337221D02*
X341646D01*
X373504Y272087D02*
Y283996D01*
Y296004D02*
Y307913D01*
X286496D02*
X373504D01*
X286496Y272087D02*
Y283996D01*
Y296004D02*
Y307913D01*
Y272087D02*
X373504D01*
X224261Y217682D02*
Y233037D01*
X197883Y217682D02*
Y233037D01*
X224261D01*
X197883Y217682D02*
X224261D01*
X294220Y328106D02*
Y328894D01*
X296779Y328106D02*
Y328894D01*
X164854Y221614D02*
Y223386D01*
X159146Y221614D02*
Y223386D01*
X139779Y211819D02*
Y212606D01*
X137221Y211819D02*
Y212606D01*
X140858Y202720D02*
X141646D01*
X140858Y205279D02*
X141646D01*
X84000Y235500D02*
X94000D01*
Y215500D02*
Y235500D01*
X84000Y215500D02*
X94000D01*
X84000D02*
Y235500D01*
Y212500D02*
X94000D01*
Y192500D02*
Y212500D01*
X84000Y192500D02*
X94000D01*
X84000D02*
Y212500D01*
Y258500D02*
X94000D01*
Y238500D02*
Y258500D01*
X84000Y238500D02*
X94000D01*
X84000D02*
Y258500D01*
X159909Y260279D02*
X160697D01*
X159909Y257720D02*
X160697D01*
X319322Y358677D02*
X320110D01*
X319322Y356118D02*
X320110D01*
X319322Y361118D02*
X320110D01*
X319322Y363677D02*
X320110D01*
X319634Y376618D02*
X320421D01*
X319634Y379177D02*
X320421D01*
X331130Y364645D02*
X334338D01*
Y362047D02*
Y364645D01*
X331130Y353149D02*
X334338D01*
Y355748D01*
X319637Y374177D02*
X320425D01*
X319637Y371618D02*
X320425D01*
X331130Y380145D02*
X334338D01*
Y377547D02*
Y380145D01*
X331130Y368649D02*
X334338D01*
Y371248D01*
X84000Y357500D02*
X94000D01*
Y317500D02*
Y357500D01*
X84000Y317500D02*
Y357500D01*
Y317500D02*
X94000D01*
X96280Y142835D02*
Y143622D01*
X93721Y142835D02*
Y143622D01*
X87795Y142835D02*
Y143622D01*
X90354Y142835D02*
Y143622D01*
X244551Y162638D02*
Y167362D01*
X238449Y162638D02*
Y167362D01*
X294779Y365854D02*
Y366642D01*
X292220Y365854D02*
Y366642D01*
X268779Y365854D02*
Y366642D01*
X266220Y365854D02*
Y366642D01*
X94000Y284500D02*
Y314500D01*
X84000D02*
X94000D01*
X84000Y284500D02*
Y314500D01*
Y284500D02*
X94000D01*
X284720Y328106D02*
Y328894D01*
X287280Y328106D02*
Y328894D01*
X273721Y328106D02*
Y328894D01*
X276279Y328106D02*
Y328894D01*
X130606Y302279D02*
X131394D01*
X130606Y299721D02*
X131394D01*
D12*
X198572Y213056D02*
X197834Y213483D01*
Y212630D01*
X198572Y213056D01*
X328334Y366377D02*
X327596Y366804D01*
Y365951D01*
X328334Y366377D01*
Y381877D02*
X327596Y382304D01*
Y381451D01*
X328334Y381877D01*
D13*
X227567Y315291D02*
Y316866D01*
X152370Y315291D02*
X227567D01*
X152370D02*
Y316866D01*
D14*
X135685Y272079D02*
X136315D01*
X135685Y281921D02*
X136315D01*
X352461Y341472D02*
Y350764D01*
X372539Y341472D02*
Y350764D01*
X353642Y336079D02*
X371358D01*
X353642Y356157D02*
X371358D01*
X352461Y318354D02*
Y327646D01*
X372539Y318354D02*
Y327646D01*
X353642Y312961D02*
X371358D01*
X353642Y333039D02*
X371358D01*
D15*
X96751Y268500D02*
Y272499D01*
X98751D01*
X99417Y271832D01*
Y270499D01*
X98751Y269833D01*
X96751D01*
X100750Y272499D02*
Y268500D01*
X102083Y269833D01*
X103416Y268500D01*
Y272499D01*
X104749Y268500D02*
Y272499D01*
X106748D01*
X107414Y271832D01*
Y270499D01*
X106748Y269833D01*
X104749D01*
X106081D02*
X107414Y268500D01*
X96751Y305608D02*
Y302275D01*
X97418Y301609D01*
X98751D01*
X99417Y302275D01*
Y305608D01*
X100750Y301609D02*
Y304275D01*
X102083Y305608D01*
X103416Y304275D01*
Y301609D01*
Y303608D01*
X100750D01*
X104749Y301609D02*
Y305608D01*
X106748D01*
X107414Y304941D01*
Y303608D01*
X106748Y302942D01*
X104749D01*
X106081D02*
X107414Y301609D01*
X108747Y305608D02*
X111413D01*
X110080D01*
Y301609D01*
X99417Y348332D02*
X98751Y348999D01*
X97418D01*
X96751Y348332D01*
Y347666D01*
X97418Y346999D01*
X98751D01*
X99417Y346333D01*
Y345666D01*
X98751Y345000D01*
X97418D01*
X96751Y345666D01*
X100750Y348999D02*
Y345000D01*
X102083Y346333D01*
X103416Y345000D01*
Y348999D01*
X104749D02*
Y345000D01*
X106748D01*
X107414Y345666D01*
Y348332D01*
X106748Y348999D01*
X104749D01*
X90001Y186001D02*
Y188999D01*
X91501D01*
X92001Y188500D01*
Y187500D01*
X91501Y187000D01*
X90001D01*
X91001D02*
X92001Y186001D01*
X93000Y188500D02*
X93500Y188999D01*
X94500D01*
X95000Y188500D01*
Y188000D01*
X94500Y187500D01*
X94000D01*
X94500D01*
X95000Y187000D01*
Y186500D01*
X94500Y186001D01*
X93500D01*
X93000Y186500D01*
X95999Y188500D02*
X96499Y188999D01*
X97499D01*
X97999Y188500D01*
Y186500D01*
X97499Y186001D01*
X96499D01*
X95999Y186500D01*
Y188500D01*
X82833Y189997D02*
X81501D01*
X82167D01*
Y186664D01*
X81501Y185998D01*
X80834D01*
X80168Y186664D01*
X84166Y189330D02*
X84833Y189997D01*
X86166D01*
X86832Y189330D01*
Y188664D01*
X86166Y187997D01*
X86832Y187331D01*
Y186664D01*
X86166Y185998D01*
X84833D01*
X84166Y186664D01*
Y187331D01*
X84833Y187997D01*
X84166Y188664D01*
Y189330D01*
X84833Y187997D02*
X86166D01*
X254832Y159415D02*
X253749Y160498D01*
X251583D01*
X250500Y159415D01*
Y155083D01*
X251583Y154000D01*
X253749D01*
X254832Y155083D01*
X258081Y158332D02*
X260247D01*
X261330Y157249D01*
Y154000D01*
X258081D01*
X256998Y155083D01*
X258081Y156166D01*
X261330D01*
X263496Y158332D02*
Y155083D01*
X264579Y154000D01*
X267828D01*
Y158332D01*
X271077Y159415D02*
Y158332D01*
X269994D01*
X272160D01*
X271077D01*
Y155083D01*
X272160Y154000D01*
X275409D02*
X277575D01*
X276492D01*
Y158332D01*
X275409D01*
X281907Y154000D02*
X284072D01*
X285156Y155083D01*
Y157249D01*
X284072Y158332D01*
X281907D01*
X280823Y157249D01*
Y155083D01*
X281907Y154000D01*
X287321D02*
Y158332D01*
X290570D01*
X291653Y157249D01*
Y154000D01*
X293819Y158332D02*
X294902D01*
Y157249D01*
X293819D01*
Y158332D01*
Y155083D02*
X294902D01*
Y154000D01*
X293819D01*
Y155083D01*
X305732Y160498D02*
Y154000D01*
Y157249D01*
X310064D01*
Y160498D01*
Y154000D01*
X313313D02*
X315479D01*
X316562Y155083D01*
Y157249D01*
X315479Y158332D01*
X313313D01*
X312230Y157249D01*
Y155083D01*
X313313Y154000D01*
X319811Y159415D02*
Y158332D01*
X318728D01*
X320894D01*
X319811D01*
Y155083D01*
X320894Y154000D01*
X138501Y325000D02*
X138001Y325500D01*
X137001D01*
X136501Y325000D01*
Y323000D01*
X137001Y322500D01*
X138001D01*
X138501Y323000D01*
X141500Y322500D02*
X139500D01*
X141500Y324500D01*
Y325000D01*
X141000Y325500D01*
X140000D01*
X139500Y325000D01*
X142499D02*
X142999Y325500D01*
X143999D01*
X144499Y325000D01*
Y323000D01*
X143999Y322500D01*
X142999D01*
X142499Y323000D01*
Y325000D01*
X316000Y117999D02*
X312001D01*
Y115000D01*
X314001D01*
X312001D01*
Y112001D01*
X317999D02*
X319999D01*
X318999D01*
Y117999D01*
X317999Y116999D01*
X124611Y184001D02*
Y186999D01*
X126110D01*
X126610Y186500D01*
Y185500D01*
X126110Y185000D01*
X124611D01*
X125610D02*
X126610Y184001D01*
X129609Y186999D02*
X128609Y186500D01*
X127610Y185500D01*
Y184500D01*
X128110Y184001D01*
X129109D01*
X129609Y184500D01*
Y185000D01*
X129109Y185500D01*
X127610D01*
X131611Y184001D02*
Y186999D01*
X133110D01*
X133610Y186500D01*
Y185500D01*
X133110Y185000D01*
X131611D01*
X132610D02*
X133610Y184001D01*
X136109D02*
Y186999D01*
X134610Y185500D01*
X136609D01*
X148751Y195001D02*
Y198000D01*
X150251D01*
X150750Y197500D01*
Y196500D01*
X150251Y196000D01*
X148751D01*
X149751D02*
X150750Y195001D01*
X151750Y195500D02*
X152250Y195001D01*
X153250D01*
X153749Y195500D01*
Y197500D01*
X153250Y198000D01*
X152250D01*
X151750Y197500D01*
Y197000D01*
X152250Y196500D01*
X153749D01*
X148751Y190000D02*
Y192999D01*
X150251D01*
X150750Y192500D01*
Y191500D01*
X150251Y191000D01*
X148751D01*
X149751D02*
X150750Y190000D01*
X151750D02*
X152750D01*
X152250D01*
Y192999D01*
X151750Y192500D01*
X154249Y190000D02*
X155249D01*
X154749D01*
Y192999D01*
X154249Y192500D01*
X170751Y185501D02*
Y188499D01*
X172251D01*
X172751Y188000D01*
Y187000D01*
X172251Y186500D01*
X170751D01*
X171751D02*
X172751Y185501D01*
X173750Y188000D02*
X174250Y188499D01*
X175250D01*
X175750Y188000D01*
Y187500D01*
X175250Y187000D01*
X175750Y186500D01*
Y186000D01*
X175250Y185501D01*
X174250D01*
X173750Y186000D01*
Y186500D01*
X174250Y187000D01*
X173750Y187500D01*
Y188000D01*
X174250Y187000D02*
X175250D01*
X170751Y180500D02*
Y183500D01*
X172251D01*
X172751Y183000D01*
Y182000D01*
X172251Y181500D01*
X170751D01*
X171751D02*
X172751Y180500D01*
X173750D02*
X174750D01*
X174250D01*
Y183500D01*
X173750Y183000D01*
X178249Y180500D02*
X176249D01*
X178249Y182500D01*
Y183000D01*
X177749Y183500D01*
X176749D01*
X176249Y183000D01*
X165000Y188000D02*
X164500Y188499D01*
X163501D01*
X163001Y188000D01*
Y186000D01*
X163501Y185501D01*
X164500D01*
X165000Y186000D01*
X167999Y185501D02*
X166000D01*
X167999Y187500D01*
Y188000D01*
X167499Y188499D01*
X166500D01*
X166000Y188000D01*
X165000Y183000D02*
X164500Y183500D01*
X163501D01*
X163001Y183000D01*
Y181000D01*
X163501Y180500D01*
X164500D01*
X165000Y181000D01*
X167999Y183500D02*
X166000D01*
Y182000D01*
X166999Y182500D01*
X167499D01*
X167999Y182000D01*
Y181000D01*
X167499Y180500D01*
X166500D01*
X166000Y181000D01*
X182500Y183000D02*
X182000Y183500D01*
X181001D01*
X180501Y183000D01*
Y181000D01*
X181001Y180500D01*
X182000D01*
X182500Y181000D01*
X184999Y180500D02*
Y183500D01*
X183500Y182000D01*
X185499D01*
X180501Y185501D02*
Y188499D01*
X182000D01*
X182500Y188000D01*
Y187000D01*
X182000Y186500D01*
X180501D01*
X181500D02*
X182500Y185501D01*
X183500D02*
X184500D01*
X184000D01*
Y188499D01*
X183500Y188000D01*
X185999D02*
X186499Y188499D01*
X187499D01*
X187998Y188000D01*
Y186000D01*
X187499Y185501D01*
X186499D01*
X185999Y186000D01*
Y188000D01*
X98501Y163001D02*
Y165999D01*
X100000D01*
X100500Y165500D01*
Y164500D01*
X100000Y164000D01*
X98501D01*
X99501D02*
X100500Y163001D01*
X101500Y165500D02*
X102000Y165999D01*
X102999D01*
X103499Y165500D01*
Y165000D01*
X102999Y164500D01*
X102499D01*
X102999D01*
X103499Y164000D01*
Y163500D01*
X102999Y163001D01*
X102000D01*
X101500Y163500D01*
X98501Y158001D02*
Y161000D01*
X100000D01*
X100500Y160500D01*
Y159500D01*
X100000Y159000D01*
X98501D01*
X99501D02*
X100500Y158001D01*
X101500Y161000D02*
X103499D01*
Y160500D01*
X101500Y158500D01*
Y158001D01*
X93000Y160500D02*
X92500Y161000D01*
X91501D01*
X91001Y160500D01*
Y158500D01*
X91501Y158001D01*
X92500D01*
X93000Y158500D01*
X94000Y158001D02*
X94999D01*
X94499D01*
Y161000D01*
X94000Y160500D01*
X91001Y163001D02*
Y165999D01*
X92500D01*
X93000Y165500D01*
Y164500D01*
X92500Y164000D01*
X91001D01*
X92000D02*
X93000Y163001D01*
X95999Y165999D02*
X94000D01*
Y164500D01*
X94999Y165000D01*
X95499D01*
X95999Y164500D01*
Y163500D01*
X95499Y163001D01*
X94499D01*
X94000Y163500D01*
X158001Y302501D02*
Y305500D01*
X159501D01*
X160000Y305000D01*
Y304000D01*
X159501Y303500D01*
X158001D01*
X159001D02*
X160000Y302501D01*
X161000Y305000D02*
X161500Y305500D01*
X162499D01*
X162999Y305000D01*
Y304500D01*
X162499Y304000D01*
X162000D01*
X162499D01*
X162999Y303500D01*
Y303000D01*
X162499Y302501D01*
X161500D01*
X161000Y303000D01*
X163999Y302501D02*
X164999D01*
X164499D01*
Y305500D01*
X163999Y305000D01*
X236002Y382999D02*
Y378001D01*
X237001Y377001D01*
X239001D01*
X240000Y378001D01*
Y382999D01*
X242000Y381999D02*
X242999Y382999D01*
X244999D01*
X245998Y381999D01*
Y381000D01*
X244999Y380000D01*
X243999D01*
X244999D01*
X245998Y379000D01*
Y378001D01*
X244999Y377001D01*
X242999D01*
X242000Y378001D01*
X331417Y347834D02*
Y350166D01*
X330834Y350749D01*
X329667D01*
X329084Y350166D01*
Y347834D01*
X329667Y347251D01*
X330834D01*
X330251Y348417D02*
X331417Y347251D01*
X330834D02*
X331417Y347834D01*
X334916Y347251D02*
X332583D01*
X334916Y349583D01*
Y350166D01*
X334333Y350749D01*
X333166D01*
X332583Y350166D01*
X90001Y179500D02*
Y182500D01*
X91501D01*
X92001Y182000D01*
Y181000D01*
X91501Y180500D01*
X90001D01*
X91001D02*
X92001Y179500D01*
X95000D02*
X93000D01*
X95000Y181500D01*
Y182000D01*
X94500Y182500D01*
X93500D01*
X93000Y182000D01*
X95999Y180000D02*
X96499Y179500D01*
X97499D01*
X97999Y180000D01*
Y182000D01*
X97499Y182500D01*
X96499D01*
X95999Y182000D01*
Y181500D01*
X96499Y181000D01*
X97999D01*
X90001Y172501D02*
Y175499D01*
X91501D01*
X92001Y175000D01*
Y174000D01*
X91501Y173500D01*
X90001D01*
X91001D02*
X92001Y172501D01*
X95000D02*
X93000D01*
X95000Y174500D01*
Y175000D01*
X94500Y175499D01*
X93500D01*
X93000Y175000D01*
X95999D02*
X96499Y175499D01*
X97499D01*
X97999Y175000D01*
Y174500D01*
X97499Y174000D01*
X97999Y173500D01*
Y173000D01*
X97499Y172501D01*
X96499D01*
X95999Y173000D01*
Y173500D01*
X96499Y174000D01*
X95999Y174500D01*
Y175000D01*
X96499Y174000D02*
X97499D01*
X272501Y340017D02*
Y337018D01*
X274000D01*
X274500Y337517D01*
Y339517D01*
X274000Y340017D01*
X272501D01*
X277499D02*
X275500D01*
Y338517D01*
X276500Y339017D01*
X276999D01*
X277499Y338517D01*
Y337517D01*
X276999Y337018D01*
X276000D01*
X275500Y337517D01*
X281501Y379999D02*
Y377000D01*
X283000D01*
X283500Y377500D01*
Y379500D01*
X283000Y379999D01*
X281501D01*
X285999Y377000D02*
Y379999D01*
X284500Y378500D01*
X286499D01*
X99750Y313249D02*
X98251D01*
X99001D01*
Y309501D01*
X98251Y308751D01*
X97501D01*
X96751Y309501D01*
X101250Y312499D02*
X101999Y313249D01*
X103499D01*
X104249Y312499D01*
Y311750D01*
X103499Y311000D01*
X102749D01*
X103499D01*
X104249Y310250D01*
Y309501D01*
X103499Y308751D01*
X101999D01*
X101250Y309501D01*
X99750Y356749D02*
X98251D01*
X99001D01*
Y353000D01*
X98251Y352251D01*
X97501D01*
X96751Y353000D01*
X104249Y352251D02*
X101250D01*
X104249Y355250D01*
Y355999D01*
X103499Y356749D01*
X101999D01*
X101250Y355999D01*
X99750Y280249D02*
X98251D01*
X99001D01*
Y276501D01*
X98251Y275751D01*
X97501D01*
X96751Y276501D01*
X103499Y275751D02*
Y280249D01*
X101250Y278000D01*
X104249D01*
X93576Y133729D02*
Y136728D01*
X95075D01*
X95575Y136228D01*
Y135228D01*
X95075Y134729D01*
X93576D01*
X94575D02*
X95575Y133729D01*
X98574D02*
X96575D01*
X98574Y135728D01*
Y136228D01*
X98074Y136728D01*
X97075D01*
X96575Y136228D01*
X117002Y268999D02*
Y264001D01*
X118001Y263001D01*
X120001D01*
X121000Y264001D01*
Y268999D01*
X125999Y263001D02*
Y268999D01*
X123000Y266000D01*
X126998D01*
X157001Y297500D02*
Y300500D01*
X158501D01*
X159001Y300000D01*
Y299000D01*
X158501Y298500D01*
X157001D01*
X158001D02*
X159001Y297500D01*
X160000Y300000D02*
X160500Y300500D01*
X161500D01*
X162000Y300000D01*
Y299500D01*
X161500Y299000D01*
X161000D01*
X161500D01*
X162000Y298500D01*
Y298000D01*
X161500Y297500D01*
X160500D01*
X160000Y298000D01*
X162999Y300000D02*
X163499Y300500D01*
X164499D01*
X164999Y300000D01*
Y299500D01*
X164499Y299000D01*
X163999D01*
X164499D01*
X164999Y298500D01*
Y298000D01*
X164499Y297500D01*
X163499D01*
X162999Y298000D01*
X243000Y296999D02*
X242001Y297999D01*
X240001D01*
X239002Y296999D01*
Y293001D01*
X240001Y292001D01*
X242001D01*
X243000Y293001D01*
X248998Y297999D02*
X246999Y296999D01*
X245000Y295000D01*
Y293001D01*
X245999Y292001D01*
X247999D01*
X248998Y293001D01*
Y294000D01*
X247999Y295000D01*
X245000D01*
X275721Y290001D02*
X271722D01*
X273721Y288001D02*
Y292000D01*
X240249Y224220D02*
Y225720D01*
Y224970D01*
X236501D01*
X235751Y225720D01*
Y226470D01*
X236501Y227220D01*
X240249Y219722D02*
Y222721D01*
X238000D01*
X238750Y221221D01*
Y220472D01*
X238000Y219722D01*
X236501D01*
X235751Y220472D01*
Y221971D01*
X236501Y222721D01*
X152834Y289999D02*
Y289333D01*
X154167Y288000D01*
X155500Y289333D01*
Y289999D01*
X154167Y288000D02*
Y286001D01*
X156833D02*
X158166D01*
X157499D01*
Y289999D01*
X156833Y289333D01*
X152001Y280501D02*
Y283500D01*
X153501D01*
X154001Y283000D01*
Y282000D01*
X153501Y281500D01*
X152001D01*
X153001D02*
X154001Y280501D01*
X157000D02*
X155000D01*
X157000Y282500D01*
Y283000D01*
X156500Y283500D01*
X155500D01*
X155000Y283000D01*
X159499Y280501D02*
Y283500D01*
X157999Y282000D01*
X159999D01*
X163001Y288500D02*
X162501Y289000D01*
X161501D01*
X161001Y288500D01*
Y286500D01*
X161501Y286000D01*
X162501D01*
X163001Y286500D01*
X164000Y288500D02*
X164500Y289000D01*
X165500D01*
X165999Y288500D01*
Y288000D01*
X165500Y287500D01*
X165000D01*
X165500D01*
X165999Y287000D01*
Y286500D01*
X165500Y286000D01*
X164500D01*
X164000Y286500D01*
X166999Y286000D02*
X167999D01*
X167499D01*
Y289000D01*
X166999Y288500D01*
X144001D02*
X143501Y289000D01*
X142501D01*
X142001Y288500D01*
Y286500D01*
X142501Y286000D01*
X143501D01*
X144001Y286500D01*
X145000Y288500D02*
X145500Y289000D01*
X146500D01*
X147000Y288500D01*
Y288000D01*
X146500Y287500D01*
X146000D01*
X146500D01*
X147000Y287000D01*
Y286500D01*
X146500Y286000D01*
X145500D01*
X145000Y286500D01*
X147999Y288500D02*
X148499Y289000D01*
X149499D01*
X149999Y288500D01*
Y286500D01*
X149499Y286000D01*
X148499D01*
X147999Y286500D01*
Y288500D01*
X238522Y198031D02*
X238022Y198531D01*
X237023D01*
X236523Y198031D01*
Y196032D01*
X237023Y195532D01*
X238022D01*
X238522Y196032D01*
X239522Y195532D02*
X240522D01*
X240022D01*
Y198531D01*
X239522Y198031D01*
X242021D02*
X242521Y198531D01*
X243521D01*
X244020Y198031D01*
Y196032D01*
X243521Y195532D01*
X242521D01*
X242021Y196032D01*
Y198031D01*
X230022D02*
X229522Y198531D01*
X228522D01*
X228023Y198031D01*
Y196032D01*
X228522Y195532D01*
X229522D01*
X230022Y196032D01*
X231022Y195532D02*
X232021D01*
X231522D01*
Y198531D01*
X231022Y198031D01*
X233521Y195532D02*
X234521D01*
X234021D01*
Y198531D01*
X233521Y198031D01*
X274000Y229000D02*
X273500Y229500D01*
X272501D01*
X272001Y229000D01*
Y227000D01*
X272501Y226501D01*
X273500D01*
X274000Y227000D01*
X275000Y229500D02*
X276999D01*
Y229000D01*
X275000Y227000D01*
Y226501D01*
X236001Y244499D02*
Y241500D01*
X238000D01*
X239000D02*
X239999D01*
X239499D01*
Y244499D01*
X239000Y244000D01*
X237000Y233500D02*
X236501Y233999D01*
X235501D01*
X235001Y233500D01*
Y231500D01*
X235501Y231000D01*
X236501D01*
X237000Y231500D01*
X238000D02*
X238500Y231000D01*
X239499D01*
X239999Y231500D01*
Y233500D01*
X239499Y233999D01*
X238500D01*
X238000Y233500D01*
Y233000D01*
X238500Y232500D01*
X239999D01*
X267000Y229000D02*
X266500Y229500D01*
X265501D01*
X265001Y229000D01*
Y227000D01*
X265501Y226501D01*
X266500D01*
X267000Y227000D01*
X268000Y229000D02*
X268500Y229500D01*
X269499D01*
X269999Y229000D01*
Y228500D01*
X269499Y228000D01*
X269999Y227500D01*
Y227000D01*
X269499Y226501D01*
X268500D01*
X268000Y227000D01*
Y227500D01*
X268500Y228000D01*
X268000Y228500D01*
Y229000D01*
X268500Y228000D02*
X269499D01*
X343834Y324333D02*
X343167Y324999D01*
X341834D01*
X341168Y324333D01*
Y323666D01*
X341834Y323000D01*
X343167D01*
X343834Y322334D01*
Y321667D01*
X343167Y321001D01*
X341834D01*
X341168Y321667D01*
X347832Y321001D02*
X345166D01*
X347832Y323666D01*
Y324333D01*
X347166Y324999D01*
X345833D01*
X345166Y324333D01*
X327003Y314001D02*
Y317000D01*
X328503D01*
X329002Y316500D01*
Y315500D01*
X328503Y315000D01*
X327003D01*
X328003D02*
X329002Y314001D01*
X330002D02*
X331002D01*
X330502D01*
Y317000D01*
X330002Y316500D01*
X332501Y314500D02*
X333001Y314001D01*
X334001D01*
X334501Y314500D01*
Y316500D01*
X334001Y317000D01*
X333001D01*
X332501Y316500D01*
Y316000D01*
X333001Y315500D01*
X334501D01*
X327251Y337000D02*
Y340000D01*
X328751D01*
X329251Y339500D01*
Y338500D01*
X328751Y338000D01*
X327251D01*
X328251D02*
X329251Y337000D01*
X330250D02*
X331250D01*
X330750D01*
Y340000D01*
X330250Y339500D01*
X332749D02*
X333249Y340000D01*
X334249D01*
X334749Y339500D01*
Y339000D01*
X334249Y338500D01*
X334749Y338000D01*
Y337500D01*
X334249Y337000D01*
X333249D01*
X332749Y337500D01*
Y338000D01*
X333249Y338500D01*
X332749Y339000D01*
Y339500D01*
X333249Y338500D02*
X334249D01*
X275000Y306499D02*
X271002D01*
Y303500D01*
X273001D01*
X271002D01*
Y300501D01*
X280998D02*
X277000D01*
X280998Y304500D01*
Y305499D01*
X279999Y306499D01*
X277999D01*
X277000Y305499D01*
X293251Y318500D02*
Y321499D01*
X294751D01*
X295251Y321000D01*
Y320000D01*
X294751Y319500D01*
X293251D01*
X294251D02*
X295251Y318500D01*
X296250D02*
X297250D01*
X296750D01*
Y321499D01*
X296250Y321000D01*
X298749D02*
X299249Y321499D01*
X300249D01*
X300749Y321000D01*
Y320500D01*
X300249Y320000D01*
X299749D01*
X300249D01*
X300749Y319500D01*
Y319000D01*
X300249Y318500D01*
X299249D01*
X298749Y319000D01*
X293466Y340017D02*
Y337018D01*
X294965D01*
X295465Y337517D01*
Y339517D01*
X294965Y340017D01*
X293466D01*
X296465Y337018D02*
X297464D01*
X296965D01*
Y340017D01*
X296465Y339517D01*
X345000Y347333D02*
X344334Y347999D01*
X343001D01*
X342334Y347333D01*
Y346666D01*
X343001Y346000D01*
X344334D01*
X345000Y345334D01*
Y344667D01*
X344334Y344001D01*
X343001D01*
X342334Y344667D01*
X346333Y344001D02*
X347666D01*
X346999D01*
Y347999D01*
X346333Y347333D01*
X184002Y227999D02*
Y223001D01*
X185001Y222001D01*
X187001D01*
X188000Y223001D01*
Y227999D01*
X193998Y222001D02*
X190000D01*
X193998Y226000D01*
Y226999D01*
X192999Y227999D01*
X190999D01*
X190000Y226999D01*
X274001Y182999D02*
Y178001D01*
X275001Y177001D01*
X277000D01*
X278000Y178001D01*
Y182999D01*
X279999Y177001D02*
X281999D01*
X280999D01*
Y182999D01*
X279999Y181999D01*
X138001Y299500D02*
Y302500D01*
X139501D01*
X140001Y302000D01*
Y301000D01*
X139501Y300500D01*
X138001D01*
X139001D02*
X140001Y299500D01*
X141000Y302000D02*
X141500Y302500D01*
X142500D01*
X143000Y302000D01*
Y301500D01*
X142500Y301000D01*
X142000D01*
X142500D01*
X143000Y300500D01*
Y300000D01*
X142500Y299500D01*
X141500D01*
X141000Y300000D01*
X145999Y299500D02*
X143999D01*
X145999Y301500D01*
Y302000D01*
X145499Y302500D01*
X144499D01*
X143999Y302000D01*
X161001Y202501D02*
Y205500D01*
X162501D01*
X163001Y205000D01*
Y204000D01*
X162501Y203500D01*
X161001D01*
X162001D02*
X163001Y202501D01*
X166000D02*
X164000D01*
X166000Y204500D01*
Y205000D01*
X165500Y205500D01*
X164500D01*
X164000Y205000D01*
X166999Y205500D02*
X168999D01*
Y205000D01*
X166999Y203000D01*
Y202501D01*
X172072Y257501D02*
Y260500D01*
X173571D01*
X174071Y260000D01*
Y259000D01*
X173571Y258500D01*
X172072D01*
X173072D02*
X174071Y257501D01*
X177070D02*
X175071D01*
X177070Y259500D01*
Y260000D01*
X176570Y260500D01*
X175571D01*
X175071Y260000D01*
X180069Y260500D02*
X179070Y260000D01*
X178070Y259000D01*
Y258000D01*
X178570Y257501D01*
X179569D01*
X180069Y258000D01*
Y258500D01*
X179569Y259000D01*
X178070D01*
X161001Y207501D02*
Y210500D01*
X162501D01*
X163001Y210000D01*
Y209000D01*
X162501Y208500D01*
X161001D01*
X162001D02*
X163001Y207501D01*
X166000D02*
X164000D01*
X166000Y209500D01*
Y210000D01*
X165500Y210500D01*
X164500D01*
X164000Y210000D01*
X168999Y210500D02*
X166999D01*
Y209000D01*
X167999Y209500D01*
X168499D01*
X168999Y209000D01*
Y208000D01*
X168499Y207501D01*
X167499D01*
X166999Y208000D01*
X304501Y371500D02*
Y374500D01*
X306001D01*
X306501Y374000D01*
Y373000D01*
X306001Y372500D01*
X304501D01*
X305501D02*
X306501Y371500D01*
X309500D02*
X307500D01*
X309500Y373500D01*
Y374000D01*
X309000Y374500D01*
X308000D01*
X307500Y374000D01*
X310499D02*
X310999Y374500D01*
X311999D01*
X312499Y374000D01*
Y373500D01*
X311999Y373000D01*
X311499D01*
X311999D01*
X312499Y372500D01*
Y372000D01*
X311999Y371500D01*
X310999D01*
X310499Y372000D01*
X304501Y360501D02*
Y363499D01*
X306001D01*
X306501Y363000D01*
Y362000D01*
X306001Y361500D01*
X304501D01*
X305501D02*
X306501Y360501D01*
X309500D02*
X307500D01*
X309500Y362500D01*
Y363000D01*
X309000Y363499D01*
X308000D01*
X307500Y363000D01*
X312499Y360501D02*
X310499D01*
X312499Y362500D01*
Y363000D01*
X311999Y363499D01*
X310999D01*
X310499Y363000D01*
X283001Y318500D02*
Y321499D01*
X284501D01*
X285000Y321000D01*
Y320000D01*
X284501Y319500D01*
X283001D01*
X284001D02*
X285000Y318500D01*
X288000D02*
X286000D01*
X288000Y320500D01*
Y321000D01*
X287500Y321499D01*
X286500D01*
X286000Y321000D01*
X288999Y318500D02*
X289999D01*
X289499D01*
Y321499D01*
X288999Y321000D01*
X270501Y318252D02*
Y321252D01*
X272001D01*
X272501Y320752D01*
Y319752D01*
X272001Y319252D01*
X270501D01*
X271501D02*
X272501Y318252D01*
X275500D02*
X273500D01*
X275500Y320252D01*
Y320752D01*
X275000Y321252D01*
X274000D01*
X273500Y320752D01*
X276499D02*
X276999Y321252D01*
X277999D01*
X278499Y320752D01*
Y318752D01*
X277999Y318252D01*
X276999D01*
X276499Y318752D01*
Y320752D01*
X305001Y377000D02*
Y379999D01*
X306501D01*
X307000Y379500D01*
Y378500D01*
X306501Y378000D01*
X305001D01*
X306001D02*
X307000Y377000D01*
X308000D02*
X309000D01*
X308500D01*
Y379999D01*
X308000Y379500D01*
X310499Y379999D02*
X312499D01*
Y379500D01*
X310499Y377500D01*
Y377000D01*
X305001Y366001D02*
Y369000D01*
X306501D01*
X307000Y368500D01*
Y367500D01*
X306501Y367000D01*
X305001D01*
X306001D02*
X307000Y366001D01*
X308000D02*
X309000D01*
X308500D01*
Y369000D01*
X308000Y368500D01*
X312499Y369000D02*
X311499Y368500D01*
X310499Y367500D01*
Y366500D01*
X310999Y366001D01*
X311999D01*
X312499Y366500D01*
Y367000D01*
X311999Y367500D01*
X310499D01*
X291251Y372500D02*
Y375500D01*
X292751D01*
X293251Y375000D01*
Y374000D01*
X292751Y373500D01*
X291251D01*
X292251D02*
X293251Y372500D01*
X294250D02*
X295250D01*
X294750D01*
Y375500D01*
X294250Y375000D01*
X298749Y375500D02*
X296749D01*
Y374000D01*
X297749Y374500D01*
X298249D01*
X298749Y374000D01*
Y373000D01*
X298249Y372500D01*
X297249D01*
X296749Y373000D01*
X261751Y372500D02*
Y375500D01*
X263251D01*
X263751Y375000D01*
Y374000D01*
X263251Y373500D01*
X261751D01*
X262751D02*
X263751Y372500D01*
X264750D02*
X265750D01*
X265250D01*
Y375500D01*
X264750Y375000D01*
X268749Y372500D02*
Y375500D01*
X267249Y374000D01*
X269249D01*
X87076Y133729D02*
Y136728D01*
X88575D01*
X89075Y136228D01*
Y135228D01*
X88575Y134729D01*
X87076D01*
X88075D02*
X89075Y133729D01*
X90074D02*
X91074D01*
X90574D01*
Y136728D01*
X90074Y136228D01*
X342500Y369334D02*
Y371666D01*
X341917Y372249D01*
X340751D01*
X340167Y371666D01*
Y369334D01*
X340751Y368751D01*
X341917D01*
X341334Y369917D02*
X342500Y368751D01*
X341917D02*
X342500Y369334D01*
X343666Y368751D02*
X344833D01*
X344249D01*
Y372249D01*
X343666Y371666D01*
X82833Y182998D02*
X81501D01*
X82167D01*
Y179666D01*
X81501Y178999D01*
X80834D01*
X80168Y179666D01*
X84166Y182998D02*
X86832D01*
Y182332D01*
X84166Y179666D01*
Y178999D01*
X82834Y175999D02*
X81501Y175999D01*
X82167Y175999D01*
X82167Y172667D01*
X81501Y172001D01*
X80834Y172001D01*
X80168Y172667D01*
X86832Y175999D02*
X85499Y175333D01*
X84167Y174000D01*
X84166Y172667D01*
X84833Y172001D01*
X86166Y172001D01*
X86832Y172667D01*
X86832Y173334D01*
X86166Y174000D01*
X84167Y174000D01*
X184500Y172999D02*
X182501D01*
X183500D01*
Y168001D01*
X182501Y167001D01*
X181501D01*
X180501Y168001D01*
X186499Y167001D02*
X188499D01*
X187499D01*
Y172999D01*
X186499Y171999D01*
X170001Y226999D02*
X168001D01*
Y225500D01*
X169001D01*
X168001D01*
Y224001D01*
X171000Y226999D02*
Y224001D01*
X172500D01*
X173000Y224500D01*
Y225000D01*
X172500Y225500D01*
X171000D01*
X172500D01*
X173000Y226000D01*
Y226500D01*
X172500Y226999D01*
X171000D01*
X173999Y224001D02*
X174999D01*
X174499D01*
Y226999D01*
X173999Y226500D01*
X283001Y340017D02*
Y337018D01*
X284500D01*
X285000Y337517D01*
Y339517D01*
X284500Y340017D01*
X283001D01*
X287999D02*
X287000Y339517D01*
X286000Y338517D01*
Y337517D01*
X286500Y337018D01*
X287499D01*
X287999Y337517D01*
Y338017D01*
X287499Y338517D01*
X286000D01*
X270501Y379999D02*
Y377000D01*
X272000D01*
X272500Y377500D01*
Y379500D01*
X272000Y379999D01*
X270501D01*
X273500Y379500D02*
X274000Y379999D01*
X274999D01*
X275499Y379500D01*
Y379000D01*
X274999Y378500D01*
X274500D01*
X274999D01*
X275499Y378000D01*
Y377500D01*
X274999Y377000D01*
X274000D01*
X273500Y377500D01*
X174071Y255000D02*
X173571Y255500D01*
X172572D01*
X172072Y255000D01*
Y253000D01*
X172572Y252501D01*
X173571D01*
X174071Y253000D01*
X175071Y255000D02*
X175571Y255500D01*
X176570D01*
X177070Y255000D01*
Y254500D01*
X176570Y254000D01*
X176071D01*
X176570D01*
X177070Y253500D01*
Y253000D01*
X176570Y252501D01*
X175571D01*
X175071Y253000D01*
X178070Y255000D02*
X178570Y255500D01*
X179569D01*
X180069Y255000D01*
Y254500D01*
X179569Y254000D01*
X179070D01*
X179569D01*
X180069Y253500D01*
Y253000D01*
X179569Y252501D01*
X178570D01*
X178070Y253000D01*
X174071Y243500D02*
X173571Y244000D01*
X172572D01*
X172072Y243500D01*
Y241500D01*
X172572Y241001D01*
X173571D01*
X174071Y241500D01*
X175071Y243500D02*
X175571Y244000D01*
X176570D01*
X177070Y243500D01*
Y243000D01*
X176570Y242500D01*
X176071D01*
X176570D01*
X177070Y242000D01*
Y241500D01*
X176570Y241001D01*
X175571D01*
X175071Y241500D01*
X180069Y241001D02*
X178070D01*
X180069Y243000D01*
Y243500D01*
X179569Y244000D01*
X178570D01*
X178070Y243500D01*
X160001Y268000D02*
X159501Y268499D01*
X158501D01*
X158001Y268000D01*
Y266000D01*
X158501Y265500D01*
X159501D01*
X160001Y266000D01*
X163000Y265500D02*
X161000D01*
X163000Y267500D01*
Y268000D01*
X162500Y268499D01*
X161500D01*
X161000Y268000D01*
X163999Y266000D02*
X164499Y265500D01*
X165499D01*
X165999Y266000D01*
Y268000D01*
X165499Y268499D01*
X164499D01*
X163999Y268000D01*
Y267500D01*
X164499Y267000D01*
X165999D01*
X170001Y268000D02*
X169501Y268499D01*
X168501D01*
X168001Y268000D01*
Y266000D01*
X168501Y265500D01*
X169501D01*
X170001Y266000D01*
X173000Y265500D02*
X171000D01*
X173000Y267500D01*
Y268000D01*
X172500Y268499D01*
X171500D01*
X171000Y268000D01*
X173999D02*
X174499Y268499D01*
X175499D01*
X175999Y268000D01*
Y267500D01*
X175499Y267000D01*
X175999Y266500D01*
Y266000D01*
X175499Y265500D01*
X174499D01*
X173999Y266000D01*
Y266500D01*
X174499Y267000D01*
X173999Y267500D01*
Y268000D01*
X174499Y267000D02*
X175499D01*
X170001Y220500D02*
X169501Y221000D01*
X168501D01*
X168001Y220500D01*
Y218500D01*
X168501Y218001D01*
X169501D01*
X170001Y218500D01*
X173000Y218001D02*
X171000D01*
X173000Y220000D01*
Y220500D01*
X172500Y221000D01*
X171500D01*
X171000Y220500D01*
X173999Y221000D02*
X175999D01*
Y220500D01*
X173999Y218500D01*
Y218001D01*
X108001Y210500D02*
X107501Y210999D01*
X106501D01*
X106001Y210500D01*
Y208500D01*
X106501Y208000D01*
X107501D01*
X108001Y208500D01*
X111000Y208000D02*
X109000D01*
X111000Y210000D01*
Y210500D01*
X110500Y210999D01*
X109500D01*
X109000Y210500D01*
X113999Y210999D02*
X112999Y210500D01*
X111999Y209500D01*
Y208500D01*
X112499Y208000D01*
X113499D01*
X113999Y208500D01*
Y209000D01*
X113499Y209500D01*
X111999D01*
X152501Y210000D02*
X152001Y210500D01*
X151001D01*
X150501Y210000D01*
Y208000D01*
X151001Y207501D01*
X152001D01*
X152501Y208000D01*
X155500Y207501D02*
X153500D01*
X155500Y209500D01*
Y210000D01*
X155000Y210500D01*
X154000D01*
X153500Y210000D01*
X158499Y210500D02*
X156499D01*
Y209000D01*
X157499Y209500D01*
X157999D01*
X158499Y209000D01*
Y208000D01*
X157999Y207501D01*
X156999D01*
X156499Y208000D01*
X173501Y210000D02*
X173001Y210500D01*
X172001D01*
X171501Y210000D01*
Y208000D01*
X172001Y207501D01*
X173001D01*
X173501Y208000D01*
X176500Y207501D02*
X174500D01*
X176500Y209500D01*
Y210000D01*
X176000Y210500D01*
X175000D01*
X174500Y210000D01*
X178999Y207501D02*
Y210500D01*
X177499Y209000D01*
X179499D01*
X174071Y233500D02*
X173571Y233999D01*
X172572D01*
X172072Y233500D01*
Y231500D01*
X172572Y231000D01*
X173571D01*
X174071Y231500D01*
X177070Y231000D02*
X175071D01*
X177070Y233000D01*
Y233500D01*
X176570Y233999D01*
X175571D01*
X175071Y233500D01*
X178070D02*
X178570Y233999D01*
X179569D01*
X180069Y233500D01*
Y233000D01*
X179569Y232500D01*
X179070D01*
X179569D01*
X180069Y232000D01*
Y231500D01*
X179569Y231000D01*
X178570D01*
X178070Y231500D01*
X174071Y238500D02*
X173571Y239000D01*
X172572D01*
X172072Y238500D01*
Y236500D01*
X172572Y236000D01*
X173571D01*
X174071Y236500D01*
X177070Y236000D02*
X175071D01*
X177070Y238000D01*
Y238500D01*
X176570Y239000D01*
X175571D01*
X175071Y238500D01*
X180069Y236000D02*
X178070D01*
X180069Y238000D01*
Y238500D01*
X179569Y239000D01*
X178570D01*
X178070Y238500D01*
X174071Y248960D02*
X173571Y249460D01*
X172572D01*
X172072Y248960D01*
Y246960D01*
X172572Y246461D01*
X173571D01*
X174071Y246960D01*
X177070Y246461D02*
X175071D01*
X177070Y248460D01*
Y248960D01*
X176570Y249460D01*
X175571D01*
X175071Y248960D01*
X178070Y246461D02*
X179070D01*
X178570D01*
Y249460D01*
X178070Y248960D01*
X138501Y320000D02*
X138001Y320499D01*
X137001D01*
X136501Y320000D01*
Y318000D01*
X137001Y317500D01*
X138001D01*
X138501Y318000D01*
X139500Y317500D02*
X140500D01*
X140000D01*
Y320499D01*
X139500Y320000D01*
X141999Y318000D02*
X142499Y317500D01*
X143499D01*
X143999Y318000D01*
Y320000D01*
X143499Y320499D01*
X142499D01*
X141999Y320000D01*
Y319500D01*
X142499Y319000D01*
X143999D01*
X126235Y366500D02*
X125735Y367000D01*
X124735D01*
X124235Y366500D01*
Y364500D01*
X124735Y364001D01*
X125735D01*
X126235Y364500D01*
X127234Y364001D02*
X128234D01*
X127734D01*
Y367000D01*
X127234Y366500D01*
X129734D02*
X130234Y367000D01*
X131233D01*
X131733Y366500D01*
Y366000D01*
X131233Y365500D01*
X131733Y365000D01*
Y364500D01*
X131233Y364001D01*
X130234D01*
X129734Y364500D01*
Y365000D01*
X130234Y365500D01*
X129734Y366000D01*
Y366500D01*
X130234Y365500D02*
X131233D01*
X126235Y372500D02*
X125735Y373000D01*
X124735D01*
X124235Y372500D01*
Y370500D01*
X124735Y370001D01*
X125735D01*
X126235Y370500D01*
X127234Y370001D02*
X128234D01*
X127734D01*
Y373000D01*
X127234Y372500D01*
X129734Y373000D02*
X131733D01*
Y372500D01*
X129734Y370500D01*
Y370001D01*
X208822Y286725D02*
X208323Y287225D01*
X207323D01*
X206823Y286725D01*
Y284726D01*
X207323Y284226D01*
X208323D01*
X208822Y284726D01*
X209822Y284226D02*
X210822D01*
X210322D01*
Y287225D01*
X209822Y286725D01*
X214321Y287225D02*
X213321Y286725D01*
X212321Y285726D01*
Y284726D01*
X212821Y284226D01*
X213821D01*
X214321Y284726D01*
Y285226D01*
X213821Y285726D01*
X212321D01*
X199322Y286725D02*
X198823Y287225D01*
X197823D01*
X197323Y286725D01*
Y284726D01*
X197823Y284226D01*
X198823D01*
X199322Y284726D01*
X200322Y284226D02*
X201322D01*
X200822D01*
Y287225D01*
X200322Y286725D01*
X204821Y287225D02*
X202821D01*
Y285726D01*
X203821Y286226D01*
X204321D01*
X204821Y285726D01*
Y284726D01*
X204321Y284226D01*
X203321D01*
X202821Y284726D01*
X218322Y291725D02*
X217823Y292225D01*
X216823D01*
X216323Y291725D01*
Y289726D01*
X216823Y289226D01*
X217823D01*
X218322Y289726D01*
X219322Y289226D02*
X220322D01*
X219822D01*
Y292225D01*
X219322Y291725D01*
X223321Y289226D02*
Y292225D01*
X221821Y290726D01*
X223821D01*
X208822Y291725D02*
X208323Y292225D01*
X207323D01*
X206823Y291725D01*
Y289726D01*
X207323Y289226D01*
X208323D01*
X208822Y289726D01*
X209822Y289226D02*
X210822D01*
X210322D01*
Y292225D01*
X209822Y291725D01*
X212321D02*
X212821Y292225D01*
X213821D01*
X214321Y291725D01*
Y291226D01*
X213821Y290726D01*
X213321D01*
X213821D01*
X214321Y290226D01*
Y289726D01*
X213821Y289226D01*
X212821D01*
X212321Y289726D01*
X199322Y291725D02*
X198823Y292225D01*
X197823D01*
X197323Y291725D01*
Y289726D01*
X197823Y289226D01*
X198823D01*
X199322Y289726D01*
X200322Y289226D02*
X201322D01*
X200822D01*
Y292225D01*
X200322Y291725D01*
X204821Y289226D02*
X202821D01*
X204821Y291226D01*
Y291725D01*
X204321Y292225D01*
X203321D01*
X202821Y291725D01*
X230250Y161000D02*
X229501Y161749D01*
X228001D01*
X227251Y161000D01*
Y158001D01*
X228001Y157251D01*
X229501D01*
X230250Y158001D01*
X231750Y161000D02*
X232500Y161749D01*
X233999D01*
X234749Y161000D01*
Y160250D01*
X233999Y159500D01*
X233249D01*
X233999D01*
X234749Y158750D01*
Y158001D01*
X233999Y157251D01*
X232500D01*
X231750Y158001D01*
M02*
