G04*
G04 #@! TF.GenerationSoftware,Altium Limited,Altium Designer,21.6.4 (81)*
G04*
G04 Layer_Color=2752767*
%FSLAX25Y25*%
%MOIN*%
G70*
G04*
G04 #@! TF.SameCoordinates,82150E9F-1309-4CA2-80C3-B22644BF42D1*
G04*
G04*
G04 #@! TF.FilePolarity,Positive*
G04*
G01*
G75*
%ADD89C,0.00200*%
%ADD90C,0.00267*%
%ADD91C,0.00133*%
D89*
X264700Y218700D02*
Y220300D01*
X266300D01*
Y218700D01*
X264700D01*
Y208700D02*
Y210300D01*
X266300D01*
Y208700D01*
X264700D01*
X224153Y185200D02*
X223354Y186800D01*
X224954D01*
X224153Y185200D01*
X180847D02*
X180046Y186800D01*
X181647D01*
X180847Y185200D01*
X224153Y200200D02*
X223354Y201800D01*
X224954D01*
X224153Y200200D01*
X180847D02*
X180046Y201800D01*
X181647D01*
X180847Y200200D01*
X245421Y287200D02*
Y288800D01*
X247021D01*
Y287200D01*
X245421D01*
X259200D02*
Y288800D01*
X260800D01*
Y287200D01*
X259200D01*
X244200Y238200D02*
Y239800D01*
X245800D01*
Y238200D01*
X244200D01*
Y228200D02*
Y229800D01*
X245800D01*
Y228200D01*
X244200D01*
X88200Y265700D02*
Y267300D01*
X89800D01*
Y265700D01*
X88200D01*
Y275700D02*
Y277300D01*
X89800D01*
Y275700D01*
X88200D01*
X370500Y372200D02*
X370900Y372600D01*
X371300D01*
X370900Y373000D01*
X371300Y373400D01*
X370900D01*
X370500Y373800D01*
X370100Y373400D01*
X369700D01*
X370100Y373000D01*
X369700Y372600D01*
X370100D01*
X370500Y372200D01*
X169200Y122200D02*
X169600Y123000D01*
X169200Y123800D01*
X170000Y123400D01*
X170800Y123800D01*
X170400Y123000D01*
X170800Y122200D01*
X170000Y122600D01*
X169200Y122200D01*
X173202Y106616D02*
Y106216D01*
X174002D01*
Y106616D01*
X174402D01*
Y107416D01*
X174002D01*
Y107816D01*
X173202D01*
Y107416D01*
X172802D01*
Y106616D01*
X173202D01*
X120998D02*
Y106216D01*
X121798D01*
Y106616D01*
X122198D01*
Y107416D01*
X121798D01*
Y107816D01*
X120998D01*
Y107416D01*
X120598D01*
Y106616D01*
X120998D01*
X163202D02*
Y106216D01*
X164002D01*
Y106616D01*
X164402D01*
Y107416D01*
X164002D01*
Y107816D01*
X163202D01*
Y107416D01*
X162802D01*
Y106616D01*
X163202D01*
X169600Y147600D02*
Y147200D01*
X170400D01*
Y147600D01*
X170800D01*
Y148400D01*
X170400D01*
Y148800D01*
X169600D01*
Y148400D01*
X169200D01*
Y147600D01*
X169600D01*
X124600Y157600D02*
Y157200D01*
X125400D01*
Y157600D01*
X125800D01*
Y158400D01*
X125400D01*
Y158800D01*
X124600D01*
Y158400D01*
X124200D01*
Y157600D01*
X124600D01*
X164600D02*
Y157200D01*
X165400D01*
Y157600D01*
X165800D01*
Y158400D01*
X165400D01*
Y158800D01*
X164600D01*
Y158400D01*
X164200D01*
Y157600D01*
X164600D01*
X159600Y147600D02*
Y147200D01*
X160400D01*
Y147600D01*
X160800D01*
Y148400D01*
X160400D01*
Y148800D01*
X159600D01*
Y148400D01*
X159200D01*
Y147600D01*
X159600D01*
X154600Y157600D02*
Y157200D01*
X155400D01*
Y157600D01*
X155800D01*
Y158400D01*
X155400D01*
Y158800D01*
X154600D01*
Y158400D01*
X154200D01*
Y157600D01*
X154600D01*
X149600Y147600D02*
Y147200D01*
X150400D01*
Y147600D01*
X150800D01*
Y148400D01*
X150400D01*
Y148800D01*
X149600D01*
Y148400D01*
X149200D01*
Y147600D01*
X149600D01*
X144600Y157600D02*
Y157200D01*
X145400D01*
Y157600D01*
X145800D01*
Y158400D01*
X145400D01*
Y158800D01*
X144600D01*
Y158400D01*
X144200D01*
Y157600D01*
X144600D01*
X139600Y147600D02*
Y147200D01*
X140400D01*
Y147600D01*
X140800D01*
Y148400D01*
X140400D01*
Y148800D01*
X139600D01*
Y148400D01*
X139200D01*
Y147600D01*
X139600D01*
X134600Y157600D02*
Y157200D01*
X135400D01*
Y157600D01*
X135800D01*
Y158400D01*
X135400D01*
Y158800D01*
X134600D01*
Y158400D01*
X134200D01*
Y157600D01*
X134600D01*
X129600Y147600D02*
Y147200D01*
X130400D01*
Y147600D01*
X130800D01*
Y148400D01*
X130400D01*
Y148800D01*
X129600D01*
Y148400D01*
X129200D01*
Y147600D01*
X129600D01*
X177704Y134208D02*
X178104D01*
X178504Y134608D01*
X178904Y134208D01*
X179304D01*
Y134608D01*
X178904Y135008D01*
X179304Y135408D01*
Y135808D01*
X178904D01*
X178504Y135408D01*
X178104Y135808D01*
X177704D01*
Y135408D01*
X178104Y135008D01*
X177704Y134608D01*
Y134208D01*
X115696D02*
X116096D01*
X116496Y134608D01*
X116896Y134208D01*
X117296D01*
Y134608D01*
X116896Y135008D01*
X117296Y135408D01*
Y135808D01*
X116896D01*
X116496Y135408D01*
X116096Y135808D01*
X115696D01*
Y135408D01*
X116096Y135008D01*
X115696Y134608D01*
Y134208D01*
X130998Y106616D02*
Y106216D01*
X131798D01*
Y106616D01*
X132198D01*
Y107416D01*
X131798D01*
Y107816D01*
X130998D01*
Y107416D01*
X130598D01*
Y106616D01*
X130998D01*
X124200Y122200D02*
X124600Y123000D01*
X124200Y123800D01*
X125000Y123400D01*
X125800Y123800D01*
X125400Y123000D01*
X125800Y122200D01*
X125000Y122600D01*
X124200Y122200D01*
X88200Y219700D02*
Y221300D01*
X89800D01*
Y219700D01*
X88200D01*
Y229700D02*
Y231300D01*
X89800D01*
Y229700D01*
X88200D01*
Y196700D02*
Y198300D01*
X89800D01*
Y196700D01*
X88200D01*
Y206700D02*
Y208300D01*
X89800D01*
Y206700D01*
X88200D01*
Y242700D02*
Y244300D01*
X89800D01*
Y242700D01*
X88200D01*
Y252700D02*
Y254300D01*
X89800D01*
Y252700D01*
X88200D01*
Y321700D02*
Y323300D01*
X89800D01*
Y321700D01*
X88200D01*
Y331700D02*
Y333300D01*
X89800D01*
Y331700D01*
X88200D01*
Y341700D02*
Y343300D01*
X89800D01*
Y341700D01*
X88200D01*
Y351700D02*
Y353300D01*
X89800D01*
Y351700D01*
X88200D01*
X91500Y372200D02*
X91900Y372600D01*
X92300D01*
X91900Y373000D01*
X92300Y373400D01*
X91900D01*
X91500Y373800D01*
X91100Y373400D01*
X90700D01*
X91100Y373000D01*
X90700Y372600D01*
X91100D01*
X91500Y372200D01*
Y112700D02*
X91900Y113100D01*
X92300D01*
X91900Y113500D01*
X92300Y113900D01*
X91900D01*
X91500Y114300D01*
X91100Y113900D01*
X90700D01*
X91100Y113500D01*
X90700Y113100D01*
X91100D01*
X91500Y112700D01*
X370500D02*
X370900Y113100D01*
X371300D01*
X370900Y113500D01*
X371300Y113900D01*
X370900D01*
X370500Y114300D01*
X370100Y113900D01*
X369700D01*
X370100Y113500D01*
X369700Y113100D01*
X370100D01*
X370500Y112700D01*
X88200Y288700D02*
Y290300D01*
X89800D01*
Y288700D01*
X88200D01*
Y298700D02*
Y300300D01*
X89800D01*
Y298700D01*
X88200D01*
Y308700D02*
Y310300D01*
X89800D01*
Y308700D01*
X88200D01*
X164200Y343500D02*
X165000Y344300D01*
X165800Y343500D01*
X165000Y342700D01*
X164200Y343500D01*
X160700Y340500D02*
X161500Y341300D01*
X162300Y340500D01*
X161500Y339700D01*
X160700Y340500D01*
Y332500D02*
X161500Y333300D01*
X162300Y332500D01*
X161500Y331700D01*
X160700Y332500D01*
Y359000D02*
X161500Y359800D01*
X162300Y359000D01*
X161500Y358200D01*
X160700Y359000D01*
X140200Y340000D02*
X141000Y340800D01*
X141800Y340000D01*
X141000Y339200D01*
X140200Y340000D01*
X160700Y354500D02*
X161500Y355300D01*
X162300Y354500D01*
X161500Y353700D01*
X160700Y354500D01*
X217700Y373700D02*
Y375300D01*
X219300D01*
Y373700D01*
X217700D01*
X218100Y374100D02*
Y374900D01*
X218900D01*
Y374100D01*
X218100D01*
X135200Y296000D02*
X136000Y296800D01*
X136800Y296000D01*
X136000Y295200D01*
X135200Y296000D01*
X130700Y360200D02*
Y361800D01*
X132300D01*
Y360200D01*
X130700D01*
X131100Y360600D02*
Y361400D01*
X131900D01*
Y360600D01*
X131100D01*
X294700Y193200D02*
Y194800D01*
X296300D01*
Y193200D01*
X294700D01*
X295100Y193600D02*
Y194400D01*
X295900D01*
Y193600D01*
X295100D01*
X231200Y217200D02*
Y218800D01*
X232800D01*
Y217200D01*
X231200D01*
X231600Y217600D02*
Y218400D01*
X232400D01*
Y217600D01*
X231600D01*
X224972Y217200D02*
Y218800D01*
X226572D01*
Y217200D01*
X224972D01*
X225372Y217600D02*
Y218400D01*
X226172D01*
Y217600D01*
X225372D01*
X192272Y290809D02*
Y292409D01*
X193872D01*
Y290809D01*
X192272D01*
X192672Y291209D02*
Y292009D01*
X193472D01*
Y291209D01*
X192672D01*
X210312Y290809D02*
Y292409D01*
X211912D01*
Y290809D01*
X210312D01*
X210712Y291209D02*
Y292009D01*
X211512D01*
Y291209D01*
X210712D01*
X198285Y290809D02*
Y292409D01*
X199885D01*
Y290809D01*
X198285D01*
X198685Y291209D02*
Y292009D01*
X199485D01*
Y291209D01*
X198685D01*
X204299Y290809D02*
Y292409D01*
X205899D01*
Y290809D01*
X204299D01*
X204699Y291209D02*
Y292009D01*
X205499D01*
Y291209D01*
X204699D01*
X216325Y290809D02*
Y292409D01*
X217925D01*
Y290809D01*
X216325D01*
X216725Y291209D02*
Y292009D01*
X217525D01*
Y291209D01*
X216725D01*
X292200Y267700D02*
Y269300D01*
X293800D01*
Y267700D01*
X292200D01*
X292600Y268100D02*
Y268900D01*
X293400D01*
Y268100D01*
X292600D01*
X298200Y267700D02*
Y269300D01*
X299800D01*
Y267700D01*
X298200D01*
X298600Y268100D02*
Y268900D01*
X299400D01*
Y268100D01*
X298600D01*
X304200Y267700D02*
Y269300D01*
X305800D01*
Y267700D01*
X304200D01*
X304600Y268100D02*
Y268900D01*
X305400D01*
Y268100D01*
X304600D01*
X304200Y262700D02*
Y264300D01*
X305800D01*
Y262700D01*
X304200D01*
X304600Y263100D02*
Y263900D01*
X305400D01*
Y263100D01*
X304600D01*
X298200Y262700D02*
Y264300D01*
X299800D01*
Y262700D01*
X298200D01*
X298600Y263100D02*
Y263900D01*
X299400D01*
Y263100D01*
X298600D01*
X292200Y262700D02*
Y264300D01*
X293800D01*
Y262700D01*
X292200D01*
X292600Y263100D02*
Y263900D01*
X293400D01*
Y263100D01*
X292600D01*
X292200Y257700D02*
Y259300D01*
X293800D01*
Y257700D01*
X292200D01*
X292600Y258100D02*
Y258900D01*
X293400D01*
Y258100D01*
X292600D01*
X298200Y257700D02*
Y259300D01*
X299800D01*
Y257700D01*
X298200D01*
X298600Y258100D02*
Y258900D01*
X299400D01*
Y258100D01*
X298600D01*
X304200Y257700D02*
Y259300D01*
X305800D01*
Y257700D01*
X304200D01*
X304600Y258100D02*
Y258900D01*
X305400D01*
Y258100D01*
X304600D01*
X210272Y262863D02*
Y264463D01*
X211872D01*
Y262863D01*
X210272D01*
X210672Y263263D02*
Y264063D01*
X211472D01*
Y263263D01*
X210672D01*
X204272Y262863D02*
Y264463D01*
X205872D01*
Y262863D01*
X204272D01*
X204672Y263263D02*
Y264063D01*
X205472D01*
Y263263D01*
X204672D01*
X198272Y262863D02*
Y264463D01*
X199872D01*
Y262863D01*
X198272D01*
X198672Y263263D02*
Y264063D01*
X199472D01*
Y263263D01*
X198672D01*
X198272Y267863D02*
Y269463D01*
X199872D01*
Y267863D01*
X198272D01*
X198672Y268263D02*
Y269063D01*
X199472D01*
Y268263D01*
X198672D01*
X192272Y262863D02*
Y264463D01*
X193872D01*
Y262863D01*
X192272D01*
X192672Y263263D02*
Y264063D01*
X193472D01*
Y263263D01*
X192672D01*
X192272Y267863D02*
Y269463D01*
X193872D01*
Y267863D01*
X192272D01*
X192672Y268263D02*
Y269063D01*
X193472D01*
Y268263D01*
X192672D01*
X210272Y267863D02*
Y269463D01*
X211872D01*
Y267863D01*
X210272D01*
X210672Y268263D02*
Y269063D01*
X211472D01*
Y268263D01*
X210672D01*
X216272Y262863D02*
Y264463D01*
X217872D01*
Y262863D01*
X216272D01*
X216672Y263263D02*
Y264063D01*
X217472D01*
Y263263D01*
X216672D01*
X216272Y272863D02*
Y274463D01*
X217872D01*
Y272863D01*
X216272D01*
X216672Y273263D02*
Y274063D01*
X217472D01*
Y273263D01*
X216672D01*
X216272Y267863D02*
Y269463D01*
X217872D01*
Y267863D01*
X216272D01*
X216672Y268263D02*
Y269063D01*
X217472D01*
Y268263D01*
X216672D01*
X269253Y247692D02*
Y249292D01*
X270853D01*
Y247692D01*
X269253D01*
X269654Y248092D02*
Y248892D01*
X270454D01*
Y248092D01*
X269654D01*
X255162Y247692D02*
Y249292D01*
X256762D01*
Y247692D01*
X255162D01*
X255562Y248092D02*
Y248892D01*
X256362D01*
Y248092D01*
X255562D01*
X262253Y247692D02*
Y249292D01*
X263854D01*
Y247692D01*
X262253D01*
X262653Y248092D02*
Y248892D01*
X263454D01*
Y248092D01*
X262653D01*
X204272Y267863D02*
Y269463D01*
X205872D01*
Y267863D01*
X204272D01*
X204672Y268263D02*
Y269063D01*
X205472D01*
Y268263D01*
X204672D01*
X210272Y272863D02*
Y274463D01*
X211872D01*
Y272863D01*
X210272D01*
X210672Y273263D02*
Y274063D01*
X211472D01*
Y273263D01*
X210672D01*
X204272Y272863D02*
Y274463D01*
X205872D01*
Y272863D01*
X204272D01*
X204672Y273263D02*
Y274063D01*
X205472D01*
Y273263D01*
X204672D01*
X192272Y272863D02*
Y274463D01*
X193872D01*
Y272863D01*
X192272D01*
X192672Y273263D02*
Y274063D01*
X193472D01*
Y273263D01*
X192672D01*
X198272Y272863D02*
Y274463D01*
X199872D01*
Y272863D01*
X198272D01*
X198672Y273263D02*
Y274063D01*
X199472D01*
Y273263D01*
X198672D01*
X98200Y238200D02*
Y239800D01*
X99800D01*
Y238200D01*
X98200D01*
X98600Y238600D02*
Y239400D01*
X99400D01*
Y238600D01*
X98600D01*
X107700Y212700D02*
Y214300D01*
X109300D01*
Y212700D01*
X107700D01*
X108100Y213100D02*
Y213900D01*
X108900D01*
Y213100D01*
X108100D01*
X98125Y194491D02*
Y196091D01*
X99725D01*
Y194491D01*
X98125D01*
X98525Y194891D02*
Y195691D01*
X99325D01*
Y194891D01*
X98525D01*
X98200Y217700D02*
Y219300D01*
X99800D01*
Y217700D01*
X98200D01*
X98600Y218100D02*
Y218900D01*
X99400D01*
Y218100D01*
X98600D01*
X138830Y237830D02*
Y239430D01*
X140430D01*
Y237830D01*
X138830D01*
X139230Y238230D02*
Y239030D01*
X140030D01*
Y238230D01*
X139230D01*
X132700Y328200D02*
Y329800D01*
X134300D01*
Y328200D01*
X132700D01*
X133100Y328600D02*
Y329400D01*
X133900D01*
Y328600D01*
X133100D01*
X136200Y230000D02*
X137000Y230800D01*
X137800Y230000D01*
X137000Y229200D01*
X136200Y230000D01*
X171700Y171000D02*
X172500Y171800D01*
X173300Y171000D01*
X172500Y170200D01*
X171700Y171000D01*
X108200Y165500D02*
X109000Y166300D01*
X109800Y165500D01*
X109000Y164700D01*
X108200Y165500D01*
X321200Y367200D02*
Y368800D01*
X322800D01*
Y367200D01*
X321200D01*
X321600Y367600D02*
Y368400D01*
X322400D01*
Y367600D01*
X321600D01*
X168200Y294000D02*
X169000Y294800D01*
X169800Y294000D01*
X169000Y293200D01*
X168200Y294000D01*
X211200Y328200D02*
Y329800D01*
X212800D01*
Y328200D01*
X211200D01*
X211600Y328600D02*
Y329400D01*
X212400D01*
Y328600D01*
X211600D01*
X215200Y331700D02*
Y333300D01*
X216800D01*
Y331700D01*
X215200D01*
X215600Y332100D02*
Y332900D01*
X216400D01*
Y332100D01*
X215600D01*
X297700Y369500D02*
X298500Y370300D01*
X299300Y369500D01*
X298500Y368700D01*
X297700Y369500D01*
X161200Y214500D02*
X162000Y215300D01*
X162800Y214500D01*
X162000Y213700D01*
X161200Y214500D01*
X148200Y204000D02*
X149000Y204800D01*
X149800Y204000D01*
X149000Y203200D01*
X148200Y204000D01*
X130200Y248700D02*
Y250300D01*
X131800D01*
Y248700D01*
X130200D01*
X130600Y249100D02*
Y249900D01*
X131400D01*
Y249100D01*
X130600D01*
X127200Y251700D02*
Y253300D01*
X128800D01*
Y251700D01*
X127200D01*
X127600Y252100D02*
Y252900D01*
X128400D01*
Y252100D01*
X127600D01*
X149200Y219500D02*
X150000Y220300D01*
X150800Y219500D01*
X150000Y218700D01*
X149200Y219500D01*
X337200Y320500D02*
X338000Y321300D01*
X338800Y320500D01*
X338000Y319700D01*
X337200Y320500D01*
X337171Y333529D02*
X337970Y334330D01*
X338771Y333529D01*
X337970Y332730D01*
X337171Y333529D01*
X361200Y330411D02*
X362000Y331211D01*
X362800Y330411D01*
X362000Y329611D01*
X361200Y330411D01*
Y353500D02*
X362000Y354300D01*
X362800Y353500D01*
X362000Y352700D01*
X361200Y353500D01*
X337670Y354029D02*
X338471Y354830D01*
X339270Y354029D01*
X338471Y353229D01*
X337670Y354029D01*
X311171Y357030D02*
X311970Y357829D01*
X312771Y357030D01*
X311970Y356229D01*
X311171Y357030D01*
X300200Y325500D02*
X301000Y326300D01*
X301800Y325500D01*
X301000Y324700D01*
X300200Y325500D01*
X175171Y324029D02*
X175970Y324830D01*
X176770Y324029D01*
X175970Y323230D01*
X175171Y324029D01*
X267700Y355000D02*
X268500Y355800D01*
X269300Y355000D01*
X268500Y354200D01*
X267700Y355000D01*
X261700Y369500D02*
X262500Y370300D01*
X263300Y369500D01*
X262500Y368700D01*
X261700Y369500D01*
X82700Y146500D02*
X83500Y147300D01*
X84300Y146500D01*
X83500Y145700D01*
X82700Y146500D01*
X355302Y158649D02*
Y160249D01*
X356902D01*
Y158649D01*
X355302D01*
X355702Y159049D02*
Y159849D01*
X356502D01*
Y159049D01*
X355702D01*
X355302Y148019D02*
Y149619D01*
X356902D01*
Y148019D01*
X355302D01*
X355702Y148419D02*
Y149219D01*
X356502D01*
Y148419D01*
X355702D01*
X352645Y163964D02*
Y165564D01*
X354245D01*
Y163964D01*
X352645D01*
X353045Y164364D02*
Y165164D01*
X353845D01*
Y164364D01*
X353045D01*
X349987Y158649D02*
Y160249D01*
X351587D01*
Y158649D01*
X349987D01*
X350387Y159049D02*
Y159849D01*
X351187D01*
Y159049D01*
X350387D01*
X352645Y153334D02*
Y154934D01*
X354245D01*
Y153334D01*
X352645D01*
X353045Y153734D02*
Y154534D01*
X353845D01*
Y153734D01*
X353045D01*
X349987Y148019D02*
Y149619D01*
X351587D01*
Y148019D01*
X349987D01*
X350387Y148419D02*
Y149219D01*
X351187D01*
Y148419D01*
X350387D01*
X347330Y163964D02*
Y165564D01*
X348930D01*
Y163964D01*
X347330D01*
X347730Y164364D02*
Y165164D01*
X348530D01*
Y164364D01*
X347730D01*
X344672Y158649D02*
Y160249D01*
X346272D01*
Y158649D01*
X344672D01*
X345072Y159049D02*
Y159849D01*
X345872D01*
Y159049D01*
X345072D01*
X347330Y153334D02*
Y154934D01*
X348930D01*
Y153334D01*
X347330D01*
X347730Y153734D02*
Y154534D01*
X348530D01*
Y153734D01*
X347730D01*
X344672Y148019D02*
Y149619D01*
X346272D01*
Y148019D01*
X344672D01*
X345072Y148419D02*
Y149219D01*
X345872D01*
Y148419D01*
X345072D01*
X342015Y163964D02*
Y165564D01*
X343615D01*
Y163964D01*
X342015D01*
X342415Y164364D02*
Y165164D01*
X343215D01*
Y164364D01*
X342415D01*
X339357Y158649D02*
Y160249D01*
X340957D01*
Y158649D01*
X339357D01*
X339757Y159049D02*
Y159849D01*
X340557D01*
Y159049D01*
X339757D01*
X342015Y153334D02*
Y154934D01*
X343615D01*
Y153334D01*
X342015D01*
X342415Y153734D02*
Y154534D01*
X343215D01*
Y153734D01*
X342415D01*
X336700Y163964D02*
Y165564D01*
X338300D01*
Y163964D01*
X336700D01*
X337100Y164364D02*
Y165164D01*
X337900D01*
Y164364D01*
X337100D01*
X376562Y249003D02*
Y250603D01*
X378162D01*
Y249003D01*
X376562D01*
X376962Y249403D02*
Y250203D01*
X377762D01*
Y249403D01*
X376962D01*
X376562Y238373D02*
Y239973D01*
X378162D01*
Y238373D01*
X376562D01*
X376962Y238773D02*
Y239573D01*
X377762D01*
Y238773D01*
X376962D01*
X371247Y249003D02*
Y250603D01*
X372847D01*
Y249003D01*
X371247D01*
X371647Y249403D02*
Y250203D01*
X372447D01*
Y249403D01*
X371647D01*
X373905Y243688D02*
Y245288D01*
X375505D01*
Y243688D01*
X373905D01*
X374305Y244088D02*
Y244888D01*
X375105D01*
Y244088D01*
X374305D01*
X371247Y238373D02*
Y239973D01*
X372847D01*
Y238373D01*
X371247D01*
X371647Y238773D02*
Y239573D01*
X372447D01*
Y238773D01*
X371647D01*
X373905Y233058D02*
Y234658D01*
X375505D01*
Y233058D01*
X373905D01*
X374305Y233458D02*
Y234258D01*
X375105D01*
Y233458D01*
X374305D01*
X365932Y249003D02*
Y250603D01*
X367532D01*
Y249003D01*
X365932D01*
X366332Y249403D02*
Y250203D01*
X367132D01*
Y249403D01*
X366332D01*
X368590Y243688D02*
Y245288D01*
X370190D01*
Y243688D01*
X368590D01*
X368990Y244088D02*
Y244888D01*
X369790D01*
Y244088D01*
X368990D01*
X365932Y238373D02*
Y239973D01*
X367532D01*
Y238373D01*
X365932D01*
X366332Y238773D02*
Y239573D01*
X367132D01*
Y238773D01*
X366332D01*
X368590Y233058D02*
Y234658D01*
X370190D01*
Y233058D01*
X368590D01*
X368990Y233458D02*
Y234258D01*
X369790D01*
Y233458D01*
X368990D01*
X363275Y233058D02*
Y234658D01*
X364875D01*
Y233058D01*
X363275D01*
X363675Y233458D02*
Y234258D01*
X364475D01*
Y233458D01*
X363675D01*
X357960Y233058D02*
Y234658D01*
X359560D01*
Y233058D01*
X357960D01*
X358360Y233458D02*
Y234258D01*
X359160D01*
Y233458D01*
X358360D01*
X352645Y233058D02*
Y234658D01*
X354245D01*
Y233058D01*
X352645D01*
X353045Y233458D02*
Y234258D01*
X353845D01*
Y233458D01*
X353045D01*
X347330Y233058D02*
Y234658D01*
X348930D01*
Y233058D01*
X347330D01*
X347730Y233458D02*
Y234258D01*
X348530D01*
Y233458D01*
X347730D01*
X354200Y344200D02*
Y345800D01*
X355800D01*
Y344200D01*
X354200D01*
X354600Y344600D02*
Y345400D01*
X355400D01*
Y344600D01*
X354600D01*
X354200Y320700D02*
Y322300D01*
X355800D01*
Y320700D01*
X354200D01*
X354600Y321100D02*
Y321900D01*
X355400D01*
Y321100D01*
X354600D01*
X288200Y375200D02*
Y376800D01*
X289800D01*
Y375200D01*
X288200D01*
X288600Y375600D02*
Y376400D01*
X289400D01*
Y375600D01*
X288600D01*
X339200Y375700D02*
Y377300D01*
X340800D01*
Y375700D01*
X339200D01*
X339600Y376100D02*
Y376900D01*
X340400D01*
Y376100D01*
X339600D01*
X277200Y375200D02*
Y376800D01*
X278800D01*
Y375200D01*
X277200D01*
X277600Y375600D02*
Y376400D01*
X278400D01*
Y375600D01*
X277600D01*
X217700Y377700D02*
Y379300D01*
X219300D01*
Y377700D01*
X217700D01*
X218100Y378100D02*
Y378900D01*
X218900D01*
Y378100D01*
X218100D01*
X133700Y251700D02*
Y253300D01*
X135300D01*
Y251700D01*
X133700D01*
X134100Y252100D02*
Y252900D01*
X134900D01*
Y252100D01*
X134100D01*
X124200Y284200D02*
Y285800D01*
X125800D01*
Y284200D01*
X124200D01*
X124600Y284600D02*
Y285400D01*
X125400D01*
Y284600D01*
X124600D01*
X151200Y273200D02*
Y274800D01*
X152800D01*
Y273200D01*
X151200D01*
X151600Y273600D02*
Y274400D01*
X152400D01*
Y273600D01*
X151600D01*
X187200Y305200D02*
Y306800D01*
X188800D01*
Y305200D01*
X187200D01*
X187600Y305600D02*
Y306400D01*
X188400D01*
Y305600D01*
X187600D01*
X182200Y305200D02*
Y306800D01*
X183800D01*
Y305200D01*
X182200D01*
X182600Y305600D02*
Y306400D01*
X183400D01*
Y305600D01*
X182600D01*
X109700Y254200D02*
Y255800D01*
X111300D01*
Y254200D01*
X109700D01*
X110100Y254600D02*
Y255400D01*
X110900D01*
Y254600D01*
X110100D01*
X113700Y257700D02*
Y259300D01*
X115300D01*
Y257700D01*
X113700D01*
X114100Y258100D02*
Y258900D01*
X114900D01*
Y258100D01*
X114100D01*
X288700Y203200D02*
Y204800D01*
X290300D01*
Y203200D01*
X288700D01*
X289100Y203600D02*
Y204400D01*
X289900D01*
Y203600D01*
X289100D01*
X288700Y198200D02*
Y199800D01*
X290300D01*
Y198200D01*
X288700D01*
X289100Y198600D02*
Y199400D01*
X289900D01*
Y198600D01*
X289100D01*
X288700Y193200D02*
Y194800D01*
X290300D01*
Y193200D01*
X288700D01*
X289100Y193600D02*
Y194400D01*
X289900D01*
Y193600D01*
X289100D01*
X294700Y198200D02*
Y199800D01*
X296300D01*
Y198200D01*
X294700D01*
X295100Y198600D02*
Y199400D01*
X295900D01*
Y198600D01*
X295100D01*
X300700Y193200D02*
Y194800D01*
X302300D01*
Y193200D01*
X300700D01*
X301100Y193600D02*
Y194400D01*
X301900D01*
Y193600D01*
X301100D01*
X300700Y198200D02*
Y199800D01*
X302300D01*
Y198200D01*
X300700D01*
X301100Y198600D02*
Y199400D01*
X301900D01*
Y198600D01*
X301100D01*
X300700Y203200D02*
Y204800D01*
X302300D01*
Y203200D01*
X300700D01*
X301100Y203600D02*
Y204400D01*
X301900D01*
Y203600D01*
X301100D01*
X294700Y203200D02*
Y204800D01*
X296300D01*
Y203200D01*
X294700D01*
X295100Y203600D02*
Y204400D01*
X295900D01*
Y203600D01*
X295100D01*
X246000Y176200D02*
Y177800D01*
X247600D01*
Y176200D01*
X246000D01*
X246400Y176600D02*
Y177400D01*
X247200D01*
Y176600D01*
X246400D01*
X240700Y176200D02*
Y177800D01*
X242300D01*
Y176200D01*
X240700D01*
X241100Y176600D02*
Y177400D01*
X241900D01*
Y176600D01*
X241100D01*
X235400Y176200D02*
Y177800D01*
X237000D01*
Y176200D01*
X235400D01*
X235800Y176600D02*
Y177400D01*
X236600D01*
Y176600D01*
X235800D01*
X167200Y257700D02*
Y259300D01*
X168800D01*
Y257700D01*
X167200D01*
X167600Y258100D02*
Y258900D01*
X168400D01*
Y258100D01*
X167600D01*
X165200Y242200D02*
Y243800D01*
X166800D01*
Y242200D01*
X165200D01*
X165600Y242600D02*
Y243400D01*
X166400D01*
Y242600D01*
X165600D01*
X165200Y247200D02*
Y248800D01*
X166800D01*
Y247200D01*
X165200D01*
X165600Y247600D02*
Y248400D01*
X166400D01*
Y247600D01*
X165600D01*
X165700Y234200D02*
Y235800D01*
X167300D01*
Y234200D01*
X165700D01*
X166100Y234600D02*
Y235400D01*
X166900D01*
Y234600D01*
X166100D01*
X217700Y382200D02*
Y383800D01*
X219300D01*
Y382200D01*
X217700D01*
X218100Y382600D02*
Y383400D01*
X218900D01*
Y382600D01*
X218100D01*
X217700Y343500D02*
X218500Y344300D01*
X219300Y343500D01*
X218500Y342700D01*
X217700Y343500D01*
X143700Y382200D02*
Y383800D01*
X145300D01*
Y382200D01*
X143700D01*
X144100Y382600D02*
Y383400D01*
X144900D01*
Y382600D01*
X144100D01*
X154200Y268200D02*
Y269800D01*
X155800D01*
Y268200D01*
X154200D01*
X154600Y268600D02*
Y269400D01*
X155400D01*
Y268600D01*
X154600D01*
X154700Y262700D02*
Y264300D01*
X156300D01*
Y262700D01*
X154700D01*
X155100Y263100D02*
Y263900D01*
X155900D01*
Y263100D01*
X155100D01*
X106200Y228700D02*
Y230300D01*
X107800D01*
Y228700D01*
X106200D01*
X106600Y229100D02*
Y229900D01*
X107400D01*
Y229100D01*
X106600D01*
X120006Y227987D02*
Y229587D01*
X121606D01*
Y227987D01*
X120006D01*
X120406Y228387D02*
Y229187D01*
X121206D01*
Y228387D01*
X120406D01*
X339200Y360700D02*
Y362300D01*
X340800D01*
Y360700D01*
X339200D01*
X339600Y361100D02*
Y361900D01*
X340400D01*
Y361100D01*
X339600D01*
D90*
X217312Y129500D02*
G03*
X217312Y129500I-800J0D01*
G01*
X306288D02*
G03*
X306288Y129500I-800J0D01*
G01*
X286312Y290000D02*
G03*
X286312Y290000I-800J0D01*
G01*
X375288D02*
G03*
X375288Y290000I-800J0D01*
G01*
X196808Y221008D02*
G03*
X196808Y221008I-800J0D01*
G01*
X191800Y221000D02*
G03*
X191800Y221000I-800J0D01*
G01*
X201800D02*
G03*
X201800Y221000I-800J0D01*
G01*
D91*
X196408Y221008D02*
G03*
X196408Y221008I-400J0D01*
G01*
X191400Y221000D02*
G03*
X191400Y221000I-400J0D01*
G01*
X201400D02*
G03*
X201400Y221000I-400J0D01*
G01*
M02*
