G04*
G04 #@! TF.GenerationSoftware,Altium Limited,Altium Designer,21.6.4 (81)*
G04*
G04 Layer_Physical_Order=3*
G04 Layer_Color=16440176*
%FSLAX25Y25*%
%MOIN*%
G70*
G04*
G04 #@! TF.SameCoordinates,82150E9F-1309-4CA2-80C3-B22644BF42D1*
G04*
G04*
G04 #@! TF.FilePolarity,Positive*
G04*
G01*
G75*
%ADD77C,0.02756*%
%ADD78C,0.02559*%
%ADD79C,0.02362*%
G36*
X382471Y298406D02*
X366083D01*
Y281594D01*
X382471D01*
Y274500D01*
X323500D01*
Y165000D01*
X149500D01*
Y159642D01*
X149000Y159576D01*
X148980Y159649D01*
X148418Y160623D01*
X147623Y161418D01*
X146649Y161980D01*
X145562Y162271D01*
X144438D01*
X143351Y161980D01*
X142377Y161418D01*
X141582Y160623D01*
X141020Y159649D01*
X140728Y158562D01*
Y157438D01*
X141020Y156351D01*
X141582Y155377D01*
X142377Y154582D01*
X143351Y154020D01*
X144438Y153728D01*
X145562D01*
X146649Y154020D01*
X147623Y154582D01*
X148418Y155377D01*
X148980Y156351D01*
X149000Y156424D01*
X149500Y156359D01*
Y155000D01*
X150935Y152652D01*
X150635Y152252D01*
X150562Y152271D01*
X149438D01*
X148351Y151980D01*
X147377Y151418D01*
X146582Y150623D01*
X146020Y149649D01*
X145729Y148562D01*
Y147438D01*
X146020Y146351D01*
X146582Y145377D01*
X147377Y144582D01*
X148351Y144020D01*
X149438Y143728D01*
X150562D01*
X151649Y144020D01*
X152623Y144582D01*
X153418Y145377D01*
X153980Y146351D01*
X154062Y146654D01*
X154557Y146726D01*
X155000Y146000D01*
Y101529D01*
X79529D01*
Y384971D01*
X140773D01*
X141024Y384538D01*
X140978Y384459D01*
X140720Y383498D01*
Y382502D01*
X140978Y381541D01*
X141476Y380679D01*
X142179Y379976D01*
X143041Y379478D01*
X144002Y379221D01*
X144998D01*
X145959Y379478D01*
X146821Y379976D01*
X147524Y380679D01*
X148022Y381541D01*
X148280Y382502D01*
Y383498D01*
X148022Y384459D01*
X147977Y384538D01*
X148226Y384971D01*
X214774D01*
X215023Y384538D01*
X214978Y384459D01*
X214721Y383498D01*
Y382502D01*
X214978Y381541D01*
X215435Y380750D01*
X214978Y379959D01*
X214721Y378998D01*
Y378002D01*
X214978Y377041D01*
X215290Y376500D01*
X214978Y375959D01*
X214721Y374998D01*
Y374002D01*
X214978Y373041D01*
X215476Y372179D01*
X216179Y371476D01*
X217041Y370978D01*
X218002Y370721D01*
X218998D01*
X219959Y370978D01*
X220821Y371476D01*
X221524Y372179D01*
X222022Y373041D01*
X222280Y374002D01*
Y374998D01*
X222022Y375959D01*
X221709Y376500D01*
X222022Y377041D01*
X222280Y378002D01*
Y378998D01*
X222022Y379959D01*
X221565Y380750D01*
X222022Y381541D01*
X222280Y382502D01*
Y383498D01*
X222022Y384459D01*
X221976Y384538D01*
X222227Y384971D01*
X382471D01*
Y298406D01*
D02*
G37*
%LPC*%
G36*
X340485Y380181D02*
X339515D01*
X338579Y379930D01*
X337740Y379446D01*
X337054Y378760D01*
X336570Y377921D01*
X336319Y376985D01*
Y376015D01*
X336570Y375079D01*
X337054Y374240D01*
X337740Y373554D01*
X338579Y373070D01*
X339515Y372819D01*
X340485D01*
X341421Y373070D01*
X342260Y373554D01*
X342946Y374240D01*
X343430Y375079D01*
X343681Y376015D01*
Y376985D01*
X343430Y377921D01*
X342946Y378760D01*
X342260Y379446D01*
X341421Y379930D01*
X340485Y380181D01*
D02*
G37*
G36*
X289485Y379681D02*
X288515D01*
X287579Y379430D01*
X286740Y378946D01*
X286054Y378260D01*
X285570Y377421D01*
X285319Y376485D01*
Y375515D01*
X285570Y374579D01*
X286054Y373740D01*
X286740Y373054D01*
X287579Y372570D01*
X288515Y372319D01*
X289485D01*
X290421Y372570D01*
X291260Y373054D01*
X291946Y373740D01*
X292430Y374579D01*
X292681Y375515D01*
Y376485D01*
X292430Y377421D01*
X291946Y378260D01*
X291260Y378946D01*
X290421Y379430D01*
X289485Y379681D01*
D02*
G37*
G36*
X278485D02*
X277515D01*
X276579Y379430D01*
X275740Y378946D01*
X275054Y378260D01*
X274570Y377421D01*
X274319Y376485D01*
Y375515D01*
X274570Y374579D01*
X275054Y373740D01*
X275740Y373054D01*
X276579Y372570D01*
X277515Y372319D01*
X278485D01*
X279421Y372570D01*
X280260Y373054D01*
X280946Y373740D01*
X281430Y374579D01*
X281681Y375515D01*
Y376485D01*
X281430Y377421D01*
X280946Y378260D01*
X280260Y378946D01*
X279421Y379430D01*
X278485Y379681D01*
D02*
G37*
G36*
X299000Y371867D02*
Y370000D01*
X300867D01*
X300516Y370847D01*
X299847Y371516D01*
X299000Y371867D01*
D02*
G37*
G36*
X298000D02*
X297153Y371516D01*
X296484Y370847D01*
X296133Y370000D01*
X298000D01*
Y371867D01*
D02*
G37*
G36*
X263000D02*
Y370000D01*
X264867D01*
X264516Y370847D01*
X263847Y371516D01*
X263000Y371867D01*
D02*
G37*
G36*
X262000D02*
X261153Y371516D01*
X260484Y370847D01*
X260133Y370000D01*
X262000D01*
Y371867D01*
D02*
G37*
G36*
X300867Y369000D02*
X299000D01*
Y367133D01*
X299847Y367484D01*
X300516Y368153D01*
X300867Y369000D01*
D02*
G37*
G36*
X298000D02*
X296133D01*
X296484Y368153D01*
X297153Y367484D01*
X298000Y367133D01*
Y369000D01*
D02*
G37*
G36*
X264867D02*
X263000D01*
Y367133D01*
X263847Y367484D01*
X264516Y368153D01*
X264867Y369000D01*
D02*
G37*
G36*
X262000D02*
X260133D01*
X260484Y368153D01*
X261153Y367484D01*
X262000Y367133D01*
Y369000D01*
D02*
G37*
G36*
X322498Y371779D02*
X321502D01*
X320541Y371522D01*
X319679Y371024D01*
X318976Y370321D01*
X318478Y369459D01*
X318220Y368498D01*
Y367502D01*
X318478Y366541D01*
X318976Y365679D01*
X319679Y364976D01*
X320541Y364478D01*
X321502Y364220D01*
X322498D01*
X323459Y364478D01*
X324321Y364976D01*
X325024Y365679D01*
X325522Y366541D01*
X325780Y367502D01*
Y368498D01*
X325522Y369459D01*
X325024Y370321D01*
X324321Y371024D01*
X323459Y371522D01*
X322498Y371779D01*
D02*
G37*
G36*
X371394Y384358D02*
X369606D01*
X367840Y384079D01*
X366140Y383526D01*
X364547Y382715D01*
X363101Y381664D01*
X361836Y380399D01*
X360786Y378953D01*
X359974Y377360D01*
X359421Y375660D01*
X359142Y373894D01*
Y372106D01*
X359421Y370340D01*
X359974Y368640D01*
X360786Y367047D01*
X361836Y365601D01*
X363101Y364336D01*
X364547Y363285D01*
X366140Y362474D01*
X367840Y361921D01*
X369606Y361642D01*
X371394D01*
X373160Y361921D01*
X374860Y362474D01*
X376453Y363285D01*
X377899Y364336D01*
X379164Y365601D01*
X380215Y367047D01*
X381026Y368640D01*
X381579Y370340D01*
X381858Y372106D01*
Y373894D01*
X381579Y375660D01*
X381026Y377360D01*
X380215Y378953D01*
X379164Y380399D01*
X377899Y381664D01*
X376453Y382715D01*
X374860Y383526D01*
X373160Y384079D01*
X371394Y384358D01*
D02*
G37*
G36*
X92394D02*
X90606D01*
X88840Y384079D01*
X87140Y383526D01*
X85547Y382715D01*
X84101Y381664D01*
X82836Y380399D01*
X81786Y378953D01*
X80974Y377360D01*
X80421Y375660D01*
X80142Y373894D01*
Y372106D01*
X80421Y370340D01*
X80974Y368640D01*
X81786Y367047D01*
X82836Y365601D01*
X84101Y364336D01*
X85547Y363285D01*
X87140Y362474D01*
X88840Y361921D01*
X90606Y361642D01*
X92394D01*
X94160Y361921D01*
X95860Y362474D01*
X97453Y363285D01*
X98899Y364336D01*
X100164Y365601D01*
X101215Y367047D01*
X102026Y368640D01*
X102579Y370340D01*
X102858Y372106D01*
Y373894D01*
X102579Y375660D01*
X102026Y377360D01*
X101215Y378953D01*
X100164Y380399D01*
X98899Y381664D01*
X97453Y382715D01*
X95860Y383526D01*
X94160Y384079D01*
X92394Y384358D01*
D02*
G37*
G36*
X131998Y364779D02*
X131002D01*
X130041Y364522D01*
X129179Y364024D01*
X128476Y363321D01*
X127978Y362459D01*
X127720Y361498D01*
Y360502D01*
X127978Y359541D01*
X128476Y358679D01*
X129179Y357976D01*
X130041Y357478D01*
X131002Y357221D01*
X131998D01*
X132959Y357478D01*
X133821Y357976D01*
X134524Y358679D01*
X135022Y359541D01*
X135280Y360502D01*
Y361498D01*
X135022Y362459D01*
X134524Y363321D01*
X133821Y364024D01*
X132959Y364522D01*
X131998Y364779D01*
D02*
G37*
G36*
X269000Y357367D02*
Y355500D01*
X270867D01*
X270516Y356347D01*
X269847Y357016D01*
X269000Y357367D01*
D02*
G37*
G36*
X268000D02*
X267153Y357016D01*
X266484Y356347D01*
X266133Y355500D01*
X268000D01*
Y357367D01*
D02*
G37*
G36*
X312481Y360908D02*
X311460D01*
X310474Y360643D01*
X309589Y360133D01*
X308867Y359411D01*
X308357Y358526D01*
X308092Y357540D01*
Y356519D01*
X308357Y355533D01*
X308867Y354648D01*
X309589Y353926D01*
X310474Y353416D01*
X311460Y353152D01*
X312481D01*
X313467Y353416D01*
X314352Y353926D01*
X315074Y354648D01*
X315584Y355533D01*
X315848Y356519D01*
Y357540D01*
X315584Y358526D01*
X315074Y359411D01*
X314352Y360133D01*
X313467Y360643D01*
X312481Y360908D01*
D02*
G37*
G36*
X270867Y354500D02*
X269000D01*
Y352633D01*
X269847Y352984D01*
X270516Y353653D01*
X270867Y354500D01*
D02*
G37*
G36*
X268000D02*
X266133D01*
X266484Y353653D01*
X267153Y352984D01*
X268000Y352633D01*
Y354500D01*
D02*
G37*
G36*
X162011Y362878D02*
X160989D01*
X160003Y362614D01*
X159119Y362103D01*
X158397Y361381D01*
X157886Y360497D01*
X157622Y359510D01*
Y358489D01*
X157886Y357503D01*
X158321Y356750D01*
X157886Y355997D01*
X157622Y355011D01*
Y353990D01*
X157886Y353003D01*
X158397Y352119D01*
X159119Y351397D01*
X160003Y350886D01*
X160989Y350622D01*
X162011D01*
X162997Y350886D01*
X163881Y351397D01*
X164603Y352119D01*
X165114Y353003D01*
X165378Y353990D01*
Y355011D01*
X165114Y355997D01*
X164679Y356750D01*
X165114Y357503D01*
X165378Y358489D01*
Y359510D01*
X165114Y360497D01*
X164603Y361381D01*
X163881Y362103D01*
X162997Y362614D01*
X162011Y362878D01*
D02*
G37*
G36*
X340485Y365181D02*
X339515D01*
X338579Y364930D01*
X337740Y364446D01*
X337054Y363760D01*
X336570Y362921D01*
X336319Y361985D01*
Y361015D01*
X336570Y360079D01*
X337054Y359240D01*
X337740Y358554D01*
X337994Y358407D01*
X337972Y358089D01*
X337892Y357889D01*
X336974Y357643D01*
X336089Y357133D01*
X335367Y356411D01*
X334857Y355526D01*
X334593Y354540D01*
Y353519D01*
X334857Y352533D01*
X335367Y351648D01*
X336089Y350926D01*
X336974Y350416D01*
X337960Y350152D01*
X338981D01*
X339967Y350416D01*
X340852Y350926D01*
X341574Y351648D01*
X342084Y352533D01*
X342348Y353519D01*
Y354540D01*
X342084Y355526D01*
X341574Y356411D01*
X340852Y357133D01*
X340511Y357330D01*
X340502Y357485D01*
X340606Y357852D01*
X341421Y358070D01*
X342260Y358554D01*
X342946Y359240D01*
X343430Y360079D01*
X343681Y361015D01*
Y361985D01*
X343430Y362921D01*
X342946Y363760D01*
X342260Y364446D01*
X341421Y364930D01*
X340485Y365181D01*
D02*
G37*
G36*
X362510Y357378D02*
X361490D01*
X360503Y357114D01*
X359619Y356603D01*
X358897Y355881D01*
X358386Y354997D01*
X358122Y354011D01*
Y352990D01*
X358386Y352003D01*
X358897Y351119D01*
X359619Y350397D01*
X360503Y349886D01*
X361490Y349622D01*
X362510D01*
X363497Y349886D01*
X364381Y350397D01*
X365103Y351119D01*
X365614Y352003D01*
X365878Y352990D01*
Y354011D01*
X365614Y354997D01*
X365103Y355881D01*
X364381Y356603D01*
X363497Y357114D01*
X362510Y357378D01*
D02*
G37*
G36*
X355498Y348780D02*
X354502D01*
X353541Y348522D01*
X352679Y348024D01*
X351976Y347321D01*
X351478Y346459D01*
X351220Y345498D01*
Y344502D01*
X351478Y343541D01*
X351976Y342679D01*
X352679Y341976D01*
X353541Y341478D01*
X354502Y341220D01*
X355498D01*
X356459Y341478D01*
X357321Y341976D01*
X358024Y342679D01*
X358522Y343541D01*
X358780Y344502D01*
Y345498D01*
X358522Y346459D01*
X358024Y347321D01*
X357321Y348024D01*
X356459Y348522D01*
X355498Y348780D01*
D02*
G37*
G36*
X141500Y342367D02*
Y340500D01*
X143367D01*
X143016Y341347D01*
X142347Y342016D01*
X141500Y342367D01*
D02*
G37*
G36*
X140500D02*
X139653Y342016D01*
X138984Y341347D01*
X138633Y340500D01*
X140500D01*
Y342367D01*
D02*
G37*
G36*
X219010Y347378D02*
X217989D01*
X217003Y347114D01*
X216119Y346603D01*
X215397Y345881D01*
X214886Y344997D01*
X214622Y344010D01*
Y342989D01*
X214886Y342003D01*
X215397Y341119D01*
X216119Y340397D01*
X217003Y339886D01*
X217989Y339622D01*
X219010D01*
X219997Y339886D01*
X220881Y340397D01*
X221603Y341119D01*
X222114Y342003D01*
X222378Y342989D01*
Y344010D01*
X222114Y344997D01*
X221603Y345881D01*
X220881Y346603D01*
X219997Y347114D01*
X219010Y347378D01*
D02*
G37*
G36*
X143367Y339500D02*
X141500D01*
Y337633D01*
X142347Y337984D01*
X143016Y338653D01*
X143367Y339500D01*
D02*
G37*
G36*
X140500D02*
X138633D01*
X138984Y338653D01*
X139653Y337984D01*
X140500Y337633D01*
Y339500D01*
D02*
G37*
G36*
X338471Y335896D02*
Y334030D01*
X340337D01*
X339986Y334876D01*
X339317Y335545D01*
X338471Y335896D01*
D02*
G37*
G36*
X337471D02*
X336624Y335545D01*
X335954Y334876D01*
X335604Y334030D01*
X337471D01*
Y335896D01*
D02*
G37*
G36*
X340337Y333030D02*
X338471D01*
Y331163D01*
X339317Y331514D01*
X339986Y332183D01*
X340337Y333030D01*
D02*
G37*
G36*
X337471D02*
X335604D01*
X335954Y332183D01*
X336624Y331514D01*
X337471Y331163D01*
Y333030D01*
D02*
G37*
G36*
X165510Y347378D02*
X164489D01*
X163503Y347114D01*
X162619Y346603D01*
X161897Y345881D01*
X161386Y344997D01*
X161221Y344378D01*
X160989D01*
X160003Y344114D01*
X159119Y343603D01*
X158397Y342881D01*
X157886Y341997D01*
X157622Y341010D01*
Y339989D01*
X157886Y339003D01*
X158397Y338119D01*
X159119Y337397D01*
X160003Y336886D01*
X160479Y336759D01*
Y336241D01*
X160003Y336114D01*
X159119Y335603D01*
X158397Y334881D01*
X157886Y333997D01*
X157622Y333011D01*
Y331990D01*
X157886Y331003D01*
X158397Y330119D01*
X159119Y329397D01*
X160003Y328886D01*
X160989Y328622D01*
X162011D01*
X162997Y328886D01*
X163881Y329397D01*
X164603Y330119D01*
X165114Y331003D01*
X165378Y331990D01*
Y333011D01*
X165114Y333997D01*
X164603Y334881D01*
X163881Y335603D01*
X162997Y336114D01*
X162521Y336241D01*
Y336759D01*
X162997Y336886D01*
X163881Y337397D01*
X164603Y338119D01*
X165114Y339003D01*
X165279Y339622D01*
X165510D01*
X166497Y339886D01*
X167381Y340397D01*
X168103Y341119D01*
X168614Y342003D01*
X168878Y342989D01*
Y344010D01*
X168614Y344997D01*
X168103Y345881D01*
X167381Y346603D01*
X166497Y347114D01*
X165510Y347378D01*
D02*
G37*
G36*
X362510Y334289D02*
X361490D01*
X360503Y334025D01*
X359619Y333515D01*
X358897Y332792D01*
X358386Y331908D01*
X358122Y330922D01*
Y329901D01*
X358386Y328915D01*
X358897Y328030D01*
X359619Y327308D01*
X360503Y326798D01*
X361490Y326534D01*
X362510D01*
X363497Y326798D01*
X364381Y327308D01*
X365103Y328030D01*
X365614Y328915D01*
X365878Y329901D01*
Y330922D01*
X365614Y331908D01*
X365103Y332792D01*
X364381Y333515D01*
X363497Y334025D01*
X362510Y334289D01*
D02*
G37*
G36*
X216498Y336280D02*
X215502D01*
X214541Y336022D01*
X213679Y335524D01*
X212976Y334821D01*
X212478Y333959D01*
X212221Y332998D01*
Y332780D01*
X211502D01*
X210541Y332522D01*
X209679Y332024D01*
X208976Y331321D01*
X208478Y330459D01*
X208221Y329498D01*
Y328502D01*
X208478Y327541D01*
X208976Y326679D01*
X209679Y325976D01*
X210541Y325478D01*
X211502Y325220D01*
X212498D01*
X213459Y325478D01*
X214321Y325976D01*
X215024Y326679D01*
X215522Y327541D01*
X215779Y328502D01*
Y328720D01*
X216498D01*
X217459Y328978D01*
X218321Y329476D01*
X219024Y330179D01*
X219522Y331041D01*
X219779Y332002D01*
Y332998D01*
X219522Y333959D01*
X219024Y334821D01*
X218321Y335524D01*
X217459Y336022D01*
X216498Y336280D01*
D02*
G37*
G36*
X133998Y332780D02*
X133002D01*
X132041Y332522D01*
X131179Y332024D01*
X130476Y331321D01*
X129978Y330459D01*
X129720Y329498D01*
Y328502D01*
X129978Y327541D01*
X130476Y326679D01*
X131179Y325976D01*
X132041Y325478D01*
X133002Y325220D01*
X133998D01*
X134959Y325478D01*
X135821Y325976D01*
X136524Y326679D01*
X137022Y327541D01*
X137279Y328502D01*
Y329498D01*
X137022Y330459D01*
X136524Y331321D01*
X135821Y332024D01*
X134959Y332522D01*
X133998Y332780D01*
D02*
G37*
G36*
X301511Y329378D02*
X300489D01*
X299503Y329114D01*
X298619Y328603D01*
X297897Y327881D01*
X297386Y326997D01*
X297122Y326010D01*
Y324990D01*
X297386Y324003D01*
X297897Y323119D01*
X298619Y322397D01*
X299503Y321886D01*
X300489Y321622D01*
X301511D01*
X302497Y321886D01*
X303381Y322397D01*
X304103Y323119D01*
X304614Y324003D01*
X304878Y324990D01*
Y326010D01*
X304614Y326997D01*
X304103Y327881D01*
X303381Y328603D01*
X302497Y329114D01*
X301511Y329378D01*
D02*
G37*
G36*
X338500Y322867D02*
Y321000D01*
X340367D01*
X340016Y321847D01*
X339347Y322516D01*
X338500Y322867D01*
D02*
G37*
G36*
X337500D02*
X336653Y322516D01*
X335984Y321847D01*
X335633Y321000D01*
X337500D01*
Y322867D01*
D02*
G37*
G36*
X176481Y327907D02*
X175460D01*
X174474Y327643D01*
X173589Y327133D01*
X172867Y326411D01*
X172357Y325526D01*
X172092Y324540D01*
Y323519D01*
X172357Y322533D01*
X172867Y321648D01*
X173589Y320926D01*
X174474Y320416D01*
X175460Y320152D01*
X176481D01*
X177467Y320416D01*
X178352Y320926D01*
X179074Y321648D01*
X179584Y322533D01*
X179848Y323519D01*
Y324540D01*
X179584Y325526D01*
X179074Y326411D01*
X178352Y327133D01*
X177467Y327643D01*
X176481Y327907D01*
D02*
G37*
G36*
X340367Y320000D02*
X338500D01*
Y318133D01*
X339347Y318484D01*
X340016Y319153D01*
X340367Y320000D01*
D02*
G37*
G36*
X337500D02*
X335633D01*
X335984Y319153D01*
X336653Y318484D01*
X337500Y318133D01*
Y320000D01*
D02*
G37*
G36*
X355498Y325279D02*
X354502D01*
X353541Y325022D01*
X352679Y324524D01*
X351976Y323821D01*
X351478Y322959D01*
X351220Y321998D01*
Y321002D01*
X351478Y320041D01*
X351976Y319179D01*
X352679Y318476D01*
X353541Y317978D01*
X354502Y317721D01*
X355498D01*
X356459Y317978D01*
X357321Y318476D01*
X358024Y319179D01*
X358522Y320041D01*
X358780Y321002D01*
Y321998D01*
X358522Y322959D01*
X358024Y323821D01*
X357321Y324524D01*
X356459Y325022D01*
X355498Y325279D01*
D02*
G37*
G36*
X89718Y357953D02*
X88282D01*
X86895Y357581D01*
X85652Y356863D01*
X84637Y355848D01*
X83919Y354605D01*
X83547Y353218D01*
Y351782D01*
X83919Y350395D01*
X84637Y349152D01*
X85652Y348137D01*
X86322Y347750D01*
Y347250D01*
X85652Y346863D01*
X84637Y345848D01*
X83919Y344605D01*
X83547Y343218D01*
Y341782D01*
X83919Y340395D01*
X84637Y339152D01*
X85652Y338137D01*
X86322Y337750D01*
Y337250D01*
X85652Y336863D01*
X84637Y335848D01*
X83919Y334605D01*
X83547Y333218D01*
Y331782D01*
X83919Y330395D01*
X84637Y329152D01*
X85336Y328453D01*
X85129Y327953D01*
X83547D01*
Y317047D01*
X94453D01*
Y327953D01*
X92871D01*
X92664Y328453D01*
X93363Y329152D01*
X94081Y330395D01*
X94453Y331782D01*
Y333218D01*
X94081Y334605D01*
X93363Y335848D01*
X92348Y336863D01*
X91678Y337250D01*
Y337750D01*
X92348Y338137D01*
X93363Y339152D01*
X94081Y340395D01*
X94453Y341782D01*
Y343218D01*
X94081Y344605D01*
X93363Y345848D01*
X92348Y346863D01*
X91678Y347250D01*
Y347750D01*
X92348Y348137D01*
X93363Y349152D01*
X94081Y350395D01*
X94453Y351782D01*
Y353218D01*
X94081Y354605D01*
X93363Y355848D01*
X92348Y356863D01*
X91105Y357581D01*
X89718Y357953D01*
D02*
G37*
G36*
X188498Y309780D02*
X187502D01*
X186541Y309522D01*
X185679Y309024D01*
X185500Y308845D01*
X185321Y309024D01*
X184459Y309522D01*
X183498Y309780D01*
X182502D01*
X181541Y309522D01*
X180679Y309024D01*
X179976Y308321D01*
X179478Y307459D01*
X179220Y306498D01*
Y305502D01*
X179478Y304541D01*
X179976Y303679D01*
X180679Y302976D01*
X181541Y302478D01*
X182502Y302221D01*
X183498D01*
X184459Y302478D01*
X185321Y302976D01*
X185500Y303155D01*
X185679Y302976D01*
X186541Y302478D01*
X187502Y302221D01*
X188498D01*
X189459Y302478D01*
X190321Y302976D01*
X191024Y303679D01*
X191522Y304541D01*
X191779Y305502D01*
Y306498D01*
X191522Y307459D01*
X191024Y308321D01*
X190321Y309024D01*
X189459Y309522D01*
X188498Y309780D01*
D02*
G37*
G36*
X136500Y298367D02*
Y296500D01*
X138367D01*
X138016Y297347D01*
X137347Y298016D01*
X136500Y298367D01*
D02*
G37*
G36*
X135500D02*
X134653Y298016D01*
X133984Y297347D01*
X133633Y296500D01*
X135500D01*
Y298367D01*
D02*
G37*
G36*
X169500Y296367D02*
Y294500D01*
X171367D01*
X171016Y295347D01*
X170347Y296016D01*
X169500Y296367D01*
D02*
G37*
G36*
X168500D02*
X167653Y296016D01*
X166984Y295347D01*
X166633Y294500D01*
X168500D01*
Y296367D01*
D02*
G37*
G36*
X217623Y295389D02*
X216628D01*
X215667Y295131D01*
X214805Y294634D01*
X214119Y293948D01*
X213433Y294634D01*
X212571Y295131D01*
X211610Y295389D01*
X210614D01*
X209653Y295131D01*
X208791Y294634D01*
X208105Y293948D01*
X207419Y294634D01*
X206557Y295131D01*
X205596Y295389D01*
X204601D01*
X203640Y295131D01*
X202778Y294634D01*
X202092Y293948D01*
X201406Y294634D01*
X200544Y295131D01*
X199583Y295389D01*
X198588D01*
X197626Y295131D01*
X196765Y294634D01*
X196079Y293948D01*
X195393Y294634D01*
X194531Y295131D01*
X193570Y295389D01*
X192574D01*
X191613Y295131D01*
X190751Y294634D01*
X190048Y293930D01*
X189550Y293068D01*
X189292Y292107D01*
Y291112D01*
X189550Y290150D01*
X190048Y289289D01*
X190751Y288585D01*
X191613Y288087D01*
X192574Y287830D01*
X193570D01*
X194531Y288087D01*
X195393Y288585D01*
X196079Y289271D01*
X196765Y288585D01*
X197626Y288087D01*
X198588Y287830D01*
X199583D01*
X200544Y288087D01*
X201406Y288585D01*
X202092Y289271D01*
X202778Y288585D01*
X203640Y288087D01*
X204601Y287830D01*
X205596D01*
X206557Y288087D01*
X207419Y288585D01*
X208105Y289271D01*
X208791Y288585D01*
X209653Y288087D01*
X210614Y287830D01*
X211610D01*
X212571Y288087D01*
X213433Y288585D01*
X214119Y289271D01*
X214805Y288585D01*
X215667Y288087D01*
X216628Y287830D01*
X217623D01*
X218584Y288087D01*
X219446Y288585D01*
X220150Y289289D01*
X220647Y290150D01*
X220905Y291112D01*
Y292107D01*
X220647Y293068D01*
X220150Y293930D01*
X219446Y294634D01*
X218584Y295131D01*
X217623Y295389D01*
D02*
G37*
G36*
X138367Y295500D02*
X136500D01*
Y293633D01*
X137347Y293984D01*
X138016Y294653D01*
X138367Y295500D01*
D02*
G37*
G36*
X135500D02*
X133633D01*
X133984Y294653D01*
X134653Y293984D01*
X135500Y293633D01*
Y295500D01*
D02*
G37*
G36*
X171367Y293500D02*
X169500D01*
Y291633D01*
X170347Y291984D01*
X171016Y292653D01*
X171367Y293500D01*
D02*
G37*
G36*
X168500D02*
X166633D01*
X166984Y292653D01*
X167653Y291984D01*
X168500Y291633D01*
Y293500D01*
D02*
G37*
G36*
X89718Y314953D02*
X88282D01*
X86895Y314581D01*
X85652Y313863D01*
X84637Y312848D01*
X83919Y311605D01*
X83547Y310218D01*
Y308782D01*
X83919Y307395D01*
X84637Y306152D01*
X85652Y305137D01*
X86322Y304750D01*
Y304250D01*
X85652Y303863D01*
X84637Y302848D01*
X83919Y301605D01*
X83547Y300218D01*
Y298782D01*
X83919Y297395D01*
X84637Y296152D01*
X85336Y295453D01*
X85129Y294953D01*
X83547D01*
Y284047D01*
X94453D01*
Y294953D01*
X92871D01*
X92664Y295453D01*
X93363Y296152D01*
X94081Y297395D01*
X94453Y298782D01*
Y300218D01*
X94081Y301605D01*
X93363Y302848D01*
X92348Y303863D01*
X91678Y304250D01*
Y304750D01*
X92348Y305137D01*
X93363Y306152D01*
X94081Y307395D01*
X94453Y308782D01*
Y310218D01*
X94081Y311605D01*
X93363Y312848D01*
X92348Y313863D01*
X91105Y314581D01*
X89718Y314953D01*
D02*
G37*
G36*
X260576Y293847D02*
X259424D01*
X258295Y293622D01*
X257231Y293181D01*
X256273Y292541D01*
X255459Y291727D01*
X254819Y290769D01*
X254378Y289705D01*
X254153Y288576D01*
Y287424D01*
X254378Y286295D01*
X254819Y285231D01*
X255459Y284273D01*
X256273Y283459D01*
X257231Y282819D01*
X258295Y282378D01*
X259424Y282154D01*
X260576D01*
X261705Y282378D01*
X262769Y282819D01*
X263727Y283459D01*
X264541Y284273D01*
X265181Y285231D01*
X265622Y286295D01*
X265846Y287424D01*
Y288576D01*
X265622Y289705D01*
X265181Y290769D01*
X264541Y291727D01*
X263727Y292541D01*
X262769Y293181D01*
X261705Y293622D01*
X260576Y293847D01*
D02*
G37*
G36*
X246796D02*
X245645D01*
X244515Y293622D01*
X243451Y293181D01*
X242494Y292541D01*
X241679Y291727D01*
X241039Y290769D01*
X240599Y289705D01*
X240374Y288576D01*
Y287424D01*
X240599Y286295D01*
X241039Y285231D01*
X241679Y284273D01*
X242494Y283459D01*
X243451Y282819D01*
X244515Y282378D01*
X245645Y282154D01*
X246796D01*
X247926Y282378D01*
X248990Y282819D01*
X249947Y283459D01*
X250762Y284273D01*
X251401Y285231D01*
X251842Y286295D01*
X252067Y287424D01*
Y288576D01*
X251842Y289705D01*
X251401Y290769D01*
X250762Y291727D01*
X249947Y292541D01*
X248990Y293181D01*
X247926Y293622D01*
X246796Y293847D01*
D02*
G37*
G36*
X286340Y298406D02*
X284684D01*
X283060Y298082D01*
X281530Y297449D01*
X280154Y296529D01*
X278983Y295358D01*
X278063Y293982D01*
X277429Y292452D01*
X277106Y290828D01*
Y289172D01*
X277429Y287548D01*
X278063Y286018D01*
X278983Y284642D01*
X280154Y283471D01*
X281530Y282551D01*
X283060Y281918D01*
X284684Y281594D01*
X286340D01*
X287964Y281918D01*
X289493Y282551D01*
X290870Y283471D01*
X292041Y284642D01*
X292961Y286018D01*
X293594Y287548D01*
X293917Y289172D01*
Y290828D01*
X293594Y292452D01*
X292961Y293982D01*
X292041Y295358D01*
X290870Y296529D01*
X289493Y297449D01*
X287964Y298082D01*
X286340Y298406D01*
D02*
G37*
G36*
X125498Y288779D02*
X124502D01*
X123541Y288522D01*
X122679Y288024D01*
X121976Y287321D01*
X121478Y286459D01*
X121221Y285498D01*
Y284502D01*
X121478Y283541D01*
X121976Y282679D01*
X122679Y281976D01*
X123541Y281478D01*
X124502Y281221D01*
X125498D01*
X126459Y281478D01*
X127321Y281976D01*
X128024Y282679D01*
X128522Y283541D01*
X128779Y284502D01*
Y285498D01*
X128522Y286459D01*
X128024Y287321D01*
X127321Y288024D01*
X126459Y288522D01*
X125498Y288779D01*
D02*
G37*
G36*
X217572Y275816D02*
Y274163D01*
X219226D01*
X218921Y274898D01*
X218307Y275512D01*
X217572Y275816D01*
D02*
G37*
G36*
X216572D02*
X215837Y275512D01*
X215223Y274898D01*
X214918Y274163D01*
X216572D01*
Y275816D01*
D02*
G37*
G36*
X211572D02*
Y274163D01*
X213226D01*
X212921Y274898D01*
X212308Y275512D01*
X211572Y275816D01*
D02*
G37*
G36*
X210572D02*
X209837Y275512D01*
X209223Y274898D01*
X208918Y274163D01*
X210572D01*
Y275816D01*
D02*
G37*
G36*
X205572D02*
Y274163D01*
X207226D01*
X206921Y274898D01*
X206308Y275512D01*
X205572Y275816D01*
D02*
G37*
G36*
X204572D02*
X203836Y275512D01*
X203223Y274898D01*
X202918Y274163D01*
X204572D01*
Y275816D01*
D02*
G37*
G36*
X199572D02*
Y274163D01*
X201226D01*
X200921Y274898D01*
X200307Y275512D01*
X199572Y275816D01*
D02*
G37*
G36*
X198572D02*
X197836Y275512D01*
X197223Y274898D01*
X196918Y274163D01*
X198572D01*
Y275816D01*
D02*
G37*
G36*
X193572D02*
Y274163D01*
X195226D01*
X194921Y274898D01*
X194307Y275512D01*
X193572Y275816D01*
D02*
G37*
G36*
X192572D02*
X191837Y275512D01*
X191223Y274898D01*
X190918Y274163D01*
X192572D01*
Y275816D01*
D02*
G37*
G36*
X219226Y273163D02*
X217572D01*
Y271509D01*
X218307Y271814D01*
X218921Y272427D01*
X219226Y273163D01*
D02*
G37*
G36*
X216572D02*
X214918D01*
X215223Y272427D01*
X215837Y271814D01*
X216572Y271509D01*
Y273163D01*
D02*
G37*
G36*
X213226D02*
X211572D01*
Y271509D01*
X212308Y271814D01*
X212921Y272427D01*
X213226Y273163D01*
D02*
G37*
G36*
X210572D02*
X208918D01*
X209223Y272427D01*
X209837Y271814D01*
X210572Y271509D01*
Y273163D01*
D02*
G37*
G36*
X207226D02*
X205572D01*
Y271509D01*
X206308Y271814D01*
X206921Y272427D01*
X207226Y273163D01*
D02*
G37*
G36*
X204572D02*
X202918D01*
X203223Y272427D01*
X203836Y271814D01*
X204572Y271509D01*
Y273163D01*
D02*
G37*
G36*
X201226D02*
X199572D01*
Y271509D01*
X200307Y271814D01*
X200921Y272427D01*
X201226Y273163D01*
D02*
G37*
G36*
X198572D02*
X196918D01*
X197223Y272427D01*
X197836Y271814D01*
X198572Y271509D01*
Y273163D01*
D02*
G37*
G36*
X195226D02*
X193572D01*
Y271509D01*
X194307Y271814D01*
X194921Y272427D01*
X195226Y273163D01*
D02*
G37*
G36*
X192572D02*
X190918D01*
X191223Y272427D01*
X191837Y271814D01*
X192572Y271509D01*
Y273163D01*
D02*
G37*
G36*
X305485Y272181D02*
X304515D01*
X303579Y271930D01*
X302740Y271446D01*
X302337Y271042D01*
X302000Y270799D01*
X301663Y271042D01*
X301260Y271446D01*
X300421Y271930D01*
X299485Y272181D01*
X298515D01*
X297579Y271930D01*
X296740Y271446D01*
X296337Y271042D01*
X296000Y270799D01*
X295663Y271042D01*
X295260Y271446D01*
X294421Y271930D01*
X293485Y272181D01*
X292515D01*
X291579Y271930D01*
X290740Y271446D01*
X290054Y270760D01*
X289570Y269921D01*
X289319Y268985D01*
Y268015D01*
X289570Y267079D01*
X290054Y266240D01*
X290294Y266000D01*
X290054Y265760D01*
X289570Y264921D01*
X289319Y263985D01*
Y263015D01*
X289570Y262079D01*
X290054Y261240D01*
X290294Y261000D01*
X290054Y260760D01*
X289570Y259921D01*
X289319Y258985D01*
Y258015D01*
X289570Y257079D01*
X290054Y256240D01*
X290740Y255554D01*
X291579Y255070D01*
X292515Y254819D01*
X293485D01*
X294421Y255070D01*
X295260Y255554D01*
X295663Y255958D01*
X296000Y256201D01*
X296337Y255958D01*
X296740Y255554D01*
X297579Y255070D01*
X298515Y254819D01*
X299485D01*
X300421Y255070D01*
X301260Y255554D01*
X301663Y255958D01*
X302000Y256201D01*
X302337Y255958D01*
X302740Y255554D01*
X303579Y255070D01*
X304515Y254819D01*
X305485D01*
X306421Y255070D01*
X307260Y255554D01*
X307946Y256240D01*
X308430Y257079D01*
X308681Y258015D01*
Y258985D01*
X308430Y259921D01*
X307946Y260760D01*
X307706Y261000D01*
X307946Y261240D01*
X308430Y262079D01*
X308681Y263015D01*
Y263985D01*
X308430Y264921D01*
X307946Y265760D01*
X307706Y266000D01*
X307946Y266240D01*
X308430Y267079D01*
X308681Y268015D01*
Y268985D01*
X308430Y269921D01*
X307946Y270760D01*
X307260Y271446D01*
X306421Y271930D01*
X305485Y272181D01*
D02*
G37*
G36*
X217572Y270816D02*
Y269163D01*
X219226D01*
X218921Y269898D01*
X218307Y270512D01*
X217572Y270816D01*
D02*
G37*
G36*
X216572D02*
X215837Y270512D01*
X215223Y269898D01*
X214918Y269163D01*
X216572D01*
Y270816D01*
D02*
G37*
G36*
X211572D02*
Y269163D01*
X213226D01*
X212921Y269898D01*
X212308Y270512D01*
X211572Y270816D01*
D02*
G37*
G36*
X210572D02*
X209837Y270512D01*
X209223Y269898D01*
X208918Y269163D01*
X210572D01*
Y270816D01*
D02*
G37*
G36*
X205572D02*
Y269163D01*
X207226D01*
X206921Y269898D01*
X206308Y270512D01*
X205572Y270816D01*
D02*
G37*
G36*
X204572D02*
X203836Y270512D01*
X203223Y269898D01*
X202918Y269163D01*
X204572D01*
Y270816D01*
D02*
G37*
G36*
X199572D02*
Y269163D01*
X201226D01*
X200921Y269898D01*
X200307Y270512D01*
X199572Y270816D01*
D02*
G37*
G36*
X198572D02*
X197836Y270512D01*
X197223Y269898D01*
X196918Y269163D01*
X198572D01*
Y270816D01*
D02*
G37*
G36*
X193572D02*
Y269163D01*
X195226D01*
X194921Y269898D01*
X194307Y270512D01*
X193572Y270816D01*
D02*
G37*
G36*
X192572D02*
X191837Y270512D01*
X191223Y269898D01*
X190918Y269163D01*
X192572D01*
Y270816D01*
D02*
G37*
G36*
X219226Y268163D02*
X217572D01*
Y266509D01*
X218307Y266814D01*
X218921Y267427D01*
X219226Y268163D01*
D02*
G37*
G36*
X216572D02*
X214918D01*
X215223Y267427D01*
X215837Y266814D01*
X216572Y266509D01*
Y268163D01*
D02*
G37*
G36*
X213226D02*
X211572D01*
Y266509D01*
X212308Y266814D01*
X212921Y267427D01*
X213226Y268163D01*
D02*
G37*
G36*
X210572D02*
X208918D01*
X209223Y267427D01*
X209837Y266814D01*
X210572Y266509D01*
Y268163D01*
D02*
G37*
G36*
X207226D02*
X205572D01*
Y266509D01*
X206308Y266814D01*
X206921Y267427D01*
X207226Y268163D01*
D02*
G37*
G36*
X204572D02*
X202918D01*
X203223Y267427D01*
X203836Y266814D01*
X204572Y266509D01*
Y268163D01*
D02*
G37*
G36*
X201226D02*
X199572D01*
Y266509D01*
X200307Y266814D01*
X200921Y267427D01*
X201226Y268163D01*
D02*
G37*
G36*
X198572D02*
X196918D01*
X197223Y267427D01*
X197836Y266814D01*
X198572Y266509D01*
Y268163D01*
D02*
G37*
G36*
X195226D02*
X193572D01*
Y266509D01*
X194307Y266814D01*
X194921Y267427D01*
X195226Y268163D01*
D02*
G37*
G36*
X192572D02*
X190918D01*
X191223Y267427D01*
X191837Y266814D01*
X192572Y266509D01*
Y268163D01*
D02*
G37*
G36*
X217572Y265816D02*
Y264163D01*
X219226D01*
X218921Y264898D01*
X218307Y265512D01*
X217572Y265816D01*
D02*
G37*
G36*
X216572D02*
X215837Y265512D01*
X215223Y264898D01*
X214918Y264163D01*
X216572D01*
Y265816D01*
D02*
G37*
G36*
X211572D02*
Y264163D01*
X213226D01*
X212921Y264898D01*
X212308Y265512D01*
X211572Y265816D01*
D02*
G37*
G36*
X210572D02*
X209837Y265512D01*
X209223Y264898D01*
X208918Y264163D01*
X210572D01*
Y265816D01*
D02*
G37*
G36*
X205572D02*
Y264163D01*
X207226D01*
X206921Y264898D01*
X206308Y265512D01*
X205572Y265816D01*
D02*
G37*
G36*
X204572D02*
X203836Y265512D01*
X203223Y264898D01*
X202918Y264163D01*
X204572D01*
Y265816D01*
D02*
G37*
G36*
X199572D02*
Y264163D01*
X201226D01*
X200921Y264898D01*
X200307Y265512D01*
X199572Y265816D01*
D02*
G37*
G36*
X198572D02*
X197836Y265512D01*
X197223Y264898D01*
X196918Y264163D01*
X198572D01*
Y265816D01*
D02*
G37*
G36*
X193572D02*
Y264163D01*
X195226D01*
X194921Y264898D01*
X194307Y265512D01*
X193572Y265816D01*
D02*
G37*
G36*
X192572D02*
X191837Y265512D01*
X191223Y264898D01*
X190918Y264163D01*
X192572D01*
Y265816D01*
D02*
G37*
G36*
X152498Y277780D02*
X151502D01*
X150541Y277522D01*
X149679Y277024D01*
X148976Y276321D01*
X148478Y275459D01*
X148221Y274498D01*
Y273502D01*
X148478Y272541D01*
X148976Y271679D01*
X149679Y270976D01*
X150541Y270478D01*
X151420Y270243D01*
X151221Y269498D01*
Y268502D01*
X151478Y267541D01*
X151976Y266679D01*
X152679Y265976D01*
X153541Y265478D01*
X153621Y265457D01*
X153750Y264974D01*
X153568Y264791D01*
X153240Y264000D01*
X157760D01*
X157432Y264791D01*
X157007Y265217D01*
X157056Y265823D01*
X157321Y265976D01*
X158024Y266679D01*
X158522Y267541D01*
X158780Y268502D01*
Y269498D01*
X158522Y270459D01*
X158024Y271321D01*
X157321Y272024D01*
X156459Y272522D01*
X155580Y272758D01*
X155780Y273502D01*
Y274498D01*
X155522Y275459D01*
X155024Y276321D01*
X154321Y277024D01*
X153459Y277522D01*
X152498Y277780D01*
D02*
G37*
G36*
X219226Y263163D02*
X217572D01*
Y261509D01*
X218307Y261814D01*
X218921Y262427D01*
X219226Y263163D01*
D02*
G37*
G36*
X216572D02*
X214918D01*
X215223Y262427D01*
X215837Y261814D01*
X216572Y261509D01*
Y263163D01*
D02*
G37*
G36*
X213226D02*
X211572D01*
Y261509D01*
X212308Y261814D01*
X212921Y262427D01*
X213226Y263163D01*
D02*
G37*
G36*
X210572D02*
X208918D01*
X209223Y262427D01*
X209837Y261814D01*
X210572Y261509D01*
Y263163D01*
D02*
G37*
G36*
X207226D02*
X205572D01*
Y261509D01*
X206308Y261814D01*
X206921Y262427D01*
X207226Y263163D01*
D02*
G37*
G36*
X204572D02*
X202918D01*
X203223Y262427D01*
X203836Y261814D01*
X204572Y261509D01*
Y263163D01*
D02*
G37*
G36*
X201226D02*
X199572D01*
Y261509D01*
X200307Y261814D01*
X200921Y262427D01*
X201226Y263163D01*
D02*
G37*
G36*
X198572D02*
X196918D01*
X197223Y262427D01*
X197836Y261814D01*
X198572Y261509D01*
Y263163D01*
D02*
G37*
G36*
X195226D02*
X193572D01*
Y261509D01*
X194307Y261814D01*
X194921Y262427D01*
X195226Y263163D01*
D02*
G37*
G36*
X192572D02*
X190918D01*
X191223Y262427D01*
X191837Y261814D01*
X192572Y261509D01*
Y263163D01*
D02*
G37*
G36*
X157760Y263000D02*
X156000D01*
Y261240D01*
X156791Y261567D01*
X157432Y262209D01*
X157760Y263000D01*
D02*
G37*
G36*
X155000D02*
X153240D01*
X153568Y262209D01*
X154209Y261567D01*
X155000Y261240D01*
Y263000D01*
D02*
G37*
G36*
X89718Y281953D02*
X88282D01*
X86895Y281581D01*
X85652Y280863D01*
X84637Y279848D01*
X83919Y278605D01*
X83547Y277218D01*
Y275782D01*
X83919Y274395D01*
X84637Y273152D01*
X85336Y272453D01*
X85129Y271953D01*
X83547D01*
Y261047D01*
X94453D01*
Y271953D01*
X92871D01*
X92664Y272453D01*
X93363Y273152D01*
X94081Y274395D01*
X94453Y275782D01*
Y277218D01*
X94081Y278605D01*
X93363Y279848D01*
X92348Y280863D01*
X91105Y281581D01*
X89718Y281953D01*
D02*
G37*
G36*
X134998Y256279D02*
X134002D01*
X133041Y256022D01*
X132179Y255524D01*
X131556Y254901D01*
X131250Y254855D01*
X130944Y254901D01*
X130321Y255524D01*
X129459Y256022D01*
X128498Y256279D01*
X127502D01*
X126541Y256022D01*
X125679Y255524D01*
X124976Y254821D01*
X124478Y253959D01*
X124221Y252998D01*
Y252002D01*
X124478Y251041D01*
X124976Y250179D01*
X125679Y249476D01*
X126541Y248978D01*
X127280Y248780D01*
X127478Y248041D01*
X127976Y247179D01*
X128679Y246476D01*
X129541Y245978D01*
X130502Y245721D01*
X131498D01*
X132459Y245978D01*
X133321Y246476D01*
X134024Y247179D01*
X134522Y248041D01*
X134704Y248721D01*
X134998D01*
X135959Y248978D01*
X136821Y249476D01*
X137524Y250179D01*
X138022Y251041D01*
X138279Y252002D01*
Y252998D01*
X138022Y253959D01*
X137524Y254821D01*
X136821Y255524D01*
X135959Y256022D01*
X134998Y256279D01*
D02*
G37*
G36*
X168498Y262280D02*
X167502D01*
X166541Y262022D01*
X165679Y261524D01*
X164976Y260821D01*
X164478Y259959D01*
X164220Y258998D01*
Y258002D01*
X164478Y257041D01*
X164976Y256179D01*
X165679Y255476D01*
X166541Y254978D01*
X167502Y254720D01*
X168498D01*
X169459Y254978D01*
X170321Y255476D01*
X171024Y256179D01*
X171522Y257041D01*
X171780Y258002D01*
Y258998D01*
X171522Y259959D01*
X171024Y260821D01*
X170321Y261524D01*
X169459Y262022D01*
X168498Y262280D01*
D02*
G37*
G36*
X114998D02*
X114002D01*
X113041Y262022D01*
X112179Y261524D01*
X111476Y260821D01*
X110978Y259959D01*
X110721Y258998D01*
Y258780D01*
X110002D01*
X109041Y258522D01*
X108179Y258024D01*
X107476Y257321D01*
X106978Y256459D01*
X106720Y255498D01*
Y254502D01*
X106978Y253541D01*
X107476Y252679D01*
X108179Y251976D01*
X109041Y251478D01*
X110002Y251220D01*
X110998D01*
X111959Y251478D01*
X112821Y251976D01*
X113524Y252679D01*
X114022Y253541D01*
X114279Y254502D01*
Y254720D01*
X114998D01*
X115959Y254978D01*
X116821Y255476D01*
X117524Y256179D01*
X118022Y257041D01*
X118280Y258002D01*
Y258998D01*
X118022Y259959D01*
X117524Y260821D01*
X116821Y261524D01*
X115959Y262022D01*
X114998Y262280D01*
D02*
G37*
G36*
X270551Y252272D02*
X269556D01*
X268595Y252014D01*
X267733Y251517D01*
X267029Y250813D01*
X266804Y250422D01*
X266303D01*
X266078Y250813D01*
X265374Y251517D01*
X264512Y252014D01*
X263551Y252272D01*
X262556D01*
X261595Y252014D01*
X260733Y251517D01*
X260029Y250813D01*
X259797Y250410D01*
X259219D01*
X258987Y250813D01*
X258283Y251517D01*
X257421Y252014D01*
X256460Y252272D01*
X255465D01*
X254503Y252014D01*
X253642Y251517D01*
X252938Y250813D01*
X252440Y249951D01*
X252183Y248990D01*
Y247995D01*
X252440Y247034D01*
X252938Y246172D01*
X253642Y245468D01*
X254503Y244970D01*
X255465Y244713D01*
X256460D01*
X257421Y244970D01*
X258283Y245468D01*
X258987Y246172D01*
X259219Y246574D01*
X259797D01*
X260029Y246172D01*
X260733Y245468D01*
X261595Y244970D01*
X262556Y244713D01*
X263551D01*
X264512Y244970D01*
X265374Y245468D01*
X266078Y246172D01*
X266303Y246563D01*
X266804D01*
X267029Y246172D01*
X267733Y245468D01*
X268595Y244970D01*
X269556Y244713D01*
X270551D01*
X271512Y244970D01*
X272374Y245468D01*
X273078Y246172D01*
X273575Y247034D01*
X273833Y247995D01*
Y248990D01*
X273575Y249951D01*
X273078Y250813D01*
X272374Y251517D01*
X271512Y252014D01*
X270551Y252272D01*
D02*
G37*
G36*
X99500Y241260D02*
Y239500D01*
X101260D01*
X100933Y240291D01*
X100291Y240932D01*
X99500Y241260D01*
D02*
G37*
G36*
X98500D02*
X97709Y240932D01*
X97067Y240291D01*
X96740Y239500D01*
X98500D01*
Y241260D01*
D02*
G37*
G36*
X89718Y258953D02*
X88282D01*
X86895Y258581D01*
X85652Y257863D01*
X84637Y256848D01*
X83919Y255605D01*
X83547Y254218D01*
Y252782D01*
X83919Y251395D01*
X84637Y250152D01*
X85336Y249453D01*
X85129Y248953D01*
X83547D01*
Y238047D01*
X94453D01*
Y248953D01*
X92871D01*
X92664Y249453D01*
X93363Y250152D01*
X94081Y251395D01*
X94453Y252782D01*
Y254218D01*
X94081Y255605D01*
X93363Y256848D01*
X92348Y257863D01*
X91105Y258581D01*
X89718Y258953D01*
D02*
G37*
G36*
X101260Y238500D02*
X99500D01*
Y236740D01*
X100291Y237068D01*
X100933Y237709D01*
X101260Y238500D01*
D02*
G37*
G36*
X98500D02*
X96740D01*
X97067Y237709D01*
X97709Y237068D01*
X98500Y236740D01*
Y238500D01*
D02*
G37*
G36*
X140128Y242409D02*
X139132D01*
X138171Y242152D01*
X137309Y241654D01*
X136606Y240951D01*
X136108Y240089D01*
X135851Y239128D01*
Y238132D01*
X136108Y237171D01*
X136606Y236309D01*
X137309Y235606D01*
X138171Y235108D01*
X139132Y234851D01*
X140128D01*
X141089Y235108D01*
X141951Y235606D01*
X142654Y236309D01*
X143152Y237171D01*
X143410Y238132D01*
Y239128D01*
X143152Y240089D01*
X142654Y240951D01*
X141951Y241654D01*
X141089Y242152D01*
X140128Y242409D01*
D02*
G37*
G36*
X166498Y251780D02*
X165502D01*
X164541Y251522D01*
X163679Y251024D01*
X162976Y250321D01*
X162478Y249459D01*
X162221Y248498D01*
Y247502D01*
X162478Y246541D01*
X162976Y245679D01*
X163155Y245500D01*
X162976Y245321D01*
X162478Y244459D01*
X162221Y243498D01*
Y242502D01*
X162478Y241541D01*
X162976Y240679D01*
X163679Y239976D01*
X164541Y239478D01*
X165502Y239220D01*
X165716D01*
X165782Y238720D01*
X165041Y238522D01*
X164179Y238024D01*
X163476Y237321D01*
X162978Y236459D01*
X162721Y235498D01*
Y234502D01*
X162978Y233541D01*
X163476Y232679D01*
X164179Y231976D01*
X165041Y231478D01*
X166002Y231221D01*
X166998D01*
X167959Y231478D01*
X168821Y231976D01*
X169524Y232679D01*
X170022Y233541D01*
X170280Y234502D01*
Y235498D01*
X170022Y236459D01*
X169524Y237321D01*
X168821Y238024D01*
X167959Y238522D01*
X166998Y238779D01*
X166784D01*
X166718Y239280D01*
X167459Y239478D01*
X168321Y239976D01*
X169024Y240679D01*
X169522Y241541D01*
X169780Y242502D01*
Y243498D01*
X169522Y244459D01*
X169024Y245321D01*
X168845Y245500D01*
X169024Y245679D01*
X169522Y246541D01*
X169780Y247502D01*
Y248498D01*
X169522Y249459D01*
X169024Y250321D01*
X168321Y251024D01*
X167459Y251522D01*
X166498Y251780D01*
D02*
G37*
G36*
X137511Y233878D02*
X136489D01*
X135503Y233614D01*
X134619Y233103D01*
X133897Y232381D01*
X133386Y231497D01*
X133122Y230510D01*
Y229489D01*
X133386Y228503D01*
X133897Y227619D01*
X134619Y226897D01*
X135503Y226386D01*
X136489Y226122D01*
X137511D01*
X138497Y226386D01*
X139381Y226897D01*
X140103Y227619D01*
X140614Y228503D01*
X140878Y229489D01*
Y230510D01*
X140614Y231497D01*
X140103Y232381D01*
X139381Y233103D01*
X138497Y233614D01*
X137511Y233878D01*
D02*
G37*
G36*
X107498Y233279D02*
X106502D01*
X105541Y233022D01*
X104679Y232524D01*
X103976Y231821D01*
X103478Y230959D01*
X103220Y229998D01*
Y229002D01*
X103478Y228041D01*
X103976Y227179D01*
X104679Y226476D01*
X105541Y225978D01*
X106502Y225721D01*
X107498D01*
X108459Y225978D01*
X109321Y226476D01*
X110024Y227179D01*
X110522Y228041D01*
X110780Y229002D01*
Y229998D01*
X110522Y230959D01*
X110024Y231821D01*
X109321Y232524D01*
X108459Y233022D01*
X107498Y233279D01*
D02*
G37*
G36*
X121304Y232567D02*
X120309D01*
X119348Y232309D01*
X118486Y231811D01*
X117782Y231108D01*
X117284Y230246D01*
X117027Y229285D01*
Y228290D01*
X117284Y227328D01*
X117782Y226466D01*
X118486Y225763D01*
X119348Y225265D01*
X120309Y225008D01*
X121304D01*
X122265Y225265D01*
X123127Y225763D01*
X123831Y226466D01*
X124328Y227328D01*
X124586Y228290D01*
Y229285D01*
X124328Y230246D01*
X123831Y231108D01*
X123127Y231811D01*
X122265Y232309D01*
X121304Y232567D01*
D02*
G37*
G36*
X196545Y225083D02*
X195472D01*
X194436Y224805D01*
X193506Y224269D01*
X193500Y224262D01*
X192573Y224797D01*
X191536Y225075D01*
X190463D01*
X189427Y224797D01*
X188498Y224261D01*
X187739Y223502D01*
X187203Y222573D01*
X186925Y221536D01*
Y220463D01*
X187203Y219427D01*
X187739Y218498D01*
X188498Y217739D01*
X189427Y217203D01*
X190463Y216925D01*
X191536D01*
X192573Y217203D01*
X193502Y217739D01*
X193509Y217746D01*
X194436Y217211D01*
X195472Y216934D01*
X196545D01*
X197581Y217211D01*
X198497Y217740D01*
X198498Y217739D01*
X199427Y217203D01*
X200464Y216925D01*
X201536D01*
X202573Y217203D01*
X203502Y217739D01*
X204261Y218498D01*
X204797Y219427D01*
X205075Y220463D01*
Y221536D01*
X204797Y222573D01*
X204261Y223502D01*
X203502Y224261D01*
X202573Y224797D01*
X201536Y225075D01*
X200464D01*
X199427Y224797D01*
X198511Y224268D01*
X198510Y224269D01*
X197581Y224805D01*
X196545Y225083D01*
D02*
G37*
G36*
X245718Y244453D02*
X244282D01*
X242895Y244081D01*
X241652Y243363D01*
X240637Y242348D01*
X239919Y241105D01*
X239547Y239718D01*
Y238282D01*
X239919Y236895D01*
X240637Y235652D01*
X241336Y234953D01*
X241129Y234453D01*
X239547D01*
Y223547D01*
X250453D01*
Y234453D01*
X248871D01*
X248664Y234953D01*
X249363Y235652D01*
X250081Y236895D01*
X250453Y238282D01*
Y239718D01*
X250081Y241105D01*
X249363Y242348D01*
X248348Y243363D01*
X247105Y244081D01*
X245718Y244453D01*
D02*
G37*
G36*
X232498Y221779D02*
X231502D01*
X230541Y221522D01*
X229679Y221024D01*
X229227Y220572D01*
X228886Y220373D01*
X228544Y220572D01*
X228092Y221024D01*
X227231Y221522D01*
X226269Y221779D01*
X225274D01*
X224313Y221522D01*
X223451Y221024D01*
X222747Y220321D01*
X222250Y219459D01*
X221992Y218498D01*
Y217502D01*
X222250Y216541D01*
X222747Y215679D01*
X223451Y214976D01*
X224313Y214478D01*
X225274Y214220D01*
X226269D01*
X227231Y214478D01*
X228092Y214976D01*
X228544Y215428D01*
X228886Y215627D01*
X229227Y215428D01*
X229679Y214976D01*
X230541Y214478D01*
X231502Y214220D01*
X232498D01*
X233459Y214478D01*
X234321Y214976D01*
X235024Y215679D01*
X235522Y216541D01*
X235780Y217502D01*
Y218498D01*
X235522Y219459D01*
X235024Y220321D01*
X234321Y221024D01*
X233459Y221522D01*
X232498Y221779D01*
D02*
G37*
G36*
X99500Y220760D02*
Y219000D01*
X101260D01*
X100933Y219791D01*
X100291Y220432D01*
X99500Y220760D01*
D02*
G37*
G36*
X98500D02*
X97709Y220432D01*
X97067Y219791D01*
X96740Y219000D01*
X98500D01*
Y220760D01*
D02*
G37*
G36*
X101260Y218000D02*
X99500D01*
Y216240D01*
X100291Y216567D01*
X100933Y217209D01*
X101260Y218000D01*
D02*
G37*
G36*
X98500D02*
X96740D01*
X97067Y217209D01*
X97709Y216567D01*
X98500Y216240D01*
Y218000D01*
D02*
G37*
G36*
X150511Y223378D02*
X149489D01*
X148503Y223114D01*
X147619Y222603D01*
X146897Y221881D01*
X146386Y220997D01*
X146122Y220010D01*
Y218989D01*
X146386Y218003D01*
X146897Y217119D01*
X147619Y216397D01*
X148503Y215886D01*
X149489Y215622D01*
X150511D01*
X151497Y215886D01*
X152381Y216397D01*
X153103Y217119D01*
X153614Y218003D01*
X153878Y218989D01*
Y220010D01*
X153614Y220997D01*
X153103Y221881D01*
X152381Y222603D01*
X151497Y223114D01*
X150511Y223378D01*
D02*
G37*
G36*
X89718Y235953D02*
X88282D01*
X86895Y235581D01*
X85652Y234863D01*
X84637Y233848D01*
X83919Y232605D01*
X83547Y231218D01*
Y229782D01*
X83919Y228395D01*
X84637Y227152D01*
X85336Y226453D01*
X85129Y225953D01*
X83547D01*
Y215047D01*
X94453D01*
Y225953D01*
X92871D01*
X92664Y226453D01*
X93363Y227152D01*
X94081Y228395D01*
X94453Y229782D01*
Y231218D01*
X94081Y232605D01*
X93363Y233848D01*
X92348Y234863D01*
X91105Y235581D01*
X89718Y235953D01*
D02*
G37*
G36*
X162500Y216867D02*
Y215000D01*
X164367D01*
X164016Y215847D01*
X163347Y216516D01*
X162500Y216867D01*
D02*
G37*
G36*
X161500D02*
X160653Y216516D01*
X159984Y215847D01*
X159633Y215000D01*
X161500D01*
Y216867D01*
D02*
G37*
G36*
X164367Y214000D02*
X162500D01*
Y212133D01*
X163347Y212484D01*
X164016Y213153D01*
X164367Y214000D01*
D02*
G37*
G36*
X161500D02*
X159633D01*
X159984Y213153D01*
X160653Y212484D01*
X161500Y212133D01*
Y214000D01*
D02*
G37*
G36*
X108998Y217280D02*
X108002D01*
X107041Y217022D01*
X106179Y216524D01*
X105476Y215821D01*
X104978Y214959D01*
X104720Y213998D01*
Y213002D01*
X104978Y212041D01*
X105476Y211179D01*
X106179Y210476D01*
X107041Y209978D01*
X108002Y209720D01*
X108998D01*
X109959Y209978D01*
X110821Y210476D01*
X111524Y211179D01*
X112022Y212041D01*
X112279Y213002D01*
Y213998D01*
X112022Y214959D01*
X111524Y215821D01*
X110821Y216524D01*
X109959Y217022D01*
X108998Y217280D01*
D02*
G37*
G36*
X301985Y207681D02*
X301015D01*
X300079Y207430D01*
X299240Y206946D01*
X298837Y206542D01*
X298500Y206299D01*
X298163Y206542D01*
X297760Y206946D01*
X296921Y207430D01*
X295985Y207681D01*
X295015D01*
X294079Y207430D01*
X293240Y206946D01*
X292837Y206542D01*
X292500Y206299D01*
X292163Y206542D01*
X291760Y206946D01*
X290921Y207430D01*
X289985Y207681D01*
X289015D01*
X288079Y207430D01*
X287240Y206946D01*
X286554Y206260D01*
X286070Y205421D01*
X285819Y204485D01*
Y203515D01*
X286070Y202579D01*
X286554Y201740D01*
X286794Y201500D01*
X286554Y201260D01*
X286070Y200421D01*
X285819Y199485D01*
Y198515D01*
X286070Y197579D01*
X286554Y196740D01*
X286794Y196500D01*
X286554Y196260D01*
X286070Y195421D01*
X285819Y194485D01*
Y193515D01*
X286070Y192579D01*
X286554Y191740D01*
X287240Y191054D01*
X288079Y190570D01*
X289015Y190319D01*
X289985D01*
X290921Y190570D01*
X291760Y191054D01*
X292163Y191457D01*
X292500Y191700D01*
X292837Y191457D01*
X293240Y191054D01*
X294079Y190570D01*
X295015Y190319D01*
X295985D01*
X296921Y190570D01*
X297760Y191054D01*
X298163Y191457D01*
X298500Y191700D01*
X298837Y191457D01*
X299240Y191054D01*
X300079Y190570D01*
X301015Y190319D01*
X301985D01*
X302921Y190570D01*
X303760Y191054D01*
X304446Y191740D01*
X304930Y192579D01*
X305181Y193515D01*
Y194485D01*
X304930Y195421D01*
X304446Y196260D01*
X304206Y196500D01*
X304446Y196740D01*
X304930Y197579D01*
X305181Y198515D01*
Y199485D01*
X304930Y200421D01*
X304446Y201260D01*
X304206Y201500D01*
X304446Y201740D01*
X304930Y202579D01*
X305181Y203515D01*
Y204485D01*
X304930Y205421D01*
X304446Y206260D01*
X303760Y206946D01*
X302921Y207430D01*
X301985Y207681D01*
D02*
G37*
G36*
X266218Y224953D02*
X264782D01*
X263395Y224581D01*
X262152Y223863D01*
X261137Y222848D01*
X260419Y221605D01*
X260047Y220218D01*
Y218782D01*
X260419Y217395D01*
X261137Y216152D01*
X261836Y215453D01*
X261629Y214953D01*
X260047D01*
Y204047D01*
X270953D01*
Y214953D01*
X269371D01*
X269164Y215453D01*
X269863Y216152D01*
X270581Y217395D01*
X270953Y218782D01*
Y220218D01*
X270581Y221605D01*
X269863Y222848D01*
X268848Y223863D01*
X267605Y224581D01*
X266218Y224953D01*
D02*
G37*
G36*
X149511Y207878D02*
X148489D01*
X147503Y207614D01*
X146619Y207103D01*
X145897Y206381D01*
X145386Y205497D01*
X145122Y204510D01*
Y203489D01*
X145386Y202503D01*
X145897Y201619D01*
X146619Y200897D01*
X147503Y200386D01*
X148489Y200122D01*
X149511D01*
X150497Y200386D01*
X151381Y200897D01*
X152103Y201619D01*
X152614Y202503D01*
X152878Y203489D01*
Y204510D01*
X152614Y205497D01*
X152103Y206381D01*
X151381Y207103D01*
X150497Y207614D01*
X149511Y207878D01*
D02*
G37*
G36*
X224794Y205862D02*
X223513D01*
X222277Y205531D01*
X221168Y204891D01*
X220263Y203986D01*
X219623Y202877D01*
X219291Y201640D01*
Y200360D01*
X219623Y199123D01*
X220263Y198014D01*
X221168Y197109D01*
X222277Y196469D01*
X223513Y196138D01*
X224794D01*
X226030Y196469D01*
X227139Y197109D01*
X228044Y198014D01*
X228684Y199123D01*
X229016Y200360D01*
Y201640D01*
X228684Y202877D01*
X228044Y203986D01*
X227139Y204891D01*
X226030Y205531D01*
X224794Y205862D01*
D02*
G37*
G36*
X181487D02*
X180206D01*
X178970Y205531D01*
X177861Y204891D01*
X176956Y203986D01*
X176316Y202877D01*
X175984Y201640D01*
Y200360D01*
X176316Y199123D01*
X176956Y198014D01*
X177861Y197109D01*
X178970Y196469D01*
X180206Y196138D01*
X181487D01*
X182723Y196469D01*
X183832Y197109D01*
X184737Y198014D01*
X185377Y199123D01*
X185709Y200360D01*
Y201640D01*
X185377Y202877D01*
X184737Y203986D01*
X183832Y204891D01*
X182723Y205531D01*
X181487Y205862D01*
D02*
G37*
G36*
X99425Y197552D02*
Y195791D01*
X101185D01*
X100858Y196583D01*
X100216Y197224D01*
X99425Y197552D01*
D02*
G37*
G36*
X98425D02*
X97634Y197224D01*
X96993Y196583D01*
X96665Y195791D01*
X98425D01*
Y197552D01*
D02*
G37*
G36*
X101185Y194791D02*
X99425D01*
Y193031D01*
X100216Y193359D01*
X100858Y194000D01*
X101185Y194791D01*
D02*
G37*
G36*
X98425D02*
X96665D01*
X96993Y194000D01*
X97634Y193359D01*
X98425Y193031D01*
Y194791D01*
D02*
G37*
G36*
X89718Y212953D02*
X88282D01*
X86895Y212581D01*
X85652Y211863D01*
X84637Y210848D01*
X83919Y209605D01*
X83547Y208218D01*
Y206782D01*
X83919Y205395D01*
X84637Y204152D01*
X85336Y203453D01*
X85129Y202953D01*
X83547D01*
Y192047D01*
X94453D01*
Y202953D01*
X92871D01*
X92664Y203453D01*
X93363Y204152D01*
X94081Y205395D01*
X94453Y206782D01*
Y208218D01*
X94081Y209605D01*
X93363Y210848D01*
X92348Y211863D01*
X91105Y212581D01*
X89718Y212953D01*
D02*
G37*
G36*
X224794Y190862D02*
X223513D01*
X222277Y190531D01*
X221168Y189891D01*
X220263Y188986D01*
X219623Y187877D01*
X219291Y186640D01*
Y185360D01*
X219623Y184123D01*
X220263Y183015D01*
X221168Y182109D01*
X222277Y181469D01*
X223513Y181138D01*
X224794D01*
X226030Y181469D01*
X227139Y182109D01*
X228044Y183015D01*
X228684Y184123D01*
X229016Y185360D01*
Y186640D01*
X228684Y187877D01*
X228044Y188986D01*
X227139Y189891D01*
X226030Y190531D01*
X224794Y190862D01*
D02*
G37*
G36*
X181487D02*
X180206D01*
X178970Y190531D01*
X177861Y189891D01*
X176956Y188986D01*
X176316Y187877D01*
X175984Y186640D01*
Y185360D01*
X176316Y184123D01*
X176956Y183015D01*
X177861Y182109D01*
X178970Y181469D01*
X180206Y181138D01*
X181487D01*
X182723Y181469D01*
X183832Y182109D01*
X184737Y183015D01*
X185377Y184123D01*
X185709Y185360D01*
Y186640D01*
X185377Y187877D01*
X184737Y188986D01*
X183832Y189891D01*
X182723Y190531D01*
X181487Y190862D01*
D02*
G37*
G36*
X247298Y180780D02*
X246302D01*
X245341Y180522D01*
X244479Y180024D01*
X244150Y179695D01*
X243821Y180024D01*
X242959Y180522D01*
X241998Y180780D01*
X241002D01*
X240041Y180522D01*
X239179Y180024D01*
X238850Y179695D01*
X238521Y180024D01*
X237659Y180522D01*
X236698Y180780D01*
X235702D01*
X234741Y180522D01*
X233879Y180024D01*
X233176Y179321D01*
X232678Y178459D01*
X232420Y177498D01*
Y176502D01*
X232678Y175541D01*
X233176Y174679D01*
X233879Y173976D01*
X234741Y173478D01*
X235702Y173221D01*
X236698D01*
X237659Y173478D01*
X238521Y173976D01*
X238850Y174305D01*
X239179Y173976D01*
X240041Y173478D01*
X241002Y173221D01*
X241998D01*
X242959Y173478D01*
X243821Y173976D01*
X244150Y174305D01*
X244479Y173976D01*
X245341Y173478D01*
X246302Y173221D01*
X247298D01*
X248259Y173478D01*
X249121Y173976D01*
X249824Y174679D01*
X250322Y175541D01*
X250580Y176502D01*
Y177498D01*
X250322Y178459D01*
X249824Y179321D01*
X249121Y180024D01*
X248259Y180522D01*
X247298Y180780D01*
D02*
G37*
G36*
X173011Y174878D02*
X171990D01*
X171003Y174614D01*
X170119Y174103D01*
X169397Y173381D01*
X168886Y172497D01*
X168622Y171511D01*
Y170490D01*
X168886Y169503D01*
X169397Y168619D01*
X170119Y167897D01*
X171003Y167386D01*
X171990Y167122D01*
X173011D01*
X173997Y167386D01*
X174881Y167897D01*
X175603Y168619D01*
X176114Y169503D01*
X176378Y170490D01*
Y171511D01*
X176114Y172497D01*
X175603Y173381D01*
X174881Y174103D01*
X173997Y174614D01*
X173011Y174878D01*
D02*
G37*
G36*
X109511Y169378D02*
X108490D01*
X107503Y169114D01*
X106619Y168603D01*
X105897Y167881D01*
X105386Y166997D01*
X105122Y166010D01*
Y164989D01*
X105386Y164003D01*
X105897Y163119D01*
X106619Y162397D01*
X107503Y161886D01*
X108490Y161622D01*
X109511D01*
X110497Y161886D01*
X111381Y162397D01*
X112103Y163119D01*
X112614Y164003D01*
X112878Y164989D01*
Y166010D01*
X112614Y166997D01*
X112103Y167881D01*
X111381Y168603D01*
X110497Y169114D01*
X109511Y169378D01*
D02*
G37*
G36*
X135562Y162271D02*
X134438D01*
X133351Y161980D01*
X132377Y161418D01*
X131582Y160623D01*
X131020Y159649D01*
X130728Y158562D01*
Y157438D01*
X131020Y156351D01*
X131582Y155377D01*
X132377Y154582D01*
X133351Y154020D01*
X134438Y153728D01*
X135562D01*
X136649Y154020D01*
X137623Y154582D01*
X138418Y155377D01*
X138980Y156351D01*
X139271Y157438D01*
Y158562D01*
X138980Y159649D01*
X138418Y160623D01*
X137623Y161418D01*
X136649Y161980D01*
X135562Y162271D01*
D02*
G37*
G36*
X125562D02*
X124438D01*
X123351Y161980D01*
X122377Y161418D01*
X121582Y160623D01*
X121020Y159649D01*
X120729Y158562D01*
Y157438D01*
X121020Y156351D01*
X121582Y155377D01*
X122377Y154582D01*
X123351Y154020D01*
X124438Y153728D01*
X125562D01*
X126649Y154020D01*
X127623Y154582D01*
X128418Y155377D01*
X128980Y156351D01*
X129271Y157438D01*
Y158562D01*
X128980Y159649D01*
X128418Y160623D01*
X127623Y161418D01*
X126649Y161980D01*
X125562Y162271D01*
D02*
G37*
G36*
X84000Y148867D02*
Y147000D01*
X85867D01*
X85516Y147847D01*
X84847Y148516D01*
X84000Y148867D01*
D02*
G37*
G36*
X83000D02*
X82153Y148516D01*
X81484Y147847D01*
X81133Y147000D01*
X83000D01*
Y148867D01*
D02*
G37*
G36*
X85867Y146000D02*
X84000D01*
Y144133D01*
X84847Y144484D01*
X85516Y145153D01*
X85867Y146000D01*
D02*
G37*
G36*
X83000D02*
X81133D01*
X81484Y145153D01*
X82153Y144484D01*
X83000Y144133D01*
Y146000D01*
D02*
G37*
G36*
X140562Y152271D02*
X139438D01*
X138351Y151980D01*
X137377Y151418D01*
X136582Y150623D01*
X136020Y149649D01*
X135729Y148562D01*
Y147438D01*
X136020Y146351D01*
X136582Y145377D01*
X137377Y144582D01*
X138351Y144020D01*
X139438Y143728D01*
X140562D01*
X141649Y144020D01*
X142623Y144582D01*
X143418Y145377D01*
X143980Y146351D01*
X144272Y147438D01*
Y148562D01*
X143980Y149649D01*
X143418Y150623D01*
X142623Y151418D01*
X141649Y151980D01*
X140562Y152271D01*
D02*
G37*
G36*
X130562D02*
X129438D01*
X128351Y151980D01*
X127377Y151418D01*
X126582Y150623D01*
X126020Y149649D01*
X125728Y148562D01*
Y147438D01*
X126020Y146351D01*
X126582Y145377D01*
X127377Y144582D01*
X128351Y144020D01*
X129438Y143728D01*
X130562D01*
X131649Y144020D01*
X132623Y144582D01*
X133418Y145377D01*
X133980Y146351D01*
X134272Y147438D01*
Y148562D01*
X133980Y149649D01*
X133418Y150623D01*
X132623Y151418D01*
X131649Y151980D01*
X130562Y152271D01*
D02*
G37*
G36*
X117112Y141258D02*
X115880D01*
X114673Y141018D01*
X113535Y140547D01*
X112512Y139863D01*
X111641Y138992D01*
X110957Y137969D01*
X110486Y136831D01*
X110246Y135624D01*
Y134392D01*
X110486Y133185D01*
X110957Y132047D01*
X111641Y131024D01*
X112512Y130153D01*
X113535Y129469D01*
X114673Y128998D01*
X115880Y128758D01*
X116717D01*
X116984Y128258D01*
X116505Y127541D01*
X115782Y125797D01*
X115414Y123944D01*
Y122056D01*
X115782Y120204D01*
X116505Y118459D01*
X117554Y116889D01*
X118889Y115554D01*
X120459Y114505D01*
X122204Y113782D01*
X124056Y113414D01*
X125945D01*
X127797Y113782D01*
X129541Y114505D01*
X131112Y115554D01*
X132447Y116889D01*
X133496Y118459D01*
X134219Y120204D01*
X134587Y122056D01*
Y123944D01*
X134219Y125797D01*
X133496Y127541D01*
X132447Y129111D01*
X131112Y130447D01*
X129541Y131496D01*
X127797Y132219D01*
X125945Y132587D01*
X124056D01*
X122686Y132314D01*
X122327Y132753D01*
X122506Y133185D01*
X122746Y134392D01*
Y135624D01*
X122506Y136831D01*
X122035Y137969D01*
X121351Y138992D01*
X120480Y139863D01*
X119457Y140547D01*
X118319Y141018D01*
X117112Y141258D01*
D02*
G37*
G36*
X131960Y111287D02*
X130836D01*
X129749Y110996D01*
X128775Y110434D01*
X127980Y109639D01*
X127418Y108665D01*
X127127Y107578D01*
Y106454D01*
X127418Y105367D01*
X127980Y104393D01*
X128775Y103598D01*
X129749Y103036D01*
X130836Y102744D01*
X131960D01*
X133047Y103036D01*
X134021Y103598D01*
X134816Y104393D01*
X135378Y105367D01*
X135670Y106454D01*
Y107578D01*
X135378Y108665D01*
X134816Y109639D01*
X134021Y110434D01*
X133047Y110996D01*
X131960Y111287D01*
D02*
G37*
G36*
X121960D02*
X120836D01*
X119749Y110996D01*
X118775Y110434D01*
X117980Y109639D01*
X117418Y108665D01*
X117127Y107578D01*
Y106454D01*
X117418Y105367D01*
X117980Y104393D01*
X118775Y103598D01*
X119749Y103036D01*
X120836Y102744D01*
X121960D01*
X123047Y103036D01*
X124021Y103598D01*
X124816Y104393D01*
X125378Y105367D01*
X125670Y106454D01*
Y107578D01*
X125378Y108665D01*
X124816Y109639D01*
X124021Y110434D01*
X123047Y110996D01*
X121960Y111287D01*
D02*
G37*
G36*
X92394Y124858D02*
X90606D01*
X88840Y124579D01*
X87140Y124026D01*
X85547Y123214D01*
X84101Y122164D01*
X82836Y120899D01*
X81786Y119453D01*
X80974Y117860D01*
X80421Y116160D01*
X80142Y114394D01*
Y112606D01*
X80421Y110840D01*
X80974Y109140D01*
X81786Y107547D01*
X82836Y106101D01*
X84101Y104836D01*
X85547Y103786D01*
X87140Y102974D01*
X88840Y102421D01*
X90606Y102142D01*
X92394D01*
X94160Y102421D01*
X95860Y102974D01*
X97453Y103786D01*
X98899Y104836D01*
X100164Y106101D01*
X101215Y107547D01*
X102026Y109140D01*
X102579Y110840D01*
X102858Y112606D01*
Y114394D01*
X102579Y116160D01*
X102026Y117860D01*
X101215Y119453D01*
X100164Y120899D01*
X98899Y122164D01*
X97453Y123214D01*
X95860Y124026D01*
X94160Y124579D01*
X92394Y124858D01*
D02*
G37*
%LPD*%
D77*
X141000Y340000D02*
D03*
X136000Y296000D02*
D03*
X169000Y294000D02*
D03*
X298500Y369500D02*
D03*
X162000Y214500D02*
D03*
X338000Y320500D02*
D03*
X337970Y333529D02*
D03*
X268500Y355000D02*
D03*
X262500Y369500D02*
D03*
X83500Y146500D02*
D03*
D78*
X99000Y239000D02*
D03*
X98925Y195291D02*
D03*
X99000Y218500D02*
D03*
X155500Y263500D02*
D03*
D79*
X211072Y263663D02*
D03*
X205072D02*
D03*
X199072D02*
D03*
Y268663D02*
D03*
X193072Y263663D02*
D03*
Y268663D02*
D03*
X211072D02*
D03*
X217072Y263663D02*
D03*
Y273663D02*
D03*
Y268663D02*
D03*
X205072D02*
D03*
X211072Y273663D02*
D03*
X205072D02*
D03*
X193072D02*
D03*
X199072D02*
D03*
M02*
