G04*
G04 #@! TF.GenerationSoftware,Altium Limited,Altium Designer,22.7.1 (60)*
G04*
G04 Layer_Color=16711935*
%FSLAX25Y25*%
%MOIN*%
G70*
G04*
G04 #@! TF.SameCoordinates,E9EB7054-F832-478C-845A-F08F9BC20AEA*
G04*
G04*
G04 #@! TF.FilePolarity,Positive*
G04*
G01*
G75*
%ADD11C,0.00787*%
%ADD13C,0.00394*%
%ADD14C,0.00500*%
%ADD79R,0.05512X0.01139*%
D11*
X130063Y269134D02*
X129276D01*
X130063D01*
X379626Y338736D02*
X378839D01*
X379626D01*
Y315618D02*
X378839D01*
X379626D01*
D13*
X97425Y243350D02*
Y249650D01*
X100575Y243350D02*
Y249650D01*
X97425Y243350D02*
X100575D01*
X97425Y249650D02*
X100575D01*
X136925Y329350D02*
Y335650D01*
X140075Y329350D02*
Y335650D01*
X136925Y329350D02*
X140075D01*
X136925Y335650D02*
X140075D01*
X114838Y188665D02*
X117988D01*
X114838Y182366D02*
X117988D01*
Y188665D01*
X114838Y182366D02*
Y188665D01*
X119535Y182350D02*
Y188650D01*
X122685Y182350D02*
Y188650D01*
X119535Y182350D02*
X122685D01*
X119535Y188650D02*
X122685D01*
X149850Y184925D02*
Y188075D01*
X156150Y184925D02*
Y188075D01*
X149850D02*
X156150D01*
X149850Y184925D02*
X156150D01*
X149850Y179925D02*
Y183075D01*
X156150Y179925D02*
Y183075D01*
X149850D02*
X156150D01*
X149850Y179925D02*
X156150D01*
X156150Y174728D02*
Y177878D01*
X149850Y174728D02*
Y177878D01*
Y174728D02*
X156150D01*
X149850Y177878D02*
X156150D01*
X149850Y169622D02*
Y172772D01*
X156150Y169622D02*
Y172772D01*
X149850D02*
X156150D01*
X149850Y169622D02*
X156150D01*
X138850Y178075D02*
X145150D01*
X138850Y174925D02*
X145150D01*
X138850D02*
Y178075D01*
X145150Y174925D02*
Y178075D01*
X138850Y172575D02*
X145150D01*
X138850Y169425D02*
X145150D01*
X138850D02*
Y172575D01*
X145150Y169425D02*
Y172575D01*
X167595Y169425D02*
Y172575D01*
X161295Y169425D02*
Y172575D01*
Y169425D02*
X167595D01*
X161295Y172575D02*
X167595D01*
X161098Y174728D02*
Y177878D01*
X167398Y174728D02*
Y177878D01*
X161098D02*
X167398D01*
X161098Y174728D02*
X167398D01*
X113850Y174335D02*
X120150D01*
X113850Y177484D02*
X120150D01*
Y174335D02*
Y177484D01*
X113850Y174335D02*
Y177484D01*
X113850Y172500D02*
X120150D01*
X113850Y169350D02*
X120150D01*
X113850D02*
Y172500D01*
X120150Y169350D02*
Y172500D01*
X102654Y172303D02*
X108953D01*
X102654Y169153D02*
X108953D01*
X102654D02*
Y172303D01*
X108953Y169153D02*
Y172303D01*
X102850Y177484D02*
X109150D01*
X102850Y174335D02*
X109150D01*
X102850D02*
Y177484D01*
X109150Y174335D02*
Y177484D01*
X168850Y305575D02*
X175150D01*
X168850Y302425D02*
X175150D01*
X168850D02*
Y305575D01*
X175150Y302425D02*
Y305575D01*
X97350Y205421D02*
X100500D01*
X97350Y199122D02*
X100500D01*
Y205421D01*
X97350Y199122D02*
Y205421D01*
X97425Y229150D02*
X100575D01*
X97425Y222850D02*
X100575D01*
Y229150D01*
X97425Y222850D02*
Y229150D01*
X272639Y353223D02*
X278151D01*
X272639Y344759D02*
X278151D01*
Y353223D01*
X272639Y344759D02*
Y353223D01*
X168850Y300575D02*
X175150D01*
X168850Y297425D02*
X175150D01*
X168850D02*
Y300575D01*
X175150Y297425D02*
Y300575D01*
X139150Y266425D02*
Y269575D01*
X132850Y266425D02*
Y269575D01*
Y266425D02*
X139150D01*
X132850Y269575D02*
X139150D01*
X145425Y274441D02*
X148575D01*
X145425Y280740D02*
X148575D01*
X145425Y274441D02*
Y280740D01*
X148575Y274441D02*
Y280740D01*
X123425D02*
X126575D01*
X123425Y274441D02*
X126575D01*
Y280740D01*
X123425Y274441D02*
Y280740D01*
X235425Y206866D02*
X238575D01*
X235425Y213165D02*
X238575D01*
X235425Y206866D02*
Y213165D01*
X238575Y206866D02*
Y213165D01*
X229197Y206866D02*
X232347D01*
X229197Y213165D02*
X232347D01*
X229197Y206866D02*
Y213165D01*
X232347Y206866D02*
Y213165D01*
X270925Y237366D02*
X274075D01*
X270925Y243665D02*
X274075D01*
X270925Y237366D02*
Y243665D01*
X274075Y237366D02*
Y243665D01*
X253665Y230925D02*
Y234075D01*
X247366Y230925D02*
Y234075D01*
Y230925D02*
X253665D01*
X247366Y234075D02*
X253665D01*
X263925Y237366D02*
X267075D01*
X263925Y243665D02*
X267075D01*
X263925Y237366D02*
Y243665D01*
X267075Y237366D02*
Y243665D01*
X344402Y313925D02*
Y317075D01*
X338102Y313925D02*
Y317075D01*
Y313925D02*
X344402D01*
X338102Y317075D02*
X344402D01*
X338102Y340075D02*
X344402D01*
X338102Y336925D02*
X344402D01*
X338102D02*
Y340075D01*
X344402Y336925D02*
Y340075D01*
X224261Y218076D02*
Y232643D01*
X197883Y218076D02*
Y232643D01*
X224261D01*
X197883Y218076D02*
X224261D01*
X203497Y275328D02*
X206647D01*
X203497Y269029D02*
X206647D01*
Y275328D01*
X203497Y269029D02*
Y275328D01*
X197497D02*
X200647D01*
X197497Y269029D02*
X200647D01*
Y275328D01*
X197497Y269029D02*
Y275328D01*
X215497D02*
X218647D01*
X215497Y269029D02*
X218647D01*
Y275328D01*
X215497Y269029D02*
Y275328D01*
X221497D02*
X224647D01*
X221497Y269029D02*
X224647D01*
Y275328D01*
X221497Y269029D02*
Y275328D01*
X209497D02*
X212647D01*
X209497Y269029D02*
X212647D01*
Y275328D01*
X209497Y269029D02*
Y275328D01*
X293925Y325350D02*
X297075D01*
X293925Y331650D02*
X297075D01*
X293925Y325350D02*
Y331650D01*
X297075Y325350D02*
Y331650D01*
X292709Y344759D02*
Y353223D01*
X298221Y344759D02*
Y353223D01*
X292709Y344759D02*
X298221D01*
X292709Y353223D02*
X298221D01*
X282674Y344759D02*
Y353223D01*
X288186Y344759D02*
Y353223D01*
X282674Y344759D02*
X288186D01*
X282674Y353223D02*
X288186D01*
X288256Y362528D02*
Y370992D01*
X282744Y362528D02*
Y370992D01*
X288256D01*
X282744Y362528D02*
X288256D01*
X278221D02*
Y370992D01*
X272709Y362528D02*
Y370992D01*
X278221D01*
X272709Y362528D02*
X278221D01*
X153425Y219350D02*
X156575D01*
X153425Y225650D02*
X156575D01*
X153425Y219350D02*
Y225650D01*
X156575Y219350D02*
Y225650D01*
X135075Y208866D02*
Y215165D01*
X131925Y208866D02*
Y215165D01*
X135075D01*
X131925Y208866D02*
X135075D01*
X145075D02*
Y215165D01*
X141925Y208866D02*
Y215165D01*
X145075D01*
X141925Y208866D02*
X145075D01*
X140075Y209063D02*
Y215362D01*
X136925Y209063D02*
Y215362D01*
X140075D01*
X136925Y209063D02*
X140075D01*
X144402Y202425D02*
Y205575D01*
X138102Y202425D02*
Y205575D01*
Y202425D02*
X144402D01*
X138102Y205575D02*
X144402D01*
X107425Y218803D02*
X110575D01*
X107425Y225102D02*
X110575D01*
X107425Y218803D02*
Y225102D01*
X110575Y218803D02*
Y225102D01*
X157350Y255575D02*
X163650D01*
X157350Y252425D02*
X163650D01*
X157350D02*
Y255575D01*
X163650Y252425D02*
Y255575D01*
X154866Y239269D02*
X161165D01*
X154866Y236119D02*
X161165D01*
X154866D02*
Y239269D01*
X161165Y236119D02*
Y239269D01*
X154866Y234463D02*
X161165D01*
X154866Y231314D02*
X161165D01*
X154866D02*
Y234463D01*
X161165Y231314D02*
Y234463D01*
X157153Y260575D02*
X163453D01*
X157153Y257425D02*
X163453D01*
X157153D02*
Y260575D01*
X163453Y257425D02*
Y260575D01*
X154866Y249735D02*
X161165D01*
X154866Y246585D02*
X161165D01*
X154866D02*
Y249735D01*
X161165Y246585D02*
Y249735D01*
X154866Y244575D02*
X161165D01*
X154866Y241425D02*
X161165D01*
X154866D02*
Y244575D01*
X161165Y241425D02*
Y244575D01*
X143925Y259835D02*
Y266134D01*
X147075Y259835D02*
Y266134D01*
X143925Y259835D02*
X147075D01*
X143925Y266134D02*
X147075D01*
X148925Y259835D02*
Y266134D01*
X152075Y259835D02*
Y266134D01*
X148925Y259835D02*
X152075D01*
X148925Y266134D02*
X152075D01*
X316567Y355822D02*
Y358972D01*
X322866Y355822D02*
Y358972D01*
X316567D02*
X322866D01*
X316567Y355822D02*
X322866D01*
X322866Y360822D02*
Y363972D01*
X316567Y360822D02*
Y363972D01*
Y360822D02*
X322866D01*
X316567Y363972D02*
X322866D01*
X323177Y376322D02*
Y379472D01*
X316878Y376322D02*
Y379472D01*
Y376322D02*
X323177D01*
X316878Y379472D02*
X323177D01*
X329220Y353149D02*
Y364645D01*
X334338Y353149D02*
Y364645D01*
X329220D02*
X334338D01*
X329220Y353149D02*
X334338D01*
X316882Y371322D02*
Y374472D01*
X323181Y371322D02*
Y374472D01*
X316882D02*
X323181D01*
X316882Y371322D02*
X323181D01*
X329220Y368649D02*
Y380145D01*
X334338Y368649D02*
Y380145D01*
X329220D02*
X334338D01*
X329220Y368649D02*
X334338D01*
X96575Y140079D02*
Y146378D01*
X93425Y140079D02*
Y146378D01*
X96575D01*
X93425Y140079D02*
X96575D01*
X87500D02*
X90650D01*
X87500Y146378D02*
X90650D01*
X87500Y140079D02*
Y146378D01*
X90650Y140079D02*
Y146378D01*
X238350Y171496D02*
X244650D01*
X238350Y158504D02*
X244650D01*
Y171496D01*
X238350Y158504D02*
Y171496D01*
X295075Y363098D02*
Y369398D01*
X291925Y363098D02*
Y369398D01*
X295075D01*
X291925Y363098D02*
X295075D01*
X269075D02*
Y369398D01*
X265925Y363098D02*
Y369398D01*
X269075D01*
X265925Y363098D02*
X269075D01*
X284425Y325350D02*
X287575D01*
X284425Y331650D02*
X287575D01*
X284425Y325350D02*
Y331650D01*
X287575Y325350D02*
Y331650D01*
X141925Y335650D02*
X145075D01*
X141925Y329350D02*
X145075D01*
Y335650D01*
X141925Y329350D02*
Y335650D01*
X273425Y325350D02*
X276575D01*
X273425Y331650D02*
X276575D01*
X273425Y325350D02*
Y331650D01*
X276575Y325350D02*
Y331650D01*
X142134Y368425D02*
Y371575D01*
X135835Y368425D02*
Y371575D01*
Y368425D02*
X142134D01*
X135835Y371575D02*
X142134D01*
Y362425D02*
Y365575D01*
X135835Y362425D02*
Y365575D01*
Y362425D02*
X142134D01*
X135835Y365575D02*
X142134D01*
X127850Y299425D02*
Y302575D01*
X134150Y299425D02*
Y302575D01*
X127850D02*
X134150D01*
X127850Y299425D02*
X134150D01*
D14*
X142299Y272079D02*
Y281921D01*
X129701Y272079D02*
X142299D01*
X129701Y281921D02*
X142299D01*
X129701Y272079D02*
Y281921D01*
X352461Y356157D02*
X372539D01*
Y336079D02*
Y356157D01*
X352461Y336079D02*
X372539D01*
X352461D02*
Y356157D01*
Y333039D02*
X372539D01*
Y312961D02*
Y333039D01*
X352461Y312961D02*
X372539D01*
X352461D02*
Y333039D01*
D79*
X275395Y352654D02*
D03*
X295465Y352654D02*
D03*
X285430Y352654D02*
D03*
X285500Y363097D02*
D03*
X275465D02*
D03*
M02*
